<svg width="36" height="20" viewBox="0 0 36 20" fill="none" xmlns="http://www.w3.org/2000/svg">
<g clip-path="url(#clip0_559_1160)">
<path d="M5.424 18V1.272H1.728V18H5.424ZM7.43588 16.176C8.61188 17.616 10.3639 18.336 12.7159 18.336C16.2679 18.336 18.0439 16.728 18.0439 14.256C18.0439 12.648 17.0599 11.496 15.0679 10.824C13.7239 10.344 12.7159 10.176 12.2599 9.984C11.8759 9.816 11.7559 9.648 11.7559 9.336C11.7559 8.88 12.1879 8.568 12.9559 8.568C13.9879 8.568 14.8519 8.856 15.4999 9.456L17.2039 7.104C16.1239 6.072 14.7559 5.544 13.0519 5.544C11.7319 5.544 10.6279 5.88 9.71588 6.576C8.80388 7.248 8.34788 8.208 8.34788 9.432C8.34788 11.04 9.28388 12.144 11.1319 12.792C11.4919 12.912 12.0439 13.08 12.7639 13.248C13.4839 13.416 13.9639 13.584 14.2279 13.728C14.4919 13.872 14.6359 14.064 14.6359 14.304C14.6359 14.952 14.0359 15.288 12.8119 15.288C11.4439 15.288 10.1719 14.76 9.49988 13.968L7.43588 16.176ZM23.8671 18V11.352H30.5391V8.064H23.8671V4.632H31.1871V1.272H20.1711V18H23.8671Z" fill="#202020"/>
<rect x="31" y="14" width="4" height="4" fill="#8A39E1"/>
</g>
<defs>
<clipPath id="clip0_559_1160">
<rect width="36" height="20" fill="white"/>
</clipPath>
</defs>
</svg>
