<svg width="425" height="425" viewBox="0 0 425 425" fill="none" xmlns="http://www.w3.org/2000/svg">
<path d="M323.744 78.625C289.106 84.8938 262.331 107.631 252.875 138.762C251.6 143.119 250.75 148.431 250.962 150.981L251.281 155.656L274.975 155.975C293.462 156.187 298.562 155.975 298.562 154.912C298.562 154.169 299.944 150.663 301.644 147.156C308.975 131.856 325.762 123.25 342.125 126.438C360.506 129.944 370.069 142.162 364.437 154.806C361.675 161.075 359.444 163.412 345.1 175.419C338.831 180.731 330.756 188.7 327.144 193.162C316.837 205.912 310.25 221.956 310.25 233.962V239.062L334.369 238.85L358.487 238.531L359.337 233.856C360.4 227.269 364.331 222.169 375.594 212.5C391.425 198.9 402.687 186.362 407.256 177.331C426.487 139.188 404.175 93.1813 360.187 80.75C351.156 78.2 332.031 77.1375 323.744 78.625ZM360.719 82.875C373.894 87.0188 382.287 92.1187 392.169 102C405.981 115.6 412.25 130.156 412.25 148.219C412.25 162.881 407.469 176.375 398.119 188.062C395.462 191.25 386.962 199.644 379.206 206.763C362.95 221.425 358.381 226.844 357.425 232.794L356.681 236.938H334.369H312.056L312.694 229.606C314.181 211.65 325.55 194.225 347.756 175.737C366.031 160.544 370.281 153.319 367.094 142.694C365.075 135.894 358.594 129.731 349.987 126.438C344.675 124.525 342.125 124.206 333.625 124.525C324.594 124.844 322.787 125.269 316.837 128.456C308.656 132.919 303.556 138.444 299.412 147.262L296.225 154.062H274.55H252.875V149.494C252.875 135.894 265.094 113.156 278.8 101.575C289.637 92.225 305.15 84.575 319.281 81.3875C330.012 78.9437 350.837 79.6875 360.719 82.875Z" fill="#303030"/>
<path d="M360.719 82.875C373.894 87.0188 382.287 92.1187 392.169 102C405.981 115.6 412.25 130.156 412.25 148.219C412.25 162.881 407.469 176.375 398.119 188.062C395.462 191.25 386.962 199.644 379.206 206.763C362.95 221.425 358.381 226.844 357.425 232.794L356.681 236.938H334.369H312.056L312.694 229.606C314.181 211.65 325.55 194.225 347.756 175.737C366.031 160.544 370.281 153.319 367.094 142.694C365.075 135.894 358.594 129.731 349.987 126.438C344.675 124.525 342.125 124.206 333.625 124.525C324.594 124.844 322.787 125.269 316.837 128.456C308.656 132.919 303.556 138.444 299.412 147.262L296.225 154.062H274.55H252.875V149.494C252.875 135.894 265.094 113.156 278.8 101.575C289.637 92.225 305.15 84.575 319.281 81.3875C330.012 78.9437 350.837 79.6875 360.719 82.875Z" fill="#FAFAFA"/>
<path d="M209.312 105.294C179.987 128.988 171.062 136.531 172.019 136.85C172.656 137.063 178.287 133.025 184.662 127.713C190.931 122.506 201.025 114.325 207.187 109.438C213.35 104.656 218.556 100.194 218.662 99.7689C219.512 97.6439 216.856 99.2376 209.312 105.294Z" fill="#303030"/>
<path d="M69.0625 131.113C69.0625 131.963 94.775 154.062 95.7313 154.062C97.9625 154.062 95.8375 151.831 83.9375 141.525C72.8875 132.069 69.0625 129.413 69.0625 131.113Z" fill="#303030"/>
<path d="M191.25 153.531C186.894 154.381 178.606 156.4 172.762 158.206L162.35 161.287L154.806 158.631C145.456 155.337 141.206 155.656 139.825 159.587C138.975 162.137 139.188 162.987 141.844 165.75C143.544 167.45 145.244 168.937 145.669 168.937C145.987 168.937 148.219 169.681 150.45 170.637L154.487 172.337L147.262 176.162C139.187 180.412 136.531 183.494 137.487 187.531C138.337 191.038 141.525 191.675 148.75 189.762C151.937 188.912 154.594 188.275 154.7 188.381C154.806 188.487 154.594 191.462 154.381 195.075C153.85 201.344 153.744 201.45 149.175 203.894C146.625 205.275 143.862 207.4 143.012 208.781C142.056 210.269 139.931 211.437 137.275 211.862C132.706 212.5 127.5 217.387 127.5 220.894C127.5 221.956 125.588 224.719 123.356 227.162C119.319 231.412 118.787 231.625 108.694 233.113C95.2 235.131 87.55 238 81.4937 243.312C72.3562 251.388 72.25 252.131 72.25 289.319V321.938H136.531H200.812L201.025 295.694L201.344 269.556L208.462 268.069C232.475 263.181 249.475 252.237 258.081 235.981C262.969 226.737 264.562 220.044 264.562 208.781C264.456 192.525 258.187 178.394 245.544 166.6C231.944 153.744 213.775 149.494 191.25 153.531ZM220.15 155.231C235.769 158.525 249.156 169.15 256.912 184.662C265.2 201.237 265.306 216.75 257.231 233.219C252.131 243.525 244.162 252.131 241.825 249.688C241.081 248.837 234.919 241.294 228.119 233.006L215.688 218.025L217.919 212.925C220.575 207.081 220.15 201.131 216.75 194.544C212.394 185.937 200.706 180.625 186.256 180.625C172.975 180.625 169.575 183.281 164.688 197.625C162.562 204.106 161.606 205.7 159.694 205.912C155.869 206.444 154.7 201.981 156.506 193.163C157.25 189.125 157.675 185.725 157.463 185.406C157.25 185.194 155.231 185.725 153 186.575C150.875 187.425 147.05 188.275 144.394 188.381C140.675 188.594 139.719 188.169 139.4 186.681C138.763 183.706 142.481 180.413 150.875 176.375C154.912 174.356 158.312 172.444 158.312 172.019C158.312 171.594 155.762 170.425 152.787 169.363C145.031 166.919 141.1 163.944 141.525 161.075C141.95 157.781 147.05 157.675 155.444 160.862L162.562 163.519L169.681 161.075C176.056 158.95 187.85 156.081 195.5 154.806C201.131 153.85 214.731 154.062 220.15 155.231ZM200.494 184.45C217.175 189.125 223.762 210.056 211.119 218.238C205.7 221.85 191.356 225.569 174.144 227.906L169.256 228.544L168.619 222.381C168.3 218.981 167.131 213.775 166.175 210.694C164.475 205.487 164.475 204.956 166.6 197.944C167.875 194.012 169.575 189.762 170.425 188.594C171.806 186.681 172.019 186.787 173.188 191.037C175.312 199.219 181.05 202.3 184.45 197.094C185.831 194.969 185.937 193.694 184.981 189.125C184.344 186.15 183.812 183.175 183.812 182.644C183.812 181.263 192.525 182.219 200.494 184.45ZM182.112 184.344C182.431 185.194 182.962 188.275 183.387 191.25C184.025 195.713 183.812 196.669 182.219 197.2C179.35 198.369 177.119 196.35 174.994 190.612C173.187 185.725 173.187 185.406 174.887 184.131C177.437 182.219 181.369 182.431 182.112 184.344ZM156.825 212.606C157.144 213.244 156.719 214.519 155.762 215.475C154.169 217.069 153.956 217.069 152.362 215.475C150.344 213.456 151.194 211.438 154.062 211.438C155.125 211.438 156.4 211.969 156.825 212.606ZM228.331 236.194C235.45 244.906 240.869 252.45 240.55 252.981C238.531 256.381 211.331 266.688 204.531 266.688C199.006 266.688 198.688 267.962 198.688 294.95V319.812H136.531H74.375V295.694V271.681L77.775 276.781C85.85 288.894 121.444 311.525 140.037 316.2C147.687 318.112 151.831 317.581 154.912 314.181C159.694 309.081 164.9 293.25 169.469 269.875C170.425 264.881 171.381 260.1 171.7 259.25C171.912 258.294 175.206 256.275 179.031 254.575C182.856 252.875 186.469 250.644 187 249.688C189.444 245.119 185.087 242.462 177.331 243.737L173.081 244.375L175.737 240.869C178.925 236.725 179.244 234.175 176.906 231.625C175.313 229.925 175.631 229.712 180.838 229.075C190.506 227.8 203.787 224.294 209.1 221.637C211.862 220.256 214.412 219.406 214.837 219.725C215.156 220.15 221.319 227.587 228.331 236.194ZM148.431 222.275C149.069 223.019 150.875 227.694 152.469 232.688C154.062 237.681 155.55 241.825 155.656 242.037C155.869 242.25 158.313 240.763 161.181 238.744C171.594 231.306 176.375 230.244 176.375 235.344C176.375 237.044 174.462 239.487 170.531 242.887C167.344 245.65 164.9 248.094 165.113 248.306C165.325 248.519 168.194 247.987 171.487 247.031C178.5 245.012 185.406 245.225 185.406 247.562C185.406 248.519 182.219 250.644 177.862 252.769L170.212 256.487L167.875 268.175C162.562 294.95 158.206 307.912 152.894 313.012C149.812 315.987 149.706 315.987 142.694 314.819C131.431 312.8 106.462 300.05 107.737 296.862C108.056 296.012 112.519 288.575 117.513 280.5L126.65 265.731L131.963 268.387C134.938 269.875 137.7 270.725 138.125 270.194C139.506 268.6 143.438 256.913 143.438 254.469C143.438 252.875 142.162 250.963 139.825 249.156C133.131 244.056 133.875 239.275 140.781 242.569L144.5 244.375V233.431C144.5 227.375 144.819 222.062 145.244 221.744C146.306 220.681 147.262 220.894 148.431 222.275ZM167.344 232.262C165.644 233.112 162.563 235.131 160.65 236.619C156.613 239.594 156.931 239.7 155.337 235.131L154.169 231.731L159.162 231.306C161.925 231.094 165.644 230.881 167.344 230.775L170.531 230.562L167.344 232.262ZM142.375 236.831V240.975L139.081 239.806C136.212 238.637 135.681 238.744 134.3 240.55C132.175 243.525 132.281 243.844 137.062 249.05C139.4 251.6 141.312 254.362 141.312 255.319C141.312 256.275 140.356 259.569 139.188 262.756L137.062 268.494L125.587 262.862C112.944 256.806 109.438 255.425 109.438 256.912C109.438 257.444 112.519 259.144 116.344 260.844C120.169 262.438 123.569 264.138 123.887 264.669C124.419 265.625 106.887 294.844 105.081 296.013C103.7 296.863 87.975 285.387 82.7688 279.65C66.1937 261.8 75.225 241.931 102.425 236.3C108.906 234.919 125.056 233.325 138.444 232.794C142.375 232.687 142.375 232.687 142.375 236.831Z" fill="#303030"/>
<path d="M156.825 212.606C157.144 213.244 156.719 214.519 155.762 215.475C154.169 217.069 153.956 217.069 152.362 215.475C150.344 213.456 151.194 211.438 154.062 211.438C155.125 211.438 156.4 211.969 156.825 212.606Z" fill="#FAFAFA"/>
<path d="M220.15 155.231C235.769 158.525 249.156 169.15 256.912 184.662C265.2 201.237 265.306 216.75 257.231 233.219C252.131 243.525 244.162 252.131 241.825 249.688C241.081 248.837 234.919 241.294 228.119 233.006L215.688 218.025L217.919 212.925C220.575 207.081 220.15 201.131 216.75 194.544C212.394 185.937 200.706 180.625 186.256 180.625C172.975 180.625 169.575 183.281 164.688 197.625C162.562 204.106 161.606 205.7 159.694 205.912C155.869 206.444 154.7 201.981 156.506 193.163C157.25 189.125 157.675 185.725 157.463 185.406C157.25 185.194 155.231 185.725 153 186.575C150.875 187.425 147.05 188.275 144.394 188.381C140.675 188.594 139.719 188.169 139.4 186.681C138.763 183.706 142.481 180.413 150.875 176.375C154.912 174.356 158.312 172.444 158.312 172.019C158.312 171.594 155.762 170.425 152.787 169.363C145.031 166.919 141.1 163.944 141.525 161.075C141.95 157.781 147.05 157.675 155.444 160.862L162.562 163.519L169.681 161.075C176.056 158.95 187.85 156.081 195.5 154.806C201.131 153.85 214.731 154.062 220.15 155.231Z" fill="#FAFAFA"/>
<path d="M148.431 222.275C149.069 223.019 150.875 227.694 152.469 232.688C154.062 237.681 155.55 241.825 155.656 242.037C155.869 242.25 158.313 240.763 161.181 238.744C171.594 231.306 176.375 230.244 176.375 235.344C176.375 237.044 174.462 239.487 170.531 242.887C167.344 245.65 164.9 248.094 165.113 248.306C165.325 248.519 168.194 247.987 171.487 247.031C178.5 245.012 185.406 245.225 185.406 247.562C185.406 248.519 182.219 250.644 177.862 252.769L170.212 256.487L167.875 268.175C162.562 294.95 158.206 307.912 152.894 313.012C149.812 315.987 149.706 315.987 142.694 314.819C131.431 312.8 106.462 300.05 107.737 296.862C108.056 296.012 112.519 288.575 117.513 280.5L126.65 265.731L131.963 268.387C134.938 269.875 137.7 270.725 138.125 270.194C139.506 268.6 143.438 256.913 143.438 254.469C143.438 252.875 142.162 250.963 139.825 249.156C133.131 244.056 133.875 239.275 140.781 242.569L144.5 244.375V233.431C144.5 227.375 144.819 222.062 145.244 221.744C146.306 220.681 147.262 220.894 148.431 222.275Z" fill="#FAFAFA"/>
<path d="M182.112 184.344C182.431 185.194 182.962 188.275 183.387 191.25C184.025 195.713 183.812 196.669 182.219 197.2C179.35 198.369 177.119 196.35 174.994 190.612C173.187 185.725 173.187 185.406 174.887 184.131C177.437 182.219 181.369 182.431 182.112 184.344Z" fill="#FAFAFA"/>
<path d="M163.625 171.062C162.35 171.912 162.669 172.125 165.006 172.125C166.6 172.125 167.875 171.594 167.875 171.062C167.875 169.681 165.75 169.681 163.625 171.062Z" fill="#303030"/>
<path d="M165.006 180.731C162.031 181.794 161.819 183.812 164.687 183.069C166.812 182.537 168.512 180.837 167.769 180.2C167.556 179.987 166.281 180.2 165.006 180.731Z" fill="#303030"/>
<path d="M256.062 207.719C256.062 210.375 256.594 212.5 257.125 212.5C257.763 212.5 258.188 210.375 258.188 207.719C258.188 205.062 257.763 202.938 257.125 202.938C256.594 202.938 256.062 205.062 256.062 207.719Z" fill="#303030"/>
<path d="M152.788 246.075C152.256 246.5 151.938 247.775 151.938 249.05C151.938 250.538 152.256 250.856 153.106 250.006C153.744 249.369 154.062 247.988 153.85 247.031C153.744 246.075 153.213 245.65 152.788 246.075Z" fill="#303030"/>
<path d="M160.438 252.344C159.694 253.194 159.588 253.938 160.225 253.938C160.756 253.938 161.819 253.194 162.563 252.344C163.306 251.494 163.413 250.75 162.775 250.75C162.244 250.75 161.181 251.494 160.438 252.344Z" fill="#303030"/>
<path d="M145.669 310.356C144.287 310.888 143.331 311.631 143.65 311.844C144.5 312.694 150.875 311.1 150.875 310.144C150.875 308.975 148.962 309.081 145.669 310.356Z" fill="#303030"/>
<path d="M58.4375 160.438C58.4375 161.075 65.3438 161.5 77.0312 161.5C88.7188 161.5 95.625 161.075 95.625 160.438C95.625 159.8 88.7188 159.375 77.0312 159.375C65.3438 159.375 58.4375 159.8 58.4375 160.438Z" fill="#303030"/>
<path d="M81.4938 176.694C74.5875 181.475 69.4875 185.513 70.125 185.725C71.6125 186.256 95.625 170.319 95.625 168.831C95.625 167.025 94.1375 167.875 81.4938 176.694Z" fill="#303030"/>
<path d="M274.125 189.125C274.125 189.975 274.869 193.375 275.719 196.563C277.525 203.15 277.738 213.138 276.356 219.194C275.613 222.063 275.719 223.125 276.569 222.806C279.65 221.85 280.394 205.806 277.738 196.031C276.144 189.869 274.125 185.938 274.125 189.125Z" fill="#303030"/>
<path d="M281.562 188.806C281.562 189.444 282.306 193.056 283.262 196.775C284.537 201.662 284.856 206.125 284.431 213.244C284.112 218.662 284.219 223.125 284.75 223.125C287.3 223.125 287.619 203.788 285.175 195.394C283.581 189.869 281.562 186.256 281.562 188.806Z" fill="#303030"/>
<path d="M72.7812 214.837C40.9062 240.444 31.875 248.094 32.8312 248.412C33.3625 248.625 41.7562 242.356 51.2125 234.6C60.775 226.844 71.0812 218.556 74.1625 216.219C79.1562 212.394 80.9625 210.269 78.9437 210.481C78.4125 210.481 75.7562 212.394 72.7812 214.837Z" fill="#303030"/>
<path d="M19.8687 259.569L10.5187 268.281L9.88124 278.375C9.03124 291.975 10.625 347.438 11.7937 347.438C12.325 347.438 12.75 330.863 12.75 309.506V271.469L21.0375 279.756C25.5 284.219 29.6437 287.938 30.0687 287.938C30.4937 287.938 30.8125 279.544 30.8125 269.344C30.8125 259.144 30.4937 250.75 30.0687 250.75C29.5375 250.856 24.9687 254.788 19.8687 259.569ZM28.6875 269.025V284.219L21.0375 276.569L13.2812 268.813L20.7187 261.375C24.7562 257.338 28.2625 253.938 28.3687 253.938C28.5812 253.938 28.6875 260.738 28.6875 269.025Z" fill="#303030"/>
<path d="M28.6781 253.402L12.6936 268.446L28.6781 284.43V253.402Z" fill="#424DE3"/>
<path d="M285.494 251.494C285.069 251.812 284.75 273.169 284.75 298.775V345.312H332.562H380.375L380.163 298.244L379.844 251.281L332.988 250.962C307.275 250.856 285.813 251.069 285.494 251.494ZM378.25 298.562V344.25H332.562H286.875V298.562V252.875H332.562H378.25V298.562Z" fill="#303030"/>
<path d="M378.25 298.562V344.25H332.562H286.875V298.562V252.875H332.562H378.25V298.562Z" fill="#FAFAFA"/>
<path d="M34.1062 290.594C34.1062 292.188 60.4562 319.494 60.5625 318.006C60.5625 317.263 54.6125 310.569 47.2812 303.131C40.0562 295.588 34.1062 289.956 34.1062 290.594Z" fill="#303030"/>
<path d="M71.7187 324.275C71.5062 325.019 69.5937 330.119 67.4687 335.537C65.45 341.062 63.75 345.95 63.75 346.481C63.75 348.819 65.7687 346.162 67.2562 341.806C68.1062 339.362 70.0187 334.156 71.5062 330.119C73.1 326.187 73.8438 323 73.2062 323C72.675 323 71.9312 323.637 71.7187 324.275Z" fill="#FAFAFA"/>
<path d="M199.75 323.531C199.75 325.231 211.65 347.544 212.287 347.013C213.031 346.163 201.769 323 200.6 323C200.175 323 199.75 323.213 199.75 323.531Z" fill="#FAFAFA"/>
<path d="M135.469 331.713C133.237 337.663 130.687 345.844 130.687 346.8C130.687 348.925 132.494 345.738 134.512 340.213C135.575 337.238 136.744 334.688 137.169 334.688C137.594 334.688 139.506 337.556 141.525 341.063C143.437 344.569 145.35 347.438 145.775 347.438C147.156 347.438 146.837 346.8 142.162 338.406C137.806 330.544 136.425 329.163 135.469 331.713Z" fill="#FAFAFA"/>
<path d="M242.118 252.461L214.851 218.612L212.5 219.552L210.149 220.492L204.978 222.373L197.456 225.664L189.934 227.074L181.941 228.955H178.18L176.77 229.425L175.83 230.365V231.305L177.71 232.716L178.18 235.066L177.71 237.887L174.889 241.648L172.539 244.469H173.949L176.77 243.999L178.65 243.529H181.471L183.822 243.999L185.232 244.469L186.643 245.409L187.583 246.35V247.76L187.113 249.17L185.702 250.581L171.598 258.103L169.248 268.916L166.427 284.43L163.606 295.243L159.375 306.997L155.144 313.579L152.793 315.929L151.383 316.399L149.502 316.87H147.622H145.741H142.92L138.219 315.459L131.167 313.108L123.175 309.347L115.183 305.116L105.78 299.475L91.6759 289.602L86.9745 285.841L83.2135 282.08L79.4524 278.319L77.1018 275.028L74.7511 271.737H73.8108V319.69L74.7511 320.16H198.866L199.336 273.147V270.797L200.277 268.916L201.687 267.506L204.038 267.035L206.858 266.565L218.142 263.745L231.775 258.573L239.768 254.342L242.118 252.461Z" fill="#424DE3"/>
<path d="M142.45 241.178V232.716H140.1L122.705 234.126L111.892 235.066L102.489 236.477L99.198 237.417L94.4966 238.828L89.7953 240.708L83.2135 244.939L79.9225 247.76L78.042 250.581L75.6913 255.282L74.7511 259.043V263.274L75.2212 266.565L77.5719 272.207L80.3927 276.908L84.6239 281.139L93.5564 288.662L102.959 295.243L104.369 295.714L105.78 295.243L116.593 277.849L124.115 265.155L123.175 264.215L111.421 258.573L110.481 258.103L109.541 257.633L109.071 256.693L110.011 256.222H111.421L136.809 268.446L141.04 257.163V254.812L139.159 251.521L134.458 246.35L133.518 244.469L133.048 242.118L135.398 239.298H136.809L142.45 241.178Z" fill="#424DE3" stroke="#424DE3"/>
<path d="M156.554 238.827L153.733 231.775L170.658 230.365L162.666 235.536L157.965 238.827H156.554Z" fill="#424DE3" stroke="black"/>
</svg>
