<svg width="532" height="510" viewBox="0 0 532 510" fill="none" xmlns="http://www.w3.org/2000/svg">
<path fill-rule="evenodd" clip-rule="evenodd" d="M100.048 321.122C96.8625 314.525 88.985 312.92 82.31 315.682C72.535 319.732 69.3275 329.955 65.9275 339.877C64.965 342.682 51.2175 380.905 50.3925 383.19C54.32 377.51 59.1308 372.495 64.6425 368.335C75.9185 360.856 88.8439 356.231 102.305 354.857C102.018 329.907 102.385 325.965 100.048 321.122ZM89.0051 346.005C91.0911 345.67 93.0158 344.679 94.5 343.175C96.0531 341.415 96.93 339.161 96.974 336.814C97.0179 334.467 96.2261 332.182 94.74 330.365C93.8587 329.152 92.7099 328.158 91.3827 327.461C90.0556 326.764 88.5856 326.381 87.0869 326.343C85.5881 326.306 84.1007 326.613 82.7401 327.243C81.3794 327.872 80.1819 328.807 79.2405 329.974C78.2991 331.14 77.639 332.508 77.3114 333.971C76.9838 335.434 76.9974 336.953 77.3513 338.41C77.7051 339.867 78.3897 341.223 79.352 342.373C80.3142 343.522 81.5282 344.435 82.9 345.04C84.7807 346.003 86.9192 346.341 89.0051 346.005Z" fill="#303030"/>
<path d="M177.345 407.56C176.895 407.993 160.548 423.688 153.013 430.873C152.841 431.035 152.614 431.126 152.378 431.126C152.141 431.126 151.914 431.035 151.743 430.873L151.66 430.8C151.41 430.585 124.218 406.145 106.643 390.358C106.476 390.188 106.382 389.959 106.382 389.721C106.382 389.483 106.476 389.255 106.643 389.085L136.593 361.818C126.255 355.745 114.187 353.295 102.3 354.858C88.8398 356.235 75.9153 360.86 64.6375 368.335C45.7075 382.04 32.6375 413.085 31.32 436.775C31.3226 437.012 31.418 437.239 31.5858 437.407C31.7535 437.575 31.9803 437.67 32.2175 437.673H182.338C182.575 437.67 182.801 437.575 182.969 437.407C183.137 437.239 183.232 437.012 183.235 436.775C183.35 427.55 181.695 415.57 177.345 407.56ZM53.9675 425.088C71.3256 414.741 87.8867 403.113 103.513 390.3C104.4 389.573 105.678 390.838 104.783 391.57C89.1082 404.572 72.4191 416.299 54.875 426.64C54.6699 426.748 54.4309 426.773 54.208 426.709C53.985 426.646 53.7952 426.498 53.6782 426.298C53.5612 426.098 53.526 425.86 53.5799 425.635C53.6338 425.409 53.7726 425.213 53.9675 425.088V425.088ZM146.718 437.25C145.863 438.028 144.59 436.75 145.448 435.98L149.565 432.23C150.42 431.455 151.693 432.73 150.835 433.503L146.718 437.25Z" fill="#FEFEFE"/>
<path d="M94.75 330.365C93.8687 329.152 92.7199 328.159 91.3927 327.461C90.0656 326.764 88.5956 326.381 87.0969 326.343C85.5981 326.306 84.1107 326.613 82.7501 327.243C81.3894 327.872 80.1919 328.807 79.2505 329.974C78.3091 331.14 77.649 332.508 77.3214 333.971C76.9938 335.434 77.0074 336.953 77.3613 338.41C77.7151 339.867 78.3997 341.223 79.362 342.373C80.3242 343.522 81.5382 344.435 82.91 345.04C84.8805 346.118 87.1669 346.469 89.3698 346.032C91.5728 345.595 93.5523 344.398 94.9626 342.65C96.3728 340.902 97.1241 338.715 97.0853 336.469C97.0464 334.224 96.2199 332.063 94.75 330.365Z" fill="#FEFEFE"/>
<path d="M328.393 215.907C328.39 215.773 328.357 215.641 328.295 215.521C328.234 215.401 328.146 215.297 328.038 215.217C328.149 215.308 328.238 215.424 328.296 215.555C328.354 215.687 328.38 215.831 328.371 215.974C328.362 216.118 328.319 216.257 328.245 216.381C328.172 216.504 328.07 216.609 327.948 216.685C323.388 219.497 274.643 248.685 253.663 262.052C253.183 262.355 252.783 262.075 251.973 261.647C248.685 259.897 166.055 216.685 166.055 216.685C165.923 216.626 165.811 216.531 165.732 216.41C165.654 216.29 165.611 216.149 165.61 216.005C165.61 323.84 165.48 315.925 165.873 315.607C166.39 315.197 201.43 285.925 204.623 283.195C205.5 282.445 206.775 283.715 205.895 284.465C204.768 285.425 167.765 316.377 167.145 316.88C167.032 316.968 166.901 317.03 166.762 317.061C166.622 317.093 166.478 317.094 166.338 317.064C166.198 317.034 166.066 316.974 165.952 316.888C165.838 316.801 165.744 316.691 165.678 316.565C165.744 316.732 165.858 316.876 166.005 316.979C166.153 317.082 166.328 317.139 166.507 317.142H185.663L223.608 282.595C225.693 280.454 228.312 278.91 231.195 278.122C232.512 277.759 233.919 277.912 235.127 278.551C236.336 279.19 237.254 280.266 237.695 281.56C237.965 283.035 237.923 284.551 237.57 286.009C237.218 287.466 236.562 288.834 235.648 290.022C231.582 296.619 226.803 302.748 221.398 308.3C228.365 305.647 235.283 309.957 233.673 317.142H327.453C326.26 316.892 321.635 311.392 287.308 284.55C286.395 283.837 287.675 282.575 288.578 283.277C299.975 292.172 317.36 306.055 328.143 315.607C328.297 315.743 328.396 315.931 328.423 316.135C329.533 316 328.65 239.302 328.393 215.907Z" fill="#303030"/>
<path d="M238.883 322.645C236.014 322.328 233.111 322.689 230.408 323.7C232.366 321.319 233.577 318.412 233.888 315.345C234.083 309.035 227.483 305.978 221.388 308.3C226.792 302.748 231.571 296.618 235.638 290.023C236.552 288.834 237.208 287.467 237.56 286.009C237.913 284.551 237.955 283.035 237.685 281.56C237.244 280.266 236.326 279.19 235.117 278.551C233.909 277.912 232.502 277.759 231.185 278.123C228.302 278.91 225.682 280.454 223.598 282.595L106.633 389.095C106.466 389.265 106.372 389.493 106.372 389.731C106.372 389.969 106.466 390.198 106.633 390.368L151.75 430.873C151.921 431.035 152.149 431.126 152.385 431.126C152.621 431.126 152.849 431.035 153.02 430.873C194.695 391.048 205.77 379.65 217.75 367.198C229.025 355.468 238.878 345.833 243.855 331.835C244.218 330.909 244.374 329.914 244.313 328.921C244.252 327.929 243.975 326.961 243.502 326.086C243.028 325.211 242.37 324.45 241.572 323.856C240.774 323.261 239.856 322.848 238.883 322.645ZM204.658 321.54L210.705 315.608C211.53 314.798 212.803 316.068 211.975 316.88L205.928 322.81C205.1 323.623 203.83 322.353 204.658 321.54V321.54ZM216.825 332.25L222.633 327.53C223.523 326.808 224.803 328.073 223.903 328.8L218.098 333.52C217.208 334.25 215.928 332.985 216.825 332.25ZM173.055 394.353C169.918 396.934 166.863 399.609 163.888 402.378C163.043 403.165 161.77 401.898 162.618 401.108C165.591 398.341 168.646 395.666 171.783 393.083C172.67 392.353 173.948 393.618 173.055 394.353Z" fill="#FEFEFE"/>
<path d="M327.38 215C327.115 215.037 259.222 256.532 253.185 260.227L166.962 215.132C165.882 214.572 165.087 216.185 166.055 216.685C255.93 263.185 252.77 262.645 253.662 262.052L327.947 216.685C328.128 216.58 328.267 216.416 328.34 216.22C328.414 216.024 328.418 215.809 328.351 215.611C328.284 215.413 328.151 215.244 327.974 215.133C327.797 215.021 327.587 214.974 327.38 215V215Z" fill="#FEFEFE"/>
<path d="M213.97 207.072H283.855C284.085 207.06 284.302 206.96 284.461 206.793C284.619 206.626 284.708 206.404 284.708 206.174C284.708 205.943 284.619 205.721 284.461 205.554C284.302 205.387 284.085 205.287 283.855 205.275H213.97C213.74 205.287 213.523 205.387 213.364 205.554C213.206 205.721 213.117 205.943 213.117 206.174C213.117 206.404 213.206 206.626 213.364 206.793C213.523 206.96 213.74 207.06 213.97 207.072V207.072Z" fill="#FEFEFE"/>
<path d="M283.855 228.793C284.085 228.78 284.302 228.68 284.461 228.513C284.619 228.346 284.708 228.124 284.708 227.894C284.708 227.663 284.619 227.442 284.461 227.274C284.302 227.107 284.085 227.007 283.855 226.995H213.97C213.74 227.007 213.523 227.107 213.364 227.274C213.206 227.442 213.117 227.663 213.117 227.894C213.117 228.124 213.206 228.346 213.364 228.513C213.523 228.68 213.74 228.78 213.97 228.793H283.855Z" fill="#FEFEFE"/>
<path d="M224.953 166.64C225.183 166.628 225.399 166.528 225.558 166.36C225.717 166.193 225.805 165.972 225.805 165.741C225.805 165.511 225.717 165.289 225.558 165.122C225.399 164.954 225.183 164.854 224.953 164.842H155.278C155.047 164.854 154.831 164.954 154.672 165.122C154.513 165.289 154.425 165.511 154.425 165.741C154.425 165.972 154.513 166.193 154.672 166.36C154.831 166.528 155.047 166.628 155.278 166.64H224.953Z" fill="#FEFEFE"/>
<path d="M155.278 147.17H224.953C225.191 147.17 225.419 147.075 225.587 146.907C225.755 146.739 225.85 146.511 225.85 146.272C225.85 146.034 225.755 145.806 225.587 145.638C225.419 145.47 225.191 145.375 224.953 145.375H155.278C155.039 145.375 154.811 145.47 154.643 145.638C154.475 145.806 154.38 146.034 154.38 146.272C154.38 146.511 154.475 146.739 154.643 146.907C154.811 147.075 155.039 147.17 155.278 147.17V147.17Z" fill="#FEFEFE"/>
<path d="M167.145 316.88C167.778 316.38 204.78 285.425 205.895 284.465C206.775 283.715 205.5 282.45 204.623 283.195C201.418 285.925 166.373 315.195 165.873 315.607C165 316.3 166.225 317.605 167.145 316.88Z" fill="#FEFEFE"/>
<path d="M288.565 283.277C287.665 282.575 286.383 283.837 287.295 284.55C295.257 290.765 316.615 307.77 326.86 316.88C326.952 316.961 327.059 317.023 327.176 317.062C327.292 317.101 327.414 317.117 327.537 317.109C327.659 317.101 327.779 317.069 327.889 317.015C327.999 316.96 328.097 316.885 328.177 316.792C328.252 316.711 328.31 316.617 328.349 316.513C328.387 316.41 328.404 316.3 328.4 316.19C328.395 316.08 328.369 315.972 328.323 315.872C328.277 315.772 328.211 315.682 328.13 315.607C319.23 307.527 298.15 290.767 288.565 283.277Z" fill="#FEFEFE"/>
<path d="M327.048 215C326.025 214.98 322.033 215 309.548 215C309.662 209.34 309.381 203.68 308.705 198.06C307.875 192.152 305.048 185.76 298.523 184.625C293.685 183.782 254.368 184.195 253.628 184.285C253.543 184.035 251.503 182.247 250.755 172.555C250.434 168.305 250.356 164.041 250.52 159.782C250.975 147.065 247.098 129.127 236.368 122.247C231.405 119.065 227.118 118.892 220.415 119.092C218.165 119.162 94.755 119.157 93.12 119.157C84.585 119.157 75.37 121.107 69.755 128.062C63.1525 136.23 63.31 147.602 62.81 157.407C62.75 158.562 64.56 158.56 64.6075 157.407C64.6371 151.249 65.2541 145.107 66.45 139.065C67.0728 135.825 68.4306 132.771 70.4192 130.138C72.4077 127.505 74.9738 125.363 77.92 123.877C82.6862 121.721 87.894 120.72 93.12 120.955H104.918C113.06 121.455 119.038 124.855 123.125 133.65C131.43 151.52 124.545 172.797 138.745 187.79C142.512 191.788 147.645 194.223 153.125 194.61C158.828 194.985 163.453 191.825 168.213 189.132C170.435 187.688 172.938 186.732 175.558 186.327C176.76 186.209 177.974 186.348 179.119 186.736C180.264 187.124 181.312 187.752 182.195 188.577C186.993 193.077 187.143 201.447 187.28 215.012H166.693C167.823 215.537 174.285 218.975 189.275 226.81C189.095 219.597 189.008 212.382 188.828 205.17C188.655 198.275 187.765 190.11 182.053 186.297C223.38 186.262 297.568 186.08 299.713 186.775C305.913 188.79 307.388 197.992 307.485 204.542C307.563 209.875 308.048 226.58 308.045 226.735C329.21 213.792 327.695 215.022 327.048 215ZM159.38 191.812C149.715 195.482 137.38 188.725 133.04 174.462C129.125 161.64 130.59 147.772 125.725 135.212C124.749 132.107 123.14 129.238 121 126.785C118.86 124.333 116.235 122.35 113.29 120.962C113.29 120.962 221.54 120.847 225.45 120.907C237.45 121.095 243.083 129.877 246.475 141.407C249.975 153.31 248.348 160.565 248.788 169.752C248.722 174.761 249.657 179.732 251.538 184.375C189.038 184.497 178.498 184.477 176.663 184.502C169.598 184.605 165.545 189.472 159.38 191.812Z" fill="#EAEAEA"/>
<path d="M129.705 235.5L113.982 219.027C113.182 218.187 111.912 219.46 112.71 220.297L128.435 236.77C129.235 237.597 130.5 236.327 129.705 235.5Z" fill="#FEFEFE"/>
<path d="M105.858 268.472H129.82C130.05 268.46 130.267 268.36 130.426 268.193C130.584 268.026 130.673 267.804 130.673 267.574C130.673 267.343 130.584 267.121 130.426 266.954C130.267 266.787 130.05 266.687 129.82 266.675H105.858C105.627 266.687 105.411 266.787 105.252 266.954C105.093 267.121 105.005 267.343 105.005 267.574C105.005 267.804 105.093 268.026 105.252 268.193C105.411 268.36 105.627 268.46 105.858 268.472V268.472Z" fill="#FEFEFE"/>
<path d="M116.228 313.135L131.953 297.41C132.107 297.239 132.191 297.014 132.185 296.783C132.179 296.552 132.084 296.332 131.921 296.169C131.757 296.006 131.537 295.912 131.306 295.907C131.075 295.901 130.851 295.985 130.68 296.14L114.958 311.865C114.789 312.033 114.694 312.262 114.694 312.5C114.694 312.738 114.789 312.966 114.958 313.135C115.126 313.303 115.354 313.398 115.593 313.398C115.831 313.398 116.059 313.303 116.228 313.135Z" fill="#FEFEFE"/>
<path d="M103.512 390.3C87.8793 403.104 71.319 414.731 53.9675 425.088C53.7726 425.213 53.6337 425.409 53.5799 425.635C53.526 425.86 53.5612 426.098 53.6782 426.298C53.7952 426.498 53.985 426.646 54.208 426.709C54.4309 426.773 54.6699 426.748 54.875 426.64C72.4173 416.296 89.1061 404.569 104.782 391.57C105.677 390.838 104.4 389.573 103.512 390.3Z" fill="#FEFEFE"/>
<path d="M149.565 432.235L145.448 435.985C144.59 436.765 145.863 438.033 146.718 437.255L150.835 433.505C151.693 432.728 150.42 431.46 149.565 432.235Z" fill="#FEFEFE"/>
<path d="M210.705 315.607L204.657 321.54C203.83 322.352 205.1 323.622 205.928 322.81L211.975 316.88C212.803 316.067 211.53 314.797 210.705 315.607Z" fill="#FEFEFE"/>
<path d="M222.633 327.537L216.825 332.25C215.928 332.977 217.208 334.25 218.098 333.52L223.903 328.8C224.803 328.08 223.523 326.815 222.633 327.537Z" fill="#FEFEFE"/>
<path d="M30.4275 399.13C30.3259 399.07 30.2134 399.031 30.0965 399.014C29.9796 398.998 29.8606 399.005 29.7464 399.035C29.6323 399.065 29.5252 399.118 29.4314 399.189C29.3376 399.261 29.259 399.35 29.2 399.453L20.7 419.553C20.5863 419.76 20.5564 420.003 20.6164 420.232C20.6764 420.461 20.8217 420.658 21.0225 420.783C21.2284 420.903 21.4736 420.936 21.7042 420.876C21.9348 420.815 22.132 420.666 22.2525 420.46L30.7525 400.358C30.8664 400.15 30.8962 399.907 30.8357 399.679C30.7752 399.45 30.629 399.254 30.4275 399.13Z" fill="#FEFEFE"/>
<path d="M23.3875 397.285L12.5975 420.355C12.11 421.395 13.6575 422.31 14.1475 421.262L24.9375 398.192C25.425 397.152 23.8775 396.25 23.3875 397.285Z" fill="#FEFEFE"/>
<path d="M32.0046 436.182L31.8886 437.033L32.6857 436.714L35.7213 435.5H53.125H53.5816L53.6229 435.045L54.2479 428.17L54.25 428.148V428.125V427.5V427.293L54.1035 427.146L53.625 426.668V426.25V425.27L71.524 413.543L71.5241 413.543L71.5346 413.536L79.6596 407.911L79.6597 407.911L79.6691 407.904L86.5441 402.904L86.5441 402.904L86.5525 402.898L102.165 391.032L103.901 389.875H104.691L105.125 390.743V391.641L101.56 394.611L92.8226 401.477L83.4609 408.342L71.6032 416.455L60.3642 423.323L60.36 423.326L55.36 426.451L55.3117 426.481L55.2714 426.521L54.6464 427.146L54.5169 427.276L54.5017 427.458L53.8767 434.958L53.8316 435.5H54.375H141.875H145.625H145.832L145.979 435.354L149.046 432.286L150 431.809L150.954 432.286L151.267 432.599L150.839 433.454L150.271 434.021L149.021 435.271L148.144 436.149L149.385 436.125L181.885 435.5L182.456 435.489L182.369 434.924L181.119 426.799L181.118 426.79L181.116 426.781L178.616 413.656L178.601 413.574L178.559 413.502L176.059 409.127L175.743 408.575L175.281 409.012L152.492 430.569L108.46 390.879L108.317 390.75H108.125H107.375V388.975L135.332 364.124L135.852 363.661L135.248 363.316L130.873 360.816L130.847 360.801L130.819 360.789L118.944 355.789L118.851 355.75H118.75H103.75H103.706L103.662 355.758L86.1621 358.883L86.0947 358.895L86.0331 358.924L69.1581 367.049L69.0904 367.082L69.0353 367.133L52.1603 382.758L52.1089 382.806L52.0726 382.866L41.4476 400.366L41.4195 400.412L41.402 400.463L33.902 422.338L33.8862 422.384L33.8796 422.432L32.0046 436.182Z" fill="#424DE3" stroke="#424DE3"/>
<path d="M238.915 322.333C236.336 322.051 233.726 322.307 231.25 323.083C232.44 321.368 233.336 319.467 233.9 317.458H327.5C327.732 317.457 327.959 317.388 328.152 317.26C328.346 317.131 328.497 316.949 328.588 316.735C328.78 316.485 328.705 316.763 328.705 262.485H374.835C375.154 262.482 375.459 262.354 375.684 262.129C375.91 261.903 376.039 261.599 376.043 261.28C376.043 261.28 376.293 250.05 376.34 244.758C396.305 245.4 423.47 242.22 421.975 222.323C421.263 212.883 417.523 203.073 410.535 192.323C409.683 191.01 403.99 182.523 402.418 180.88C404.249 179.364 405.808 177.547 407.03 175.508C410.53 169.733 406.09 163.193 400.53 164.448C401.136 163.078 401.375 161.574 401.225 160.084C401.074 158.594 400.538 157.168 399.67 155.948C398.832 154.914 397.782 154.072 396.593 153.476C395.403 152.88 394.1 152.545 392.77 152.493C393.458 151.45 393.924 150.278 394.139 149.048C394.354 147.818 394.315 146.557 394.022 145.343C393.73 144.129 393.191 142.988 392.44 141.991C391.688 140.994 390.739 140.163 389.653 139.548C387.167 138.215 384.255 137.924 381.555 138.738V105.373C460.208 155.85 459.42 155.538 459.82 155.23C460.004 155.212 460.18 155.145 460.329 155.037C460.478 154.928 460.596 154.782 460.67 154.613C468.719 136.785 473.05 117.503 473.397 97.9459C473.745 78.3884 470.103 58.9652 462.693 40.8626C462.53 40.5827 462.266 40.3766 461.955 40.2876C461.644 40.1985 461.311 40.2335 461.025 40.3851C445.95 47.7351 389.19 81.7376 369.143 94.8851C368.945 95.0151 368.82 95.0751 368.743 95.6751C368.54 97.2326 368.658 102.425 368.648 121.848C368.028 120.634 366.97 119.701 365.688 119.239C364.406 118.777 362.996 118.821 361.745 119.36C360.877 119.918 360.145 120.663 359.601 121.54C359.057 122.417 358.716 123.404 358.603 124.43C357.488 130.818 357.175 142.043 357.675 157.803C350.182 150.898 340.938 146.182 330.95 144.17C319.815 141.564 308.139 142.569 297.613 147.038C284.03 152.89 273.595 161.363 266.84 183.635C263.808 183.695 255.183 183.918 253.788 183.983C252.006 180.435 251.079 176.52 251.08 172.55C250.763 168.308 250.685 164.051 250.848 159.8C251.33 146.318 247.065 128.733 236.55 121.993C231.425 118.705 227.035 118.59 220.42 118.788C219.515 118.818 93.135 118.853 93.135 118.853C82.3075 118.853 74.3625 121.89 69.5275 127.875C62.9525 136 63.0275 147.188 62.5 157.4C62.4175 158.968 64.8425 159 64.92 157.433C65.395 148.183 65.26 138.183 70.5075 130.563C76.12 122.41 86.6575 121.24 92.4025 121.288C104.263 121.363 106.003 120.885 110.783 122.288C113.495 123.237 115.974 124.753 118.053 126.736C120.133 128.719 121.766 131.123 122.843 133.788C128.403 145.75 127.093 159.5 130.173 172.193C132.698 182.62 140.048 194.068 153.105 194.93C158.898 195.3 163.605 192.103 168.388 189.403C170.564 187.982 173.02 187.044 175.59 186.653C176.747 186.535 177.916 186.667 179.019 187.038C180.121 187.409 181.132 188.012 181.983 188.805C185.405 192.008 186.233 197.415 186.555 201.77C186.893 206.213 186.935 210.888 186.963 214.7H166.5C166.203 214.712 165.92 214.83 165.702 215.032C165.484 215.234 165.345 215.507 165.31 215.803C165.31 215.875 165.295 215.885 165.295 315.968C165.261 316.148 165.267 316.333 165.312 316.511C165.357 316.689 165.44 316.855 165.555 316.997C165.67 317.14 165.815 317.256 165.98 317.337C166.144 317.418 166.324 317.463 166.508 317.468H184.853L136.553 361.44C126.309 355.458 114.375 353.027 102.608 354.525C102.358 331.383 102.743 326.005 100.325 320.998C96.865 313.83 88.575 312.748 82.1875 315.408C72.605 319.378 69.23 329.255 65.965 338.808C65.965 338.808 50.94 380.763 50.11 383.058C39.0756 398.946 32.4788 417.49 31 436.778C31.0052 437.097 31.1344 437.401 31.3603 437.627C31.5861 437.852 31.8909 437.981 32.21 437.985H182.338C182.657 437.981 182.962 437.853 183.188 437.627C183.414 437.402 183.543 437.097 183.548 436.778C183.655 428.133 182.183 415.973 177.733 407.62C196.718 389.28 207.023 378.77 220.005 365.298C230.435 354.47 239.453 345.13 244.143 331.94C244.522 330.97 244.684 329.928 244.619 328.888C244.553 327.849 244.261 326.836 243.763 325.92C243.265 325.005 242.574 324.21 241.736 323.59C240.899 322.97 239.936 322.541 238.915 322.333ZM171.473 217.12H187C187.02 218.96 187.1 223.513 187.14 225.333C185.59 224.528 173.423 218.14 171.473 217.12ZM151.045 433.75C152.205 432.695 150.52 430.965 149.355 432.018L145.44 435.575C139.59 435.575 40.345 435.5 33.535 435.548C35.43 411.198 49.445 379.2 69.76 367.52C88.26 356.883 115.448 351.445 134.693 363.138L106.418 388.888C106.193 389.119 106.069 389.43 106.072 389.752C106.075 390.074 106.204 390.382 106.433 390.61C108.098 392.11 151.48 431.075 151.53 431.11C151.761 431.324 152.065 431.444 152.38 431.444C152.695 431.444 152.999 431.324 153.23 431.11C160.16 424.485 173.7 411.515 175.908 409.398C179.473 417.657 181.241 426.58 181.095 435.575H149.038L151.045 433.75ZM109.113 389.685C109.113 389.685 223.47 285.528 225.685 283.558C227.541 281.586 230.042 280.344 232.735 280.058C235.5 280.058 236.378 282.895 235.53 285.308C235.032 286.739 234.368 288.107 233.553 289.385C228.138 298.088 221.471 305.946 213.765 312.705C212.583 313.75 214.225 315.398 215.435 314.455C218.435 312.115 222.565 308.913 227.138 309.743C228.012 309.888 228.841 310.235 229.559 310.755C230.276 311.276 230.863 311.956 231.273 312.743C231.601 313.635 231.751 314.584 231.711 315.534C231.672 316.485 231.444 317.418 231.043 318.28C230.016 320.574 228.663 322.707 227.028 324.615C226.85 324.809 226.74 325.055 226.714 325.317C226.687 325.579 226.747 325.842 226.883 326.067C227.019 326.292 227.224 326.467 227.468 326.566C227.711 326.665 227.981 326.682 228.235 326.615C232.408 325.255 238.918 322.77 241.415 326.593C241.795 327.2 242.042 327.881 242.14 328.591C242.238 329.3 242.184 330.023 241.983 330.71C241.372 332.826 240.546 334.873 239.518 336.82C233.988 347.663 226.075 355.468 217.128 364.783C204.765 377.653 191.378 391.353 152.353 428.578C149.185 425.75 112.553 392.785 109.113 389.685ZM328.285 215.013C327.765 214.548 329.235 214.698 309.855 214.698C309.935 209.128 309.657 203.559 309.025 198.025C308.51 194.363 306.463 185.698 298.585 184.325C292.138 183.203 275.995 183.463 269.393 183.575C275.1 165.27 284.698 152.44 305.393 146.853C312.959 145.009 320.825 144.753 328.495 146.1C336.165 147.447 343.473 150.368 349.958 154.68C358.1 159.97 363.23 167.54 366.59 179.228C374.275 205.943 374.305 233.798 373.653 260.058H328.705V215.898C328.698 215.729 328.658 215.564 328.585 215.412C328.513 215.26 328.411 215.124 328.285 215.013ZM309.918 217.12H323.188L310.118 225.103C310.118 224.618 310.085 223.52 309.918 217.12ZM287.103 284.795C293.523 289.795 313.94 306.033 324.275 315.045H234.203C234.183 309.155 228.335 306.063 222.47 307.635C227.544 302.306 232.048 296.463 235.91 290.2C238.085 286.653 238.765 283.798 237.988 281.473C237.522 280.104 236.551 278.964 235.273 278.288C233.995 277.611 232.507 277.448 231.113 277.833C228.182 278.632 225.518 280.202 223.398 282.378L187.515 315.033H169.895C176.833 309.348 204.823 285.8 206.11 284.705C207.313 283.68 205.61 281.955 204.433 282.955C201.063 285.825 172.565 309.705 167.72 313.688V217.908C254.618 263.378 252.145 262.123 252.688 262.33C252.861 262.434 253.059 262.487 253.261 262.485C253.463 262.482 253.66 262.423 253.83 262.315C259.293 258.838 324.265 219.315 326.283 218.083V313.568C316.533 304.99 298.198 290.408 288.758 283.033C287.53 282.07 285.865 283.83 287.103 284.795ZM307.173 204.545C307.235 208.825 307.723 226.295 307.73 226.56C306.21 227.488 256.26 257.915 253.155 259.883L189.583 226.615C189.053 205.053 189.783 197.33 186.243 190.525C185.449 189.006 184.345 187.671 183 186.608C303.85 186.5 296.48 186.04 299.605 187.07C306.235 189.22 307.105 200 307.173 204.545ZM452.138 79.8376C456.927 85.5902 459.752 92.7232 460.2 100.195C459.799 108.305 456.906 116.094 451.915 122.5C449.919 108.344 449.994 93.9723 452.138 79.8376ZM462.323 95.4026C461.176 88.2781 457.756 81.7156 452.573 76.6951C454.138 65.6235 457.164 54.8084 461.573 44.5326C474.695 78.9003 474.016 117.012 459.678 150.89C456.513 142.759 454.093 134.357 452.448 125.788C458.425 118.538 464.135 106.788 462.323 95.4026ZM447.985 101.985C447.86 118.759 450.964 135.4 457.13 151L380.955 102.108C380.681 101.948 380.355 101.902 380.048 101.981C379.74 102.059 379.476 102.256 379.313 102.528C379.063 102.778 379.128 102.32 379.128 139.698C378.653 139.948 371.305 145.248 371.053 145.433C371.053 139.7 371.053 101.345 371.053 96.5426C386.878 87.3351 445.028 50.9451 459.19 43.9726C451.789 62.4183 447.985 82.1099 447.985 101.985ZM387.335 186.058C385.796 186.444 384.178 186.383 382.673 185.883C381.915 185.616 381.277 185.09 380.87 184.397C380.464 183.705 380.315 182.891 380.45 182.1C381.079 179.909 382.475 178.017 384.383 176.77C388.493 173.44 387.438 174.338 398.045 168.105C398.867 167.433 399.859 167.002 400.911 166.862C401.963 166.721 403.033 166.875 404.003 167.308C411.205 173.298 396.5 183.86 387.335 186.058ZM396.63 166.128C395.473 166.805 389.048 170.49 387.038 171.725C384.849 173.079 382.449 174.058 379.938 174.62C377.865 175.09 375.52 175.633 373.96 174.098C372.815 172.752 372.216 171.026 372.281 169.261C372.346 167.495 373.07 165.818 374.31 164.56C379.343 159.255 384 158.373 389.395 155.483C390.805 154.717 392.448 154.503 394.007 154.882C395.566 155.26 396.928 156.204 397.83 157.531C398.731 158.858 399.108 160.472 398.886 162.06C398.665 163.649 397.86 165.099 396.63 166.128ZM388.213 153.378C385.255 154.955 382.123 156.19 379.108 157.763C376.975 159.022 374.596 159.808 372.133 160.068C371.207 160.175 370.268 160.059 369.396 159.73C368.524 159.402 367.743 158.869 367.118 158.178C366.573 157.289 366.298 156.262 366.326 155.22C366.355 154.178 366.685 153.167 367.278 152.31C368.59 150.405 370.278 148.789 372.238 147.56C379.923 141.98 379.765 141.935 382.145 141.038C383.816 140.479 385.628 140.513 387.277 141.135C388.925 141.756 390.309 142.927 391.195 144.45C391.953 146.034 392.066 147.85 391.51 149.515C390.953 151.18 389.771 152.563 388.213 153.373V153.378ZM368.63 147.29C360.073 154.07 364.13 163.453 372.98 162.435C371.222 164.047 370.123 166.253 369.898 168.628C369.672 171.002 370.334 173.376 371.758 175.29C373.918 177.943 377.225 177.768 380.613 176.96C375.1 182.925 379.068 189.06 385.35 188.71C387.206 188.614 389.035 188.226 390.77 187.56C394.23 186.266 397.503 184.52 400.505 182.368C402.817 185.122 404.927 188.04 406.82 191.098C411.343 197.384 414.94 204.288 417.5 211.598C418.628 215.095 419.317 218.718 419.553 222.385C421.053 240.548 394.618 242.818 376.34 242.345C376.674 223.533 374.858 204.745 370.928 186.345C369 177.845 366.218 168.163 360.178 160.628C359.928 153.758 359.595 140.933 360.228 131.413C360.242 128.74 360.622 126.082 361.358 123.513C362.425 120.555 365.065 120.68 366.608 123.075C367.197 125.317 367.584 127.607 367.763 129.918C368.604 135.666 368.895 141.482 368.63 147.285V147.29ZM251.053 184.068C227.178 184.113 181.553 184.168 178.398 184.195C168.225 184.28 166.913 188.618 159.27 191.52C157.15 192.279 154.895 192.59 152.649 192.434C150.403 192.278 148.213 191.659 146.218 190.615C143.081 188.922 140.321 186.608 138.107 183.814C135.893 181.021 134.27 177.806 133.338 174.365C129.435 161.58 130.9 147.705 126.018 135.088C124.126 129.226 120.094 124.294 114.725 121.275C127.565 121.275 221.818 121.165 225.445 121.223C235.695 121.383 242.095 127.635 246.175 141.498C248.026 147.923 248.795 154.612 248.45 161.29C248.353 168.71 248.235 177.9 251.053 184.068ZM71.065 331.71C72.4639 328.023 74.53 324.624 77.16 321.685C81.4275 317.038 89.1 314.77 94.695 318.11C96.1644 319.139 97.3726 320.498 98.223 322.078C99.0733 323.658 99.5424 325.414 99.5925 327.208C99.9825 330.353 99.9525 332.123 100.193 354.768C90.8451 355.997 81.7609 358.743 73.2975 362.898C66.2007 366.204 59.9097 371.017 54.8625 377.003C65.0525 348.803 70.3175 333.615 71.065 331.71Z" fill="#303030"/>
<path d="M307.173 204.545C307.235 208.825 307.723 226.295 307.73 226.56C306.21 227.488 256.26 257.915 253.155 259.883L189.583 226.615C189.053 205.053 189.783 197.33 186.243 190.525C185.449 189.006 184.345 187.671 183 186.608C303.85 186.5 296.48 186.04 299.605 187.07C306.235 189.22 307.105 200 307.173 204.545Z" fill="#FAFAFA"/>
<path d="M251.053 184.068C227.178 184.113 181.553 184.168 178.398 184.195C168.225 184.28 166.913 188.618 159.27 191.52C157.15 192.279 154.895 192.59 152.649 192.434C150.403 192.278 148.213 191.659 146.218 190.615C143.081 188.922 140.321 186.608 138.107 183.814C135.893 181.021 134.27 177.806 133.338 174.365C129.435 161.58 130.9 147.705 126.018 135.088C124.126 129.226 120.094 124.294 114.725 121.275C127.565 121.275 221.818 121.165 225.445 121.223C235.695 121.383 242.095 127.635 246.175 141.498C248.026 147.923 248.795 154.612 248.45 161.29C248.353 168.71 248.235 177.9 251.053 184.068Z" fill="#FAFAFA"/>
<path d="M329.375 258.75V263.125L351.875 276.875L502.5 263.125L531.25 125.625L502.5 0L281.25 136.25L265.625 183.125H270.625L308.75 175L329.375 213.75V258.75Z" fill="#050022"/>
<path d="M82.775 345.323C84.8111 346.431 87.1717 346.788 89.4447 346.333C91.7177 345.879 93.7587 344.64 95.2117 342.834C96.6646 341.027 97.437 338.768 97.3942 336.451C97.3514 334.133 96.4961 331.904 94.9775 330.153C94.0648 328.905 92.8773 327.884 91.507 327.169C90.1367 326.454 88.6203 326.064 87.075 326.029C85.5297 325.993 83.997 326.314 82.5954 326.965C81.1938 327.617 79.961 328.583 78.9922 329.787C78.0234 330.991 77.3446 332.403 77.0084 333.911C76.6721 335.42 76.6875 336.986 77.0531 338.487C77.4188 339.989 78.1251 341.387 79.1172 342.572C80.1094 343.757 81.3609 344.698 82.775 345.323ZM79.1925 335.323C79.4771 333.814 80.1937 332.42 81.2553 331.31C82.3168 330.201 83.6776 329.424 85.1725 329.073C86.6404 328.814 88.1499 328.932 89.5596 329.416C90.9693 329.9 92.2331 330.734 93.2325 331.84C94.2504 333.122 94.8336 334.695 94.8974 336.331C94.9612 337.967 94.5024 339.58 93.5875 340.938C92.6014 342.289 91.1956 343.276 89.5896 343.744C87.9835 344.212 86.2677 344.135 84.71 343.525C83.0399 342.917 81.6059 341.795 80.6144 340.32C79.6228 338.845 79.125 337.094 79.1925 335.318V335.323Z" fill="#FEFEFE"/>
<path d="M283.855 204.963H213.96C213.648 204.977 213.354 205.111 213.138 205.336C212.923 205.562 212.803 205.862 212.803 206.174C212.803 206.486 212.923 206.786 213.138 207.012C213.354 207.237 213.648 207.371 213.96 207.385H283.867C284.026 207.381 284.183 207.344 284.328 207.278C284.472 207.212 284.602 207.118 284.71 207C284.869 206.83 284.975 206.617 285.016 206.387C285.056 206.157 285.03 205.921 284.94 205.706C284.85 205.491 284.699 205.306 284.507 205.174C284.314 205.043 284.088 204.969 283.855 204.963V204.963Z" fill="#303030"/>
<path d="M283.855 226.683H213.96C213.648 226.697 213.354 226.831 213.138 227.056C212.923 227.282 212.803 227.582 212.803 227.894C212.803 228.206 212.923 228.506 213.138 228.732C213.354 228.957 213.648 229.091 213.96 229.105H283.868C284.179 229.091 284.473 228.957 284.689 228.732C284.905 228.506 285.025 228.206 285.025 227.894C285.025 227.582 284.905 227.282 284.689 227.056C284.473 226.831 284.179 226.697 283.868 226.683H283.855Z" fill="#303030"/>
<path d="M224.953 164.53H155.268C154.956 164.544 154.662 164.678 154.446 164.904C154.23 165.129 154.11 165.429 154.11 165.742C154.11 166.054 154.23 166.354 154.446 166.579C154.662 166.805 154.956 166.939 155.268 166.953H224.963C225.274 166.939 225.568 166.805 225.784 166.579C226 166.354 226.12 166.054 226.12 165.742C226.12 165.429 226 165.129 225.784 164.904C225.568 164.678 225.274 164.544 224.963 164.53H224.953Z" fill="#303030"/>
<path d="M224.953 145.063H155.278C155.114 145.055 154.95 145.081 154.797 145.139C154.643 145.196 154.503 145.284 154.385 145.397C154.266 145.511 154.172 145.647 154.108 145.797C154.043 145.948 154.01 146.11 154.01 146.274C154.01 146.438 154.043 146.6 154.108 146.751C154.172 146.901 154.266 147.037 154.385 147.151C154.503 147.264 154.643 147.352 154.797 147.409C154.95 147.467 155.114 147.493 155.278 147.485H224.963C225.274 147.471 225.569 147.337 225.784 147.112C226 146.886 226.12 146.586 226.12 146.274C226.12 145.962 226 145.662 225.784 145.436C225.569 145.211 225.274 145.077 224.963 145.063H224.953Z" fill="#303030"/>
<path d="M129.035 237.348C129.272 237.34 129.502 237.265 129.697 237.132C129.893 236.998 130.047 236.812 130.141 236.595C130.235 236.377 130.266 236.137 130.229 235.903C130.192 235.669 130.089 235.451 129.933 235.273L114.208 218.8C113.123 217.663 111.403 219.37 112.485 220.505C129.66 238.5 128.363 237.348 129.035 237.348Z" fill="#FEFEFE"/>
<path d="M104.678 267.615C104.69 267.921 104.817 268.212 105.034 268.428C105.251 268.645 105.541 268.773 105.848 268.785H129.83C130.142 268.771 130.436 268.637 130.652 268.411C130.867 268.186 130.987 267.886 130.987 267.574C130.987 267.262 130.867 266.961 130.652 266.736C130.436 266.51 130.142 266.376 129.83 266.362H105.848C105.527 266.374 105.223 266.512 105.004 266.747C104.785 266.982 104.667 267.294 104.678 267.615Z" fill="#FEFEFE"/>
<path d="M114.728 311.653C114.52 311.884 114.408 312.186 114.417 312.496C114.425 312.807 114.552 313.103 114.773 313.322C114.993 313.542 115.289 313.668 115.6 313.676C115.91 313.683 116.212 313.571 116.443 313.363L132.193 297.613C132.4 297.381 132.51 297.078 132.501 296.768C132.492 296.457 132.364 296.162 132.143 295.943C131.922 295.724 131.625 295.598 131.315 295.592C131.004 295.585 130.702 295.698 130.473 295.908L114.728 311.653Z" fill="#FEFEFE"/>
<path d="M171.585 392.842C168.455 395.417 165.365 398.12 162.405 400.877C161.252 401.952 162.958 403.672 164.1 402.605C173.1 394.222 173.85 394.725 173.658 393.605C173.615 393.387 173.518 393.183 173.374 393.014C173.23 392.845 173.045 392.716 172.836 392.639C172.628 392.562 172.403 392.541 172.184 392.576C171.965 392.612 171.758 392.704 171.585 392.842Z" fill="#FEFEFE"/>
<path d="M103.315 390.058C87.6998 402.857 71.1542 414.478 53.815 424.823C53.6791 424.904 53.5614 425.013 53.469 425.142C53.3766 425.271 53.3114 425.418 53.2775 425.573C53.2235 425.801 53.2369 426.04 53.3159 426.26C53.3949 426.481 53.5362 426.674 53.7227 426.816C53.9092 426.958 54.1329 427.043 54.3667 427.061C54.6005 427.078 54.8344 427.028 55.04 426.915C72.5986 416.565 89.3018 404.827 104.99 391.815C106.207 390.81 104.515 389.073 103.315 390.058Z" fill="#303030"/>
<path d="M206.145 323.035L212.195 317.103C212.41 316.874 212.528 316.57 212.523 316.255C212.519 315.941 212.392 315.64 212.17 315.418C211.948 315.195 211.649 315.067 211.334 315.061C211.02 315.055 210.715 315.171 210.485 315.385L204.438 321.318C204.228 321.548 204.116 321.85 204.123 322.16C204.13 322.471 204.256 322.767 204.475 322.988C204.694 323.208 204.99 323.336 205.301 323.345C205.611 323.354 205.914 323.243 206.145 323.035V323.035Z" fill="#FEFEFE"/>
<path d="M218.295 333.77L224.1 329.05C225.327 328.05 223.64 326.315 222.435 327.3L216.63 332.02C215.405 333 217.087 334.75 218.295 333.77Z" fill="#FEFEFE"/>
<path d="M30.59 398.863C30.4503 398.779 30.2949 398.724 30.1334 398.703C29.972 398.681 29.8077 398.692 29.6508 398.736C29.4938 398.78 29.3474 398.855 29.2205 398.957C29.0936 399.059 28.9888 399.186 28.9125 399.33L20.4125 419.405C20.2977 419.611 20.2453 419.847 20.2616 420.082C20.278 420.317 20.3624 420.543 20.5046 420.731C20.6469 420.92 20.8408 421.063 21.0628 421.143C21.2848 421.223 21.5253 421.237 21.755 421.183C21.9179 421.141 22.0705 421.066 22.2033 420.963C22.3362 420.859 22.4465 420.73 22.5275 420.583L31.0275 400.508C31.1801 400.23 31.2198 399.904 31.1383 399.598C31.0569 399.291 30.8605 399.028 30.59 398.863V398.863Z" fill="#FEFEFE"/>
<path d="M23.105 397.152L12.315 420.222C11.6475 421.642 13.77 422.812 14.43 421.395L25.2225 398.325C25.88 396.917 23.7725 395.72 23.105 397.152Z" fill="#FEFEFE"/>
</svg>
