<svg width="500" height="500" viewBox="0 0 500 500" fill="none" xmlns="http://www.w3.org/2000/svg">
<path fill-rule="evenodd" clip-rule="evenodd" d="M100.048 311.122C96.8625 304.525 88.985 302.92 82.31 305.682C72.535 309.732 69.3275 319.955 65.9275 329.877C64.965 332.682 51.2175 370.905 50.3925 373.19C54.32 367.51 59.1308 362.495 64.6425 358.335C75.9185 350.856 88.8439 346.231 102.305 344.857C102.018 319.907 102.385 315.965 100.048 311.122ZM89.0051 336.005C91.0911 335.67 93.0158 334.679 94.5 333.175C96.0531 331.415 96.93 329.161 96.974 326.814C97.0179 324.467 96.2261 322.182 94.74 320.365C93.8587 319.152 92.7099 318.158 91.3827 317.461C90.0556 316.764 88.5856 316.381 87.0869 316.343C85.5881 316.306 84.1007 316.613 82.7401 317.243C81.3794 317.872 80.1819 318.807 79.2405 319.974C78.2991 321.14 77.639 322.508 77.3114 323.971C76.9838 325.434 76.9974 326.953 77.3513 328.41C77.7051 329.867 78.3897 331.223 79.352 332.373C80.3142 333.522 81.5282 334.435 82.9 335.04C84.7807 336.003 86.9192 336.341 89.0051 336.005Z" fill="#303030"/>
<path d="M177.345 397.56C176.895 397.993 160.548 413.688 153.013 420.873C152.841 421.035 152.614 421.126 152.378 421.126C152.141 421.126 151.914 421.035 151.743 420.873L151.66 420.8C151.41 420.585 124.218 396.145 106.643 380.358C106.476 380.188 106.382 379.959 106.382 379.721C106.382 379.483 106.476 379.255 106.643 379.085L136.593 351.818C126.255 345.745 114.187 343.295 102.3 344.858C88.8398 346.235 75.9153 350.86 64.6375 358.335C45.7075 372.04 32.6375 403.085 31.32 426.775C31.3226 427.012 31.418 427.239 31.5858 427.407C31.7535 427.575 31.9803 427.67 32.2175 427.673H182.338C182.575 427.67 182.801 427.575 182.969 427.407C183.137 427.239 183.232 427.012 183.235 426.775C183.35 417.55 181.695 405.57 177.345 397.56ZM53.9675 415.088C71.3256 404.741 87.8867 393.113 103.513 380.3C104.4 379.573 105.678 380.838 104.783 381.57C89.1082 394.572 72.4191 406.299 54.875 416.64C54.6699 416.748 54.4309 416.773 54.208 416.709C53.985 416.646 53.7952 416.498 53.6782 416.298C53.5612 416.098 53.526 415.86 53.5799 415.635C53.6338 415.409 53.7726 415.213 53.9675 415.088V415.088ZM146.718 427.25C145.863 428.028 144.59 426.75 145.448 425.98L149.565 422.23C150.42 421.455 151.693 422.73 150.835 423.503L146.718 427.25Z" fill="#FEFEFE"/>
<path d="M94.75 320.365C93.8687 319.152 92.7199 318.159 91.3927 317.461C90.0656 316.764 88.5956 316.381 87.0969 316.343C85.5981 316.306 84.1107 316.613 82.7501 317.243C81.3894 317.872 80.1919 318.807 79.2505 319.974C78.3091 321.14 77.649 322.508 77.3214 323.971C76.9938 325.434 77.0074 326.953 77.3613 328.41C77.7151 329.867 78.3997 331.223 79.362 332.373C80.3242 333.522 81.5382 334.435 82.91 335.04C84.8805 336.118 87.1669 336.469 89.3698 336.032C91.5728 335.595 93.5523 334.398 94.9626 332.65C96.3728 330.902 97.1241 328.715 97.0853 326.469C97.0464 324.224 96.2199 322.063 94.75 320.365Z" fill="#FEFEFE"/>
<path d="M328.393 205.907C328.39 205.773 328.357 205.641 328.295 205.521C328.234 205.401 328.146 205.297 328.038 205.217C328.149 205.308 328.238 205.424 328.296 205.555C328.354 205.687 328.38 205.831 328.371 205.974C328.362 206.118 328.319 206.257 328.245 206.381C328.172 206.504 328.07 206.609 327.948 206.685C323.388 209.497 274.643 238.685 253.663 252.052C253.183 252.355 252.783 252.075 251.973 251.647C248.685 249.897 166.055 206.685 166.055 206.685C165.923 206.626 165.811 206.531 165.732 206.41C165.654 206.29 165.611 206.149 165.61 206.005C165.61 313.84 165.48 305.925 165.873 305.607C166.39 305.197 201.43 275.925 204.623 273.195C205.5 272.445 206.775 273.715 205.895 274.465C204.768 275.425 167.765 306.377 167.145 306.88C167.032 306.968 166.901 307.03 166.762 307.061C166.622 307.093 166.478 307.094 166.338 307.064C166.198 307.034 166.066 306.974 165.952 306.888C165.838 306.801 165.744 306.691 165.678 306.565C165.744 306.732 165.858 306.876 166.005 306.979C166.153 307.082 166.328 307.139 166.507 307.142H185.663L223.608 272.595C225.693 270.454 228.312 268.91 231.195 268.122C232.512 267.759 233.919 267.912 235.127 268.551C236.336 269.19 237.254 270.266 237.695 271.56C237.965 273.035 237.923 274.551 237.57 276.009C237.218 277.466 236.562 278.834 235.648 280.022C231.582 286.619 226.803 292.748 221.398 298.3C228.365 295.647 235.283 299.957 233.673 307.142H327.453C326.26 306.892 321.635 301.392 287.308 274.55C286.395 273.837 287.675 272.575 288.578 273.277C299.975 282.172 317.36 296.055 328.143 305.607C328.297 305.743 328.396 305.931 328.423 306.135C329.533 306 328.65 229.302 328.393 205.907Z" fill="#303030"/>
<path d="M238.883 312.645C236.014 312.328 233.111 312.689 230.408 313.7C232.366 311.319 233.577 308.412 233.888 305.345C234.083 299.035 227.483 295.978 221.388 298.3C226.792 292.748 231.571 286.618 235.638 280.023C236.552 278.834 237.208 277.467 237.56 276.009C237.913 274.551 237.955 273.035 237.685 271.56C237.244 270.266 236.326 269.19 235.117 268.551C233.909 267.912 232.502 267.759 231.185 268.123C228.302 268.91 225.682 270.454 223.598 272.595L106.633 379.095C106.466 379.265 106.372 379.493 106.372 379.731C106.372 379.969 106.466 380.198 106.633 380.368L151.75 420.873C151.921 421.035 152.149 421.126 152.385 421.126C152.621 421.126 152.849 421.035 153.02 420.873C194.695 381.048 205.77 369.65 217.75 357.198C229.025 345.468 238.878 335.833 243.855 321.835C244.218 320.909 244.374 319.914 244.313 318.921C244.252 317.929 243.975 316.961 243.502 316.086C243.028 315.211 242.37 314.45 241.572 313.856C240.774 313.261 239.856 312.848 238.883 312.645ZM204.658 311.54L210.705 305.608C211.53 304.798 212.803 306.068 211.975 306.88L205.928 312.81C205.1 313.623 203.83 312.353 204.658 311.54V311.54ZM216.825 322.25L222.633 317.53C223.523 316.808 224.803 318.073 223.903 318.8L218.098 323.52C217.208 324.25 215.928 322.985 216.825 322.25ZM173.055 384.353C169.918 386.934 166.863 389.609 163.888 392.378C163.043 393.165 161.77 391.898 162.618 391.108C165.591 388.341 168.646 385.666 171.783 383.083C172.67 382.353 173.948 383.618 173.055 384.353Z" fill="#FEFEFE"/>
<path d="M327.38 205C327.115 205.037 259.222 246.532 253.185 250.227L166.962 205.132C165.882 204.572 165.087 206.185 166.055 206.685C255.93 253.185 252.77 252.645 253.662 252.052L327.947 206.685C328.128 206.58 328.267 206.416 328.34 206.22C328.414 206.024 328.418 205.809 328.351 205.611C328.284 205.413 328.151 205.244 327.974 205.133C327.797 205.021 327.587 204.974 327.38 205V205Z" fill="#FEFEFE"/>
<path d="M213.97 197.072H283.855C284.085 197.06 284.302 196.96 284.461 196.793C284.619 196.626 284.708 196.404 284.708 196.174C284.708 195.943 284.619 195.721 284.461 195.554C284.302 195.387 284.085 195.287 283.855 195.275H213.97C213.74 195.287 213.523 195.387 213.364 195.554C213.206 195.721 213.117 195.943 213.117 196.174C213.117 196.404 213.206 196.626 213.364 196.793C213.523 196.96 213.74 197.06 213.97 197.072V197.072Z" fill="#FEFEFE"/>
<path d="M283.855 218.793C284.085 218.78 284.302 218.68 284.461 218.513C284.619 218.346 284.708 218.124 284.708 217.894C284.708 217.663 284.619 217.442 284.461 217.274C284.302 217.107 284.085 217.007 283.855 216.995H213.97C213.74 217.007 213.523 217.107 213.364 217.274C213.206 217.442 213.117 217.663 213.117 217.894C213.117 218.124 213.206 218.346 213.364 218.513C213.523 218.68 213.74 218.78 213.97 218.793H283.855Z" fill="#FEFEFE"/>
<path d="M224.953 156.64C225.183 156.628 225.399 156.528 225.558 156.36C225.717 156.193 225.805 155.972 225.805 155.741C225.805 155.511 225.717 155.289 225.558 155.122C225.399 154.954 225.183 154.854 224.953 154.842H155.278C155.047 154.854 154.831 154.954 154.672 155.122C154.513 155.289 154.425 155.511 154.425 155.741C154.425 155.972 154.513 156.193 154.672 156.36C154.831 156.528 155.047 156.628 155.278 156.64H224.953Z" fill="#FEFEFE"/>
<path d="M155.278 137.17H224.953C225.191 137.17 225.419 137.075 225.587 136.907C225.755 136.739 225.85 136.511 225.85 136.272C225.85 136.034 225.755 135.806 225.587 135.638C225.419 135.47 225.191 135.375 224.953 135.375H155.278C155.039 135.375 154.811 135.47 154.643 135.638C154.475 135.806 154.38 136.034 154.38 136.272C154.38 136.511 154.475 136.739 154.643 136.907C154.811 137.075 155.039 137.17 155.278 137.17V137.17Z" fill="#FEFEFE"/>
<path d="M167.145 306.88C167.778 306.38 204.78 275.425 205.895 274.465C206.775 273.715 205.5 272.45 204.623 273.195C201.418 275.925 166.373 305.195 165.873 305.607C165 306.3 166.225 307.605 167.145 306.88Z" fill="#FEFEFE"/>
<path d="M288.565 273.277C287.665 272.575 286.383 273.837 287.295 274.55C295.257 280.765 316.615 297.77 326.86 306.88C326.952 306.961 327.059 307.023 327.176 307.062C327.292 307.101 327.414 307.117 327.537 307.109C327.659 307.101 327.779 307.069 327.889 307.015C327.999 306.96 328.097 306.885 328.177 306.792C328.252 306.711 328.31 306.617 328.349 306.513C328.387 306.41 328.404 306.3 328.4 306.19C328.395 306.08 328.369 305.972 328.323 305.872C328.277 305.772 328.211 305.682 328.13 305.607C319.23 297.527 298.15 280.767 288.565 273.277Z" fill="#FEFEFE"/>
<path d="M327.048 205C326.025 204.98 322.033 205 309.548 205C309.662 199.34 309.381 193.68 308.705 188.06C307.875 182.152 305.048 175.76 298.523 174.625C293.685 173.782 254.368 174.195 253.628 174.285C253.543 174.035 251.503 172.247 250.755 162.555C250.434 158.305 250.356 154.041 250.52 149.782C250.975 137.065 247.098 119.127 236.368 112.247C231.405 109.065 227.118 108.892 220.415 109.092C218.165 109.162 94.755 109.157 93.12 109.157C84.585 109.157 75.37 111.107 69.755 118.062C63.1525 126.23 63.31 137.602 62.81 147.407C62.75 148.562 64.56 148.56 64.6075 147.407C64.6371 141.249 65.2541 135.107 66.45 129.065C67.0728 125.825 68.4306 122.771 70.4192 120.138C72.4077 117.505 74.9738 115.363 77.92 113.877C82.6862 111.721 87.894 110.72 93.12 110.955H104.918C113.06 111.455 119.038 114.855 123.125 123.65C131.43 141.52 124.545 162.797 138.745 177.79C142.512 181.788 147.645 184.223 153.125 184.61C158.828 184.985 163.453 181.825 168.213 179.132C170.435 177.688 172.938 176.732 175.558 176.327C176.76 176.209 177.974 176.348 179.119 176.736C180.264 177.124 181.312 177.752 182.195 178.577C186.993 183.077 187.143 191.447 187.28 205.012H166.693C167.823 205.537 174.285 208.975 189.275 216.81C189.095 209.597 189.008 202.382 188.828 195.17C188.655 188.275 187.765 180.11 182.053 176.297C223.38 176.262 297.568 176.08 299.713 176.775C305.913 178.79 307.388 187.992 307.485 194.542C307.563 199.875 308.048 216.58 308.045 216.735C329.21 203.792 327.695 205.022 327.048 205ZM159.38 181.812C149.715 185.482 137.38 178.725 133.04 164.462C129.125 151.64 130.59 137.772 125.725 125.212C124.749 122.107 123.14 119.238 121 116.785C118.86 114.333 116.235 112.35 113.29 110.962C113.29 110.962 221.54 110.847 225.45 110.907C237.45 111.095 243.083 119.877 246.475 131.407C249.975 143.31 248.348 150.565 248.788 159.752C248.722 164.761 249.657 169.732 251.538 174.375C189.038 174.497 178.498 174.477 176.663 174.502C169.598 174.605 165.545 179.472 159.38 181.812Z" fill="#EAEAEA"/>
<path d="M129.705 225.5L113.982 209.027C113.182 208.187 111.912 209.46 112.71 210.297L128.435 226.77C129.235 227.597 130.5 226.327 129.705 225.5Z" fill="#FEFEFE"/>
<path d="M105.858 258.472H129.82C130.05 258.46 130.267 258.36 130.426 258.193C130.584 258.026 130.673 257.804 130.673 257.574C130.673 257.343 130.584 257.121 130.426 256.954C130.267 256.787 130.05 256.687 129.82 256.675H105.858C105.627 256.687 105.411 256.787 105.252 256.954C105.093 257.121 105.005 257.343 105.005 257.574C105.005 257.804 105.093 258.026 105.252 258.193C105.411 258.36 105.627 258.46 105.858 258.472V258.472Z" fill="#FEFEFE"/>
<path d="M116.228 303.135L131.953 287.41C132.107 287.239 132.191 287.014 132.185 286.783C132.179 286.552 132.084 286.332 131.921 286.169C131.757 286.006 131.537 285.912 131.306 285.907C131.075 285.901 130.851 285.985 130.68 286.14L114.958 301.865C114.789 302.033 114.694 302.262 114.694 302.5C114.694 302.738 114.789 302.966 114.958 303.135C115.126 303.303 115.354 303.398 115.593 303.398C115.831 303.398 116.059 303.303 116.228 303.135Z" fill="#FEFEFE"/>
<path d="M103.512 380.3C87.8793 393.104 71.319 404.731 53.9675 415.088C53.7726 415.213 53.6337 415.409 53.5799 415.635C53.526 415.86 53.5612 416.098 53.6782 416.298C53.7952 416.498 53.985 416.646 54.208 416.709C54.4309 416.773 54.6699 416.748 54.875 416.64C72.4173 406.296 89.1061 394.569 104.782 381.57C105.677 380.838 104.4 379.573 103.512 380.3Z" fill="#FEFEFE"/>
<path d="M149.565 422.235L145.448 425.985C144.59 426.765 145.863 428.033 146.718 427.255L150.835 423.505C151.693 422.728 150.42 421.46 149.565 422.235Z" fill="#FEFEFE"/>
<path d="M210.705 305.607L204.657 311.54C203.83 312.352 205.1 313.622 205.928 312.81L211.975 306.88C212.803 306.067 211.53 304.797 210.705 305.607Z" fill="#FEFEFE"/>
<path d="M222.633 317.537L216.825 322.25C215.928 322.977 217.208 324.25 218.098 323.52L223.903 318.8C224.803 318.08 223.523 316.815 222.633 317.537Z" fill="#FEFEFE"/>
<path d="M30.4275 389.13C30.3259 389.07 30.2134 389.031 30.0965 389.014C29.9796 388.998 29.8606 389.005 29.7464 389.035C29.6323 389.065 29.5252 389.118 29.4314 389.189C29.3376 389.261 29.259 389.35 29.2 389.453L20.7 409.553C20.5863 409.76 20.5564 410.003 20.6164 410.232C20.6764 410.461 20.8217 410.658 21.0225 410.783C21.2284 410.903 21.4736 410.936 21.7042 410.876C21.9348 410.815 22.132 410.666 22.2525 410.46L30.7525 390.358C30.8664 390.15 30.8962 389.907 30.8357 389.679C30.7752 389.45 30.629 389.254 30.4275 389.13Z" fill="#FEFEFE"/>
<path d="M23.3875 387.285L12.5975 410.355C12.11 411.395 13.6575 412.31 14.1475 411.262L24.9375 388.192C25.425 387.152 23.8775 386.25 23.3875 387.285Z" fill="#FEFEFE"/>
<path d="M32.0046 426.182L31.8886 427.033L32.6857 426.714L35.7213 425.5H53.125H53.5816L53.6229 425.045L54.2479 418.17L54.25 418.148V418.125V417.5V417.293L54.1035 417.146L53.625 416.668V416.25V415.27L71.524 403.543L71.5241 403.543L71.5346 403.536L79.6596 397.911L79.6597 397.911L79.6691 397.904L86.5441 392.904L86.5441 392.904L86.5525 392.898L102.165 381.032L103.901 379.875H104.691L105.125 380.743V381.641L101.56 384.611L92.8226 391.477L83.4609 398.342L71.6032 406.455L60.3642 413.323L60.36 413.326L55.36 416.451L55.3117 416.481L55.2714 416.521L54.6464 417.146L54.5169 417.276L54.5017 417.458L53.8767 424.958L53.8316 425.5H54.375H141.875H145.625H145.832L145.979 425.354L149.046 422.286L150 421.809L150.954 422.286L151.267 422.599L150.839 423.454L150.271 424.021L149.021 425.271L148.144 426.149L149.385 426.125L181.885 425.5L182.456 425.489L182.369 424.924L181.119 416.799L181.118 416.79L181.116 416.781L178.616 403.656L178.601 403.574L178.559 403.502L176.059 399.127L175.743 398.575L175.281 399.012L152.492 420.569L108.46 380.879L108.317 380.75H108.125H107.375V378.975L135.332 354.124L135.852 353.661L135.248 353.316L130.873 350.816L130.847 350.801L130.819 350.789L118.944 345.789L118.851 345.75H118.75H103.75H103.706L103.662 345.758L86.1621 348.883L86.0947 348.895L86.0331 348.924L69.1581 357.049L69.0904 357.082L69.0353 357.133L52.1603 372.758L52.1089 372.806L52.0726 372.866L41.4476 390.366L41.4195 390.412L41.402 390.463L33.902 412.338L33.8862 412.384L33.8796 412.432L32.0046 426.182Z" fill="#424DE3" stroke="#424DE3"/>
<path d="M307.173 194.545C307.235 198.825 307.723 216.295 307.73 216.56C307.559 216.665 306.77 217.145 305.502 217.918C305.47 217.937 305.439 217.957 305.406 217.976C305.399 217.981 305.391 217.986 305.383 217.991C295.221 224.183 255.899 248.144 253.155 249.883L189.583 216.615C189.478 212.36 189.422 208.644 189.373 205.367C189.174 192.04 189.084 185.987 186.243 180.525C185.449 179.006 184.345 177.671 183 176.608C221.205 176.574 246.596 176.504 263.554 176.458C296.001 176.37 297.582 176.365 298.992 176.853C299.065 176.878 299.137 176.904 299.212 176.932C299.329 176.975 299.455 177.021 299.605 177.07C306.235 179.22 307.105 190 307.173 194.545Z" fill="#FAFAFA"/>
<path d="M251.053 174.068C241.905 174.085 229.565 174.104 217.644 174.122C217.624 174.122 217.604 174.122 217.584 174.122C217.569 174.122 217.554 174.122 217.539 174.122C198.385 174.151 180.34 174.178 178.398 174.195C171.843 174.25 168.966 176.07 165.705 178.135C163.905 179.274 161.988 180.488 159.27 181.52C157.15 182.279 154.895 182.59 152.649 182.434C150.403 182.278 148.213 181.659 146.218 180.615C143.081 178.922 140.321 176.608 138.107 173.814C135.893 171.021 134.27 167.806 133.338 164.365C131.549 158.506 130.888 152.417 130.226 146.326C129.445 139.126 128.662 131.922 126.018 125.088C124.126 119.226 120.094 114.294 114.725 111.275C118.601 111.275 129.897 111.265 143.878 111.253C143.899 111.253 143.919 111.253 143.939 111.253H143.944C176.275 111.224 222.914 111.182 225.445 111.223C235.695 111.383 242.095 117.635 246.175 131.498C248.026 137.923 248.795 144.612 248.45 151.29C248.353 158.71 248.235 167.9 251.053 174.068Z" fill="#FAFAFA"/>
<path fill-rule="evenodd" clip-rule="evenodd" d="M238.915 312.333C236.336 312.051 233.726 312.307 231.25 313.083C232.44 311.368 233.336 309.467 233.9 307.458H327.5C327.732 307.457 327.959 307.388 328.152 307.26C328.346 307.131 328.497 306.949 328.588 306.735L328.595 306.725C328.726 306.552 328.726 306.279 328.715 286.514C328.711 278.657 328.705 267.72 328.705 252.485H374.835C375.154 252.482 375.459 252.354 375.684 252.129C375.91 251.903 376.039 251.599 376.043 251.28C376.043 251.28 376.293 240.05 376.34 234.758C396.305 235.4 423.47 232.22 421.975 212.323C421.263 202.883 417.523 193.073 410.535 182.323C409.683 181.01 403.99 172.523 402.418 170.88C404.249 169.364 405.808 167.547 407.03 165.508C410.53 159.733 406.09 153.193 400.53 154.448C401.136 153.078 401.375 151.574 401.225 150.084C401.074 148.594 400.538 147.168 399.67 145.948C398.832 144.914 397.782 144.072 396.593 143.476C395.403 142.88 394.1 142.545 392.77 142.493C393.458 141.45 393.924 140.278 394.139 139.048C394.354 137.818 394.315 136.557 394.022 135.343C393.73 134.129 393.191 132.988 392.44 131.991C391.688 130.994 390.739 130.163 389.653 129.548C387.167 128.215 384.255 127.924 381.555 128.738V95.3726C401.639 108.262 416.542 117.839 427.609 124.951C458.751 144.963 459.507 145.45 459.79 145.253C459.8 145.246 459.81 145.238 459.82 145.23C460.004 145.212 460.18 145.145 460.329 145.037C460.478 144.928 460.596 144.782 460.67 144.613C468.719 126.785 473.05 107.503 473.397 87.9459C473.745 68.3884 470.103 48.9652 462.693 30.8626C462.53 30.5827 462.266 30.3766 461.955 30.2876C461.644 30.1985 461.311 30.2335 461.025 30.3851C445.95 37.7351 389.19 71.7376 369.143 84.8851L369.12 84.8996C368.936 85.0204 368.817 85.0979 368.743 85.6751C368.609 86.7045 368.615 89.3219 368.631 96.5865C368.64 100.313 368.651 105.262 368.648 111.848C368.028 110.634 366.97 109.701 365.688 109.239C364.406 108.777 362.996 108.821 361.745 109.36C360.877 109.918 360.145 110.663 359.601 111.54C359.057 112.417 358.716 113.404 358.603 114.43C357.488 120.818 357.175 132.043 357.675 147.803C350.182 140.898 340.938 136.182 330.95 134.17C319.815 131.564 308.139 132.569 297.613 137.038C284.03 142.89 273.595 151.363 266.84 173.635C263.808 173.695 255.183 173.918 253.788 173.983C252.006 170.435 251.079 166.52 251.08 162.55C250.763 158.308 250.685 154.051 250.848 149.8C251.33 136.318 247.065 118.733 236.55 111.993C231.425 108.705 227.035 108.59 220.42 108.788C219.515 108.818 93.135 108.853 93.135 108.853C82.3075 108.853 74.3625 111.89 69.5275 117.875C63.5248 125.293 63.0648 135.263 62.6288 144.714C62.5873 145.615 62.5459 146.511 62.5 147.4C62.4175 148.968 64.8425 149 64.92 147.433C64.9698 146.462 65.0129 145.484 65.0563 144.501C65.4259 136.111 65.8104 127.383 70.5075 120.563C76.12 112.41 86.6575 111.24 92.4025 111.288C95.3134 111.306 97.6146 111.291 99.5009 111.279C105.3 111.241 107.176 111.229 110.783 112.288C113.495 113.237 115.974 114.753 118.053 116.736C120.133 118.719 121.766 121.123 122.843 123.788C126.237 131.092 127.071 139.062 127.907 147.052C128.439 152.147 128.973 157.25 130.173 162.193C132.698 172.62 140.048 184.068 153.105 184.93C158.236 185.258 162.516 182.786 166.75 180.341L166.751 180.341C167.297 180.025 167.842 179.711 168.388 179.403C170.564 177.982 173.02 177.044 175.59 176.653C176.747 176.535 177.916 176.667 179.019 177.038C180.121 177.409 181.132 178.012 181.983 178.805C185.405 182.008 186.233 187.415 186.555 191.77C186.893 196.213 186.935 200.888 186.963 204.7H166.5C166.203 204.712 165.92 204.83 165.702 205.032C165.484 205.234 165.345 205.507 165.31 205.803L165.31 205.81C165.309 205.944 165.295 208.508 165.295 305.968C165.261 306.148 165.267 306.333 165.312 306.511C165.357 306.689 165.44 306.855 165.555 306.997C165.67 307.14 165.815 307.256 165.98 307.337C166.144 307.418 166.324 307.463 166.508 307.468H184.853L136.553 351.44C126.309 345.458 114.375 343.027 102.608 344.525C102.57 341.015 102.546 337.914 102.526 335.161C102.41 319.76 102.376 315.246 100.325 310.998C96.865 303.83 88.575 302.748 82.1875 305.408C72.6063 309.377 69.2309 319.252 65.9663 328.804L65.965 328.808C65.965 328.808 50.94 370.763 50.11 373.058C39.0756 388.946 32.4788 407.49 31 426.778C31.0052 427.097 31.1344 427.401 31.3603 427.627C31.5861 427.852 31.8909 427.981 32.21 427.985H182.338C182.657 427.981 182.962 427.853 183.188 427.627C183.414 427.402 183.543 427.097 183.548 426.778C183.655 418.133 182.183 405.973 177.733 397.62C196.718 379.28 207.023 368.77 220.005 355.298L220.084 355.215C230.481 344.423 239.464 335.097 244.143 321.94C244.522 320.97 244.684 319.928 244.619 318.888C244.553 317.849 244.261 316.836 243.763 315.92C243.265 315.005 242.574 314.21 241.736 313.59C240.899 312.97 239.936 312.541 238.915 312.333ZM171.473 207.12H187C187.02 208.96 187.1 213.513 187.14 215.333C186.17 214.829 181.047 212.141 176.868 209.949C174.366 208.637 172.203 207.502 171.473 207.12ZM151.045 423.75C152.205 422.695 150.52 420.965 149.355 422.018L145.44 425.575C144.234 425.575 139.057 425.572 131.539 425.567L131.213 425.567H131.175C102.063 425.549 38.9183 425.51 33.535 425.548C35.43 401.198 49.445 369.2 69.76 357.52C88.26 346.883 115.448 341.445 134.693 353.138L106.418 378.888C106.193 379.119 106.069 379.43 106.072 379.752C106.075 380.074 106.204 380.382 106.433 380.61C108.098 382.11 151.48 421.075 151.53 421.11C151.761 421.324 152.065 421.444 152.38 421.444C152.695 421.444 152.999 421.324 153.23 421.11C160.16 414.485 173.7 401.515 175.908 399.398C179.473 407.657 181.241 416.58 181.095 425.575H149.038L151.045 423.75ZM109.113 379.685C109.113 379.685 223.47 275.528 225.685 273.558C227.541 271.586 230.042 270.344 232.735 270.058C235.5 270.058 236.378 272.895 235.53 275.308C235.032 276.739 234.368 278.107 233.553 279.385C228.138 288.088 221.471 295.946 213.765 302.705C212.583 303.75 214.225 305.398 215.435 304.455C218.435 302.115 222.565 298.913 227.138 299.743C228.012 299.888 228.841 300.235 229.559 300.755C230.276 301.276 230.863 301.956 231.273 302.743C231.601 303.635 231.751 304.584 231.711 305.534C231.672 306.485 231.444 307.418 231.043 308.28C230.016 310.574 228.663 312.707 227.028 314.615C226.85 314.809 226.74 315.055 226.714 315.317C226.687 315.579 226.747 315.842 226.883 316.067C227.019 316.292 227.224 316.467 227.468 316.566C227.711 316.665 227.981 316.682 228.235 316.615C228.427 316.553 228.624 316.488 228.825 316.421L229.086 316.334C233.246 314.956 239.082 313.021 241.415 316.593C241.795 317.2 242.042 317.881 242.14 318.591C242.238 319.3 242.184 320.023 241.983 320.71C241.372 322.826 240.546 324.873 239.518 326.82C234.393 336.867 227.223 344.306 219.08 352.755C218.435 353.424 217.784 354.099 217.128 354.783C204.765 367.653 191.378 381.353 152.353 418.578C149.185 415.75 112.553 382.785 109.113 379.685ZM328.203 204.93C328.187 204.913 328.172 204.897 328.156 204.881C327.926 204.663 327.488 204.664 320.777 204.682C318.187 204.688 314.662 204.698 309.855 204.698C309.935 199.128 309.657 193.559 309.025 188.025C308.51 184.363 306.463 175.698 298.585 174.325C292.138 173.203 275.995 173.463 269.393 173.575C275.1 155.27 284.698 142.44 305.393 136.853C312.959 135.009 320.825 134.753 328.495 136.1C336.165 137.447 343.473 140.368 349.958 144.68C358.1 149.97 363.23 157.54 366.59 169.228C374.275 195.943 374.305 223.798 373.653 250.058H328.705V205.898C328.698 205.729 328.658 205.564 328.585 205.412C328.513 205.26 328.411 205.124 328.285 205.013C328.252 204.983 328.226 204.955 328.203 204.93ZM309.918 207.12H323.188L310.118 215.103C310.118 214.724 310.098 213.971 310.009 210.606C309.984 209.665 309.954 208.519 309.918 207.12ZM326.283 305.045V303.568V208.083C325.99 208.262 324.368 209.248 321.794 210.815L321.752 210.841C306.556 220.09 258.495 249.345 253.83 252.315C253.66 252.423 253.463 252.482 253.261 252.485C253.059 252.487 252.861 252.434 252.688 252.33C252.675 252.325 252.665 252.322 252.655 252.318L252.641 252.313C252.362 252.21 252.097 252.071 228.951 239.955C216.436 233.403 197.232 223.35 167.72 207.908V303.688V305.033H169.895H187.515L223.398 272.378C225.518 270.202 228.182 268.632 231.113 267.833C232.507 267.448 233.995 267.611 235.273 268.288C236.551 268.964 237.522 270.104 237.988 271.473C238.765 273.798 238.085 276.653 235.91 280.2C232.048 286.463 227.544 292.306 222.47 297.635C228.335 296.063 234.183 299.155 234.203 305.045H324.275H326.283ZM307.173 194.545C307.235 198.825 307.723 216.295 307.73 216.56C307.559 216.665 306.77 217.145 305.502 217.918L305.406 217.976L305.383 217.991C295.221 224.183 255.899 248.144 253.155 249.883L189.583 216.615C189.478 212.36 189.422 208.644 189.373 205.367C189.174 192.04 189.084 185.987 186.243 180.525C185.449 179.006 184.345 177.671 183 176.608C221.205 176.574 246.596 176.504 263.554 176.458C296.001 176.37 297.582 176.365 298.992 176.853C299.065 176.878 299.137 176.904 299.212 176.932C299.329 176.975 299.455 177.021 299.605 177.07C306.235 179.22 307.105 190 307.173 194.545ZM452.138 69.8376C456.927 75.5902 459.752 82.7232 460.2 90.1951C459.799 98.3053 456.906 106.094 451.915 112.5C449.919 98.3438 449.994 83.9723 452.138 69.8376ZM462.323 85.4026C461.176 78.2781 457.756 71.7156 452.573 66.6951C454.138 55.6235 457.164 44.8084 461.573 34.5326C474.695 68.9003 474.016 107.012 459.678 140.89C456.513 132.759 454.093 124.357 452.448 115.788C458.425 108.538 464.135 96.7876 462.323 85.4026ZM447.985 91.9851C447.86 108.759 450.964 125.4 457.13 141L380.955 92.1076C380.681 91.9478 380.355 91.9023 380.048 91.9809C379.74 92.0595 379.476 92.2559 379.313 92.5276L379.305 92.5352C379.301 92.5389 379.297 92.5426 379.294 92.5464C379.114 92.73 379.114 93.089 379.123 111.022C379.125 115.856 379.128 121.968 379.128 129.698C378.653 129.948 371.305 135.248 371.053 135.433V86.5426C376.482 83.3839 386.892 77.026 398.798 69.7542L398.799 69.7535C421.6 55.8287 449.886 38.553 459.19 33.9726C451.789 52.4183 447.985 72.1099 447.985 91.9851ZM387.335 176.058C385.796 176.444 384.178 176.383 382.673 175.883C381.915 175.616 381.277 175.09 380.87 174.397C380.464 173.705 380.315 172.891 380.45 172.1C381.079 169.909 382.475 168.017 384.383 166.77C387.54 164.212 387.649 164.149 392.339 161.431L392.341 161.43C393.756 160.61 395.587 159.549 398.045 158.105C398.867 157.433 399.859 157.002 400.911 156.862C401.963 156.721 403.033 156.875 404.003 157.308C411.205 163.298 396.5 173.86 387.335 176.058ZM394.855 157.155L394.847 157.16C392.45 158.544 388.529 160.809 387.038 161.725C384.849 163.079 382.449 164.058 379.938 164.62L379.903 164.628C377.839 165.096 375.511 165.624 373.96 164.098C372.815 162.752 372.216 161.026 372.281 159.261C372.346 157.495 373.07 155.818 374.31 154.56C377.92 150.755 381.336 149.225 384.97 147.598C386.403 146.956 387.87 146.3 389.395 145.483C390.805 144.717 392.448 144.503 394.007 144.882C395.566 145.26 396.928 146.204 397.83 147.531C398.731 148.858 399.108 150.472 398.886 152.06C398.665 153.649 397.86 155.099 396.63 156.128C396.332 156.302 395.686 156.675 394.855 157.155ZM388.213 143.378C386.677 144.197 385.094 144.924 383.505 145.653C382.033 146.329 380.557 147.007 379.108 147.763C376.975 149.022 374.596 149.808 372.133 150.068C371.207 150.175 370.268 150.059 369.396 149.73C368.524 149.402 367.743 148.869 367.118 148.178C366.573 147.289 366.298 146.262 366.326 145.22C366.355 144.178 366.685 143.167 367.278 142.31C368.59 140.405 370.278 138.789 372.238 137.56C373.467 136.667 374.496 135.916 375.366 135.281C379.937 131.944 380.146 131.792 382.145 131.038C383.816 130.479 385.628 130.513 387.277 131.135C388.925 131.756 390.309 132.927 391.195 134.45C391.953 136.034 392.066 137.85 391.51 139.515C390.953 141.18 389.771 142.563 388.213 143.373V143.378ZM368.63 137.29C360.073 144.07 364.13 153.453 372.98 152.435C371.222 154.047 370.123 156.253 369.898 158.628C369.672 161.002 370.334 163.376 371.758 165.29C373.918 167.943 377.225 167.768 380.613 166.96C375.1 172.925 379.068 179.06 385.35 178.71C387.206 178.614 389.035 178.226 390.77 177.56C394.23 176.266 397.503 174.52 400.505 172.368C402.817 175.122 404.927 178.04 406.82 181.098C411.343 187.384 414.94 194.288 417.5 201.598C418.628 205.095 419.317 208.718 419.553 212.385C421.053 230.548 394.618 232.818 376.34 232.345C376.674 213.533 374.858 194.745 370.928 176.345C369 167.845 366.218 158.163 360.178 150.628C359.928 143.758 359.595 130.933 360.228 121.413C360.242 118.74 360.622 116.082 361.358 113.513C362.425 110.555 365.065 110.68 366.608 113.075C367.197 115.317 367.584 117.607 367.763 119.918C368.604 125.666 368.895 131.482 368.63 137.285V137.29ZM217.644 174.122L217.584 174.122L217.539 174.122C198.385 174.151 180.34 174.178 178.398 174.195C171.843 174.25 168.966 176.07 165.705 178.135C163.905 179.274 161.988 180.488 159.27 181.52C157.15 182.279 154.895 182.59 152.649 182.434C150.403 182.278 148.213 181.659 146.218 180.615C143.081 178.922 140.321 176.608 138.107 173.814C135.893 171.021 134.27 167.806 133.338 164.365C131.549 158.506 130.888 152.417 130.226 146.326C129.445 139.126 128.662 131.922 126.018 125.088C124.126 119.226 120.094 114.294 114.725 111.275C118.601 111.275 129.897 111.265 143.878 111.253L143.939 111.253H143.944C176.275 111.224 222.914 111.182 225.445 111.223C235.695 111.383 242.095 117.635 246.175 131.498C248.026 137.923 248.795 144.612 248.45 151.29C248.353 158.71 248.235 167.9 251.053 174.068C241.905 174.085 229.565 174.104 217.644 174.122ZM71.065 321.71C72.4639 318.023 74.53 314.624 77.16 311.685C81.4275 307.038 89.1 304.77 94.695 308.11C96.1644 309.139 97.3726 310.498 98.223 312.078C99.0733 313.658 99.5424 315.414 99.5925 317.208C99.9361 319.979 99.9537 321.682 100.117 337.538C100.139 339.678 100.164 342.075 100.193 344.768C90.8451 345.997 81.7609 348.743 73.2975 352.898C66.2007 356.204 59.9097 361.017 54.8625 367.003C61.1906 349.49 65.6193 336.996 68.2463 329.585L68.2472 329.582C69.8499 325.061 70.7818 322.432 71.065 321.71Z" fill="#050022"/>
<path d="M82.775 335.323C84.8111 336.431 87.1717 336.788 89.4447 336.333C91.7177 335.879 93.7587 334.64 95.2117 332.834C96.6646 331.027 97.437 328.768 97.3942 326.451C97.3514 324.133 96.4961 321.904 94.9775 320.153C94.0648 318.905 92.8773 317.884 91.507 317.169C90.1367 316.454 88.6203 316.064 87.075 316.029C85.5297 315.993 83.997 316.314 82.5954 316.965C81.1938 317.617 79.961 318.583 78.9922 319.787C78.0234 320.991 77.3446 322.403 77.0084 323.911C76.6721 325.42 76.6875 326.986 77.0531 328.487C77.4188 329.989 78.1251 331.387 79.1172 332.572C80.1094 333.757 81.3609 334.698 82.775 335.323ZM79.1925 325.323C79.4771 323.814 80.1937 322.42 81.2553 321.31C82.3168 320.201 83.6776 319.424 85.1725 319.073C86.6404 318.814 88.1499 318.932 89.5596 319.416C90.9693 319.9 92.2331 320.734 93.2325 321.84C94.2504 323.122 94.8336 324.695 94.8974 326.331C94.9612 327.967 94.5024 329.58 93.5875 330.938C92.6014 332.289 91.1956 333.276 89.5896 333.744C87.9835 334.212 86.2677 334.135 84.71 333.525C83.0399 332.917 81.6059 331.795 80.6144 330.32C79.6228 328.845 79.125 327.094 79.1925 325.318V325.323Z" fill="#FEFEFE"/>
<path d="M283.855 194.963H213.96C213.648 194.977 213.354 195.111 213.138 195.336C212.923 195.562 212.803 195.862 212.803 196.174C212.803 196.486 212.923 196.786 213.138 197.012C213.354 197.237 213.648 197.371 213.96 197.385H283.867C284.026 197.381 284.183 197.344 284.328 197.278C284.472 197.212 284.602 197.118 284.71 197C284.869 196.83 284.975 196.617 285.016 196.387C285.056 196.157 285.03 195.921 284.94 195.706C284.85 195.491 284.699 195.306 284.507 195.174C284.314 195.043 284.088 194.969 283.855 194.963V194.963Z" fill="#303030"/>
<path d="M283.855 216.683H213.96C213.648 216.697 213.354 216.831 213.138 217.056C212.923 217.282 212.803 217.582 212.803 217.894C212.803 218.206 212.923 218.506 213.138 218.732C213.354 218.957 213.648 219.091 213.96 219.105H283.868C284.179 219.091 284.473 218.957 284.689 218.732C284.905 218.506 285.025 218.206 285.025 217.894C285.025 217.582 284.905 217.282 284.689 217.056C284.473 216.831 284.179 216.697 283.868 216.683H283.855Z" fill="#303030"/>
<path d="M224.953 154.53H155.268C154.956 154.544 154.662 154.678 154.446 154.904C154.23 155.129 154.11 155.429 154.11 155.742C154.11 156.054 154.23 156.354 154.446 156.579C154.662 156.805 154.956 156.939 155.268 156.953H224.963C225.274 156.939 225.568 156.805 225.784 156.579C226 156.354 226.12 156.054 226.12 155.742C226.12 155.429 226 155.129 225.784 154.904C225.568 154.678 225.274 154.544 224.963 154.53H224.953Z" fill="#303030"/>
<path d="M224.953 135.063H155.278C155.114 135.055 154.95 135.081 154.797 135.139C154.643 135.196 154.503 135.284 154.385 135.397C154.266 135.511 154.172 135.647 154.108 135.797C154.043 135.948 154.01 136.11 154.01 136.274C154.01 136.438 154.043 136.6 154.108 136.751C154.172 136.901 154.266 137.037 154.385 137.151C154.503 137.264 154.643 137.352 154.797 137.409C154.95 137.467 155.114 137.493 155.278 137.485H224.963C225.274 137.471 225.569 137.337 225.784 137.112C226 136.886 226.12 136.586 226.12 136.274C226.12 135.962 226 135.662 225.784 135.436C225.569 135.211 225.274 135.077 224.963 135.063H224.953Z" fill="#303030"/>
<path d="M129.035 227.348C129.272 227.34 129.502 227.265 129.697 227.132C129.893 226.998 130.047 226.812 130.141 226.595C130.235 226.377 130.266 226.137 130.229 225.903C130.192 225.669 130.089 225.451 129.933 225.273L114.208 208.8C113.123 207.663 111.403 209.37 112.485 210.505C129.66 228.5 128.363 227.348 129.035 227.348Z" fill="#FEFEFE"/>
<path d="M104.678 257.615C104.69 257.921 104.817 258.212 105.034 258.428C105.251 258.645 105.541 258.773 105.848 258.785H129.83C130.142 258.771 130.436 258.637 130.652 258.411C130.867 258.186 130.987 257.886 130.987 257.574C130.987 257.262 130.867 256.961 130.652 256.736C130.436 256.51 130.142 256.376 129.83 256.362H105.848C105.527 256.374 105.223 256.512 105.004 256.747C104.785 256.982 104.667 257.294 104.678 257.615Z" fill="#FEFEFE"/>
<path d="M114.728 301.653C114.52 301.884 114.408 302.186 114.417 302.496C114.425 302.807 114.552 303.103 114.773 303.322C114.993 303.542 115.289 303.668 115.6 303.676C115.91 303.683 116.212 303.571 116.443 303.363L132.193 287.613C132.4 287.381 132.51 287.078 132.501 286.768C132.492 286.457 132.364 286.162 132.143 285.943C131.922 285.724 131.625 285.598 131.315 285.592C131.004 285.585 130.702 285.698 130.473 285.908L114.728 301.653Z" fill="#FEFEFE"/>
<path d="M171.585 382.842C168.455 385.417 165.365 388.12 162.405 390.877C161.252 391.952 162.958 393.672 164.1 392.605C173.1 384.222 173.85 384.725 173.658 383.605C173.615 383.387 173.518 383.183 173.374 383.014C173.23 382.845 173.045 382.716 172.836 382.639C172.628 382.562 172.403 382.541 172.184 382.576C171.965 382.612 171.758 382.704 171.585 382.842Z" fill="#FEFEFE"/>
<path d="M103.315 380.058C87.6998 392.857 71.1542 404.478 53.815 414.823C53.6791 414.904 53.5614 415.013 53.469 415.142C53.3766 415.271 53.3114 415.418 53.2775 415.573C53.2235 415.801 53.2369 416.04 53.3159 416.26C53.3949 416.481 53.5362 416.674 53.7227 416.816C53.9092 416.958 54.1329 417.043 54.3667 417.061C54.6005 417.078 54.8344 417.028 55.04 416.915C72.5986 406.565 89.3018 394.827 104.99 381.815C106.207 380.81 104.515 379.073 103.315 380.058Z" fill="#303030"/>
<path d="M206.145 313.035L212.195 307.103C212.41 306.874 212.528 306.57 212.523 306.255C212.519 305.941 212.392 305.64 212.17 305.418C211.948 305.195 211.649 305.067 211.334 305.061C211.02 305.055 210.715 305.171 210.485 305.385L204.438 311.318C204.228 311.548 204.116 311.85 204.123 312.16C204.13 312.471 204.256 312.767 204.475 312.988C204.694 313.208 204.99 313.336 205.301 313.345C205.611 313.354 205.914 313.243 206.145 313.035V313.035Z" fill="#FEFEFE"/>
<path d="M218.295 323.77L224.1 319.05C225.327 318.05 223.64 316.315 222.435 317.3L216.63 322.02C215.405 323 217.087 324.75 218.295 323.77Z" fill="#FEFEFE"/>
<path d="M30.59 388.863C30.4503 388.779 30.2949 388.724 30.1334 388.703C29.972 388.681 29.8077 388.692 29.6508 388.736C29.4938 388.78 29.3474 388.855 29.2205 388.957C29.0936 389.059 28.9888 389.186 28.9125 389.33L20.4125 409.405C20.2977 409.611 20.2453 409.847 20.2616 410.082C20.278 410.317 20.3624 410.543 20.5046 410.731C20.6469 410.92 20.8408 411.063 21.0628 411.143C21.2848 411.223 21.5253 411.237 21.755 411.183C21.9179 411.141 22.0705 411.066 22.2033 410.963C22.3362 410.859 22.4465 410.73 22.5275 410.583L31.0275 390.508C31.1801 390.23 31.2198 389.904 31.1383 389.598C31.0569 389.291 30.8605 389.028 30.59 388.863V388.863Z" fill="#FEFEFE"/>
<path d="M23.105 387.152L12.315 410.222C11.6475 411.642 13.77 412.812 14.43 411.395L25.2225 388.325C25.88 386.917 23.7725 385.72 23.105 387.152Z" fill="#FEFEFE"/>
</svg>
