<svg width="370" height="370" viewBox="0 0 370 370" fill="none" xmlns="http://www.w3.org/2000/svg">
<path d="M66.7961 292.777H100.374C100.609 293.691 101.058 294.535 101.685 295.239C102.312 295.944 103.099 296.488 103.979 296.827C103.84 297.027 99.3912 303.452 97.3192 306.471C96.8419 306.993 96.5293 307.646 96.4238 308.345C96.4238 308.769 96.5533 309.183 96.7938 309.534C97.0325 309.884 97.3729 310.154 97.7688 310.308C98.1647 310.461 98.5976 310.493 99.0101 310.397C99.4245 310.302 99.7982 310.084 100.087 309.771C100.991 308.802 104.908 304.789 105.615 304.066C106.06 304.621 106.593 305.1 107.193 305.485C109.254 306.648 111.596 307.215 113.96 307.122C113.468 307.749 113.107 308.471 112.9 309.24C112.695 310.012 112.645 310.816 112.757 311.606C112.868 312.396 113.14 313.155 113.553 313.838C113.966 314.52 114.511 315.112 115.159 315.578C116.796 316.812 118.603 317.804 120.524 318.52C122.929 319.445 125.306 320.446 127.709 321.384C148.614 329.524 169.81 336.317 191.862 339.232C191.862 339.982 191.826 340.785 191.826 340.785C191.824 340.964 191.752 341.136 191.625 341.262C191.498 341.39 191.327 341.462 191.148 341.464H66.8016C66.6222 341.462 66.4501 341.39 66.3243 341.262C66.1967 341.136 66.1245 340.964 66.1227 340.785V293.456C66.1245 293.278 66.1967 293.106 66.3225 292.981C66.4483 292.853 66.6185 292.781 66.7961 292.777Z" fill="#8A39E1"/>
<path d="M97.31 306.471C99.3857 303.452 103.835 297.036 103.97 296.827C104.22 296.912 104.475 296.973 104.736 297.012C104.175 298.142 103.959 299.413 104.112 300.666C104.266 301.918 104.784 303.098 105.602 304.06C103.802 305.91 102.002 307.76 100.2 309.61C99.9314 309.96 99.5596 310.217 99.1396 310.345C98.7178 310.474 98.2664 310.467 97.8483 310.326C97.4302 310.186 97.0676 309.918 96.8105 309.56C96.5515 309.202 96.4127 308.772 96.4109 308.332C96.52 307.636 96.8327 306.989 97.31 306.471Z" fill="#424DE3"/>
<path d="M158.371 222.087C158.451 221.97 158.575 221.893 158.712 221.865C158.85 221.839 158.995 221.869 159.111 221.946C159.52 222.226 162.846 224.993 172.322 232.815C172.446 232.945 172.514 233.115 172.514 233.294C172.514 233.472 172.446 233.644 172.322 233.773C164.445 242.283 163.69 243.804 143.647 264.798C136.832 264.324 130.011 265.641 123.863 268.62C136.021 251.637 158.216 222.289 158.371 222.087Z" fill="#424DE3"/>
<path d="M152.233 29.3243C153.287 26.1052 155.143 23.2066 157.624 20.9006C160.105 18.5943 163.131 16.9561 166.419 16.1394C170.202 15.1977 161.333 15.4826 288.485 15.4826C289.799 15.4826 291.122 15.4493 292.431 15.5714C297.501 16.04 302.212 18.3851 305.642 22.1469C309.071 25.9087 310.972 30.816 310.972 35.9067V76.0905C298.048 70.1224 285.166 77.1709 282.961 87.7455C271.941 79.4847 260.284 72.1091 248.1 65.688C244.884 64.097 241.011 63.0258 237.947 65.4678C236.751 66.4442 235.816 67.7015 235.224 69.1271C234.632 70.5529 234.402 72.103 234.554 73.6393C235.309 82.1678 244.589 89.2884 251.265 94.5813H151.826C151.646 94.5783 151.476 94.5058 151.35 94.3791C151.223 94.2523 151.151 94.0814 151.149 93.9023V70.2612H156.902C157.021 70.2589 157.137 70.2262 157.239 70.1659C157.341 70.1058 157.424 70.0199 157.483 69.9172C157.542 69.8146 157.574 69.6984 157.574 69.58C157.576 69.4616 157.544 69.345 157.487 69.2418C157.059 68.5018 154.551 64.2043 151.149 58.362V43.586C154.05 44.5295 156.921 42.6259 157.23 38.6761C157.431 36.0972 156.36 31.7996 159.374 30.4047C160.001 30.187 160.689 30.2234 161.29 30.5061C161.892 30.789 162.358 31.2957 162.589 31.918C163.142 33.2212 163.368 34.6405 163.244 36.0509C163.205 38.5114 162.893 42.4057 166.036 43.1013C167.271 43.3808 168.565 43.211 169.686 42.6221C170.835 41.8962 171.676 40.7736 172.05 39.4679C172.616 36.4557 172.607 33.3633 172.02 30.3548C171.915 29.5001 170.54 29.4927 170.666 30.3548C170.914 32.1567 171.066 33.9703 171.121 35.7882C171.245 37.3197 170.933 38.855 170.222 40.2171C169.978 40.6423 169.643 41.008 169.24 41.2876C168.837 41.5671 168.378 41.7538 167.893 41.8339C167.41 41.9138 166.914 41.8853 166.443 41.7502C165.971 41.6154 165.536 41.3773 165.168 41.0534C163.621 38.1932 165.79 33.522 163.089 30.2586C162.658 29.7271 162.09 29.324 161.444 29.0931C160.8 28.862 160.105 28.8123 159.435 28.9488C158.804 29.1425 158.219 29.4683 157.724 29.9047C157.228 30.3409 156.83 30.8778 156.556 31.4796C155.232 34.3453 156.601 37.5846 155.431 40.4688C155.276 40.8739 155.039 41.2422 154.734 41.5499C154.427 41.8574 154.061 42.0973 153.655 42.2544C153.252 42.4113 152.819 42.4815 152.386 42.4608C151.953 42.4399 151.528 42.3286 151.141 42.1337V38.1525C150.977 35.1683 151.347 32.1787 152.233 29.3243ZM246.675 36.815L256.319 48.47C256.055 48.7549 249.844 55.513 247.003 58.6062C246.413 59.2481 247.373 60.2101 247.961 59.5644C248.362 59.1278 254.83 52.0461 257.696 48.9732C257.817 48.8433 257.885 48.672 257.885 48.494C257.885 48.3161 257.817 48.1448 257.696 48.0149C257.281 47.5173 250.575 39.4161 247.634 35.8641C247.077 35.1796 246.122 36.1434 246.675 36.815ZM218.078 37.6327C218.078 37.6327 234.267 54.02 240.074 59.6255C240.204 59.7433 240.373 59.8068 240.548 59.8027C240.723 59.7987 240.889 59.7274 241.013 59.6037C241.136 59.4799 241.207 59.3132 241.211 59.1386C241.215 58.9638 241.151 58.7943 241.033 58.6654C239.44 57.0189 224.843 42.2855 219.038 36.6707C218.909 36.5525 218.74 36.4887 218.565 36.4925C218.39 36.4962 218.224 36.5673 218.1 36.6907C217.976 36.8143 217.905 36.9808 217.901 37.1554C217.897 37.3302 217.96 37.4999 218.078 37.629V37.6327ZM202.138 48.9658C202.542 49.4006 209.028 56.4639 211.871 59.5571C212.463 60.2027 213.42 59.2407 212.83 58.5988L203.515 48.4626C203.787 48.1315 210.216 40.367 213.157 36.8076C213.712 36.1397 212.756 35.1759 212.199 35.8493L202.138 48.0001C202.015 48.1298 201.946 48.302 201.946 48.4811C201.946 48.6602 202.015 48.8324 202.138 48.9621V48.9658Z" fill="#FAFAFA"/>
<path d="M247.633 35.8528L257.696 48.0036C257.817 48.1335 257.885 48.3048 257.885 48.4827C257.885 48.6607 257.817 48.832 257.696 48.9619C254.83 52.0347 248.362 59.1165 247.961 59.5531C247.369 60.1969 246.412 59.2368 247.003 58.5948L256.319 48.4587L246.675 36.8037C246.122 36.1432 247.077 35.1794 247.633 35.8528Z" fill="#424DE3"/>
<path d="M203.515 48.4588L212.83 58.595C213.42 59.2369 212.46 60.1989 211.871 59.5533C209.028 56.4601 202.542 49.3968 202.139 48.962C202.016 48.8325 201.948 48.661 201.948 48.4829C201.948 48.3047 202.016 48.1332 202.139 48.0037L212.195 35.8529C212.75 35.1795 213.707 36.1434 213.153 36.8112C201.902 50.405 204.943 46.7328 203.515 48.4588Z" fill="#424DE3"/>
<path d="M218.078 37.6288C217.96 37.4997 217.897 37.33 217.901 37.1552C217.905 36.9806 217.976 36.8141 218.1 36.6905C218.224 36.5671 218.39 36.496 218.565 36.4923C218.74 36.4886 218.909 36.5525 219.038 36.6705C224.845 42.2852 239.44 57.0205 241.033 58.6651C241.151 58.7941 241.215 58.9636 241.211 59.1384C241.207 59.3132 241.136 59.4797 241.013 59.6035C240.889 59.7272 240.723 59.7985 240.548 59.8025C240.373 59.8066 240.204 59.7431 240.075 59.6253C234.268 54.0198 218.078 37.6288 218.078 37.6288Z" fill="#424DE3"/>
<path d="M151.648 106.584C151.648 98.849 151.598 99.2912 151.761 99.0488C151.691 99.1791 151.661 99.3273 151.678 99.4743C151.693 99.6214 151.752 99.7605 151.846 99.8739C151.846 99.8739 196.063 150.854 198.261 153.365C201.221 156.782 204.907 159.495 209.05 161.306C213.193 163.116 217.688 163.979 222.207 163.83H275.001C275.402 164.692 275.8 165.556 276.207 166.42C268.12 164.768 263.89 167.471 259.388 164.846C259.31 164.802 259.223 164.773 259.133 164.763C259.043 164.752 258.952 164.76 258.865 164.785C258.778 164.81 258.697 164.852 258.627 164.908C258.556 164.965 258.498 165.035 258.454 165.114C258.096 167.235 258.291 169.412 259.02 171.436C259.178 171.894 259.353 172.346 259.553 172.79C259.553 172.79 224.555 172.79 221.258 172.79C216.686 172.803 212.17 171.785 208.046 169.811C203.922 167.836 200.297 164.957 197.441 161.386C193.865 157.192 153.361 110.58 152.205 109.248C151.922 109.003 151.728 108.672 151.65 108.306C151.619 107.733 151.617 107.158 151.648 106.584Z" fill="#8A39E1"/>
<path fill-rule="evenodd" clip-rule="evenodd" d="M152.325 98.7158H256.277C261.007 102.86 265.208 107.605 266.152 113.853H237.022C236.848 113.862 236.685 113.937 236.565 114.063C236.445 114.189 236.378 114.357 236.378 114.531C236.378 114.704 236.445 114.872 236.565 114.998C236.685 115.124 236.848 115.2 237.022 115.209H266.291C266.595 117.359 266.094 119.546 264.885 121.351C263.677 123.155 261.844 124.45 259.74 124.988C255.871 125.839 251.961 126.493 248.026 126.945C238.195 128.425 235.177 128.634 231.777 129.953H215.88C215.706 129.962 215.543 130.037 215.423 130.164C215.303 130.29 215.237 130.457 215.237 130.631C215.237 130.805 215.303 130.972 215.423 131.098C215.543 131.225 215.706 131.3 215.88 131.309H229.344C223.85 135.253 225.885 143.303 231.71 146.618H197.053C196.879 146.627 196.715 146.702 196.596 146.828C196.476 146.955 196.409 147.122 196.409 147.296C196.409 147.47 196.476 147.637 196.596 147.763C196.715 147.889 196.879 147.965 197.053 147.974H234.626C237.67 148.946 240.814 149.576 243.998 149.85C252.345 150.685 260.743 150.891 269.121 150.466C270.938 154.93 272.975 159.505 275 163.838H222.207C217.688 163.985 213.192 163.121 209.049 161.309C204.907 159.498 201.221 156.783 198.261 153.365C196.063 150.851 151.846 99.8702 151.846 99.8702C151.759 99.7731 151.7 99.653 151.678 99.5241C151.656 99.395 151.67 99.2625 151.72 99.1415C151.77 99.0207 151.854 98.9165 151.961 98.8412C152.068 98.7658 152.194 98.7223 152.325 98.7158ZM194.039 115.209H167.68H167.677C167.536 115.159 167.416 115.067 167.329 114.946C167.244 114.824 167.197 114.679 167.197 114.531C167.197 114.382 167.244 114.237 167.329 114.116C167.416 113.994 167.536 113.902 167.677 113.853H194.039C194.213 113.862 194.376 113.937 194.496 114.063C194.616 114.189 194.683 114.357 194.683 114.531C194.683 114.704 194.616 114.872 194.496 114.998C194.376 115.124 194.213 115.2 194.039 115.209ZM228.867 114.998C228.747 115.124 228.584 115.2 228.41 115.209H202.621C202.447 115.2 202.284 115.124 202.164 114.998C202.044 114.872 201.978 114.704 201.978 114.531C201.978 114.357 202.044 114.189 202.164 114.063C202.284 113.937 202.447 113.862 202.621 113.853H228.41C228.584 113.862 228.747 113.937 228.867 114.063C228.987 114.189 229.054 114.357 229.054 114.531C229.054 114.704 228.987 114.872 228.867 114.998ZM208.108 131.093C207.988 131.219 207.825 131.295 207.651 131.304H182.086C181.912 131.295 181.75 131.219 181.629 131.093C181.509 130.967 181.442 130.799 181.442 130.626C181.442 130.452 181.509 130.284 181.629 130.158C181.75 130.032 181.912 129.957 182.086 129.948H207.651C207.825 129.957 207.988 130.032 208.108 130.158C208.228 130.284 208.295 130.452 208.295 130.626C208.295 130.799 208.228 130.967 208.108 131.093Z" fill="#303030"/>
<path d="M231.781 129.953C235.132 128.627 238.678 128.346 248.03 126.945C255.726 125.793 257.113 125.65 259.744 124.988C263.814 123.968 266.607 120.453 266.291 115.209C265.882 108.44 261.376 103.173 256.277 98.7159C248.474 91.8968 235.465 83.9289 234.554 73.6392C234.402 72.1029 234.632 70.5528 235.224 69.127C235.816 67.7012 236.751 66.4442 237.947 65.4677C241.011 63.0257 244.885 64.0969 248.1 65.6879C260.289 72.1009 271.947 79.4776 282.961 87.7473C283.604 85.059 284.868 82.5588 286.65 80.4459C288.432 78.3332 290.684 76.6667 293.225 75.5798C302.51 71.471 313.044 75.2098 319.797 82.5673C322.849 77.0709 329.715 75.0433 335.696 75.8832C343.342 76.9581 348.992 82.9373 352.362 89.5214C356.253 97.8233 358.664 106.741 359.485 115.873C360.153 122.962 359.877 123.75 360.071 171.045C360.069 170.866 359.997 170.696 359.87 170.569C359.744 170.443 359.573 170.371 359.394 170.368C352.477 170.318 381.431 170.368 285.871 170.368C282.935 168.446 279.657 167.105 276.214 166.42C273.036 159.714 270.746 154.434 269.129 150.462C260.749 150.889 252.348 150.684 243.999 149.85C240.812 149.596 237.666 148.968 234.626 147.978C224.934 144.67 222.903 133.464 231.781 129.953ZM297.443 107.552C297.769 108.351 299.079 108.001 298.751 107.193C296.278 101.068 292.367 95.6279 287.35 91.3326C286.689 90.7776 285.725 91.7248 286.391 92.2909C291.246 96.4179 295.036 101.652 297.443 107.552ZM332.734 100.255C330.53 95.2583 327.475 90.6817 323.706 86.7298C323.103 86.0952 322.146 87.0554 322.747 87.6881C326.43 91.5614 329.413 96.0445 331.563 100.938C331.912 101.737 333.082 101.045 332.734 100.255Z" fill="#FAFAFA"/>
<path d="M103.088 285.216C108.157 279.476 114.021 274.492 120.505 270.416C131.073 264.1 140.543 264.023 152.558 265.639C160.169 266.662 172.233 268.927 172.751 269.154C172.653 269.136 172.553 269.138 172.457 269.162C172.363 269.186 172.272 269.23 172.196 269.293C172.118 269.354 172.056 269.434 172.013 269.523C171.969 269.611 171.946 269.709 171.945 269.807C171.945 270.812 171.662 306.088 171.945 335.031C171.946 335.17 171.991 335.305 172.07 335.418C172.15 335.531 172.263 335.616 172.394 335.664C162.21 333.266 152.166 330.31 142.308 326.808C129.341 322.236 124.943 320.209 120.518 318.52C118.596 317.804 116.79 316.812 115.153 315.578C114.506 315.112 113.96 314.52 113.547 313.837C113.135 313.155 112.863 312.396 112.752 311.606C112.639 310.816 112.689 310.012 112.894 309.24C113.102 308.471 113.462 307.749 113.954 307.122C111.59 307.214 109.246 306.648 107.187 305.485C105.811 304.619 104.803 303.278 104.351 301.716C103.902 300.155 104.04 298.482 104.743 297.017C103.532 296.756 102.436 296.109 101.62 295.175C100.806 294.239 100.318 293.066 100.226 291.828C100.324 289.345 101.343 286.987 103.088 285.216ZM139.579 303.668C133.165 304.116 126.773 304.795 120.404 305.703C120.23 305.751 120.083 305.866 119.995 306.023C119.906 306.178 119.882 306.363 119.93 306.537C119.982 306.708 120.098 306.852 120.252 306.941C120.407 307.028 120.59 307.054 120.764 307.011C127.01 306.117 133.281 305.453 139.579 305.017C140.445 304.963 140.448 303.607 139.579 303.668ZM133.2 283.494C133.979 283.098 133.291 281.929 132.516 282.323L109.916 293.78C109.137 294.174 109.823 295.343 110.6 294.949L133.2 283.494Z" fill="#FAFAFA"/>
<path d="M171.945 269.808C171.946 269.719 171.965 269.63 172 269.549C172.035 269.467 172.087 269.393 172.15 269.332C172.215 269.269 172.291 269.221 172.372 269.188C172.455 269.157 172.544 269.14 172.633 269.142C174.955 269.181 209.337 277.914 226.407 281.433C227.983 274.359 230.234 267.453 233.128 260.809C235.902 254.257 239.69 248.183 244.352 242.807C259.892 225.141 285.671 221.545 308.837 229C304.828 221.739 300.862 214.452 296.94 207.141C297.99 204.547 298.503 201.767 298.448 198.968C298.393 196.17 297.771 193.412 296.62 190.861C295.84 189.214 294.625 187.814 293.105 186.809C292.929 186.271 292.708 185.747 292.446 185.244C294.365 183.126 293.39 179.441 292.03 176.879C290.547 174.228 288.424 171.992 285.855 170.372H359.387C359.566 170.374 359.737 170.446 359.863 170.573C359.99 170.699 360.062 170.87 360.064 171.049C360.177 182.876 360.75 340.518 360.75 341.345C360.748 341.525 360.676 341.695 360.55 341.823C360.423 341.948 360.252 342.021 360.073 342.022H224.405C224.226 342.021 224.055 341.948 223.928 341.823C223.801 341.695 223.728 341.525 223.726 341.345C223.726 341.051 223.726 340.759 223.726 340.465C206.492 341.356 189.22 339.747 172.448 335.684L172.4 335.664C172.27 335.616 172.157 335.531 172.076 335.418C171.996 335.305 171.952 335.17 171.95 335.031C171.943 334.85 171.937 270.692 171.945 269.808ZM216.23 333H206.898C206.725 333.009 206.561 333.085 206.442 333.211C206.322 333.337 206.255 333.503 206.255 333.679C206.255 333.853 206.322 334.019 206.442 334.145C206.561 334.271 206.725 334.347 206.898 334.356H216.23C216.404 334.347 216.567 334.271 216.687 334.145C216.807 334.019 216.873 333.853 216.873 333.679C216.873 333.503 216.807 333.337 216.687 333.211C216.567 333.085 216.404 333.009 216.23 333ZM227.104 281.57C226.251 281.398 225.889 282.706 226.734 282.878C245.151 286.578 253.415 287.503 271.023 281.148C290.591 274.087 305.97 266.069 323.989 259.318C324.799 259.013 324.446 257.703 323.619 258.01C304.123 265.32 274.982 279.907 258.869 283.366C248.216 285.64 237.814 283.733 227.104 281.57ZM327.017 189.914C326.832 190.765 328.127 191.124 328.325 190.274C328.788 188.275 328.611 186.178 327.819 184.284C327.027 182.389 325.66 180.791 323.911 179.715C322.459 179.025 320.866 178.686 319.259 178.725C317.652 178.765 316.077 179.182 314.661 179.942C312.601 181.258 310.894 183.058 309.69 185.185C307.415 188.539 302.266 197.765 300.303 201.319C300.212 201.474 300.187 201.659 300.232 201.833C300.278 202.007 300.39 202.155 300.545 202.246C300.622 202.29 300.707 202.32 300.795 202.333C300.883 202.344 300.973 202.338 301.059 202.316C301.233 202.272 301.381 202.159 301.472 202.003C306.206 194.089 311.157 183.396 315.227 181.189C316.48 180.467 317.895 180.074 319.341 180.049C320.787 180.023 322.215 180.365 323.493 181.043C324.916 181.985 326.016 183.34 326.646 184.926C327.276 186.511 327.406 188.252 327.017 189.914ZM354.547 179.045C354.538 178.871 354.462 178.708 354.336 178.588C354.21 178.468 354.043 178.401 353.869 178.401C353.695 178.401 353.528 178.468 353.402 178.588C353.275 178.708 353.2 178.871 353.191 179.045V190.043C353.2 190.217 353.275 190.38 353.402 190.5C353.528 190.62 353.695 190.687 353.869 190.687C354.043 190.687 354.21 190.62 354.336 190.5C354.462 190.38 354.538 190.217 354.547 190.043V179.045ZM224.39 340.42C255.507 338.313 275.003 327.89 300.118 310.887C319.184 297.979 325.561 292.444 338.654 283.463C339.368 282.972 338.689 281.798 337.969 282.293C323.263 292.381 320.246 295.65 297.021 311.338C273.5 327.23 253.493 337.218 224.39 339.061C223.547 339.118 223.508 340.48 224.39 340.42Z" fill="#424DE3"/>
<path d="M293.519 188.837C297.391 192.761 297.785 200.418 296.092 205.538C294.256 202.097 292.434 198.649 290.626 195.193C291.596 194.457 292.369 193.489 292.874 192.379C293.379 191.271 293.601 190.052 293.519 188.837Z" fill="#424DE3"/>
<path d="M258.369 165.431C258.372 165.312 258.405 165.197 258.466 165.095C258.526 164.994 258.612 164.909 258.714 164.851C258.817 164.792 258.933 164.76 259.051 164.76C259.169 164.759 259.285 164.789 259.389 164.846C263.222 167.083 267.099 165.432 273.312 165.956C280.342 166.553 288.667 170.514 292.039 176.871C293.394 179.42 294.37 183.12 292.456 185.237C288.9 178.414 279.935 177.794 274.229 182.049C273.782 182.349 273.374 182.704 273.016 183.107C269.163 182.16 265.623 180.224 262.746 177.491C261.171 175.929 259.962 174.037 259.205 171.952C258.448 169.866 258.163 167.639 258.369 165.431Z" fill="#303030"/>
<path d="M285.575 186.859C286.961 186.526 288.406 186.532 289.789 186.876C291.172 187.222 292.451 187.893 293.519 188.837C294.087 195.643 284.362 200.446 276.444 196.659C277.726 192.041 280.924 187.849 285.575 186.859Z" fill="#FAFAFA"/>
<path d="M270.956 186.954C272.742 178.273 289.442 175.615 293.114 186.806C292.552 186.432 291.945 186.132 291.306 185.912C285.114 183.723 277.842 187.207 275.237 195.939C273.752 194.994 272.563 193.651 271.806 192.061C271.049 190.472 270.754 188.702 270.956 186.954Z" fill="#FAFAFA"/>
<path d="M309.69 185.185C310.898 183.059 312.609 181.261 314.672 179.949C316.088 179.189 317.663 178.772 319.27 178.732C320.877 178.693 322.47 179.032 323.922 179.722C325.671 180.798 327.038 182.396 327.83 184.291C328.622 186.186 328.799 188.282 328.336 190.282C328.14 191.131 326.834 190.772 327.028 189.921C327.418 188.258 327.288 186.513 326.657 184.926C326.026 183.338 324.922 181.982 323.496 181.041C322.219 180.363 320.79 180.021 319.345 180.047C317.899 180.072 316.483 180.465 315.231 181.187C311.161 183.396 306.308 193.922 301.476 202.001C301.385 202.157 301.236 202.27 301.063 202.314C300.977 202.336 300.887 202.342 300.799 202.331C300.711 202.318 300.626 202.288 300.549 202.244C300.472 202.199 300.405 202.138 300.351 202.068C300.298 201.998 300.258 201.916 300.236 201.831C300.213 201.744 300.208 201.655 300.22 201.567C300.232 201.478 300.262 201.395 300.307 201.317C302.257 197.765 307.407 188.532 309.69 185.185Z" fill="#FAFAFA"/>
<path d="M243.819 197.985C246.461 183.451 261.438 181.781 265.693 190.857C267.001 193.641 267.617 196.699 267.491 199.772C267.701 199.661 267.199 199.696 274.521 199.696C275.015 193.961 278.258 188.032 283.649 186.006C286.02 184.997 288.689 184.937 291.102 185.84C293.516 186.743 295.49 188.539 296.616 190.857C298.767 195.617 299.04 201.014 297.382 205.966C296.492 208.719 294.737 211.111 292.378 212.785C284.608 218.324 274.288 213.094 274.451 201.051C267.236 201.051 267.662 201.104 267.421 200.928C267.297 202.64 266.972 204.331 266.452 205.966C264.541 211.982 258.312 216.209 252.164 214.661C246.507 213.223 242.289 206.395 243.819 197.985ZM279.574 211.12C284.728 216.126 293.007 213.018 295.669 206.708C298.015 201.158 297.593 191.268 292.367 187.908C290.318 186.707 287.89 186.328 285.573 186.85C276.268 188.841 272.235 204.001 279.574 211.129V211.12ZM248.647 211.12C253.827 216.148 262.152 212.994 264.742 206.708C266.41 202.336 266.554 197.53 265.153 193.066C264.519 190.983 263.214 189.17 261.44 187.908C259.388 186.717 256.964 186.339 254.647 186.85C245.282 188.885 241.344 204.036 248.64 211.129L248.647 211.12Z" fill="#FAFAFA"/>
<path d="M162.08 219.858L174.694 230.588C175.358 231.154 174.396 232.108 173.734 231.546L161.122 220.816C160.456 220.252 161.42 219.295 162.08 219.858Z" fill="#424DE3"/>
<path d="M175.473 229.454C171.156 226.011 166.922 222.472 162.772 218.836C162.116 218.261 163.078 217.305 163.731 217.878C167.884 221.512 172.118 225.051 176.431 228.495C177.113 229.039 176.148 229.994 175.473 229.454Z" fill="#424DE3"/>
<path d="M90.3374 208.663C92.1134 205.422 106.12 181.548 106.802 180.39C106.863 180.289 106.95 180.207 107.052 180.149C107.154 180.092 107.27 180.062 107.387 180.062C107.505 180.062 107.62 180.092 107.724 180.149C107.825 180.207 107.912 180.289 107.973 180.39C109.86 183.568 123.774 207.494 124.438 208.663C124.496 208.767 124.527 208.883 124.525 209.002C124.525 209.12 124.494 209.237 124.435 209.339C124.376 209.442 124.292 209.527 124.191 209.588C124.089 209.647 123.972 209.681 123.854 209.683H110.919V204.04C110.909 203.866 110.834 203.703 110.708 203.583C110.582 203.463 110.414 203.396 110.24 203.396C110.066 203.396 109.899 203.463 109.773 203.583C109.648 203.703 109.572 203.866 109.563 204.04V209.683H90.9109C90.7943 209.675 90.6833 209.638 90.5853 209.575C90.4872 209.514 90.4077 209.427 90.3503 209.327C90.293 209.226 90.2615 209.113 90.2597 208.996C90.2578 208.882 90.2837 208.767 90.3374 208.663Z" fill="#424DE3"/>
<path d="M124.157 156.554H136.006C136.186 156.556 136.356 156.628 136.484 156.755C136.61 156.881 136.682 157.052 136.684 157.231V169.09C136.682 169.269 136.61 169.441 136.484 169.568C136.358 169.695 136.186 169.767 136.006 169.769C127.928 169.826 125.245 169.845 124.302 169.782C123.861 169.754 123.506 169.704 123.456 168.944C123.395 168.035 123.421 165.414 123.478 157.241C123.478 157.06 123.549 156.886 123.676 156.757C123.804 156.629 123.976 156.556 124.157 156.554Z" fill="#FAFAFA"/>
<path d="M77.0877 144.244C79.8294 143.239 82.8153 143.106 85.6365 143.862C88.4577 144.618 90.9756 146.228 92.846 148.47C94.7182 150.712 95.8503 153.478 96.0908 156.388C96.3295 159.299 95.6654 162.213 94.1854 164.731C92.7054 167.249 90.4854 169.248 87.8251 170.456C85.1666 171.664 82.1992 172.02 79.3299 171.477C76.4605 170.934 73.828 169.517 71.7948 167.421C69.7598 165.325 68.4241 162.652 67.9672 159.768C67.4492 156.524 68.0763 153.201 69.7413 150.369C71.4045 147.537 74.0019 145.372 77.0877 144.244Z" fill="#FAFAFA"/>
<path d="M130.037 113.805C130.094 113.908 130.125 114.025 130.124 114.144C130.124 114.262 130.092 114.378 130.033 114.481C129.974 114.584 129.889 114.67 129.787 114.73C129.685 114.791 129.569 114.824 129.45 114.826H113.66C113.568 114.821 113.477 114.798 113.394 114.758C113.311 114.718 113.237 114.662 113.176 114.594C113.115 114.525 113.066 114.444 113.037 114.357C113.007 114.27 112.994 114.178 113 114.086C113.026 113.564 120.827 100.492 120.97 100.251C121.031 100.151 121.116 100.068 121.219 100.01C121.321 99.952 121.438 99.9216 121.554 99.9216C121.673 99.9216 121.789 99.952 121.891 100.01C121.995 100.068 122.08 100.151 122.141 100.251C124.481 104.192 129.713 113.242 130.037 113.805Z" fill="#424DE3"/>
<path d="M97.7041 55.7181C98.6069 52.8472 100.401 50.3388 102.827 48.5567C105.25 46.7746 108.181 45.8117 111.191 45.8076H114.491C114.67 45.81 114.841 45.882 114.968 46.0085C115.094 46.1349 115.166 46.3056 115.17 46.4847V58.4598C115.168 58.6394 115.096 58.8113 114.97 58.9382C114.842 59.0653 114.67 59.1372 114.491 59.1387C113.947 59.1256 113.407 59.2236 112.902 59.4268C112.399 59.6299 111.94 59.9338 111.557 60.3201C111.174 60.7064 110.874 61.1667 110.676 61.673C110.476 62.1792 110.384 62.7207 110.402 63.2642V70.4422C110.401 70.6211 110.328 70.7919 110.201 70.9184C110.075 71.0448 109.905 71.1169 109.725 71.1193H97.7429C97.5635 71.1175 97.3915 71.0455 97.2657 70.919C97.138 70.7924 97.0658 70.6213 97.064 70.4422C96.9844 59.3052 96.9123 58.3895 97.7041 55.7181Z" fill="#424DE3"/>
<path d="M132.506 69.2417C133.786 66.9052 143.913 49.6447 144.411 48.8066C144.472 48.7058 144.557 48.6225 144.661 48.5648C144.763 48.5069 144.879 48.4766 144.996 48.4766C145.114 48.4766 145.231 48.5069 145.332 48.5648C145.436 48.6225 145.521 48.7058 145.582 48.8066C146.942 51.0951 157.002 68.3963 157.487 69.2417C157.544 69.3449 157.576 69.4615 157.574 69.5799C157.574 69.6983 157.542 69.8145 157.483 69.9171C157.424 70.0198 157.341 70.1055 157.239 70.1658C157.137 70.2261 157.021 70.2588 156.902 70.261H133.091C132.974 70.2544 132.861 70.2189 132.762 70.1574C132.664 70.0962 132.58 70.0109 132.523 69.9097C132.464 69.8085 132.432 69.6944 132.429 69.5777C132.427 69.4611 132.453 69.3455 132.506 69.2417Z" fill="#FAFAFA"/>
<path d="M110.93 237.366C110.92 237.54 110.845 237.703 110.719 237.823C110.593 237.943 110.425 238.01 110.251 238.01C110.077 238.01 109.91 237.943 109.785 237.823C109.659 237.703 109.583 237.54 109.574 237.366V204.04C109.583 203.866 109.659 203.703 109.785 203.583C109.91 203.463 110.077 203.396 110.251 203.396C110.425 203.396 110.593 203.463 110.719 203.583C110.845 203.703 110.92 203.866 110.93 204.04V237.366Z" fill="#FAFAFA"/>
<path d="M119.26 141.719V171.045C119.26 171.225 119.19 171.397 119.062 171.524C118.935 171.651 118.763 171.722 118.583 171.722C118.404 171.722 118.232 171.651 118.104 171.524C117.978 171.397 117.906 171.225 117.906 171.045V141.719C117.906 141.539 117.978 141.367 118.104 141.24C118.232 141.113 118.404 141.042 118.583 141.042C118.763 141.042 118.935 141.113 119.062 141.24C119.19 141.367 119.26 141.539 119.26 141.719Z" fill="#FAFAFA"/>
<path d="M108.595 99.0601V141.055C108.586 141.229 108.51 141.392 108.384 141.512C108.258 141.632 108.09 141.699 107.916 141.699C107.742 141.699 107.576 141.632 107.45 141.512C107.324 141.392 107.248 141.229 107.239 141.055V99.0601C107.248 98.8864 107.324 98.7229 107.45 98.603C107.576 98.4833 107.742 98.4165 107.916 98.4165C108.09 98.4165 108.258 98.4833 108.384 98.603C108.51 98.7229 108.586 98.8864 108.595 99.0601Z" fill="#FAFAFA"/>
<path d="M101.265 88.7296V120.723C101.256 120.897 101.18 121.061 101.054 121.18C100.929 121.3 100.762 121.367 100.588 121.367C100.414 121.367 100.246 121.3 100.12 121.18C99.9944 121.061 99.9186 120.897 99.9093 120.723V88.7296C99.9186 88.5558 99.9944 88.3923 100.12 88.2724C100.246 88.1527 100.414 88.0859 100.588 88.0859C100.762 88.0859 100.929 88.1527 101.054 88.2724C101.18 88.3923 101.256 88.5558 101.265 88.7296Z" fill="#FAFAFA"/>
<path d="M198.642 268.111C199.452 268.415 199.101 269.726 198.281 269.417C189.049 265.952 179.435 263.603 169.645 262.422C168.788 262.319 168.779 260.963 169.645 261.066C179.559 262.241 189.294 264.607 198.642 268.111Z" fill="#FAFAFA"/>
<path d="M171.245 255.115C181.278 256.726 191.095 259.47 200.511 263.29C201.31 263.614 200.96 264.926 200.141 264.598C190.725 260.778 180.908 258.034 170.875 256.423C170.026 256.288 170.385 254.982 171.245 255.115Z" fill="#FAFAFA"/>
<path d="M353.502 52.0238C350.309 56.6488 342.587 67.8561 342.587 67.8561C342.095 68.5702 340.922 67.8913 341.418 67.1716L352.333 51.3393C352.823 50.6252 353.998 51.3023 353.502 52.0238Z" fill="#FAFAFA"/>
<path d="M333.709 66.6091C333.524 67.462 332.212 67.1012 332.403 66.2502C332.985 63.6195 337.583 42.881 337.583 42.881C337.768 42.0282 339.079 42.3889 338.891 43.251C337.995 47.3321 334.804 61.6881 333.709 66.6091Z" fill="#FAFAFA"/>
<path fill-rule="evenodd" clip-rule="evenodd" d="M66.785 292.777H100.379C99.7298 290.121 101.226 287.449 103.088 285.216C108.95 278.467 115.993 272.843 123.87 268.618C134.403 253.594 157.318 223.443 158.371 222.087C158.453 221.972 158.575 221.893 158.713 221.867C158.85 221.841 158.995 221.869 159.111 221.946C159.5 222.213 172.109 232.639 172.32 232.815C172.444 232.944 172.512 233.117 172.512 233.294C172.512 233.472 172.444 233.644 172.32 233.773C163.669 243.118 164.781 242.624 143.645 264.798C164.348 265.627 199.907 275.974 226.399 281.433C227.95 274.353 230.201 267.443 233.118 260.809C235.894 254.256 239.681 248.183 244.342 242.807C260.264 224.952 286.139 221.698 308.828 229C304.818 221.739 300.853 214.452 296.931 207.141C294.172 213.675 286.571 216.946 280.762 213.708C276.266 211.19 274.379 206.01 274.446 201.052C267.231 201.052 267.656 201.104 267.416 200.928C267.292 202.64 266.967 204.331 266.446 205.966C265.586 208.941 263.641 211.484 260.996 213.096C258.35 214.705 255.196 215.264 252.159 214.661C245.373 212.822 242.522 205.041 243.806 197.992C246.437 183.514 261.42 181.748 265.68 190.863C266.988 193.647 267.605 196.705 267.479 199.778C267.686 199.669 267.186 199.702 274.509 199.702C274.609 198.427 274.848 197.167 275.221 195.944C270.812 193.027 269.164 186.985 273.001 183.117C267.081 181.394 262.065 178.471 259.538 172.795C259.538 172.795 224.54 172.807 221.243 172.795C216.674 172.791 212.164 171.765 208.043 169.792C203.922 167.819 200.295 164.948 197.426 161.392L157.363 115.214H154.34C154.166 115.205 154.003 115.13 153.883 115.003C153.763 114.877 153.696 114.71 153.696 114.536C153.696 114.362 153.763 114.195 153.883 114.069C154.003 113.942 154.166 113.867 154.34 113.858H156.19C151.495 108.447 151.75 108.835 151.633 108.308C151.602 107.734 151.602 107.159 151.633 106.586C151.633 102.632 151.606 100.786 151.633 99.8814C151.669 98.6474 151.907 98.7714 152.612 98.7529C155.853 98.6641 172.535 98.7177 256.26 98.7177C254.634 97.2951 252.858 95.8558 251.25 94.583H151.811C151.632 94.58 151.461 94.5075 151.336 94.3808C151.208 94.2541 151.136 94.0829 151.134 93.904V70.261H133.076C132.984 70.2562 132.893 70.2333 132.81 70.1935C132.726 70.1537 132.652 70.0977 132.591 70.029C132.528 69.9602 132.482 69.8799 132.451 69.7926C132.421 69.7055 132.408 69.6132 132.414 69.521C132.429 69.2694 131.646 70.6976 144.396 48.801C144.457 48.7002 144.542 48.617 144.646 48.5592C144.748 48.5013 144.864 48.471 144.981 48.471C145.099 48.471 145.216 48.5013 145.318 48.5592C145.421 48.617 145.506 48.7002 145.567 48.801C146.907 51.1024 151.134 58.3563 151.134 58.3563V43.5859C150.392 43.3742 149.722 42.9606 149.201 42.3908C146.365 38.8203 149.097 34.2378 146.309 31.6201C146.056 31.4116 145.763 31.2553 145.449 31.16C145.134 31.0649 144.805 31.0327 144.479 31.0653C144.152 31.098 143.836 31.195 143.545 31.3504C143.257 31.5059 143.001 31.717 142.794 31.9716C142.106 32.7782 141.723 33.8009 141.71 34.8613C141.407 37.6117 141.403 40.3869 141.699 43.1382C141.791 44.0058 140.435 43.9984 140.343 43.1382C139.973 39.6839 140.104 36.1942 140.737 32.7782C140.905 32.1795 141.207 31.6264 141.618 31.1589C142.028 30.6916 142.537 30.3216 143.109 30.0763C143.68 29.8308 144.3 29.7163 144.922 29.7407C145.543 29.7651 146.15 29.9281 146.701 30.2178C147.65 30.9034 148.335 31.8931 148.642 33.0224C149.622 36.5929 148.477 37.6825 149.706 40.7461C150.015 41.3489 150.514 41.8326 151.126 42.1225V38.1524C150.96 35.1686 151.326 32.179 152.211 29.3242C153.287 26.1169 155.148 23.2302 157.626 20.9271C160.105 18.624 163.12 16.978 166.396 16.1392C168.563 15.6947 170.77 15.4746 172.982 15.4825C182.486 15.2771 288.948 15.2346 292.409 15.5713C297.479 16.0428 302.191 18.388 305.624 22.1486C309.057 25.9091 310.964 30.8148 310.972 35.9065V76.0904C314.308 77.649 317.303 79.8492 319.789 82.5654C322.842 77.069 329.707 75.0414 335.688 75.8813C343.334 76.9562 348.938 82.9594 352.355 89.5195C356.247 97.821 358.657 106.739 359.477 115.871C360.125 123.363 360.716 329.531 360.749 340.97L360.75 341.345C360.748 341.525 360.676 341.695 360.549 341.821C360.423 341.948 360.252 342.02 360.073 342.022H224.405C224.226 342.02 224.055 341.948 223.928 341.821C223.801 341.695 223.729 341.525 223.726 341.345V340.465C213.09 341.081 202.419 340.668 191.862 339.233C191.862 339.973 191.827 340.785 191.827 340.785C191.824 340.964 191.751 341.134 191.624 341.262C191.498 341.388 191.327 341.46 191.148 341.464H66.785C66.6056 341.46 66.4353 341.388 66.3095 341.26C66.1837 341.134 66.1116 340.964 66.1079 340.785V293.456C66.1116 293.277 66.1837 293.106 66.3095 292.981C66.4353 292.853 66.6056 292.781 66.785 292.777ZM261.442 187.917C263.224 189.172 264.532 190.988 265.155 193.075C266.574 197.537 266.429 202.349 264.742 206.717C262.051 213.098 253.713 216.069 248.647 211.129C241.283 204.001 245.382 188.783 254.649 186.859C256.966 186.339 259.393 186.717 261.442 187.917ZM158.959 223.53L170.877 233.368C161.566 243.911 151.421 254.717 141.832 264.761C136.513 264.598 131.221 265.553 126.292 267.56C136.515 253.3 145.937 241.355 158.959 223.53ZM171.817 270.337C171.787 271.029 171.845 271.75 171.845 272.431V334.139C148.797 328.669 132.517 321.609 121.834 317.589C119.956 316.909 118.163 316.009 116.493 314.912C115.762 314.448 115.155 313.814 114.724 313.062C114.295 312.309 114.054 311.466 114.023 310.6C114.004 309.842 114.217 309.094 114.633 308.458C115.05 307.823 115.649 307.329 116.352 307.043C116.506 306.993 116.635 306.891 116.72 306.756C116.807 306.619 116.84 306.458 116.818 306.299C116.796 306.14 116.72 305.994 116.6 305.886C116.482 305.779 116.328 305.716 116.167 305.711C113.068 305.853 109.024 305.908 106.756 303.385C105.202 301.663 104.727 298.331 106.691 296.725C107.233 296.283 106.647 295.417 106.033 295.593C103.859 296.216 101.632 293.867 101.578 291.821C101.509 289.022 103.454 286.724 105.278 284.791C114.16 275.402 124.89 267.025 137.736 266.219C143.484 265.908 149.249 266.281 154.908 267.329C160.573 268.157 166.208 269.19 171.817 270.337ZM98.0648 307.766C98.5384 307.061 103.593 299.761 104.12 299.001C103.95 300.344 104.199 301.707 104.834 302.902C104.834 302.902 99.7835 308.119 99.1748 308.737C98.8585 309.063 98.4847 309.29 98.0648 308.955C97.6152 308.597 97.7965 308.165 98.0648 307.766ZM293.137 191.725C293.461 190.798 293.591 189.814 293.519 188.835C297.069 192.435 297.589 198.721 296.605 203.622C294.933 200.497 293.276 197.363 291.634 194.222C292.301 193.501 292.812 192.651 293.137 191.725ZM291.995 187.71C286.674 184.95 279.737 187.488 276.865 195.349C283.881 198.843 293.799 194.631 291.995 187.71ZM296.092 205.539C293.547 213.312 284.621 216.043 279.574 211.129C275.741 207.418 275.069 201.604 276.442 196.659C278.709 197.754 281.237 198.198 283.742 197.939C286.247 197.68 288.63 196.729 290.626 195.193C292.434 198.649 294.256 202.098 296.092 205.539ZM272.748 190.859C272.196 189.323 272.151 187.651 272.622 186.088C274.827 181.329 281.798 179.529 286.935 181.681C288.809 182.59 290.342 184.076 291.308 185.921C285.475 183.901 278.688 186.733 275.689 194.616C274.331 193.712 273.3 192.392 272.748 190.859ZM274.229 182.053C269.804 181.179 265.785 178.885 262.783 175.519C260.67 172.997 259.555 169.788 259.647 166.5C261.71 167.292 263.93 167.589 266.128 167.369C270.934 166.715 275.826 167.288 280.351 169.034C286.038 171.243 291.26 175.421 292.106 181.44C292.236 182.305 292.097 183.189 291.708 183.971C287.977 178.636 279.901 177.876 274.229 182.053ZM198.705 160.783C195.595 157.2 155.08 110.504 152.995 108.099L153.004 101.204C155.811 104.438 196.063 150.849 198.261 153.365C201.231 156.771 204.919 159.476 209.059 161.285C213.2 163.095 217.69 163.964 222.207 163.83H274.991C275.393 164.696 275.791 165.56 276.198 166.42C272.876 165.789 269.48 165.656 266.119 166.023C263.693 166.332 261.23 165.891 259.061 164.761C258.971 164.759 258.881 164.774 258.797 164.807C258.713 164.839 258.636 164.888 258.571 164.95C258.505 165.012 258.453 165.087 258.417 165.169C258.38 165.252 258.36 165.34 258.358 165.431C258.12 167.456 258.343 169.509 259.011 171.436H221.33C217.006 171.441 212.735 170.489 208.823 168.647C204.911 166.806 201.455 164.12 198.705 160.783ZM198.714 151.828L153.85 100.129H153.859C155.48 100.168 257.779 100.072 257.779 100.076C261.871 103.898 265.297 108.321 266.15 113.856H237.022C236.848 113.865 236.685 113.941 236.565 114.067C236.445 114.193 236.378 114.36 236.378 114.534C236.378 114.708 236.445 114.875 236.565 115.002C236.685 115.128 236.848 115.203 237.022 115.212H266.293C266.6 120.551 263.714 124.031 259.744 124.991C252.993 126.742 238.517 127.345 231.781 129.957H215.884C215.722 129.982 215.575 130.064 215.469 130.189C215.363 130.313 215.304 130.471 215.304 130.635C215.304 130.798 215.363 130.957 215.469 131.081C215.575 131.205 215.722 131.287 215.884 131.313H229.344C223.822 135.274 225.9 143.312 231.711 146.622H197.053C196.879 146.631 196.715 146.706 196.596 146.832C196.476 146.958 196.409 147.126 196.409 147.3C196.409 147.474 196.476 147.641 196.596 147.767C196.715 147.893 196.879 147.969 197.053 147.978H234.626C237.665 148.969 240.81 149.598 243.996 149.85C252.34 150.742 260.743 150.947 269.119 150.462C270.77 154.51 272.538 158.51 274.37 162.478H221.34C217.016 162.484 212.744 161.532 208.832 159.691C204.92 157.849 201.464 155.164 198.714 151.828ZM134.266 68.9142L144.996 50.5049C145.182 50.8138 155.537 68.5886 155.726 68.9142H134.266ZM308.083 28.4518C309.088 30.8089 309.609 33.3439 309.616 35.9065L309.623 75.5095C307.026 74.4178 304.235 73.8613 301.417 73.8733C298.599 73.8856 295.813 74.4659 293.225 75.5798C290.691 76.6772 288.445 78.347 286.664 80.458C284.884 82.5693 283.616 85.0642 282.961 87.7472C271.945 79.4811 260.288 72.1064 248.1 65.6934C244.885 64.1024 241.011 63.0312 237.947 65.4732C236.747 66.4463 235.809 67.703 235.217 69.1298C234.624 70.5563 234.397 72.1079 234.554 73.6447C235.006 77.213 236.526 80.5611 238.915 83.2499C242.033 87.0046 245.607 90.3555 249.556 93.2251H152.497V70.261H156.895C157.013 70.2588 157.13 70.2261 157.231 70.1658C157.333 70.1055 157.417 70.0198 157.476 69.9171C157.535 69.8144 157.566 69.6983 157.566 69.5799C157.568 69.4615 157.537 69.3449 157.479 69.2417C156.989 68.3981 153.667 62.6964 152.497 60.6891V43.8153C155.328 43.856 157.002 41.4954 157.222 38.676C157.424 36.0971 156.353 31.7995 159.366 30.4046C159.994 30.1869 160.682 30.2232 161.283 30.506C161.884 30.7889 162.35 31.2956 162.582 31.9179C163.135 33.2211 163.361 34.6404 163.237 36.0508C163.198 38.5113 162.883 42.4315 166.028 43.1012C167.262 43.3848 168.559 43.2148 169.678 42.622C170.825 41.8928 171.667 40.7719 172.05 39.4678C172.614 36.4543 172.607 33.3613 172.026 30.351C171.919 29.4963 170.563 29.487 170.67 30.351C170.927 32.1518 171.079 33.9659 171.125 35.7844C171.249 37.3161 170.936 38.8516 170.224 40.2133C169.98 40.6383 169.643 41.0037 169.242 41.283C168.838 41.5624 168.38 41.7488 167.895 41.8289C167.412 41.9089 166.916 41.8806 166.445 41.7457C165.973 41.6108 165.538 41.3731 165.17 41.0495C163.66 38.256 165.775 33.4978 163.092 30.2548C162.661 29.7235 162.093 29.3204 161.448 29.0895C160.804 28.8586 160.108 28.8086 159.439 28.945C158.806 29.1354 158.219 29.4598 157.724 29.8966C157.226 30.3332 156.83 30.8719 156.56 31.4758C155.198 34.3248 156.604 37.5882 155.435 40.4649C155.213 41.0312 154.83 41.5207 154.334 41.8741C153.839 42.2274 153.252 42.4295 152.643 42.4555C152.594 42.4574 152.549 42.4407 152.501 42.4407V35.7252C152.549 30.6664 154.606 25.834 158.218 22.2915C161.829 18.7489 166.7 16.786 171.76 16.8348H289.839C292.401 16.7486 294.953 17.1777 297.345 18.0967C299.737 19.0157 301.92 20.4058 303.765 22.1847C305.609 23.9635 307.078 26.0947 308.083 28.4518ZM338.644 77.9755C352.825 82.8207 358.077 106.686 358.517 121.506C358.578 123.075 358.634 152.39 358.695 170.331C357.842 170.292 285.853 170.368 285.853 170.368C283.408 168.759 280.716 167.56 277.885 166.818C269.545 149.321 270.54 149.102 269.545 149.084C259.416 149.735 249.247 149.318 239.205 147.841C235.796 147.44 232.601 145.975 230.073 143.652C229.012 142.615 228.241 141.318 227.839 139.889C227.436 138.46 227.417 136.951 227.781 135.512C229.807 129.363 238.637 130.077 257.354 126.899C260.578 126.629 263.567 125.105 265.678 122.653C269.132 117.998 267.675 111.222 264.916 106.625C258.41 95.7818 245.419 90.7701 238.626 80.5748C237.546 79.1895 236.766 77.5941 236.337 75.8906C235.908 74.1869 235.84 72.4126 236.136 70.681C236.434 69.1521 237.267 67.7793 238.484 66.8073C239.701 65.8355 241.224 65.3278 242.781 65.3752C244.723 65.6333 246.591 66.2876 248.27 67.2973C260.477 73.8302 272.17 81.282 283.248 89.588C283.422 89.6357 283.607 89.6131 283.764 89.5247C283.921 89.4363 284.037 89.2896 284.086 89.1162C284.522 86.0576 285.894 83.2086 288.012 80.9596C296.457 71.9723 310.447 73.8334 319.462 84.2174C319.535 84.29 319.625 84.3449 319.723 84.378C319.821 84.4111 319.925 84.4215 320.028 84.4082C320.13 84.395 320.229 84.3586 320.315 84.3018C320.402 84.2452 320.474 84.1693 320.527 84.0805C323.517 77.4575 331.957 75.6926 338.644 77.9755ZM274.971 324.791C259.832 332.913 243.143 337.734 226.005 338.935C208.335 340.137 190.585 338.641 173.365 334.498C173.428 333.812 173.31 333 173.31 332.371V270.647C202.812 276.834 233.777 286.354 250.812 285.714C269.34 285.02 297.541 269.227 324.007 259.305C324.808 259 324.455 257.69 323.637 257.997C302.882 265.8 275.939 279.592 258.887 283.353C248.17 285.592 238.378 283.832 227.735 281.688C229.425 273.907 231.992 266.343 235.385 259.139C249.223 228.891 279.463 220.734 310.067 230.795C310.197 230.826 310.332 230.821 310.458 230.776C310.584 230.732 310.694 230.652 310.775 230.547C310.856 230.441 310.905 230.314 310.915 230.182C310.925 230.049 310.897 229.916 310.833 229.799C308.528 225.633 299.676 209.364 297.554 205.396C299.019 200.597 298.69 195.43 296.629 190.857C295.84 189.218 294.626 187.817 293.114 186.805C292.937 186.265 292.72 185.738 292.463 185.231C294.387 183.1 293.356 179.441 292.039 176.875C290.948 174.884 289.469 173.132 287.688 171.724H358.704C358.709 172.908 359.385 332.87 359.385 340.651C358.931 340.642 225.075 340.666 225.075 340.666V340.365C255.733 338.158 275.208 327.751 300.118 310.887C318.766 298.251 326.129 292.054 338.652 283.462C339.368 282.972 338.689 281.797 337.967 282.293C325.933 290.566 298.349 312.156 274.971 324.791ZM190.465 340.108H67.4732L67.4676 294.126H100.903C101.574 295.36 102.662 296.314 103.974 296.819C103.839 297.028 99.3894 303.444 97.3137 306.463C96.8364 306.985 96.5256 307.638 96.4183 308.338C96.4202 308.778 96.5589 309.207 96.8179 309.566C97.0751 309.923 97.4376 310.191 97.8557 310.332C98.2738 310.472 98.7253 310.48 99.1452 310.35C99.567 310.223 99.9388 309.966 100.207 309.616C102.009 307.766 103.809 305.916 105.609 304.066C106.055 304.621 106.588 305.1 107.187 305.485C109.246 306.648 111.59 307.215 113.954 307.12C113.462 307.747 113.102 308.469 112.894 309.24C112.687 310.01 112.639 310.815 112.75 311.605C112.863 312.395 113.133 313.155 113.546 313.838C113.958 314.52 114.506 315.112 115.153 315.578C116.787 316.818 118.594 317.81 120.518 318.52C122.927 319.439 125.299 320.446 127.704 321.382C147.8 329.283 169.059 336.052 190.465 339.046V340.108Z" fill="#303030"/>
<path d="M247.961 59.5534C247.369 60.199 246.412 59.237 247.003 58.5951C247.003 58.5951 256.055 48.7438 256.319 48.4589L246.675 36.8039C246.12 36.1361 247.077 35.1722 247.633 35.8456L257.696 47.9964C257.817 48.1263 257.885 48.2976 257.885 48.4756C257.885 48.6535 257.817 48.8248 257.696 48.9547C244.681 62.9315 248.753 58.6931 247.961 59.5534Z" fill="#FAFAFA"/>
<path d="M203.515 48.4586L212.83 58.5947C213.42 59.2367 212.46 60.1987 211.871 59.553L202.137 48.9618C202.015 48.8321 201.947 48.6608 201.947 48.4826C201.947 48.3047 202.015 48.1334 202.137 48.0035L212.195 35.8527C212.75 35.1793 213.707 36.1431 213.153 36.811L203.515 48.4586Z" fill="#FAFAFA"/>
<path d="M240.075 59.6253C234.264 54.0198 218.078 37.6288 218.078 37.6288C217.96 37.4997 217.897 37.33 217.901 37.1552C217.905 36.9806 217.976 36.8141 218.1 36.6905C218.224 36.5671 218.39 36.496 218.565 36.4923C218.74 36.4886 218.909 36.5525 219.038 36.6705C224.845 42.2834 239.44 57.0205 241.033 58.6651C241.151 58.7941 241.215 58.9636 241.211 59.1384C241.207 59.3132 241.136 59.4797 241.013 59.6035C240.889 59.7272 240.723 59.7985 240.548 59.8025C240.373 59.8066 240.204 59.7431 240.075 59.6253Z" fill="#FAFAFA"/>
<path d="M194.039 115.209H167.677C167.503 115.2 167.34 115.124 167.22 114.998C167.099 114.872 167.033 114.704 167.033 114.531C167.033 114.357 167.099 114.189 167.22 114.063C167.34 113.937 167.503 113.862 167.677 113.853H194.039C194.213 113.862 194.377 113.937 194.496 114.063C194.616 114.189 194.683 114.357 194.683 114.531C194.683 114.704 194.616 114.872 194.496 114.998C194.377 115.124 194.213 115.2 194.039 115.209Z" fill="#FAFAFA"/>
<path d="M228.406 115.209H202.617C202.444 115.2 202.28 115.124 202.16 114.998C202.041 114.872 201.974 114.704 201.974 114.531C201.974 114.357 202.041 114.189 202.16 114.063C202.28 113.937 202.444 113.862 202.617 113.853H228.406C228.58 113.862 228.744 113.937 228.864 114.063C228.983 114.189 229.05 114.357 229.05 114.531C229.05 114.704 228.983 114.872 228.864 114.998C228.744 115.124 228.58 115.2 228.406 115.209Z" fill="#FAFAFA"/>
<path d="M228.407 174.899C228.586 174.899 228.759 174.97 228.886 175.097C229.012 175.224 229.084 175.396 229.084 175.576C229.084 175.755 229.012 175.928 228.886 176.055C228.759 176.182 228.586 176.253 228.407 176.253H211.455C211.276 176.253 211.103 176.182 210.976 176.055C210.85 175.928 210.778 175.755 210.778 175.576C210.778 175.396 210.85 175.224 210.976 175.097C211.103 174.97 211.276 174.899 211.455 174.899H228.407Z" fill="#FAFAFA"/>
<path d="M182.083 129.953H207.648C207.821 129.962 207.985 130.038 208.105 130.164C208.225 130.29 208.291 130.457 208.291 130.631C208.291 130.805 208.225 130.972 208.105 131.098C207.985 131.225 207.821 131.3 207.648 131.309H182.083C181.909 131.3 181.746 131.225 181.626 131.098C181.505 130.972 181.439 130.805 181.439 130.631C181.439 130.457 181.505 130.29 181.626 130.164C181.746 130.038 181.909 129.962 182.083 129.953Z" fill="#FAFAFA"/>
<path d="M331.563 100.938C329.401 96.0517 326.419 91.5712 322.747 87.6899C322.146 87.0572 323.103 86.097 323.706 86.7316C327.474 90.6841 330.529 95.2605 332.734 100.257C333.082 101.045 331.912 101.737 331.563 100.938Z" fill="#FAFAFA"/>
<path d="M297.443 107.551C295.007 101.665 291.216 96.4372 286.38 92.2908C285.716 91.7247 286.68 90.7701 287.34 91.3325C292.358 95.628 296.268 101.068 298.742 107.193C299.079 107.999 297.767 108.351 297.443 107.551Z" fill="#FAFAFA"/>
<path d="M323.485 181.035C322.208 180.358 320.779 180.017 319.333 180.042C317.888 180.068 316.472 180.46 315.219 181.181C313.399 182.378 311.893 183.995 310.829 185.897C307.94 190.167 302.9 199.587 301.465 201.992C301.418 202.068 301.356 202.135 301.284 202.186C301.211 202.238 301.129 202.275 301.042 202.294C300.955 202.314 300.865 202.316 300.777 202.301C300.69 202.286 300.606 202.253 300.53 202.205C300.384 202.114 300.279 201.97 300.235 201.803C300.192 201.637 300.213 201.459 300.296 201.308C307.028 189.397 310.776 181.964 314.666 179.938C316.08 179.172 317.656 178.752 319.264 178.712C320.872 178.673 322.466 179.015 323.916 179.711C325.665 180.787 327.031 182.385 327.823 184.28C328.615 186.175 328.791 188.271 328.329 190.271C328.305 190.356 328.264 190.433 328.21 190.502C328.155 190.57 328.088 190.628 328.011 190.67C327.934 190.713 327.85 190.74 327.763 190.75C327.676 190.759 327.588 190.752 327.503 190.728C327.335 190.676 327.193 190.563 327.104 190.413C327.014 190.261 326.985 190.082 327.021 189.91C327.406 188.247 327.274 186.506 326.642 184.919C326.011 183.333 324.909 181.978 323.485 181.035Z" fill="#FAFAFA"/>
<path d="M133.2 283.494L110.6 294.949C109.823 295.343 109.137 294.174 109.916 293.78L132.516 282.323C133.291 281.929 133.977 283.098 133.2 283.494Z" fill="#FAFAFA"/>
<path d="M119.93 306.545C119.882 306.371 119.906 306.186 119.995 306.031C120.083 305.873 120.23 305.759 120.404 305.711C126.769 304.8 133.161 304.121 139.579 303.676C140.448 303.615 140.445 304.971 139.579 305.032C133.289 305.47 127.017 306.136 120.764 307.026C120.59 307.068 120.405 307.043 120.25 306.952C120.095 306.863 119.98 306.717 119.93 306.545Z" fill="#FAFAFA"/>
<path d="M162.08 219.86L174.692 230.59C175.358 231.156 174.396 232.11 173.734 231.548L161.122 220.818C160.456 220.252 161.42 219.295 162.08 219.86Z" fill="#FAFAFA"/>
<path d="M175.473 229.454C171.156 226.011 166.922 222.472 162.772 218.836C162.116 218.261 163.078 217.305 163.732 217.878C167.884 221.513 172.117 225.052 176.431 228.495C177.113 229.039 176.15 229.994 175.473 229.454Z" fill="#FAFAFA"/>
<path d="M206.898 333H216.23C216.403 333.009 216.567 333.085 216.687 333.211C216.807 333.337 216.873 333.503 216.873 333.679C216.873 333.853 216.807 334.019 216.687 334.145C216.567 334.271 216.403 334.347 216.23 334.356H206.898C206.725 334.347 206.561 334.271 206.441 334.145C206.321 334.019 206.255 333.853 206.255 333.679C206.255 333.503 206.321 333.337 206.441 333.211C206.561 333.085 206.725 333.009 206.898 333Z" fill="#FAFAFA"/>
<path d="M353.892 178.39C354.064 178.396 354.227 178.467 354.348 178.588C354.47 178.71 354.541 178.873 354.547 179.045V190.043C354.538 190.217 354.462 190.38 354.336 190.5C354.21 190.62 354.043 190.687 353.869 190.687C353.695 190.687 353.528 190.62 353.401 190.5C353.275 190.38 353.2 190.217 353.191 190.043V179.045C353.197 178.865 353.274 178.695 353.406 178.572C353.537 178.449 353.712 178.384 353.892 178.39Z" fill="#FAFAFA"/>
<path d="M42.4945 271.127C45.0734 272.007 47.3119 273.676 48.89 275.898C50.4699 278.12 51.3116 280.782 51.2968 283.507C51.2968 284.726 51.2968 340.628 51.2968 340.689C51.2876 340.863 51.2117 341.025 51.0859 341.146C50.9601 341.266 50.7917 341.332 50.6178 341.332C50.4439 341.332 50.2775 341.266 50.1517 341.146C50.0259 341.025 49.95 340.863 49.9408 340.689C49.9408 340.689 49.9408 283.751 49.9408 283.45C49.8594 280.421 48.6032 277.543 46.4369 275.426C44.2705 273.308 41.366 272.116 38.3357 272.105C35.3073 272.092 32.3917 273.262 30.2087 275.361C28.0257 277.461 26.7473 280.329 26.6419 283.357C26.6419 283.984 26.653 284.611 26.6419 285.239C26.6326 285.412 26.5568 285.575 26.431 285.695C26.3052 285.816 26.1368 285.882 25.9629 285.882C25.789 285.882 25.6225 285.816 25.4967 285.695C25.3709 285.575 25.2951 285.412 25.2858 285.239C25.1545 283.209 25.3913 281.174 25.9833 279.23C26.5235 277.605 27.3819 276.105 28.5085 274.816C29.6352 273.528 31.006 272.475 32.5415 271.721C34.0789 270.968 35.7494 270.525 37.4588 270.424C39.1664 270.322 40.8795 270.561 42.4945 271.127Z" fill="#FAFAFA"/>
<path d="M27.5151 268.62C30.3197 266.823 33.5257 265.75 36.8465 265.493C40.1672 265.238 43.4991 265.808 46.546 267.153C49.5486 268.575 52.0868 270.823 53.8591 273.633C55.6314 276.445 56.5675 279.703 56.5582 283.026C56.5693 285.026 56.5582 339.61 56.5582 339.61C56.4824 345.915 60.6412 352.897 70.1631 353.167C78.2347 353.394 102.927 353.009 191.532 353.167C191.622 353.168 191.709 353.189 191.791 353.226C191.873 353.261 191.946 353.315 192.007 353.379C192.068 353.444 192.115 353.522 192.146 353.605C192.177 353.69 192.191 353.779 192.187 353.868C192.181 354.04 192.11 354.203 191.988 354.323C191.867 354.445 191.704 354.515 191.532 354.523H70.2223C68.3002 354.573 66.3891 354.245 64.5946 353.557C62.8001 352.869 61.1573 351.833 59.7643 350.51C58.3694 349.187 57.2501 347.604 56.4676 345.848C55.685 344.092 55.2577 342.2 55.2077 340.278C55.2077 340.15 55.2077 286.361 55.2077 286.361C55.3761 283.662 55.1467 280.954 54.5232 278.323C49.1416 261.042 20.1613 263.098 21.3823 285.231C21.3823 285.41 21.3102 285.582 21.1844 285.71C21.0567 285.836 20.8847 285.908 20.7052 285.908C20.5258 285.908 20.3537 285.836 20.2261 285.71C20.0984 285.582 20.0281 285.41 20.0281 285.231C19.684 282.045 20.1946 278.828 21.5118 275.907C22.8272 272.986 24.901 270.47 27.5151 268.62Z" fill="#FAFAFA"/>
<path d="M58.4601 271.371C60.952 275.452 62.2229 280.164 62.1194 284.944C62.1194 284.944 62.1342 338.393 62.1194 339.316C62.0934 340.344 62.2932 341.368 62.7039 342.311C63.1146 343.255 63.727 344.096 64.4984 344.779C66.2485 346.048 68.4149 346.607 70.5609 346.344H191.338C191.512 346.353 191.676 346.429 191.795 346.555C191.915 346.681 191.982 346.847 191.982 347.023C191.982 347.197 191.915 347.363 191.795 347.489C191.676 347.615 191.512 347.691 191.338 347.7C191.338 347.7 70.6145 347.7 69.1327 347.7C68.0597 347.726 66.9922 347.541 65.9895 347.154C64.9887 346.77 64.0729 346.189 63.2941 345.449C62.5171 344.709 61.8936 343.822 61.4589 342.84C61.0241 341.86 60.7855 340.801 60.7596 339.728C60.7596 339.701 60.7596 286.289 60.7596 284.136C60.7633 281.12 60.162 278.134 58.9892 275.354C57.8181 272.575 56.1013 270.059 53.9387 267.956C51.776 265.852 49.2137 264.206 46.4036 263.111C43.5934 262.015 40.5927 261.496 37.5772 261.583C34.5617 261.669 31.5962 262.361 28.8526 263.616C26.1091 264.87 23.6467 266.663 21.608 268.886C19.5712 271.11 18.0006 273.72 16.9905 276.562C15.9804 279.404 15.5511 282.419 15.7287 285.431C15.7195 285.605 15.6436 285.768 15.5179 285.888C15.392 286.008 15.2256 286.075 15.0517 286.075C14.8777 286.075 14.7094 286.008 14.5836 285.888C14.4578 285.768 14.3819 285.605 14.3727 285.431C14.2062 282.053 14.7501 278.678 15.9693 275.524C17.1884 272.37 19.0532 269.504 21.4471 267.116C23.989 264.602 27.0637 262.689 30.4436 261.52C33.8236 260.352 37.4218 259.958 40.9738 260.367C44.5258 260.774 47.9428 261.975 50.9694 263.88C53.9941 265.784 56.5546 268.344 58.4601 271.371Z" fill="#FAFAFA"/>
<path d="M55.0523 259.74C58.8577 262.43 61.9602 265.999 64.0951 270.141C66.23 274.283 67.3363 278.88 67.3196 283.54C67.3196 285.627 67.3196 290.411 67.3196 290.411C67.3196 290.591 67.2475 290.763 67.1217 290.89C66.994 291.016 66.822 291.088 66.6425 291.088C66.4631 291.088 66.291 291.016 66.1634 290.89C66.0376 290.763 65.9654 290.591 65.9654 290.411C66.2059 285.895 65.9451 281.365 65.1866 276.906C63.5845 270.298 59.607 264.513 54.0126 260.65C48.4182 256.787 41.5972 255.119 34.8521 255.962C28.1052 256.806 21.9059 260.104 17.4363 265.225C12.9648 270.348 10.5357 276.936 10.6116 283.734V285.14C10.6023 285.314 10.5265 285.477 10.4007 285.597C10.2749 285.718 10.1084 285.784 9.93449 285.784C9.76059 285.784 9.59226 285.718 9.46646 285.597C9.34066 285.477 9.26481 285.314 9.25556 285.14C8.94661 279.681 10.1843 274.246 12.8242 269.456C15.4642 264.668 19.4028 260.722 24.1832 258.069C28.9655 255.418 34.3989 254.168 39.8582 254.464C45.3176 254.758 50.5845 256.588 55.0523 259.74Z" fill="#FAFAFA"/>
<path d="M123.678 169.558C123.377 169.145 123.382 170.457 123.478 157.231C123.48 157.052 123.552 156.881 123.68 156.754C123.806 156.627 123.978 156.555 124.157 156.554H136.007C136.186 156.557 136.356 156.629 136.484 156.755C136.61 156.881 136.682 157.052 136.685 157.231V169.09C136.684 169.269 136.611 169.44 136.484 169.567C136.358 169.694 136.186 169.766 136.007 169.769C122.871 169.856 124.013 169.843 123.678 169.558ZM124.834 168.403H135.329V157.908H124.834V168.403Z" fill="#FAFAFA"/>
<path d="M82.0013 171.728C79.1948 171.731 76.4495 170.902 74.1129 169.345C71.7782 167.788 69.956 165.574 68.8774 162.982C67.8007 160.389 67.5158 157.536 68.0615 154.782C68.6054 152.028 69.9541 149.498 71.9373 147.51C73.9186 145.523 76.4476 144.168 79.1985 143.618C81.9513 143.067 84.8059 143.344 87.4014 144.416C89.9951 145.487 92.2151 147.303 93.7765 149.636C95.3398 151.968 96.1741 154.711 96.1778 157.518C96.1797 159.382 95.8152 161.228 95.1048 162.951C94.3944 164.674 93.351 166.24 92.0338 167.56C90.7166 168.88 89.1534 169.927 87.4329 170.642C85.7105 171.357 83.8661 171.726 82.0013 171.728ZM86.5172 145.458C84.1325 144.568 81.5369 144.406 79.0579 144.992C76.5808 145.577 74.3331 146.884 72.5978 148.748C70.8625 150.611 69.7192 152.947 69.3122 155.46C68.9052 157.973 69.2529 160.551 70.3111 162.866C71.3675 165.182 73.088 167.132 75.2543 168.47C77.4207 169.808 79.9348 170.474 82.4786 170.383C85.0223 170.292 87.4829 169.449 89.5475 167.96C91.6139 166.471 93.1901 164.403 94.0799 162.017C95.2713 158.818 95.1437 155.278 93.7247 152.173C92.3076 149.067 89.714 146.652 86.5172 145.458Z" fill="#FAFAFA"/>
<path d="M92.2651 251.376C90.7592 250.797 89.1441 250.558 87.5365 250.681C85.3294 250.952 83.0891 250.703 80.9967 249.952C80.2456 249.622 79.5796 249.13 79.0413 248.51C78.5048 247.893 78.1107 247.162 77.8887 246.374C77.737 245.534 77.8277 244.67 78.1459 243.878C78.4659 243.086 79.0006 242.402 79.6925 241.902C82.8652 239.477 86.7798 240.552 90.4225 240.191C92.0301 240.03 93.586 239.592 93.9486 237.843C94.1244 237.098 94.1114 236.321 93.9116 235.581C93.7136 234.841 93.3325 234.162 92.8071 233.605C91.5454 232.514 89.9507 231.885 88.2839 231.822C85.3461 231.681 82.4027 231.846 79.5001 232.31C78.6361 232.417 78.6435 231.059 79.5001 230.956C83.226 230.236 87.0518 230.216 90.7851 230.895C92.389 231.354 93.771 232.382 94.6701 233.788C95.412 235.183 95.6099 236.804 95.2251 238.337C94.2816 242.272 89.0997 241.591 86.0491 241.579C84.3267 241.458 82.6044 241.808 81.067 242.592C80.3178 242.942 79.7313 243.567 79.4279 244.337C79.1264 245.108 79.1319 245.965 79.4446 246.731C80.8524 249.517 84.0696 249.469 86.9926 249.395C88.3005 249.189 89.6362 249.245 90.922 249.559C92.2078 249.872 93.4195 250.438 94.4851 251.223C95.0419 251.766 95.4786 252.423 95.7616 253.148C96.0447 253.875 96.1704 254.652 96.1279 255.431C96.0872 256.208 95.88 256.969 95.5211 257.661C95.1622 258.352 94.659 258.959 94.0466 259.44C92.6406 260.371 90.996 260.868 89.3106 260.874C87.6919 260.857 86.0731 260.941 84.4636 261.122C83.0502 261.279 81.7386 261.936 80.7636 262.972C79.0986 265.333 81.1595 268.302 84.2546 268.659C87.9694 269.138 91.7286 269.182 95.4545 268.792C96.3203 268.7 96.3148 270.056 95.4545 270.148C91.1847 270.601 86.8705 270.448 82.6451 269.687C79.5944 268.653 77.6852 265.138 79.5389 262.363C80.4232 261.216 81.6701 260.402 83.0761 260.054C84.5987 259.679 86.1656 259.514 87.7326 259.566C89.4216 259.662 91.1107 259.37 92.6702 258.711C93.3436 258.343 93.9005 257.79 94.2742 257.119C94.6479 256.447 94.8237 255.683 94.7811 254.915C94.7386 254.149 94.4795 253.409 94.0337 252.782C93.5897 252.157 92.9755 251.668 92.2651 251.376Z" fill="#FAFAFA"/>
<path d="M129.776 114.737C129.543 114.87 130.516 114.826 113.66 114.826C113.544 114.819 113.431 114.783 113.331 114.722C113.231 114.661 113.148 114.575 113.09 114.474C113.033 114.372 113 114.258 112.998 114.141C112.996 114.024 113.022 113.908 113.076 113.804L120.97 100.255C121.064 100.1 121.216 99.9879 121.393 99.9446C121.569 99.9013 121.756 99.9296 121.911 100.024C122.159 100.175 121.597 99.3522 130.036 113.804C130.081 113.883 130.109 113.969 130.12 114.058C130.131 114.147 130.123 114.238 130.099 114.325C130.075 114.411 130.035 114.492 129.979 114.563C129.924 114.634 129.853 114.693 129.776 114.737ZM121.556 101.942L114.841 113.47H128.272C127.989 112.987 121.702 102.198 121.556 101.935V101.942Z" fill="#FAFAFA"/>
<path d="M114.491 59.1443C113.947 59.1311 113.407 59.2292 112.902 59.4325C112.397 59.6356 111.94 59.9399 111.557 60.3262C111.174 60.7127 110.874 61.1733 110.676 61.6799C110.476 62.1862 110.384 62.7279 110.402 63.2716V70.4496C110.401 70.6285 110.328 70.7996 110.201 70.9264C110.075 71.0531 109.905 71.1256 109.725 71.1286H97.7429C97.5635 71.1262 97.3915 71.0538 97.2657 70.9271C97.138 70.8002 97.0658 70.6289 97.064 70.4496C96.9844 59.4699 96.9049 58.5763 97.7041 55.7181C98.6088 52.8482 100.403 50.3407 102.827 48.5589C105.252 46.777 108.181 45.8134 111.191 45.8076H114.491C114.67 45.81 114.841 45.882 114.968 46.0085C115.094 46.1349 115.166 46.3056 115.17 46.4847V58.4598C115.17 58.6405 115.1 58.814 114.972 58.9422C114.844 59.0706 114.672 59.1433 114.491 59.1443ZM113.814 47.1637H111.185C109.422 47.1583 107.676 47.5183 106.059 48.2209C104.442 48.9238 102.988 49.9538 101.789 51.2466C100.588 52.5392 99.6707 54.0662 99.0916 55.7316C98.5107 57.3968 98.2831 59.1641 98.42 60.9221V69.7725H109.046V65.462C108.75 63.5138 109.137 61.5232 110.14 59.8269C110.582 59.2597 111.137 58.7896 111.77 58.4455C112.4 58.1016 113.096 57.8911 113.814 57.8271V47.1637Z" fill="#303030"/>
<path d="M110.229 238.021C110.056 238.015 109.894 237.943 109.772 237.823C109.651 237.701 109.579 237.538 109.574 237.366V209.683H90.922C90.8295 209.677 90.7388 209.655 90.6556 209.614C90.5723 209.575 90.4983 209.52 90.4372 209.451C90.3743 209.381 90.3281 209.302 90.2967 209.215C90.2671 209.128 90.2541 209.035 90.2597 208.943C90.28 208.502 95.6616 199.498 106.808 180.388C106.869 180.287 106.954 180.204 107.058 180.146C107.159 180.088 107.276 180.058 107.392 180.058C107.511 180.058 107.627 180.088 107.729 180.146C107.833 180.204 107.918 180.287 107.979 180.388L124.444 208.66C124.531 208.817 124.551 209.002 124.503 209.176C124.455 209.348 124.34 209.496 124.185 209.585C123.943 209.72 124.705 209.672 110.924 209.672V237.355C110.922 237.444 110.904 237.533 110.867 237.614C110.832 237.697 110.78 237.771 110.715 237.832C110.65 237.895 110.575 237.943 110.491 237.975C110.406 238.008 110.317 238.023 110.229 238.021ZM122.685 208.327L107.392 182.079L92.1023 208.327H109.574V204.038C109.583 203.864 109.659 203.702 109.785 203.581C109.91 203.461 110.077 203.395 110.251 203.395C110.425 203.395 110.593 203.461 110.719 203.581C110.845 203.702 110.92 203.864 110.93 204.038V208.327H122.685Z" fill="#303030"/>
<path d="M117.906 171.045V141.719C117.915 141.545 117.991 141.382 118.117 141.262C118.243 141.142 118.411 141.075 118.585 141.075C118.759 141.075 118.925 141.142 119.051 141.262C119.177 141.382 119.253 141.545 119.262 141.719V171.045C119.253 171.219 119.177 171.383 119.051 171.502C118.925 171.622 118.759 171.689 118.585 171.689C118.411 171.689 118.243 171.622 118.117 171.502C117.991 171.383 117.915 171.219 117.906 171.045Z" fill="#FAFAFA"/>
<path d="M107.241 141.051V99.0562C107.25 98.8825 107.326 98.7188 107.452 98.5991C107.577 98.4794 107.744 98.4126 107.918 98.4126C108.092 98.4126 108.26 98.4794 108.386 98.5991C108.512 98.7188 108.588 98.8825 108.597 99.0562V141.051C108.588 141.225 108.512 141.388 108.386 141.508C108.26 141.628 108.092 141.695 107.918 141.695C107.744 141.695 107.577 141.628 107.452 141.508C107.326 141.388 107.25 141.225 107.241 141.051Z" fill="#FAFAFA"/>
<path d="M99.9 120.723V88.7296C99.9093 88.5558 99.9851 88.3923 100.111 88.2724C100.237 88.1527 100.403 88.0859 100.577 88.0859C100.751 88.0859 100.919 88.1527 101.045 88.2724C101.171 88.3923 101.247 88.5558 101.256 88.7296V120.723C101.247 120.897 101.171 121.061 101.045 121.18C100.919 121.3 100.751 121.367 100.577 121.367C100.403 121.367 100.237 121.3 100.111 121.18C99.9851 121.061 99.9093 120.897 99.9 120.723Z" fill="#FAFAFA"/>
<path d="M198.281 269.419C189.047 265.96 179.433 263.61 169.645 262.422C168.79 262.319 168.781 260.963 169.645 261.066C179.557 262.241 189.293 264.607 198.64 268.111C199.452 268.415 199.101 269.73 198.281 269.419Z" fill="#FAFAFA"/>
<path d="M171.245 255.115C181.278 256.726 191.095 259.47 200.511 263.29C201.31 263.614 200.96 264.925 200.141 264.598C190.724 260.781 180.906 258.04 170.875 256.423C170.026 256.288 170.385 254.98 171.245 255.115Z" fill="#FAFAFA"/>
<path d="M342.587 67.8561C342.094 68.5684 340.922 67.8913 341.417 67.1716L352.332 51.3393C352.824 50.6252 353.997 51.3023 353.503 52.0238L342.587 67.8561Z" fill="#FAFAFA"/>
<path d="M333.711 66.609C333.526 67.4619 332.212 67.1011 332.403 66.2501C332.985 63.6194 337.583 42.881 337.583 42.881C337.768 42.03 339.079 42.3889 338.891 43.251C338.315 45.8687 334.341 63.7674 333.711 66.609Z" fill="#FAFAFA"/>
</svg>
