<svg width="443" height="443" viewBox="0 0 443 443" fill="none" xmlns="http://www.w3.org/2000/svg">
<path d="M145.415 295.171L152.614 316.612L162.027 311.783L152.259 291.516C152.259 291.516 145.88 294.816 145.415 295.171Z" fill="#84D492"/>
<path d="M192.018 234.347C204.103 230.937 215.795 226.267 226.905 220.415L281.881 229.053C281.881 229.053 291.937 234.879 293.155 235.056C296.597 234.776 300.042 235.548 303.034 237.271C307.088 240.084 315.194 240.084 317.299 240.438C320.337 241.421 323.24 242.783 325.937 244.492C328.041 245.732 337.389 248.722 338.984 249.786C340.578 250.849 344.255 252.001 345.141 256.431C346.38 261.875 347.121 267.421 347.356 272.999C347.179 277.052 346.138 287.972 344.543 292.203C342.948 296.433 336.082 318.451 335.683 320.998C335.285 323.545 334.465 340.733 333.468 344.277C332.471 347.821 327.665 366.427 326.823 369.816C325.982 373.205 319.602 390.084 318.539 393.074C317.476 396.064 315.881 401.535 316.324 403.819C316.964 406.287 317.144 408.857 316.856 411.394C316.501 414.229 318.805 428.139 318.096 429.114C317.387 430.089 292.712 431.216 284.096 428.582C275.48 425.945 241.103 429.646 227.17 428.937C213.238 428.228 176.425 427.874 171.153 426.722C165.881 425.57 159.347 425.324 162.515 421.804C165.682 418.281 166.036 413.343 166.214 408.514C166.678 404.149 167.56 399.839 168.849 395.643L157.774 319.78L174.033 286.555L192.018 234.347Z" fill="#BED4FC"/>
<path d="M344.964 212.64C347.733 214.589 347.378 214.168 344.964 214.478C342.55 214.789 341.287 214.877 340.999 216.45C340.762 217.73 340.399 218.985 339.914 220.193C339.8 220.109 339.696 220.012 339.604 219.905C335.174 213.393 338.607 215.076 330.478 214.412C328.861 214.412 333.313 212.906 334.62 209.982C335.107 208.897 332.826 204.843 334.111 205.552C338.009 207.612 336.746 206.859 337.234 207.147C338.696 208.055 343.037 204.489 344.698 204.001C345.208 207.59 341.11 209.805 344.964 212.64Z" fill="#FFEB8D"/>
<path d="M377.746 143.975C378.831 144.374 375.531 145.326 374.18 146.345C371.965 147.984 374.047 149.357 373.87 151.661C372.142 150.93 370.193 147.231 367.624 147.231C362.994 148.781 362.706 149.446 361.887 149.446C362.153 147.785 366.051 144.418 363.836 142.624C362.972 141.959 360.824 138.792 361.909 139.035C366.206 140.032 366.184 140.232 367.003 139.656C371.323 136.688 371.433 132.125 372.231 138.371C372.917 143.975 371.522 141.76 377.746 143.975Z" fill="#FFEB8D"/>
<path d="M372.364 71.0129C372.253 71.1679 372.164 71.3673 372.009 71.4337C366.428 74.3132 366.051 73.9588 366.383 75.8637C367.225 81.1133 367.026 80.2937 366.893 81.2019C360.979 75.8416 363.327 76.5282 362.463 76.3732C360.824 76.1295 357.767 77.968 354.821 78.5882C353.802 78.5882 354.201 78.3667 356.748 74.1582C359.561 69.5731 345.872 64.1464 357.745 67.5132C359.96 68.1555 359.561 67.8454 363.592 62.4187C364.877 60.6688 364.058 68.5764 367.048 68.8422C368.089 68.8422 369.529 70.0826 371.899 70.6142C372.073 70.7229 372.23 70.8574 372.364 71.0129Z" fill="#FFEB8D"/>
<path d="M143.244 167.454C154.496 164.929 143.244 168.473 145.747 172.681C147.807 176.314 148.649 175.982 144.64 175.096C139.988 174.055 142.092 173.745 137.264 178.64C136.688 179.238 137.374 176.801 137.552 174.498C137.751 171.751 132.435 170.865 131.66 169.425C132.036 169.425 131.372 169.425 134.783 169.093C138.991 168.739 136.998 166.369 138.836 162.603C140.342 163.91 141.893 167.742 143.244 167.454Z" fill="#FFEB8D"/>
<path d="M165.881 117.661C166.435 118.591 163.666 117.661 159.746 116.199C157.531 115.379 158.04 113.718 152.813 121.028C150.797 123.885 153.743 114.737 150.399 113.497C142.823 110.661 142.823 111.282 151.152 108.269C152.968 107.605 152.104 103.64 153.367 100.229C161.274 107.627 154.607 107.007 166.169 104.349C164.464 108.912 160.92 110.218 162.958 112.588C164.089 114.184 165.068 115.882 165.881 117.661Z" fill="#FFEB8D"/>
<path d="M226.284 247.659C227.325 252.576 228.344 253.152 227.193 252.975C217.159 251.403 207.368 241.479 205.353 233.151C204.976 231.578 204.71 231.733 206.394 231.157C211.333 229.408 213.88 227.525 213.26 228.632C212.02 230.847 212.906 233.705 212.751 234.724C212.175 238.556 214.833 241.789 218.665 243.827C219.174 244.093 218.997 244.049 222.386 244.27C224.601 243.739 224.889 243.517 225.155 244.27C225.65 245.357 226.029 246.492 226.284 247.659Z" fill="#E7BCA5"/>
<path d="M305.227 79.0312C311.296 81.5785 313.002 81.9772 308.904 82.9961C306.334 82.3759 306.024 82.3316 304.474 79.1863C304.319 78.7876 304.806 78.854 305.227 79.0312Z" fill="#D8E9FF"/>
<path d="M317.365 78.0566C317.742 78.0566 317.72 78.3224 317.565 78.5218C316.656 79.74 315.615 81.5342 313.91 80.4488C309.48 77.5915 300.841 76.2846 303.211 72.5856C304.186 71.0794 303.389 72.8071 308.439 74.9778C313.91 77.3257 315.881 78.2338 317.365 78.0566Z" fill="#D8E9FF"/>
<path d="M319.181 73.2722C320.533 73.4051 318.871 75.8195 316.723 75.7752C313.157 74.5348 302.414 70.5921 305.382 68.2442C305.736 67.9784 305.559 67.2253 306.069 67.2696C306.955 67.2696 305.781 68.1999 311.65 70.5478C317.52 72.8957 318.03 73.095 319.181 73.2722Z" fill="#D8E9FF"/>
<path d="M308.084 62.5294C319.824 71.3894 324.475 66.8265 320.931 70.9464C320.267 71.7217 317.697 70.4148 316.723 70.0604C311.983 68.3106 304.075 65.7855 308.084 62.5294Z" fill="#D8E9FF"/>
<path d="M339.139 46.7808C339.825 46.9801 339.316 48.5971 338.696 48.2648C336.348 47.0687 338.319 46.515 339.139 46.7808Z" fill="#FFEB8D"/>
<path d="M315.726 40.7118C314.508 41.7085 313.954 39.7815 314.752 39.56C315.017 39.4935 315.483 40.3352 315.726 40.7118Z" fill="#FFEB8D"/>
<path d="M324.077 22.5931C351.52 22.438 357.435 58.5424 328.905 61.7985C325.184 62.2415 324.475 61.1783 323.324 62.6623C321.241 65.6083 322.593 66.9373 320.887 66.4943C317.405 65.6047 314.086 64.1693 311.052 62.2415C308.239 60.5359 313.267 60.0265 311.806 56.859C310.344 53.6916 310.277 56.1059 307.974 52.429C297.319 35.4401 312.426 21.9507 324.077 22.5931ZM337.765 50.8121C339.161 54.2675 343.502 46.0941 340.158 45.0088C336.813 43.9234 335.927 46.2713 335.395 46.1384C330.256 44.9866 333.446 45.6511 330.478 44.1228C329.105 43.414 328.019 45.0752 326.912 43.5026C325.162 40.9775 326.425 43.5026 318.207 40.2245C317.631 40.003 317.321 39.2056 316.878 38.674C316.435 38.1424 315.748 38.1424 314.929 37.9209C312.536 37.2785 311.163 42.1736 314.929 42.8159C315.327 42.8159 315.615 42.8159 315.482 43.5026C314.641 47.113 319.536 50.1476 318.561 51.8974C317.236 54.4298 316.303 57.1482 315.793 59.96C315.682 60.6245 316.28 60.2701 316.523 60.4695C317.454 61.2669 317.897 57.1027 320.289 52.6062C321.906 49.616 317.21 46.6257 317.321 44.0563C317.454 40.756 318.738 42.6387 321.751 43.5912C323.434 44.1228 324.719 43.5912 325.184 44.6987C325.485 45.2907 325.988 45.7546 326.601 46.0068C327.215 46.2589 327.899 46.2818 328.529 46.072C330.567 45.5404 330.035 47.113 332.427 47.6225C334.819 48.1319 334.797 48.0212 334.797 48.9072C334.797 49.2173 334.797 49.5495 334.421 49.6381C333.282 50.0268 332.196 50.5551 331.187 51.2108C329.924 51.8088 330.478 50.7899 328.374 52.1632C325.206 54.2232 325.738 52.9163 324.409 53.9574C322.194 55.7515 317.343 60.8682 318.894 62.0864C320.444 63.3047 320.621 60.1151 323.767 57.2356C326.912 54.3561 326.425 55.7515 327.488 55.0206C329.703 53.6473 330.013 53.4479 330.345 53.4258C332.25 53.2707 333.712 51.6759 335.152 51.543C337.101 51.3658 336.591 49.6603 337.012 49.7932C337.433 49.9261 337.61 50.4355 337.765 50.8121Z" fill="#FFEB8D"/>
<path d="M147.918 43.0817C148.266 44.2327 148.256 45.4622 147.89 46.6076C147.524 47.7526 146.819 48.7598 145.868 49.4956C144.917 50.2313 143.765 50.6606 142.564 50.7275C141.364 50.794 140.172 50.4943 139.145 49.8685C138.119 49.2422 137.306 48.3192 136.816 47.2218C136.325 46.1239 136.18 44.9029 136.399 43.7209C136.617 42.5384 137.19 41.4503 138.041 40.6005C138.891 39.7508 139.98 39.1794 141.162 38.9619C142.597 38.7029 144.077 38.9792 145.323 39.7385C146.568 40.4978 147.491 41.6875 147.918 43.0817Z" fill="#BED4FC"/>
<path d="M125.967 62.1529C126.942 61.0454 128.182 59.9379 128.78 61.422C128.78 61.422 108.646 83.9264 108.601 83.9707C106.962 82.841 106.32 85.1446 125.967 62.1529Z" fill="#BED4FC"/>
<path d="M139.324 81.7335C139.722 82.686 139.545 82.3316 125.591 96.1532C124.882 96.8841 125.214 96.862 124.439 85.7648C124.439 84.7238 133.299 77.7908 136.156 74.3797C139.013 70.9686 138.26 71.5445 139.324 81.7335Z" fill="#BED4FC"/>
<path d="M115.047 53.1599C116.753 52.9384 111.924 56.859 108.402 62.175C107.605 63.3268 104.592 67.3581 103.418 67.5131C103.418 67.5131 92.3432 67.8454 92.3432 67.7789C92.0331 67.3581 97.9472 61.7098 103.418 55.4414C104.105 54.4003 104.105 54.5775 115.047 53.1599Z" fill="#BED4FC"/>
<path d="M168.894 21.0203C168.676 24.1544 167.989 27.2381 166.856 30.1683C161.518 43.1926 161.983 42.0186 160.521 39.4048C153.743 27.3331 144.351 26.1148 146.123 25.0295C150.615 21.7216 155.664 19.2459 161.03 17.72C169.425 15.505 168.495 17.72 168.894 21.0203Z" fill="#FF9C9F"/>
<path d="M303.278 183.203C301.572 177.377 305.781 162.692 307.043 159.436C308.756 153.566 309.253 147.408 308.505 141.339C307.619 134.406 302.746 122.667 300.177 116.974C297.607 111.282 286.444 100.738 282.9 97.9916C279.356 95.245 262.367 88.1127 256.32 85.4547C250.273 82.7967 239.397 82.1987 239.397 82.1987C237.774 80.1677 235.509 78.7485 232.974 78.173C230.439 77.5975 227.783 77.8999 225.443 79.0312C218.798 81.9772 217.69 89.0652 217.114 89.2202C203.381 89.0652 201.454 100.14 201.454 100.14C196.36 105.301 197.777 108.557 199.904 111.946C202.03 115.335 208.919 115.424 208.919 115.424C208.919 115.424 250.804 106.32 263.585 126.255C276.366 146.19 271.338 178.706 271.338 178.706L271.692 211.001C273.721 212.927 276.257 214.235 279.003 214.773C281.749 215.31 284.591 215.054 287.197 214.035C279.245 207.966 280.773 204.511 280.773 204.511C292.823 211.953 298.139 204.511 298.139 204.511C296.092 204.11 294.173 203.215 292.552 201.902C290.93 200.589 289.654 198.899 288.836 196.98C292.386 198.055 296.052 198.702 299.756 198.907C309.657 199.859 311.872 194.477 311.872 194.477C311.872 194.477 304.961 189.028 303.278 183.203Z" fill="#FFEB8D"/>
<path d="M218.443 199.35C217.824 198.659 217.481 197.764 217.481 196.836C217.481 195.908 217.824 195.013 218.443 194.322C204.821 185.927 207.745 178.994 204.821 180.39C201.686 181.773 198.337 182.612 194.92 182.87C194.034 183.136 197.379 188.851 204.755 191.31C211.001 193.392 198.11 199.35 196.138 199.505C192.926 199.749 206.482 207.878 214.168 202.695C214.349 202.548 214.571 202.462 214.803 202.449C215.035 202.436 215.265 202.496 215.461 202.621C215.658 202.746 215.809 202.929 215.895 203.145C215.981 203.361 215.997 203.599 215.94 203.824C215.317 206.92 214.202 209.896 212.64 212.64C216.472 213.327 220.858 210.802 224.047 208.631C224.889 208.077 224.579 207.102 224.911 206.416C225.044 206.106 222.253 204.046 218.443 199.35Z" fill="#FFEB8D"/>
<path d="M183.557 226.639C187.611 235.056 187.788 234.635 186.791 234.989L141.76 249.852C141.228 249.852 141.959 251.115 131.948 231.312C131.438 230.316 128.758 231.667 160.366 221.079C165.859 219.241 171.087 217.402 176.956 215.475C178.463 214.988 177.2 213.482 183.557 226.639ZM177.51 233.838C176.558 232.198 175.805 233.328 174.631 233.372C174.343 233.372 145.658 242.232 143.621 243.207C142.624 243.628 141.716 244.957 142.934 245.267C143.399 245.378 175.805 235.809 177.51 233.838ZM170.555 224.49C171.264 224.136 171.751 222.895 170.245 222.585C169.979 222.585 168.274 223.095 165.815 223.715C157.066 225.93 155.847 227.569 153.588 227.525C150.974 227.525 151.085 228.588 147.187 229.452C138.327 231.423 139.767 232.265 137.396 232.376C137.109 232.376 136.643 233.062 136.555 233.328C136.355 234.126 138.77 234.591 139.922 233.948C142.385 232.625 145.074 231.776 147.851 231.445C151.506 230.803 151.373 229.629 153.522 229.74C157.619 229.186 159.17 227.525 162.891 226.595C166.612 225.664 167.72 225.93 170.555 224.49ZM164.73 232.575C165.1 232.6 165.467 232.49 165.764 232.266C166.061 232.043 166.268 231.72 166.347 231.357C166.347 228.81 157.487 232.863 153.3 233.572C149.49 234.214 140.83 236.739 139.567 238.113C138.681 239.087 139.168 239.641 140.365 239.707C144.795 238.201 144.197 238.002 145.791 237.492C155.006 234.901 148.671 237.027 158.439 234.214C162.869 233.018 163.157 232.575 164.73 232.575Z" fill="#FFF6DD"/>
<path d="M148.405 286.422C149.07 287.773 146.633 288.526 145.215 288.792C144.374 288.238 146.234 291.317 125.945 250.45C112.965 224.623 112.965 225.664 114.294 225.664C121.205 225.686 110.506 210.425 148.405 286.422Z" fill="#84D492"/>
<path d="M119.211 241.767C143.886 291.826 143.421 289.523 142.358 289.899C129.068 294.462 135.713 303.189 134.34 306.179C133.609 305.138 87.8247 211.333 87.5146 210.558C87.869 210.425 86.673 209.827 106.076 221.411C112.301 225.133 108.69 220.392 119.211 241.767Z" fill="#84D492"/>
<path d="M187.389 217.225C179.836 201.565 180.345 202.495 179.725 202.717C173.08 205.087 138.305 216.627 132.435 218.554C117.971 223.338 118.879 222.408 119.765 224.136C153.655 290.386 148.56 286.643 152.436 285.602C156.977 285.491 153.943 293.044 154.098 293.443C154.253 293.842 155.36 296.611 155.98 296.389C157.318 295.807 158.686 295.297 160.078 294.861C163.209 294.398 166.259 293.495 169.137 292.181C175.339 289.013 175.428 298.958 167.587 302.79C165.466 304.08 163.188 305.092 160.809 305.803C160.41 305.803 160.322 306.113 160.499 306.467C162.094 309.834 161.695 309.568 162.714 309.568C174.675 309.568 173.257 307.641 181.541 305.891C183.978 305.36 184.997 308.35 184.044 310.321C183.823 310.764 184.2 310.72 184.665 310.587C184.665 310.587 224.535 298.781 226.262 298.228C227.99 297.674 227.171 299.667 187.389 217.225ZM188.275 236.739C187.921 236.872 146.722 250.539 141.76 252.001C139.922 251.801 140.276 252.798 130.021 231.467C128.647 228.632 126.831 229.961 177.311 213.172C179.304 212.507 179.216 213.172 181.984 218.842C189.471 234.214 191.11 235.765 188.275 236.739Z" fill="#84D492"/>
<path d="M307.708 346.515C309.923 349.815 310.432 344.632 292.026 370.614C290.031 373.314 287.871 375.888 285.558 378.322C282.435 381.933 279.932 385.964 274.992 389.751C263.43 398.611 254.769 396.396 244.691 384.59C243.166 381.996 242.08 379.167 241.479 376.218C240.04 370.392 237.47 368.775 235.676 362.175C230.98 344.92 236.097 261.547 236.562 261.126C238.467 259.377 235.499 260.24 231.224 254.659C227.746 250.229 229.363 245.488 222.364 234.103C222.224 233.795 222.016 233.523 221.755 233.308C221.494 233.093 221.187 232.941 220.858 232.863C219.507 232.641 220.614 234.391 221.234 235.765C222.165 237.78 220.26 236.496 219.905 236.473C218.997 236.363 218.377 237.404 221.478 239.22C221.854 239.442 222.873 239.464 223.139 239.818C223.399 240.313 223.586 240.843 223.693 241.391C223.693 241.701 223.693 241.789 223.405 241.812C220.968 242.1 219.905 242.609 217.89 240.903C216.738 239.929 214.678 237.714 214.722 236.208C214.833 231.778 214.08 229.563 217.89 227.348C219.374 226.528 219.639 225.133 219.728 223.494C219.883 220.481 222.918 222.12 224.158 218.2C225.93 212.618 234.037 217.535 232.863 214.412C229.275 204.998 218.022 198.907 219.573 196.205C221.035 193.835 226.373 198.243 227.746 199.837C232.043 204.688 239.929 211.289 240.638 215.896C241.081 218.665 243.008 219.617 244.935 226.085C248.412 237.692 252.355 242.631 252.82 255.456C253.551 275.391 274.128 351.897 274.151 351.964C274.726 353.16 276.1 352.65 276.033 351.41C275.236 336.547 266.952 320.156 268.99 320.045C272.349 319.813 275.711 320.47 278.736 321.95C280.773 323.479 293.355 334.664 294.462 335.705C299.291 340.003 304.407 341.464 307.708 346.515Z" fill="#E7BCA5"/>
<path d="M282.634 158.616C291.981 150.709 303.034 157.132 293.709 172.061C291.848 175.007 289.988 177.554 281.859 180.921C271.293 185.351 270.031 158.306 269.831 207.501C269.831 221.456 271.337 225.642 290.94 235.144C291.715 235.521 284.915 240.593 284.871 240.615C273.065 249.077 279.998 245.045 266.93 250.295C264.715 251.137 255.567 254.924 255.412 253.529C253.64 238.711 250.096 235.322 247.659 226.639C245.444 218.975 242.963 217.026 242.742 214.456C242.432 210.691 233.882 203.381 232.841 202.052C232.464 201.609 232.508 201.432 233.062 201.233C258.025 193.104 254.238 186.924 251.713 188.408C246.574 191.398 223.56 199.638 212.839 187.345C201.078 173.833 200.812 149.845 205.685 151.351C207.699 151.796 209.796 151.681 211.749 151.017C213.702 150.353 215.435 149.166 216.76 147.585C218.045 146.301 216.76 151.196 222.962 152.326C224.247 152.569 224.734 150.997 223.959 150.62C222.076 149.668 220.304 149.225 219.285 146.057C218.488 143.598 226.151 145.57 225.93 139.811C225.93 138.282 224.446 138.238 224.114 139.611C223.516 141.981 224.114 141.627 220.57 142.292C220.26 142.292 220.171 142.292 220.282 141.915C222.231 135.779 221.611 134.03 223.604 132.546C224.468 132.041 225.451 131.777 226.451 131.783C227.451 131.788 228.431 132.062 229.289 132.576C230.147 133.09 230.851 133.825 231.328 134.704C231.805 135.583 232.037 136.574 231.999 137.574C232.287 144.817 239.309 155.427 247.504 155.116C259.111 154.651 262.455 142.69 264.56 141.383C265.955 140.497 267.417 141.051 273.309 144.662C275.037 145.703 270.008 156.202 278.204 159.79C279.068 160.167 277.185 161.318 279.289 162.005C279.533 162.271 280.729 160.211 282.634 158.616ZM293.244 165.571C293.551 164.952 293.678 164.26 293.611 163.572C293.545 162.885 293.287 162.23 292.868 161.681C292.448 161.133 291.884 160.712 291.237 160.468C290.591 160.224 289.89 160.165 289.213 160.3C285.624 161.075 281.704 165.638 283.609 169.337C284.251 170.599 283.609 173.213 282.28 173.523C279.644 174.099 279.467 172.859 278.824 174.055C278.182 175.251 279.599 176.27 281.039 176.27C285.602 176.27 287.13 171.042 285.669 168.229C285.481 167.922 285.37 167.574 285.348 167.216C285.324 166.857 285.389 166.498 285.536 166.169C286.466 163.954 291.095 159.768 291.538 165.704C291.649 166.324 292.779 166.546 293.244 165.571ZM223.338 168.074C223.338 167.277 222.851 164.951 220.991 164.907C218.776 164.907 218.443 168.207 220.038 169.824C220.991 170.821 222.807 171.042 223.338 168.074Z" fill="#E7BCA5"/>
<path d="M187.544 333.158C194.012 337.588 193.015 333.357 189.892 354.356C188.379 363.415 186.255 372.362 183.535 381.135C182.915 382.951 183.845 375.93 183.535 368.487C183.225 358.387 172.814 341.509 171.707 341.907C169.492 342.638 173.922 345.23 179.326 360.203C183.025 370.702 181.076 385.144 178.485 388.998C175.118 393.96 172.194 396.064 163.711 394.779C159.905 394.206 156.355 392.517 153.509 389.927C150.662 387.337 148.647 383.961 147.718 380.227C146.522 375.31 144.573 369.639 145.503 363.681C149.933 331.785 147.275 346.559 152.813 354.178H153.81C153.499 351.764 153.278 351.963 150.31 342.217C149.38 339.116 149.357 338.674 148.383 338.053C144.196 335.44 144.972 335.019 144.152 330.589C143.643 327.909 140.342 328.617 140.763 324.852C140.878 323.79 140.721 322.716 140.306 321.732C139.892 320.748 139.233 319.885 138.393 319.226C136.865 317.786 137.219 313.533 139.877 310.764C144.617 305.847 145.149 303.654 149.756 300.243C150.487 299.689 150.664 299.889 157.486 298.294C158.97 297.94 158.062 297.585 161.185 297.031C169.536 295.525 171.64 292.601 171.552 294.462C171.36 295.96 170.755 297.376 169.805 298.55C168.854 299.723 167.595 300.609 166.169 301.107C164.373 302.153 162.473 303.006 160.499 303.654C147.209 306.667 147.918 315.571 150.088 313.024C152.924 309.701 152.503 309.015 153.566 310.964C154.363 312.426 153.965 311.761 151.351 314.109C149.136 316.103 141.738 322.083 145.326 321.552C145.836 321.552 146.123 321.219 150.819 317.277C154.164 314.441 155.515 311.894 166.324 311.783C172.548 311.783 177.399 308.926 181.63 308.106C183.247 307.774 182.826 312.957 171.485 316.014C169.01 317.006 166.443 317.747 163.821 318.229C161.748 318.333 159.748 319.032 158.062 320.245C156.512 321.707 155.36 322.46 156.157 323.279C156.445 323.589 156.711 323.833 157.132 323.39C159.812 320.599 162.581 320.732 168.207 319.602C169.89 319.27 169.536 318.428 172.216 318.163C174.958 317.691 177.672 317.07 180.345 316.302C182.56 316.302 180.855 320.998 169.27 325.472C163.666 327.687 161.03 328.285 159.059 331.231C158.527 332.029 158.084 333.225 159.059 333.668C160.676 334.399 159.701 331.01 165.483 328.905C166.479 328.551 166.723 328.462 167.077 332.892C167.83 342.505 164.286 346.714 163.999 350.612C163.999 351.144 164.619 351.831 165.283 351.011C166.289 348.843 167.184 346.625 167.963 344.366C172.925 329.526 161.318 324.697 176.823 329.459C183.845 331.63 184.82 331.298 187.544 333.158Z" fill="#E7BCA5"/>
<path d="M151.683 288.171C154.696 287.485 152.193 293.997 146.677 297.031C142.247 299.534 141.804 299.778 141.184 300.531C140.564 301.284 141.184 302.237 141.76 302.037C145.393 300.974 151.417 294.484 139.058 308.682C136.134 312.049 136.577 312.293 136.178 309.325C136.205 308.197 136.308 307.072 136.488 305.958C137.042 303.322 134.14 297.098 137.241 295.127C141.254 292.686 145.517 290.681 149.956 289.146C150.489 288.751 151.069 288.424 151.683 288.171Z" fill="#E7BCA5"/>
<path d="M206.704 124.04C206.704 123.73 208.476 115.18 210.647 112.057C212.817 108.934 220.26 100.982 220.26 100.982C220.26 100.982 225.797 103.861 226.307 98.7669C226.307 98.7669 228.389 100.738 230.737 97.0835C233.085 93.4288 239.22 93.8053 241.435 94.7799C243.65 95.7545 249.741 96.862 253.108 102.51C256.475 108.159 268.015 127.85 270.075 130.685C272.135 133.52 278.669 141.76 273.818 143.156L264.958 138.105C264.958 138.105 261.88 129.09 254.149 127.806C246.419 126.521 237.227 125.746 233.461 132.236C233.461 132.236 226.041 127.806 220.88 132.524C220.88 132.524 219.706 125.591 213.26 124.505C206.815 123.42 206.704 124.04 206.704 124.04Z" fill="#E7BCA5"/>
<path d="M58.3652 166.524L57.3241 160.255L62.3079 164.464L68.7314 161.451L66.5607 168.606L71.1236 175.251L63.504 173.944L60.4916 180.678L58.5645 172.593L51.9417 169.448L58.3652 166.524Z" fill="#FFEB8D"/>
<path d="M377.392 164.641C367.048 172.881 365.94 188.674 360.735 184.886C354.777 180.456 350.967 175.827 350.79 169.182C350.79 167.343 349.793 165.549 348.021 166.214C346.581 166.841 345.101 167.374 343.591 167.808C338.518 169.137 338.718 164.53 336.37 166.679C335.423 167.332 334.541 168.074 333.734 168.894C333.003 169.558 333.357 169.182 331.674 167.919C329.991 166.657 327.554 168.384 327.886 169.359C328.048 169.596 328.284 169.771 328.558 169.855C328.832 169.94 329.126 169.929 329.393 169.824C330.699 169.248 330.899 170.489 332.228 171.552C334.443 173.346 336.193 167.498 338.098 168.849C341.265 171.064 342.705 170.311 347.533 168.672C350.524 167.675 344.787 174.298 356.77 184.465C363.415 190.158 364.545 188.364 369.75 177.953C371.655 174.143 375.398 167.941 378.787 165.859C380.183 164.995 381.822 164.552 385.233 166.967C393.229 172.637 389.663 174.077 388.622 176.535C388.445 176.978 389.397 177.776 389.818 177.2C392.454 173.59 391.723 174.719 392.276 172.969C391.324 167.476 382.353 160.698 377.392 164.641Z" fill="black"/>
<path d="M374.069 136.4C373.892 135.292 373.538 134.185 373.316 133.099C373.29 132.837 373.185 132.589 373.015 132.387C372.845 132.185 372.618 132.04 372.364 131.97C371.5 131.704 371.389 132.191 368.421 135.713C365.785 138.836 367.358 138.305 360.89 136.71C360.533 136.773 360.194 136.915 359.899 137.126C359.604 137.337 359.36 137.611 359.184 137.928C358.741 138.57 358.786 138.814 360.757 142.004C362.44 144.728 362.972 144.064 362.175 145.238C357.988 151.506 356.105 153.566 363.814 150.753C368.244 149.158 368.066 148.914 368.709 149.557C371.699 152.547 375.819 157.597 376.063 153.367C376.168 151.707 375.911 150.044 375.31 148.494C374.999 146.899 381.091 146.079 381.445 143.798C381.475 143.699 381.484 143.595 381.472 143.492C381.46 143.389 381.427 143.29 381.375 143.201C381.323 143.112 381.253 143.034 381.17 142.973C381.087 142.911 380.992 142.868 380.891 142.845C372.452 139.855 375.066 142.779 374.069 136.4ZM374.18 146.301C371.965 147.94 374.047 149.313 373.87 151.617C372.142 150.886 370.193 147.187 367.623 147.187C362.994 148.737 362.706 149.402 361.887 149.402C362.152 147.741 366.051 144.374 363.836 142.58C362.972 141.915 360.823 138.748 361.909 138.991C366.206 139.988 366.184 140.187 367.003 139.611C371.323 136.643 371.433 132.08 372.231 138.327C372.917 143.953 371.522 141.649 377.746 143.909C378.765 144.329 375.575 145.282 374.18 146.301Z" fill="black"/>
<path d="M346.426 100.384C346.603 109.244 352.163 113.674 342.86 112.478C328.595 110.617 325.738 107.184 327.089 117.55C327.266 118.945 327.333 118.502 320.444 121.293C316.989 122.711 318.561 124.461 320.444 123.73C326.735 121.16 329.503 120.784 329.304 118.037C328.861 113.186 328.241 112.323 330.079 112.633C342.505 114.626 344.61 115.091 346.847 114.848C355.574 113.917 344.455 100.029 350.413 97.1277C354.599 95.0456 355.995 98.3681 376.085 106.364C377.192 106.807 378.3 107.25 378.654 106.209C379.009 105.168 377.99 105.102 377.436 104.88C357.501 96.7069 359.539 96.3082 355.286 94.9127C354.35 94.4749 353.32 94.2768 352.289 94.3364C351.257 94.396 350.257 94.7114 349.378 95.2542C348.499 95.7971 347.769 96.5502 347.253 97.4459C346.738 98.3411 346.454 99.3508 346.426 100.384Z" fill="black"/>
<path d="M355.02 73.25C353.359 75.9745 349.505 81.9107 353.071 81.0247C354.4 80.7146 356.947 80.2273 357.501 80.0058C360.89 78.854 361.001 78.3888 361.466 78.8761C365.896 83.3061 369.063 88.157 368.842 80.0501C368.709 76.2403 367.867 75.6201 368.953 75.1992C370.392 74.579 373.25 72.9842 374.047 72.7849C376.772 71.9653 376.904 70.1933 375.731 69.6617C374.557 69.1301 371.301 68.5099 369.285 67.6461C366.073 66.2063 367.446 68.1777 365.386 60.0265C365.338 59.784 365.214 59.5629 365.032 59.395C364.851 59.2271 364.621 59.1207 364.375 59.0914C364.13 59.062 363.881 59.1107 363.665 59.2307C363.449 59.3511 363.276 59.5364 363.171 59.7607C362.906 60.1151 361.975 61.4441 359.14 65.6083C358.476 66.605 352.119 63.2604 351.078 64.5008C348.464 67.5353 355.884 71.8324 355.02 73.25ZM357.678 67.6239C359.893 68.2663 359.495 67.9562 363.526 62.5294C364.811 60.7796 363.991 68.6871 366.981 68.9529C368 68.9529 369.462 70.1933 371.832 70.7249C372.023 70.7938 372.202 70.8909 372.364 71.0129C372.253 71.1679 372.164 71.3673 372.009 71.4337C366.427 74.3132 366.051 73.9588 366.383 75.8637C367.225 81.1133 367.026 80.2937 366.893 81.2019C360.979 75.8416 363.327 76.5282 362.463 76.3732C360.824 76.1295 357.767 77.968 354.821 78.5882C353.802 78.5882 354.201 78.3667 356.748 74.1582C359.495 69.6174 345.806 64.235 357.678 67.6239Z" fill="black"/>
<path d="M302.658 78.3224C302.559 79.1875 302.642 80.0634 302.901 80.8942C303.161 81.7255 303.591 82.4927 304.165 83.1479C304.738 83.8027 305.442 84.3303 306.232 84.6972C307.021 85.0641 307.879 85.2618 308.749 85.2775C311.983 85.5655 313.29 82.7967 314.508 83.0625C317.232 83.5941 319.403 80.5817 319.492 78.4332C319.492 77.3035 320.333 76.5504 320.776 75.4651C321.219 74.3797 320.644 73.6931 321.219 73.5159C322.067 72.9331 322.75 72.1418 323.204 71.2187C323.658 70.2957 323.867 69.2715 323.811 68.2442C323.811 67.9562 324.564 66.9373 323.811 66.0292C323.656 65.8298 324.409 64.6337 324.586 64.4565C324.763 64.2793 345.85 65.9627 349.549 47.3789C354.954 20.2231 311.341 9.23668 303.211 35.3294C298.781 49.3724 310.299 56.8148 309.613 58.2545C307.819 61.9536 306.667 60.4695 306.002 62.0865C304.23 66.1842 306.002 65.6748 305.05 66.1842C301.86 67.8233 303.632 69.839 302.525 70.6142C301.661 71.2493 301.074 72.1933 300.889 73.2497C300.703 74.306 300.932 75.393 301.528 76.2846C302.392 77.3035 302.835 77.525 302.658 78.3224ZM308.904 82.9961C306.335 82.3759 306.025 82.3316 304.474 79.1863C304.275 78.7876 304.762 78.854 305.183 79.0312C311.296 81.5563 313.002 81.955 308.904 82.9961ZM307.885 52.4291C297.231 35.5287 312.315 21.9508 323.988 22.5931C351.432 22.4381 357.346 58.5425 328.817 61.7985C325.096 62.2415 324.387 61.1783 323.235 62.6624C321.153 65.6083 322.504 66.9373 320.799 66.4943C317.317 65.6047 313.997 64.1694 310.964 62.2415C308.151 60.536 313.179 60.0265 311.717 56.8591C310.255 53.6916 310.277 56.106 307.885 52.4291ZM307.996 62.5295C319.735 71.3895 324.387 66.8266 320.843 70.9465C320.178 71.7217 317.609 70.4149 316.634 70.0605C311.983 68.3106 304.075 65.7855 308.084 62.5295H307.996ZM305.294 68.2442C305.648 67.9784 305.471 67.2253 305.98 67.2696C306.866 67.2696 305.692 68.1999 311.562 70.5478C317.432 72.8957 317.941 73.1615 319.093 73.2722C320.245 73.383 318.96 75.8195 316.745 75.7752C313.157 74.5348 302.436 70.5921 305.382 68.2442H305.294ZM303.079 72.6742C304.053 71.168 303.256 72.8957 308.306 75.0664C313.777 77.4364 315.748 78.3224 317.166 78.1452C317.543 78.1452 317.52 78.411 317.365 78.6104C316.457 79.8286 315.416 81.6228 313.711 80.5374C309.391 77.525 300.841 76.2846 303.211 72.5856L303.079 72.6742Z" fill="black"/>
<path d="M346.448 211.222C344.721 210.115 345.385 209.982 345.762 208.343C347.29 201.698 347.223 202.163 347.135 201.698C347.124 201.51 347.062 201.329 346.954 201.175C346.847 201.021 346.7 200.899 346.528 200.824C346.356 200.748 346.167 200.722 345.981 200.747C345.795 200.772 345.619 200.848 345.474 200.967C343.259 202.717 340.734 203.758 338.474 205.397C337.433 206.106 333.933 202.562 333.136 202.872C331.962 203.359 331.098 203.935 331.475 205.375C333.047 211.067 332.56 210.469 331.741 211.001C329.326 212.551 327.311 213.216 327.466 215.187C327.466 216.782 332.294 216.671 334.111 216.693C335.927 216.716 335.55 217.491 336.171 218.51C338.939 223.073 340.601 225.708 341.974 220.525C343.17 216.228 341.686 216.693 349.04 216.45C352.185 216.206 349.815 213.371 346.448 211.222ZM344.876 214.434C342.284 214.766 341.199 214.833 340.911 216.405C340.674 217.686 340.31 218.94 339.825 220.149C339.711 220.065 339.608 219.968 339.515 219.861C335.085 213.349 338.519 215.032 330.389 214.368C328.773 214.368 333.225 212.861 334.532 209.938C335.019 208.852 332.737 204.799 334.022 205.508C337.92 207.568 336.658 206.815 337.145 207.102C338.607 208.011 342.949 204.444 344.61 203.957C345.208 207.612 340.999 209.827 344.964 212.618C347.755 214.545 347.379 214.124 344.876 214.434Z" fill="black"/>
<path d="M321.751 241.191C315.46 237.869 310.388 240.35 302.636 235.964C300.408 234.404 297.702 233.682 294.994 233.926C293.111 234.413 276.764 227.281 273.243 219.529C272.497 217.507 272.108 215.371 272.091 213.216C271.936 211.532 280.22 218.753 288.238 214.811C288.446 214.738 288.628 214.607 288.764 214.434C288.9 214.261 288.983 214.052 289.004 213.834C289.025 213.615 288.983 213.394 288.882 213.198C288.782 213.002 288.628 212.839 288.437 212.729C285.533 211.51 283.085 209.411 281.438 206.726C281.172 206.283 280.862 205.397 281.881 206.084C290.896 212.219 302.724 205.663 299.114 203.869C295.903 203.055 293.053 201.201 291.007 198.597C290.564 198.043 291.007 198.132 291.273 198.287C297.918 201.255 307.265 200.834 312.537 195.762C315.283 193.104 306.468 191.974 304.54 181.608C302.613 171.242 308.97 164.442 310.078 146.744C310.654 137.529 303.787 120.452 299.446 114.072C287.64 96.7512 270.651 88.2899 249.453 82.2651C244.435 81.1101 239.205 81.255 234.259 82.6859C233.373 83.0403 233.572 84.5022 234.635 84.3472C242.285 82.6581 250.283 83.6432 257.295 87.1381C265.933 91.2137 283.011 95.0678 295.968 113.297C324.409 153.167 289.323 173.102 306.888 191.31C310.587 195.141 311.119 194.521 309.369 195.562C306.232 197.317 302.665 198.156 299.074 197.984C295.483 197.812 292.012 196.635 289.058 194.588C287.684 193.702 286.267 194.588 286.998 196.249C290.077 203.691 297.563 204.666 295.636 205.33C285.447 208.764 281.327 202.517 279.888 201.72C276.831 200.081 276.277 206.726 284.694 213.127C286.444 214.456 271.736 213.327 271.869 208.52C273.087 168.03 269.189 185.794 280.951 184.155C290.719 182.76 301.993 168.916 299.291 159.148C297.475 152.658 291.472 153.411 289.966 152.326C275.369 141.849 267.616 138.615 263.386 131.97C258.38 124.129 239.707 121.426 233.129 130.663C232.885 131.017 232.686 131.106 232.354 130.663C231.745 129.933 230.994 129.336 230.145 128.908C229.297 128.48 228.37 128.23 227.422 128.174C226.473 128.118 225.523 128.257 224.631 128.582C223.738 128.907 222.921 129.412 222.231 130.065C221.943 130.375 221.81 130.375 221.699 129.932C220.548 125.192 214.102 122.955 208.808 122.667C207.989 122.667 207.834 122.955 209.96 117.439C210.359 116.42 212.662 116.199 216.073 118.635C219.152 120.54 217.004 113.408 212.109 113.519C209.894 113.519 218.576 104.016 219.927 102.444C220.636 101.646 220.836 103.02 222.585 103.175C223.316 103.175 223.782 102.023 222.896 101.336C211.533 92.4762 223.582 74.2689 234.303 80.1387C236.518 81.4012 237.603 79.0533 235.455 77.9237C227.879 74.2246 219.307 79.2748 216.915 87.5589C216.605 88.5778 216.539 87.4039 211.378 88.6C209.066 89.1457 206.94 90.2943 205.217 91.9281C203.493 93.5624 202.233 95.6239 201.565 97.903C201.265 98.9489 200.683 99.8916 199.882 100.627C194.787 106.121 197.224 113.12 203.027 114.87C203.448 115.003 205.109 115.202 205.242 114.427C205.596 113.142 204.555 113.12 203.736 112.876C195.983 110.551 200.524 100.118 201.388 103.817C202.252 107.516 207.258 112.168 208.343 110.263C209.428 108.358 200.458 106.054 203.78 97.7479C206.394 91.1029 216.295 88.8879 216.273 91.4795C216.14 99.675 219.772 100.339 218.886 101.27C214.456 105.899 212.241 107.538 209.517 113.297C209.32 113.794 208.95 114.203 208.476 114.449C205.131 116 203.891 121.094 205.176 120.341C207.922 118.502 207.036 118.613 206.35 122.046C206.017 123.663 203.802 122.179 198.22 125.192C188.275 130.685 193.104 143.731 201.565 149.512C204.777 151.727 195.23 154.806 204.71 177.554C204.755 177.628 204.781 177.711 204.786 177.796C204.792 177.882 204.776 177.967 204.741 178.046C204.707 178.124 204.653 178.193 204.586 178.246C204.519 178.299 204.44 178.336 204.356 178.352C200.872 179.92 197.101 180.75 193.281 180.788C191.952 180.655 191.996 182.117 192.395 183.18C195.695 192.04 204.843 192.86 203.116 193.879C196.138 198.043 196.293 197.268 194.433 197.711C194.09 197.745 193.774 197.913 193.554 198.178C193.334 198.443 193.228 198.785 193.259 199.128C193.104 200.923 194.499 201.942 196.448 203.337C204.777 209.273 212.972 205.552 213.393 205.951C212.738 208.184 211.679 210.278 210.27 212.131C207.213 216.007 215.918 216.561 223.161 211.998C223.292 211.965 223.429 211.965 223.56 211.998C223.312 213.607 222.956 215.198 222.497 216.76C221.434 220.282 218.754 218.975 217.735 222.63C216.826 226.019 199.638 230.759 197.401 232.176C196.67 232.619 197.202 232.952 190.512 219.285C181.032 199.992 181.652 200.014 179.216 200.834C173.545 202.65 175.517 203.603 171.973 196.404C170.156 192.705 128.714 203.514 116 218.643C113.32 221.965 114.936 222.785 115.845 221.965C116.354 221.522 119.898 214.523 139.833 205.906C149.29 201.808 159.272 199.05 169.492 197.711C170.644 197.578 170.179 197.246 172.46 202.296C173.036 203.581 117.661 220.658 116.288 222.408C114.914 224.158 111.858 223.604 112.788 222.895C112.994 222.756 113.138 222.542 113.191 222.299C113.245 222.056 113.204 221.802 113.076 221.589C108.646 211.333 103.596 210.514 104.216 208.299C104.216 207.878 102.267 203.293 102.621 202.628C102.975 201.964 113.43 211.267 113.076 217.402C113.076 218.953 115.557 219.617 115.158 216.782C114.028 208.476 102.975 197.179 100.052 200.768C99.5422 201.366 101.691 205.729 101.735 207.036C100.317 206.615 92.5428 200.391 90.0842 203.47C89.5304 204.134 89.7962 204.223 93.2516 210.602C94.1155 212.219 91.6347 210.403 89.176 208.941C81.8001 204.511 84.746 208.786 88.6666 217.092C132.324 306.999 135.802 312.337 135.359 314.818C135.134 316.143 135.254 317.503 135.708 318.768C136.162 320.033 136.934 321.159 137.95 322.039C138.294 322.393 138.541 322.83 138.669 323.306C138.797 323.783 138.801 324.284 138.681 324.763C138.438 330.234 142.358 329.348 142.314 332.405C142.337 334.482 143.126 336.477 144.529 338.009C147.896 340.468 146.456 335.661 143.466 363.127C142.624 370.813 145.016 377.082 146.323 381.844C149.092 391.767 159.613 397.216 166.923 397.349C167.676 397.349 167.986 397.083 166.923 400.383C163.534 410.995 167.831 413.186 162.736 419.698C161.835 421.007 161.314 422.541 161.23 424.128C161.258 424.342 161.359 424.535 161.514 424.684C161.67 424.829 161.871 424.918 162.084 424.934C162.297 424.95 162.509 424.889 162.684 424.769C162.859 424.644 162.987 424.466 163.046 424.261C164.109 420.298 167.476 418.571 167.609 413.033C167.609 412.058 167.742 405.945 167.964 405.015C169.935 396.485 169.514 397.371 170.644 397.194C177.842 396.042 179.371 392.011 183.424 386.517C186.259 382.663 192.284 356.969 194.167 338.873C194.167 338.164 194.167 337.433 194.809 336.946C195.452 336.458 198.641 316.679 198.575 314.796C198.575 314.065 197.29 313.777 197.024 314.441C196.293 316.191 195.186 327.045 193.79 334.243C193.635 335.129 193.281 334.576 189.959 332.228C185.529 329.083 184.886 329.836 179.371 328.263C170.511 325.671 172.726 326.978 177.665 323.833C184.31 319.536 183.867 315.527 183.114 314.574C182.361 313.622 179.969 314.176 183.114 313.267C212.419 304.784 223.649 301.594 227.658 299.977C230.427 298.914 229.873 298.604 229.208 297.895C229.208 297.895 225 289.345 198.198 234.79C197.8 233.948 197.556 234.258 202.872 232.575C203.226 232.575 203.337 232.575 203.404 232.952C204.725 238.744 207.822 243.979 212.264 247.925C224.158 257.915 228.522 254.437 229.43 255.965C236.983 268.835 233.129 238.666 231.645 331.585C231.645 366.915 234.768 364.81 238.976 375.155C239.309 375.93 241.191 384.015 242.498 385.454C255.456 400.804 265.822 400.538 277.207 391.258C286.754 383.483 302.768 358.343 304.009 359.295C305.249 360.248 307.287 360.336 309.236 361.665C311.872 363.459 315.992 365.209 319.027 364.323C321.53 363.592 320.865 365.32 333.867 327.111C334.554 325.073 333.269 343.724 328.928 360.713C322.947 384.059 313.423 397.393 315.638 406.299C316.524 409.755 314.995 410.995 315.638 416.666C317.853 433.057 316.767 432.014 318.539 432.171C320.311 432.324 318.34 419.432 318.185 418.679C316.834 411.793 318.584 409.819 317.675 406.009C315.328 396.286 328.241 380.648 333.978 346.492C336.503 331.541 334.576 325.716 339.693 311.252C346.072 293.355 350.192 280.751 347.201 261.879C344.986 248.08 340.711 251.203 321.751 241.191ZM114.294 225.686C121.205 225.686 110.462 210.403 148.339 286.444C149.003 287.795 146.567 288.548 145.149 288.814C144.307 288.26 146.168 291.339 125.879 250.472C112.965 224.623 112.965 225.664 114.294 225.664V225.686ZM92.4099 205.109C95.3559 204.755 107.915 213.327 110.949 221.877C105.789 219.31 100.835 216.348 96.1311 213.017C95.7103 211.222 92.7865 206.394 92.4099 205.087V205.109ZM134.34 306.202C133.609 305.138 87.8249 211.355 87.5148 210.58C87.8692 210.447 86.6731 209.849 106.076 221.434C112.301 225.155 108.69 220.437 119.211 241.789C143.887 291.848 143.421 289.545 142.358 289.921C129.09 294.462 135.691 303.167 134.34 306.179V306.202ZM136.178 309.391C136.204 308.263 136.308 307.138 136.488 306.024C137.042 303.389 134.141 297.164 137.242 295.193C141.254 292.753 145.517 290.748 149.956 289.213C150.487 288.803 151.067 288.46 151.683 288.194C154.696 287.529 152.193 294.019 146.677 297.054C142.247 299.557 141.804 299.8 141.184 300.553C140.564 301.306 141.184 302.259 141.76 302.06C145.393 300.996 151.418 294.506 139.058 308.705C136.134 312.093 136.577 312.315 136.178 309.369V309.391ZM153.145 296.101C153.522 297.031 153.389 296.876 149.933 297.563C149.933 297.563 149.933 297.563 149.933 297.386C151.861 296.212 152.148 294.883 152.525 294.972C152.902 295.06 152.835 295.415 153.145 296.168V296.101ZM171.397 315.903C168.922 316.895 166.355 317.637 163.733 318.118C161.659 318.222 159.66 318.922 157.974 320.134C156.423 321.596 155.272 322.349 156.069 323.168C156.357 323.479 156.623 323.722 157.044 323.279C159.724 320.488 162.493 320.621 168.119 319.492C169.802 319.159 169.448 318.318 172.128 318.052C174.87 317.581 177.583 316.96 180.257 316.191C182.472 316.191 180.766 320.887 169.182 325.361C163.556 327.576 160.942 328.174 158.971 331.12C158.439 331.918 157.996 333.114 158.971 333.557C160.588 334.288 159.613 330.899 165.394 328.795C166.391 328.44 166.635 328.352 166.989 332.782C167.742 342.395 164.198 346.603 163.91 350.502C163.91 351.033 164.53 351.72 165.195 350.9C165.859 350.081 167.653 344.831 167.875 344.255C172.837 329.415 161.23 324.586 176.735 329.348C183.845 331.563 184.731 331.187 187.456 333.047C193.923 337.477 192.927 333.247 189.803 354.245C188.29 363.305 186.166 372.251 183.446 381.024C182.826 382.841 183.757 375.819 183.446 368.377C183.136 358.276 172.726 341.398 171.618 341.797C169.403 342.528 173.833 345.119 179.238 360.093C182.937 370.592 180.988 385.033 178.396 388.888C175.029 393.849 172.106 395.953 163.622 394.669C159.817 394.095 156.266 392.407 153.42 389.817C150.574 387.226 148.559 383.851 147.63 380.116C146.434 375.199 144.485 369.528 145.415 363.57C149.845 331.674 147.187 346.448 152.724 354.068H153.721C153.411 351.653 153.19 351.853 150.221 342.107C149.291 339.006 149.269 338.563 148.294 337.943C144.108 335.329 144.883 334.908 144.064 330.478C143.554 327.798 140.254 328.507 140.675 324.741C140.79 323.68 140.632 322.605 140.218 321.621C139.803 320.637 139.145 319.775 138.305 319.115C136.776 317.675 137.131 313.422 139.789 310.654C144.529 305.736 145.06 303.544 149.668 300.132C150.399 299.579 150.576 299.778 157.398 298.183C158.882 297.829 157.974 297.474 161.097 296.921C169.448 295.415 171.552 292.491 171.463 294.351C171.272 295.85 170.667 297.265 169.716 298.439C168.766 299.613 167.507 300.498 166.081 300.996C164.285 302.042 162.385 302.896 160.41 303.544C147.12 306.556 147.829 315.46 150 312.913C152.835 309.591 152.414 308.904 153.477 310.853C154.275 312.315 153.876 311.65 151.262 313.998C149.047 315.992 141.649 321.972 145.238 321.441C145.747 321.441 146.035 321.109 150.731 317.166C154.076 314.331 155.427 311.783 166.236 311.673C172.46 311.673 177.311 308.815 181.542 307.996C183.158 307.73 182.738 312.913 171.397 315.97V315.903ZM156.113 310.986C155.825 310.72 155.958 311.141 154.696 308.572C154.408 307.951 154.895 307.774 157.996 306.822C158.395 306.689 158.749 307.42 159.657 309.435C159.857 309.967 159.48 310.1 156.113 311.052V310.986ZM226.152 298.228C224.38 298.781 184.62 310.565 184.554 310.587C184.089 310.72 183.712 310.764 183.934 310.321C184.886 308.284 183.934 305.293 181.431 305.891C173.147 307.641 174.564 309.546 162.603 309.568C161.695 309.568 162.094 309.834 160.388 306.467C160.211 306.113 160.388 305.891 160.698 305.803C163.077 305.092 165.355 304.08 167.476 302.79C175.317 298.959 175.229 289.013 169.027 292.181C166.148 293.496 163.098 294.398 159.967 294.861C158.575 295.297 157.208 295.807 155.87 296.389C155.249 296.611 154.275 294.174 153.987 293.443C153.699 292.712 156.866 285.491 152.326 285.602C148.449 286.643 153.544 290.386 119.654 224.136C118.768 222.408 117.86 223.338 132.324 218.554C138.194 216.627 173.058 205.087 179.614 202.717C180.235 202.495 179.614 201.565 187.278 217.225C227.171 299.667 227.791 297.785 226.152 298.294V298.228ZM275.391 146.877C275.391 145.991 274.948 145.991 285.802 153.034C287.219 153.942 283.919 153.566 280.552 157.464C279.91 158.217 279.888 158.173 278.957 157.73C274.926 155.936 274.815 151.55 275.391 146.943V146.877ZM236.296 130.685C240.726 127.052 255.124 127.141 260.661 133.409C265.49 138.903 253.529 158.993 241.723 150.731C236.053 146.766 230.781 135.115 236.296 130.685ZM207.679 140.741C207.679 139.634 206.438 125.856 208.232 125.945C211.601 125.825 214.93 126.704 217.801 128.47C222.563 131.593 217.159 153.167 205.552 148.892C204.312 148.405 207.59 145.503 207.679 140.741ZM201.565 127.03C202.717 126.676 203.78 126.41 205.065 126.1C205.464 126.1 205.663 126.1 205.619 126.543C204.467 136.533 207.701 139.368 203.869 147.032C203.426 147.962 203.337 148.006 202.584 147.408C193.303 139.833 190.712 130.419 201.565 127.03ZM205.663 151.395C207.677 151.841 209.774 151.725 211.727 151.061C213.68 150.397 215.413 149.21 216.738 147.63C218 146.345 216.738 151.24 222.94 152.37C224.225 152.613 224.712 151.041 223.937 150.664C222.054 149.712 220.282 149.269 219.263 146.101C218.466 143.643 226.129 145.614 225.908 139.855C225.908 138.327 224.424 138.282 224.092 139.656C223.494 142.026 224.092 141.671 220.548 142.336C220.238 142.336 220.149 142.336 220.26 141.959C222.209 135.824 221.589 134.074 223.582 132.59C224.446 132.085 225.429 131.822 226.429 131.827C227.429 131.832 228.409 132.106 229.267 132.62C230.125 133.134 230.829 133.869 231.306 134.748C231.783 135.628 232.015 136.619 231.977 137.618C232.265 144.861 239.287 155.471 247.482 155.161C259.089 154.696 262.433 142.735 264.538 141.428C265.933 140.542 267.395 141.095 273.287 144.706C275.015 145.747 269.986 156.246 278.182 159.834C279.046 160.211 277.163 161.363 279.267 162.049C279.6 162.049 280.796 160.078 282.701 158.483C292.048 150.576 303.101 156.999 293.776 171.928C291.915 174.874 290.054 177.421 281.925 180.788C271.36 185.218 270.097 158.173 269.898 207.368C269.898 221.323 271.404 225.509 291.007 235.011C291.782 235.388 284.982 240.46 284.938 240.483C273.132 248.944 280.065 244.913 266.996 250.162C264.781 251.004 255.633 254.791 255.478 253.396C253.706 238.578 250.162 235.189 247.726 226.506C245.511 218.842 243.03 216.893 242.808 214.323C242.498 210.558 233.948 203.248 232.907 201.919C232.531 201.476 232.575 201.299 233.129 201.1C258.092 192.971 254.304 186.791 251.779 188.275C246.64 191.265 223.627 199.505 212.906 187.212C201.011 173.966 200.746 149.978 205.619 151.484L205.663 151.395ZM212.64 212.64C214.199 209.881 215.306 206.89 215.918 203.78C215.975 203.554 215.959 203.317 215.873 203.101C215.787 202.885 215.636 202.701 215.439 202.577C215.243 202.451 215.013 202.391 214.781 202.405C214.549 202.418 214.327 202.504 214.146 202.65C206.46 207.833 192.904 199.704 196.116 199.461C198.043 199.306 210.979 193.347 204.733 191.265C197.357 188.807 194.012 183.092 194.898 182.826C198.358 182.597 201.752 181.773 204.932 180.39C207.856 178.994 204.932 185.927 218.554 194.322C217.935 195.013 217.592 195.908 217.592 196.836C217.592 197.764 217.935 198.659 218.554 199.35C222.364 204.001 225.199 205.995 225 206.438C224.668 207.147 225 208.121 224.136 208.653C220.836 210.89 216.45 213.415 212.64 212.64ZM227.215 252.887C217.181 251.314 207.391 241.391 205.375 233.062C204.998 231.49 204.733 231.645 206.416 231.069C211.355 229.319 213.903 227.436 213.282 228.544C212.042 230.759 212.928 233.616 212.773 234.635C212.197 238.467 214.855 241.701 218.687 243.739C219.197 244.004 219.019 243.96 222.408 244.182C224.623 243.65 224.911 243.428 225.177 244.182C225.663 245.287 226.041 246.437 226.307 247.615C227.193 252.51 228.344 253.152 227.193 252.975L227.215 252.887ZM292.048 370.525C290.053 373.225 287.893 375.8 285.58 378.233C282.457 381.844 279.954 385.875 275.015 389.663C263.452 398.523 254.792 396.308 244.713 384.502C243.187 381.907 242.102 379.078 241.502 376.129C240.062 370.304 237.492 368.687 235.698 362.086C231.002 344.831 236.119 261.459 236.584 261.038C238.489 259.288 235.521 260.152 231.246 254.57C227.769 250.14 229.386 245.4 222.386 234.015C222.246 233.707 222.038 233.435 221.777 233.22C221.516 233.005 221.209 232.852 220.88 232.774C219.529 232.553 220.636 234.303 221.256 235.676C222.187 237.692 220.282 236.407 219.927 236.385C219.019 236.274 218.399 237.315 221.5 239.131C221.877 239.353 222.896 239.375 223.161 239.729C223.422 240.224 223.608 240.754 223.715 241.302C223.715 241.612 223.715 241.701 223.427 241.723C220.991 242.011 219.927 242.52 217.912 240.815C216.76 239.84 214.7 237.625 214.744 236.119C214.855 231.689 214.102 229.474 217.912 227.259C219.396 226.439 219.662 225.044 219.75 223.405C219.905 220.392 222.94 222.032 224.18 218.111C225.952 212.529 234.059 217.447 232.885 214.323C229.297 204.91 218.045 198.818 219.595 196.116C221.057 193.746 226.373 198.154 227.769 199.749C232.066 204.6 239.951 211.2 240.66 215.807C241.103 218.554 243.03 219.529 244.957 225.996C248.435 237.603 252.377 242.542 252.842 255.367C253.573 275.302 274.151 351.808 274.173 351.875C274.749 353.071 276.122 352.584 276.056 351.321C275.258 336.458 266.974 320.067 269.012 319.957C272.371 319.724 275.733 320.381 278.758 321.862C280.796 323.39 293.377 334.576 294.484 335.617C299.069 339.825 304.186 341.287 307.486 346.337C309.834 349.815 310.455 344.632 292.026 370.614L292.048 370.525ZM225.598 212.95C226.617 207.723 226.506 207.922 227.126 208.52C228.237 209.739 229.142 211.131 229.806 212.64C230.272 213.504 228.854 213.194 228.832 213.105C225.664 213.681 225.288 213.947 225.465 213.039L225.598 212.95ZM320.666 358.298C320.573 358.484 320.445 358.649 320.289 358.786C320.167 358.663 320.056 358.53 319.957 358.387C313.932 349.527 310.898 347.312 309.48 344.787C307.686 341.619 302.503 338.341 299.38 336.436C297.32 335.174 293.31 331.054 290.143 328.551C282.989 322.903 282.811 319.337 272.6 317.941C271.05 317.72 268.68 318.406 268.303 318.096C267.927 317.786 268.303 317.254 270.097 313.799C271.601 310.679 273.404 307.712 275.48 304.939C284.65 292.003 282.789 292.668 285.912 287.33C291.406 277.85 292.845 279.001 301.639 269.61C313.688 256.718 314.286 256.431 315.084 254.393C315.438 253.44 314.597 252.997 314.154 253.462C286.599 282.568 289.235 276.72 283.587 287.263C271.072 310.654 278.381 294.373 267.705 313.622C266.575 315.637 254.415 260.063 255.589 256.342C255.921 255.279 257.162 256.984 266.664 252.953C281.039 246.817 273.464 251.801 285.492 242.941C291.583 238.511 294.351 233.572 300.531 237.271C308.505 242.055 311.385 240.084 318.872 242.299C322.836 243.473 322.438 244.78 339.072 251.491C343.945 253.462 344.632 257.76 345.208 261.99C348.065 284.295 346.072 286.998 320.533 358.387L320.666 358.298Z" fill="black"/>
<path d="M315.04 42.8159C315.438 42.8159 315.726 42.8159 315.593 43.5025C314.752 47.113 319.647 50.1475 318.672 51.8974C317.347 54.4297 316.414 57.1482 315.903 59.96C315.793 60.6245 316.391 60.2701 316.634 60.4694C317.565 61.2668 318.008 57.1026 320.4 52.6062C322.017 49.6159 317.321 46.6257 317.432 44.0563C317.565 40.7559 318.849 42.6387 321.862 43.5911C323.545 44.1227 324.83 43.5911 325.295 44.6986C325.595 45.2902 326.098 45.7546 326.712 46.0067C327.326 46.2588 328.01 46.2818 328.64 46.0719C330.677 45.5403 330.146 47.113 332.538 47.6224C334.93 48.1319 334.908 48.0211 334.908 48.9071C334.908 49.2172 334.908 49.5495 334.532 49.6381C333.393 50.0267 332.306 50.5547 331.298 51.2107C330.035 51.8088 330.589 50.7899 328.485 52.1632C325.317 54.2231 325.849 52.9163 324.52 53.9573C322.305 55.7515 317.454 60.8681 319.004 62.0864C320.555 63.3046 320.732 60.115 323.877 57.2355C327.023 54.356 326.535 55.7515 327.599 55.0205C329.814 53.6472 330.124 53.4479 330.456 53.4257C332.361 53.2707 333.823 51.6759 335.262 51.543C337.212 51.3658 336.702 49.6602 337.123 49.7931C337.544 49.926 337.544 50.3469 337.699 50.7234C339.094 54.201 343.436 46.0055 340.091 44.9201C336.747 43.8348 335.861 46.1827 335.329 46.0498C330.19 44.898 333.38 45.5625 330.412 44.0341C329.038 43.3253 327.953 44.9866 326.845 43.4139C325.096 40.8888 326.358 43.4139 318.141 40.1357C317.565 39.9142 317.254 39.1168 316.811 38.5852C316.368 38.0536 315.682 38.0536 314.862 37.8321C312.537 37.2784 311.163 42.0849 315.04 42.8159ZM339.139 46.7807C339.825 46.9801 339.316 48.597 338.696 48.2648C336.348 47.0687 338.319 46.5149 339.139 46.7807ZM314.774 39.5598C315.04 39.5598 315.505 40.3351 315.748 40.7116C314.53 41.7084 313.954 39.8699 314.752 39.5598H314.774Z" fill="black"/>
<path d="M330.5 281.438C323.146 285.203 313.334 292.048 290.63 293.443C289.766 293.443 288.903 293.842 289.013 294.728C289.124 295.614 307.952 296.611 331.098 283.254C334.155 281.46 332.516 280.419 330.5 281.438Z" fill="black"/>
<path d="M294.086 287.485C305.936 283.786 321.175 271.98 320.2 270.695C318.273 268.237 313.4 278.115 293.443 285.912C292.734 286.178 293.045 287.263 294.086 287.485Z" fill="black"/>
<path d="M285.735 136.732C286.111 137.131 294.861 145.06 295.813 142.602C296.168 141.671 295.592 141.406 292.535 139.279C276.609 128.47 269.853 106.586 262.278 101.89C261.769 101.58 261.348 102.798 261.547 103.175C263.288 105.093 264.866 107.153 266.265 109.332C275.546 124.173 273.242 123.198 285.735 136.732Z" fill="black"/>
<path d="M286.865 249.077C281.837 252.067 281.726 253.507 279.112 254.636C277.384 255.39 263.607 260.772 264.781 262.788C265.423 263.829 265.313 262.987 280.286 256.32C282.415 254.994 284.444 253.514 286.355 251.89C293.93 246.419 294.994 246.507 294.617 245.245C293.953 243.229 289.833 247.327 286.865 249.077Z" fill="black"/>
<path d="M281.106 176.181C285.669 176.181 287.197 170.954 285.735 168.141C285.547 167.834 285.437 167.486 285.414 167.127C285.391 166.768 285.455 166.409 285.602 166.081C286.532 163.866 291.162 159.679 291.605 165.616C291.605 166.324 292.757 166.546 293.244 165.616C293.55 164.997 293.678 164.304 293.612 163.617C293.545 162.929 293.287 162.274 292.868 161.726C292.448 161.177 291.883 160.757 291.237 160.513C290.591 160.268 289.89 160.21 289.213 160.344C285.624 161.119 281.704 165.682 283.609 169.381C284.251 170.644 283.609 173.257 282.28 173.567C279.644 174.143 279.467 172.903 278.824 174.099C278.182 175.295 279.599 176.181 281.106 176.181Z" fill="black"/>
<path d="M265.8 75.3099C265.933 73.8037 265.49 69.5731 269.233 68.5542C272.246 67.7125 273.907 68.0004 275.258 65.6525C276.41 63.659 275.258 63.0388 276.343 60.9789C279.976 54.3339 278.115 55.3528 282.988 53.2264C296.013 47.4452 285.203 40.0693 284.052 43.7905C283.453 45.5846 284.605 46.6035 285.381 44.8758C285.779 43.9677 290.01 47.2459 285.026 49.9703C280.419 52.4733 278.182 52.4511 276.941 55.6186C275.701 58.786 273.708 60.8017 273.774 63.7255C273.774 65.8076 271.847 65.7411 269.61 66.1841C267.839 66.669 266.29 67.7479 265.221 69.2404C264.152 70.7329 263.629 72.5472 263.74 74.3796C263.784 78.3666 265.512 78.7654 265.8 75.3099Z" fill="black"/>
<path d="M237.891 93.1851C236.458 93.152 235.033 93.4231 233.712 93.9805C232.391 94.5378 231.203 95.3691 230.227 96.419C228.92 97.8144 230.227 99.077 231.556 97.9473C232.546 96.9248 233.775 96.1661 235.133 95.7404C236.491 95.3151 237.934 95.2358 239.331 95.5108C255.899 97.7258 257.051 118.17 273.995 138.371C276.011 140.741 277.584 139.877 276.808 138.482C273.681 134.62 270.789 130.574 268.148 126.366C254.171 101.292 252.82 95.4001 237.891 93.1851Z" fill="black"/>
<path d="M239.22 113.74C238.445 114.56 237.869 116.332 239.021 115.955C240.615 115.313 242.122 113.43 246.131 113.474C251.69 113.474 253.706 121.626 254.083 117.484C253.618 110.905 245.555 106.94 239.22 113.74Z" fill="black"/>
<path d="M243.052 139.811C244.248 139.811 244.314 139.013 244.625 137.795C244.27 135.447 242.41 135.58 241.967 136.931C241.524 138.282 241.745 139.744 243.052 139.811Z" fill="black"/>
<path d="M225.11 96.131C225.11 97.615 225.11 100.317 226.639 100.074C228.654 99.7636 225.332 95.9981 228.411 91.2137C228.753 90.5504 229.239 89.9721 229.833 89.5198C230.426 89.0679 231.113 88.7534 231.844 88.6C232.1 88.4957 232.324 88.3261 232.495 88.1086C232.666 87.8912 232.778 87.633 232.819 87.3596C232.708 84.4358 225.022 87.6475 225.11 96.131Z" fill="black"/>
<path d="M210.425 14.0874C211.089 14.2646 212.042 13.3121 213.105 13.1349C214.7 12.8691 218.931 12.7362 219.75 14.3532C222.386 19.4255 213.46 25.7604 212.374 32.7598C211.688 37.1898 216.339 38.3416 223.449 40.313C229.585 41.9964 218.155 49.8153 221.655 54.5333C222.231 55.2864 223.87 56.7483 225.199 58.1437C228.544 61.6434 224.202 66.3171 226.395 66.7822C228.588 67.2474 230.205 59.9379 226.395 56.2388C222.164 51.986 221.721 53.4701 226.218 45.6068C227.392 43.5469 228.034 39.9364 225.465 38.8289C222.895 37.7214 223.25 38.541 217.092 36.1488C207.701 32.5383 225.553 21.8177 221.323 13.4672C220.348 11.075 218.288 11.3408 215.475 11.075C209.805 10.9421 209.605 13.8659 210.425 14.0874Z" fill="black"/>
<path d="M223.339 168.074C223.339 167.277 222.851 164.951 220.991 164.907C218.776 164.907 218.443 168.207 220.038 169.824C220.991 170.821 222.807 171.042 223.339 168.074Z" fill="black"/>
<path d="M215.254 136.067C215.076 133.852 213.327 133.852 213.039 134.694C211.643 137.197 214.545 139.545 215.254 136.067Z" fill="black"/>
<path d="M177.2 213.172C126.72 229.983 128.47 228.677 129.91 231.467C140.165 252.798 139.811 251.801 141.649 252.001C146.7 250.539 187.899 236.872 188.164 236.739C191 235.765 189.36 234.214 181.785 218.842C179.127 213.26 179.216 212.507 177.2 213.172ZM186.769 234.989L141.76 249.852C141.228 249.852 141.959 251.115 131.948 231.312C131.438 230.316 128.758 231.667 160.366 221.079C165.859 219.241 171.087 217.402 176.956 215.475C178.485 214.988 177.267 213.482 183.601 226.55C187.611 235.056 187.788 234.657 186.791 234.989H186.769Z" fill="black"/>
<path d="M174.631 233.372C174.343 233.372 145.658 242.232 143.621 243.207C142.624 243.628 141.716 244.957 142.934 245.267C143.333 245.267 175.738 235.809 177.444 233.838C176.558 232.198 175.805 233.328 174.631 233.372Z" fill="black"/>
<path d="M147.896 231.445C151.55 230.803 151.417 229.629 153.566 229.74C157.664 229.186 159.214 227.525 162.935 226.595C166.657 225.664 167.72 225.93 170.622 224.38C171.33 224.025 171.818 222.785 170.311 222.475C170.046 222.475 168.34 222.984 165.881 223.604C157.132 225.819 155.914 227.458 153.655 227.414C151.041 227.414 151.152 228.477 147.253 229.341C138.393 231.312 139.833 232.154 137.463 232.265C137.175 232.265 136.71 232.952 136.621 233.217C136.422 234.015 138.836 234.48 139.988 233.838C142.452 232.555 145.134 231.744 147.896 231.445Z" fill="black"/>
<path d="M155.382 120.917C158.616 116.62 156.711 117.24 167.365 120.917C167.587 121.02 167.836 121.049 168.075 121.001C168.315 120.954 168.533 120.831 168.698 120.651C168.864 120.471 168.967 120.243 168.994 120C169.021 119.757 168.971 119.512 168.849 119.3C167.683 116.77 166.336 114.327 164.818 111.99C163.91 110.839 168.584 105.855 168.672 103.13C168.805 99.1213 160.588 105.788 158.793 103.441C157.354 101.558 155.161 99.4757 153.721 97.1942C153.079 96.1532 151.838 95.7766 151.639 97.017C149.933 108.336 152.68 105.545 146.367 107.981C142.845 109.355 142.735 109.332 142.535 110.462C141.915 114.028 150.155 114.538 150.177 116.155C150.31 123.442 150.022 122.999 150.177 124.527C150.208 124.732 150.294 124.925 150.426 125.085C150.558 125.245 150.73 125.367 150.925 125.437C151.12 125.508 151.331 125.524 151.534 125.485C151.738 125.446 151.927 125.352 152.082 125.214C153.3 123.876 154.404 122.439 155.382 120.917ZM150.399 113.497C142.823 110.661 142.823 111.282 151.152 108.269C152.968 107.605 152.104 103.64 153.367 100.229C161.274 107.627 154.607 107.007 166.169 104.349C164.464 108.912 160.92 110.218 162.958 112.588C164.096 114.183 165.083 115.881 165.904 117.661C166.457 118.591 163.689 117.661 159.768 116.199C157.553 115.379 158.062 113.718 152.835 121.028C150.797 123.885 153.743 114.737 150.399 113.497Z" fill="black"/>
<path d="M112.743 82.1987C113.807 81.0469 113.829 81.0469 114.803 82.1987C115.795 83.3782 116.548 84.7403 117.018 86.2078C117.417 87.6254 115.911 86.8723 115.446 86.8945C113.231 86.8945 114.139 88.5557 114.693 88.8215C120.141 91.4574 122.489 85.1889 122.644 87.2489C122.888 90.0398 122.866 93.0743 122.999 96.7291C122.999 98.3903 124.35 99.6529 125.48 98.634C126.609 97.6151 129.622 94.5584 133.897 90.3942C140.896 83.5498 141.184 83.7492 141.095 82.398C140.076 67.5575 138.88 71.323 143.753 66.0292C149.645 59.6721 161.473 46.7365 165.305 38.984C171.219 27.2667 173.567 14.9291 168.052 14.3089C160.676 13.4894 147.851 19.935 141.472 25.539C136.897 29.4565 132.625 33.714 128.691 38.2752C115.401 52.8721 119.167 50.502 113.186 51.2994C101.159 52.8499 105.367 50.2584 90.4162 66.5608C88.5777 68.5764 89.8846 69.9497 91.0807 69.9497C94.6706 69.5748 98.2831 69.4564 101.89 69.5953C101.264 70.2429 100.804 71.0326 100.55 71.8965C100.295 72.7603 100.253 73.6733 100.428 74.5569C100.89 76.3124 101.816 77.9112 103.108 79.1863C103.839 79.6514 104.371 78.8319 104.083 77.968C103.95 77.525 101.668 74.1582 102.333 73.3387C102.997 72.5191 104.681 73.3387 109.576 77.0599C110.927 78.0788 108.336 79.0534 106.143 82.2873C104.88 84.1922 107.117 85.1668 107.715 85.6098C108.313 86.0528 108.867 86.1414 109.465 85.7205L112.743 82.1987ZM101.89 97.1056C86.3849 121.471 82.9295 146.987 94.8905 178.706C95.112 179.26 95.8651 181.763 96.6182 181.253C99.0104 179.681 86.3627 159.746 90.5269 130.419C94.3589 103.441 112.167 87.8691 112.677 85.5212C112.943 84.3694 112.522 83.8821 111.149 84.4137C107.755 88.4115 104.661 92.6535 101.89 97.1056ZM108.801 73.9589C104.481 70.7028 102.776 72.1426 103.595 70.7471C103.994 70.0605 104.393 69.2852 105.035 69.5732C108.114 69.839 109.177 71.0129 112.898 73.538C113.541 73.981 113.031 74.4683 112.012 75.4651C111.414 76.1296 111.547 75.9967 108.889 73.9589H108.801ZM108.535 83.9707C106.896 82.841 106.165 85.1446 125.9 62.1529C126.875 61.0454 128.116 59.9379 128.714 61.422C128.78 61.4884 108.646 83.9264 108.535 83.9707ZM120.385 86.1857C118.436 87.8469 120.186 86.1857 116.819 81.7557C115.268 79.7179 115.069 79.7179 115.357 79.3856C117.151 77.2814 116.775 76.2846 121.072 84.6795C121.515 85.2775 121.072 85.6098 120.452 86.1414L120.385 86.1857ZM125.524 96.1975C124.815 96.9284 125.147 96.9063 124.372 85.8091C124.372 84.7681 133.232 77.8351 136.089 74.424C138.947 71.0129 138.304 71.5888 139.257 81.7778C139.722 82.686 139.545 82.3316 125.59 96.1532L125.524 96.1975ZM146.19 25.0295C150.662 21.7287 155.688 19.2533 161.03 17.72C169.425 15.505 168.495 17.72 168.894 21.0204C168.679 24.1548 167.992 27.2388 166.856 30.1683C161.518 43.1925 161.983 42.0186 160.521 39.4049C153.743 27.3331 144.374 26.1592 146.19 25.0295ZM143.333 27.2445C146.168 24.5644 162.271 41.1104 159.945 44.2114C153.145 53.3372 129.489 79.9172 123.242 83.7492C121.942 81.2172 120.461 78.7819 118.813 76.4618C118.259 75.6423 118.192 76.196 126.011 67.4911C130.441 62.4409 131.704 61.865 130.153 59.9601C129.489 59.1405 127.717 57.9444 126.587 59.0962C125.458 60.248 124.837 61.0233 119.278 67.4025C114.161 73.2501 115.224 72.5856 113.408 71.2123C106.098 65.6969 104.792 70.0383 109.465 64.08C119.947 51.0892 131.236 38.7717 143.266 27.2002L143.333 27.2445ZM103.263 55.375C104.171 54.3118 104.171 54.489 115.047 53.16C116.753 52.9385 111.924 56.8591 108.402 62.1751C107.605 63.3269 104.592 67.3582 103.418 67.5132C103.418 67.5132 92.3433 67.8455 92.3433 67.779C91.8781 67.3803 97.7922 61.7321 103.263 55.375Z" fill="black"/>
<path d="M158.439 234.303C162.869 233.018 163.157 232.619 164.73 232.597C165.1 232.622 165.468 232.512 165.764 232.288C166.061 232.065 166.268 231.742 166.347 231.379C166.347 228.832 157.487 232.885 153.3 233.594C149.49 234.236 140.83 236.761 139.567 238.135C138.681 239.109 139.168 239.663 140.365 239.729C144.795 238.223 144.197 238.024 145.791 237.514C155.05 234.989 148.671 237.116 158.439 234.303Z" fill="black"/>
<path d="M150.62 163.91C149.247 164.087 144.684 165.084 143.975 165.283C142.668 165.616 138.57 156.556 137.529 159.923C134.982 168.207 138.482 166.856 131.992 167.41C129.334 167.631 129.289 168.34 129.356 169.625C129.356 170.489 129.666 170.666 131.261 171.64C138.46 176.07 135.314 172.859 134.716 181.054C134.716 182.184 135.292 182.715 136.2 182.427C138.26 181.741 141.516 175.782 143.022 176.558C145.202 177.312 147.42 177.947 149.667 178.463C150.93 178.817 151.462 178.152 151.307 177.178C151.063 175.627 149.357 174.963 147.652 171.818C147.275 171.087 147.364 171.419 151.594 166.346C152.325 165.416 152.658 163.666 150.62 163.91ZM145.747 172.77C147.807 176.403 148.649 176.07 144.639 175.184C139.988 174.143 142.092 173.833 137.263 178.728C136.688 179.326 137.374 176.89 137.551 174.586C137.751 171.84 132.435 170.954 131.66 169.514C132.036 169.514 131.372 169.514 134.783 169.182C138.991 168.827 136.998 166.457 138.836 162.692C140.342 163.976 141.893 167.831 143.266 167.543C154.496 164.929 143.31 168.473 145.747 172.77Z" fill="black"/>
<path d="M142.336 52.7613C153.034 52.2075 152.281 36.5476 142.004 36.7913C130.685 38.1646 132.745 53.16 142.336 52.7613ZM141.162 38.962C142.025 38.8089 142.91 38.8486 143.756 39.0783C144.601 39.3079 145.385 39.7218 146.051 40.29C146.718 40.8587 147.25 41.5675 147.61 42.3657C147.971 43.1643 148.149 44.0326 148.134 44.9085C148.12 45.784 147.911 46.6459 147.523 47.4316C147.136 48.2173 146.58 48.9072 145.894 49.4525C145.209 49.9978 144.411 50.3848 143.559 50.5854C142.706 50.7859 141.819 50.7952 140.963 50.6127C139.616 50.326 138.411 49.5797 137.553 48.502C136.696 47.4243 136.24 46.0821 136.264 44.7051C136.287 43.3286 136.789 42.0024 137.682 40.9549C138.576 39.907 139.806 39.2025 141.162 38.962Z" fill="black"/>
<path d="M117.905 200.103C116.443 200.369 116.155 202.318 118.037 202.318C127.651 202.163 128.138 184.753 118.879 184.886C117.873 184.849 116.868 184.992 115.911 185.307C115.778 184.044 118.126 178.529 115.645 174.232C112.899 169.492 104.947 169.802 102.355 176.336C101.361 179.162 100.934 182.158 101.102 185.149C101.269 188.141 102.026 191.07 103.33 193.768C103.839 194.765 105.124 194.189 104.814 192.86C98.1689 173.966 111.171 169.093 114.095 175.915C116.531 181.608 111.26 187.898 113.541 189.205C115.158 190.113 115.977 186.547 119.101 186.99C123.154 187.699 123.885 192.107 123.221 195.053C122.091 199.904 119.034 199.882 117.905 200.103Z" fill="black"/>
<path d="M94.9792 183.269C82.5973 162.935 79.4742 127.385 94.7798 98.4125C98.3005 92.2399 102.245 86.319 106.586 80.6925C108.646 78.6769 106.586 77.6137 105.456 78.8984C92.6313 94.0711 82.5752 116.044 82.5752 135.846C82.5752 164.863 89.8404 178.994 93.473 183.336C95.245 185.373 96.1531 185.196 94.9792 183.269Z" fill="black"/>
<path d="M84.7017 200.768C73.6267 204.245 74.8893 191.398 85.8535 195.85C85.9888 195.932 86.1402 195.984 86.2973 196.001C86.4548 196.018 86.6135 196.001 86.7633 195.95C86.9131 195.899 87.05 195.817 87.1648 195.708C87.2792 195.599 87.3682 195.466 87.4262 195.319C88.0242 193.968 86.8503 193.635 85.7206 193.259C79.6737 191.243 86.4073 179.703 94.78 193.79C95.4666 194.942 96.6406 194.145 96.3748 193.259C94.6028 186.946 87.5148 182.184 83.0848 186.06C82.1428 186.856 81.5125 187.96 81.3059 189.176C81.0993 190.392 81.3293 191.642 81.9551 192.705C76.7277 192.838 75.3101 194.92 74.7121 197.644C73.516 204.068 83.86 204.821 86.4959 202.296C87.5148 201.277 86.6731 200.147 84.7017 200.768Z" fill="black"/>
<path d="M69.6617 161.407C69.3295 160.743 69.108 159.458 67.5796 160.388C61.3555 164.176 62.618 163.578 60.9346 161.784C58.4095 159.148 57.7672 158.129 56.5046 158.439C55.9509 158.594 56.0838 159.724 56.2167 160.322C57.745 167.41 58.2323 165.527 55.3528 166.59C54.6883 166.856 54.1124 167.166 51.4101 168.296C51.1556 168.412 50.9401 168.599 50.7887 168.835C50.6377 169.071 50.5571 169.345 50.5571 169.625C50.5571 169.905 50.6377 170.178 50.7887 170.414C50.9401 170.65 51.1556 170.837 51.4101 170.954C59.6499 174.033 57.7893 173.457 58.3431 176.934C58.9854 180.921 59.0962 181.918 59.9379 182.007C60.281 182.053 60.6297 181.984 60.9302 181.812C61.2306 181.64 61.4658 181.373 61.5991 181.054C65.0545 172.659 62.7952 174.874 66.0291 175.45C71.5888 176.447 71.8767 177.001 72.6741 176.026C73.4715 175.051 71.8546 173.612 71.0572 172.704C65.8298 166.679 67.3803 170.666 69.6617 161.407ZM68.0226 173.523C66.839 173.435 65.6896 173.087 64.6558 172.504C61.8649 171.596 61.8649 177.178 60.7574 178.13C60.4892 176.96 60.341 175.765 60.3144 174.564C60.3144 172.128 58.9854 171.95 54.9541 169.735C54.0681 169.226 56.0838 169.027 58.3652 167.875C60.6467 166.723 58.8304 164.508 58.7861 162.958C58.7861 162.027 60.3366 164.264 61.3112 165.483C62.8174 167.365 62.9946 164.375 67.2252 163.113C66.5164 166.767 64.0578 167.72 66.4278 170.245C69.8832 173.944 68.9529 173.612 68.0226 173.523Z" fill="black"/>
</svg>
