<svg width="425" height="425" viewBox="0 0 425 425" fill="none" xmlns="http://www.w3.org/2000/svg">
<path d="M301.75 193.009C298.182 185.85 287.068 187.525 284.047 195.984C284.429 195.419 285.885 196.114 301.159 192.865C301.273 192.839 301.392 192.848 301.501 192.889C301.611 192.931 301.705 193.004 301.773 193.099C301.769 193.063 301.761 193.035 301.75 193.009Z" fill="#202020"/>
<path d="M301.814 193.122L301.775 193.09C301.707 192.995 301.613 192.922 301.504 192.881C301.394 192.839 301.275 192.831 301.161 192.856C285.011 196.295 283.998 195.264 283.966 196.225C283.317 198.699 283.609 201.327 284.787 203.598C285.965 205.87 287.944 207.623 290.341 208.518C292.732 209.269 295.322 209.067 297.568 207.955C299.815 206.842 301.544 204.904 302.396 202.546C302.96 201.021 303.199 199.396 303.099 197.773C302.999 196.15 302.561 194.566 301.814 193.122Z" fill="white"/>
<path d="M268.995 198.511C267.697 198.747 268.247 200.727 269.541 200.492L280.447 198.505C281.745 198.269 281.195 196.288 279.901 196.524L268.995 198.511Z" fill="#202020"/>
<path d="M251.634 243.232C243.799 220.435 228.482 202.969 205.118 198.375C197.75 196.71 190.076 196.985 182.846 199.174C182.92 199.561 183.286 201.476 183.396 202.045C183.643 203.339 181.66 203.89 181.413 202.593C181.318 202.09 180.976 200.305 180.901 199.916C176.886 201.56 173.399 204.273 170.816 207.759C169.839 209.084 169.052 210.538 168.479 212.081C168.927 211.977 181.866 209.145 187.861 207.706C188.008 207.668 188.165 207.689 188.298 207.765C188.431 207.84 188.529 207.964 188.573 208.11C189.034 210.316 189.741 212.462 190.241 214.661C190.276 214.811 190.252 214.97 190.172 215.102C190.093 215.235 189.965 215.331 189.816 215.371C189.074 215.554 184.518 214.028 180.816 214.982C178.164 215.666 174.911 218.116 176.078 221.261C176.836 223.301 179.297 223.958 181.178 224.449C185.126 225.314 189.118 225.973 193.135 226.423C193.231 226.45 193.318 226.501 193.388 226.572C193.458 226.642 193.509 226.729 193.537 226.825C193.615 227.118 193.704 227.407 193.787 227.7C197.224 228.185 200.536 229.322 203.545 231.051C205.688 232.327 207.515 234.071 208.89 236.151C212.565 234.762 216.506 234.218 220.42 234.558C225.058 235.14 229.364 237.271 232.641 240.605C237.051 245.188 240.131 250.885 241.551 257.085C244.845 252.754 247.826 248.16 250.733 243.582C250.785 243.5 250.857 243.433 250.943 243.387C251.028 243.341 251.124 243.317 251.221 243.319C251.318 243.32 251.413 243.346 251.497 243.394C251.582 243.443 251.652 243.512 251.702 243.595C251.695 243.472 251.673 243.349 251.634 243.232Z" fill="white"/>
<path d="M136.818 321.984C131.8 312.421 129.7 301.595 130.777 290.849C125.235 288.373 119.684 285.921 114.187 283.649L114.161 283.634C113.853 283.521 113.596 283.301 113.436 283.014C113.276 282.727 113.224 282.392 113.29 282.07C113.372 281.821 113.519 281.597 113.715 281.422C113.447 280.228 101.815 229.175 101.562 228.055C101.524 227.907 101.544 227.75 101.619 227.617C101.695 227.484 101.819 227.386 101.966 227.343C108.284 225.945 149.779 216.397 150.223 216.293C137.286 203.843 113.643 202.789 100.453 217.781C100.84 219.398 101.148 220.756 101.535 222.487C101.822 223.777 99.8346 224.323 99.5541 223.034C99.5159 222.87 98.8423 219.916 98.8083 219.772C95.2536 224.494 92.674 229.876 91.2199 235.605C84.5116 235.575 77.9263 237.404 72.1948 240.89C48.5733 255.552 33.456 291.354 40.4324 319.428C41.2298 322.918 42.7579 326.2 44.9161 329.057C47.0742 331.914 49.8133 334.282 52.9529 336.003C59.5786 339.683 67.4284 342.378 74.9721 340.183C81.4552 338.052 86.981 333.707 90.5803 327.909C95.0279 321.109 96.9383 313.227 98.4789 305.352C100.447 326.765 120.658 351.864 143.408 350.948C149.476 350.785 155.32 348.618 160.027 344.785C150.138 338.806 142.292 332.335 136.818 321.984Z" fill="white"/>
<path d="M81.719 364.846C71.6038 356.904 59.1118 352.595 46.2518 352.612C33.3917 352.629 20.9109 356.97 10.8162 364.937C10.3912 365.264 10.7652 365.94 11.2242 365.923H81.4279C81.5524 365.918 81.6723 365.874 81.7698 365.796C81.8673 365.719 81.9375 365.612 81.97 365.491C82.0025 365.371 81.9957 365.243 81.9506 365.127C81.9054 365.011 81.8243 364.912 81.719 364.846Z" fill="#202020"/>
<path d="M330.259 250.469C326.27 232.048 313.508 221.117 300.934 219.232C287.311 217.196 274.446 224.625 265.48 234.268C260.977 239.172 257.044 244.57 253.759 250.361C253.519 249.456 251.982 243.884 251.704 243.578C251.655 243.494 251.584 243.425 251.5 243.376C251.416 243.327 251.321 243.301 251.223 243.3C251.126 243.298 251.03 243.322 250.944 243.369C250.859 243.415 250.787 243.483 250.735 243.565C247.828 248.151 244.847 252.737 241.553 257.068C243.478 264.327 243.788 270.379 245.202 279.089C247.261 291.788 255.151 294.633 260.582 291.758C260.595 291.604 260.644 291.456 260.727 291.326C260.81 291.196 260.924 291.088 261.058 291.012C265.17 288.643 267.144 284.163 268.798 279.911C268.874 279.651 269.048 279.431 269.284 279.297C269.519 279.163 269.797 279.126 270.06 279.193C270.322 279.266 270.545 279.44 270.68 279.677C270.815 279.914 270.85 280.195 270.778 280.457C269.031 284.952 266.9 289.478 262.841 292.268C278.889 303.941 285.951 314.368 295.643 333.476C298.98 329.76 301.844 325.645 304.17 321.226C304.785 320.053 306.559 321.094 305.945 322.263C303.404 327.08 300.249 331.548 296.561 335.554C296.456 335.681 296.316 335.776 296.159 335.826C296.002 335.876 295.834 335.88 295.675 335.837C291.587 340.36 286.975 344.381 281.936 347.814C274.767 352.357 265.425 353.681 256.861 353.566C243.967 353.392 231.88 349.941 222.258 341.13C212.915 332.1 206.591 320.403 204.151 307.64C203.025 301.299 202.441 294.873 202.404 288.433C191.129 292.566 176.237 297.882 164.766 301.314C163.952 301.557 159.677 302.802 159.01 302.936C158.413 302.971 157.819 302.823 157.309 302.511C156.343 302.107 131.142 291.004 130.77 290.838C129.9 298.918 130.881 307.091 133.64 314.735C136.4 322.379 140.864 329.294 146.695 334.955C151.486 339.282 156.749 343.055 162.386 346.201C174.201 353.2 184.061 358.226 195.691 361.144C217.11 366.345 239.43 366.612 260.967 361.926C271.675 359.522 281.679 354.665 290.19 347.737C309.118 332.736 322.551 311.894 328.395 288.46C331.511 276.205 332.96 262.943 330.259 250.469ZM170.459 310.394C170.722 310.328 171 310.365 171.236 310.499C171.471 310.633 171.646 310.853 171.723 311.113C171.968 311.735 175.933 321.901 177.673 326.362C177.746 326.625 177.711 326.905 177.576 327.143C177.441 327.38 177.218 327.554 176.955 327.626C176.693 327.689 176.417 327.65 176.182 327.516C175.948 327.383 175.773 327.165 175.693 326.908C175.448 326.285 171.483 316.119 169.743 311.659C169.673 311.398 169.709 311.119 169.842 310.884C169.976 310.649 170.197 310.476 170.457 310.403L170.459 310.394ZM158.211 328.442L160.943 311.113C161.016 310.85 161.19 310.627 161.427 310.493C161.664 310.358 161.945 310.323 162.208 310.394C162.465 310.475 162.683 310.65 162.816 310.885C162.949 311.12 162.987 311.397 162.924 311.659C162.811 312.371 160.193 328.988 160.193 328.988C160.12 329.251 159.946 329.474 159.709 329.608C159.472 329.743 159.192 329.778 158.929 329.706C158.672 329.627 158.455 329.453 158.322 329.22C158.188 328.987 158.147 328.712 158.208 328.451L158.211 328.442ZM143.095 319.691C143.548 319.23 150.745 311.931 153.899 308.741C154.83 307.8 156.281 309.253 155.352 310.195L144.547 321.143C143.614 322.095 142.162 320.641 143.093 319.7L143.095 319.691Z" fill="#424DE3"/>
<path d="M198.067 270.221C197.526 271.803 196.851 273.336 196.048 274.803C195.363 276.054 194.282 277.043 192.974 277.612C191.666 278.182 190.206 278.301 188.823 277.95C187.64 277.453 186.644 276.595 185.979 275.498C185.313 274.401 185.011 273.122 185.117 271.843C185.27 269.864 185.527 267.894 185.886 265.942C178.732 269.24 175.997 273.502 171.262 273.192C169.938 273.09 168.695 272.512 167.764 271.565C166.832 270.618 166.276 269.365 166.196 268.039C163.16 268.919 115.472 282.75 114.684 282.969C114.536 283.009 114.379 282.989 114.246 282.913C114.113 282.838 114.016 282.713 113.974 282.566C113.887 282.185 113.802 281.803 113.715 281.422C113.687 281.45 113.662 281.482 113.636 281.512C113.484 281.669 113.374 281.862 113.317 282.074C113.26 282.285 113.257 282.508 113.31 282.72C113.363 282.933 113.469 283.129 113.618 283.289C113.768 283.449 113.955 283.569 114.163 283.637L114.189 283.651C123.615 287.544 152.724 300.603 157.326 302.524C157.836 302.836 158.43 302.984 159.026 302.949C159.679 302.819 163.808 301.618 164.783 301.327C176.08 297.948 191.346 292.513 202.421 288.445C202.196 281.274 201.811 276.167 198.067 270.221Z" fill="#202020"/>
<path d="M193.541 226.82C193.514 226.725 193.463 226.638 193.392 226.567C193.322 226.497 193.235 226.446 193.139 226.419C189.121 225.973 185.13 225.314 181.182 224.445C179.297 223.958 176.836 223.301 176.082 221.257C174.915 218.112 178.169 215.662 180.821 214.978C183.722 214.528 186.683 214.661 189.533 215.367C189.631 215.391 189.734 215.389 189.831 215.362C189.928 215.335 190.017 215.283 190.088 215.212C190.16 215.14 190.212 215.052 190.239 214.955C190.267 214.858 190.269 214.755 190.245 214.657C189.745 212.457 189.038 210.311 188.577 208.105C188.533 207.959 188.435 207.836 188.302 207.76C188.169 207.685 188.013 207.664 187.865 207.702C181.872 209.138 108.277 225.936 101.962 227.339C101.816 227.382 101.692 227.481 101.617 227.614C101.541 227.746 101.52 227.903 101.558 228.051C102.429 231.597 113.883 282.181 113.97 282.561C114.011 282.708 114.109 282.834 114.242 282.909C114.375 282.985 114.532 283.005 114.68 282.965C115.468 282.752 163.155 268.914 166.192 268.035C165.958 264.38 169.505 260.14 171.91 257.333C170.527 257.072 169.237 256.451 168.171 255.531C167.105 254.611 166.302 253.426 165.841 252.095C165.6 250.586 165.933 249.041 166.775 247.766C167.618 246.491 168.908 245.578 170.391 245.208C171.553 243.378 172.728 241.547 173.791 239.655L162.775 232.341C161.676 231.612 162.707 229.834 163.812 230.567C163.812 230.567 172.182 236.204 175.678 238.444C175.907 238.588 176.072 238.813 176.14 239.075C176.208 239.336 176.175 239.614 176.046 239.851C175.081 241.629 174.006 243.359 172.916 245.072C175.952 245.42 178.217 246.545 182.565 246.054C186.621 245.557 190.563 244.38 194.227 242.571C195.06 242.091 197.402 240.733 197.74 240.533C196.775 237.503 194.365 229.865 193.541 226.82ZM155.901 231.727C153.421 241.198 150.65 250.593 147.843 259.972C147.76 260.223 147.584 260.432 147.351 260.557C147.119 260.681 146.847 260.711 146.593 260.641C146.338 260.571 146.121 260.406 145.985 260.18C145.849 259.954 145.805 259.684 145.862 259.426C148.342 249.955 151.111 240.561 153.918 231.181C153.995 230.923 154.17 230.707 154.405 230.576C154.64 230.446 154.917 230.414 155.176 230.485C155.435 230.556 155.656 230.726 155.792 230.958C155.927 231.19 155.966 231.466 155.901 231.727ZM124.684 251.052C128.325 246.211 131.964 241.37 135.6 236.527C135.741 236.296 135.967 236.128 136.229 236.059C136.492 235.99 136.771 236.025 137.007 236.158C137.242 236.296 137.413 236.521 137.481 236.785C137.55 237.049 137.512 237.329 137.375 237.564L127.215 251.084C131.718 252.75 136.285 254.243 140.775 255.95C141.035 256.027 141.255 256.201 141.388 256.437C141.522 256.673 141.559 256.952 141.491 257.214C141.418 257.476 141.244 257.699 141.008 257.833C140.771 257.967 140.491 258.002 140.229 257.93C135.284 256.052 130.241 254.441 125.298 252.563C124.75 252.352 124.249 251.632 124.684 251.052Z" fill="white"/>
<path d="M197.27 269.025C195.959 266.886 193.859 265.348 191.424 264.743C189.501 264.589 187.574 265.004 185.884 265.935C185.525 267.887 185.268 269.857 185.115 271.836C185.009 273.115 185.311 274.395 185.976 275.492C186.642 276.589 187.638 277.447 188.821 277.944C190.204 278.294 191.664 278.176 192.972 277.606C194.28 277.036 195.361 276.048 196.046 274.796C196.848 273.33 197.524 271.797 198.065 270.215C197.816 269.822 197.553 269.424 197.27 269.025Z" fill="white"/>
<path d="M244.953 82.45C243.395 76.816 241.083 71.4185 238.079 66.4041C236.777 63.9046 235.276 61.5146 233.588 59.2577C233.304 58.8901 232.738 59.1409 232.622 59.5127C230.352 65.6035 229.203 72.0549 229.232 78.5549C229.453 85.084 231.452 91.4291 235.012 96.9064C237.237 100.136 240.037 102.93 243.272 105.147C243.336 105.192 243.409 105.222 243.486 105.235C243.563 105.248 243.641 105.245 243.717 105.225C243.792 105.204 243.862 105.168 243.922 105.118C243.981 105.068 244.029 105.005 244.063 104.935C247.295 97.8116 246.872 89.828 244.953 82.45Z" fill="#202020"/>
<path d="M141.491 257.214C141.559 256.952 141.522 256.673 141.388 256.437C141.255 256.201 141.035 256.027 140.775 255.95C136.285 254.25 131.718 252.75 127.215 251.084L137.375 237.564C137.512 237.329 137.55 237.049 137.481 236.785C137.412 236.522 137.242 236.296 137.007 236.158C136.77 236.025 136.492 235.99 136.229 236.059C135.967 236.128 135.741 236.296 135.6 236.527C131.962 241.368 128.324 246.21 124.684 251.052C124.259 251.632 124.75 252.352 125.298 252.563C130.243 254.441 135.286 256.052 140.229 257.93C140.491 258.002 140.771 257.967 141.008 257.833C141.244 257.699 141.418 257.476 141.491 257.214Z" fill="#202020"/>
<path d="M175.68 238.444C172.184 236.204 163.814 230.567 163.814 230.567C162.709 229.834 161.689 231.612 162.777 232.341L173.799 239.66C172.737 241.551 171.555 243.383 170.399 245.212C171.228 245.028 172.08 244.98 172.924 245.072C174.014 243.359 175.089 241.629 176.054 239.851C176.183 239.613 176.215 239.335 176.146 239.073C176.076 238.812 175.91 238.587 175.68 238.444Z" fill="#202020"/>
<path d="M153.918 231.181C151.109 240.561 148.342 249.955 145.862 259.426C145.805 259.684 145.849 259.954 145.985 260.18C146.121 260.406 146.338 260.571 146.593 260.641C146.847 260.711 147.119 260.681 147.351 260.557C147.584 260.432 147.76 260.223 147.843 259.972C150.65 250.593 153.423 241.2 155.901 231.727C155.966 231.466 155.927 231.19 155.791 230.958C155.656 230.726 155.435 230.556 155.176 230.485C154.917 230.414 154.64 230.446 154.405 230.576C154.17 230.707 153.995 230.923 153.918 231.181Z" fill="#202020"/>
<path d="M389.536 273.111C371.875 288.331 357.308 318.963 352.325 341.913C352.223 291.692 351.9 271.416 348.472 237.397C363.747 237.864 378.59 231.838 386.831 218.354C386.875 218.29 386.905 218.217 386.918 218.141C386.931 218.064 386.927 217.985 386.907 217.91C386.887 217.835 386.851 217.765 386.801 217.705C386.751 217.646 386.689 217.597 386.618 217.564C383.101 215.913 379.285 214.995 375.402 214.865C371.519 214.734 367.65 215.395 364.031 216.806C360.411 218.217 357.116 220.349 354.345 223.073C351.575 225.797 349.388 229.056 347.916 232.651C346.22 218.544 343.669 204.553 340.276 190.755C335.535 174.764 326.968 160.17 315.316 148.236C302.324 134.848 288.354 126.032 270.797 118.184C268.591 117.145 266.335 116.059 264.125 115.037C276.813 107.489 283.675 85.9924 274.299 68.4994C274.254 68.4242 274.192 68.3601 274.118 68.3121C274.045 68.2641 273.961 68.2333 273.874 68.2221C273.787 68.2108 273.698 68.2194 273.614 68.2472C273.531 68.275 273.455 68.3213 273.392 68.3825C262.597 78.8078 254.989 90.542 257.512 105.396C258.128 108.961 259.494 112.355 261.522 115.351C254.192 114.321 246.747 114.451 239.458 115.736C233.509 116.795 227.885 119.21 223.02 122.794C218.156 126.378 214.182 131.034 211.408 136.402C211.37 136.48 211.349 136.565 211.346 136.651C211.343 136.738 211.358 136.824 211.391 136.904C211.424 136.984 211.473 137.057 211.536 137.117C211.598 137.176 211.673 137.222 211.754 137.252C227.298 143.684 244.579 141.242 256.859 127.946C259.821 124.811 262.233 121.199 263.995 117.262C281.11 125.245 293.32 130.649 308.246 144.249C321.482 155.992 331.453 170.962 337.186 187.701C338.982 193.398 340.406 199.205 341.451 205.086C351.18 255.251 350.079 301.074 350.321 359.257C350.333 359.521 350.447 359.771 350.638 359.954C350.829 360.137 351.084 360.239 351.349 360.239C351.613 360.239 351.868 360.137 352.059 359.954C352.25 359.771 352.364 359.521 352.376 359.257C351.996 334.22 370.827 291.403 390.996 274.554C392.005 273.717 390.545 272.27 389.536 273.111Z" fill="#202020"/>
<path d="M296.563 335.561C300.252 331.554 303.406 327.086 305.947 322.269C306.561 321.1 304.787 320.059 304.172 321.232C301.846 325.652 298.982 329.767 295.645 333.483C296.495 335.183 296.586 334.862 295.677 335.843C295.836 335.886 296.004 335.882 296.161 335.832C296.318 335.782 296.458 335.688 296.563 335.561Z" fill="white"/>
<path d="M270.78 280.464C270.852 280.201 270.817 279.92 270.682 279.683C270.548 279.446 270.325 279.272 270.062 279.199C269.8 279.132 269.521 279.17 269.286 279.304C269.05 279.438 268.876 279.658 268.8 279.918C267.146 284.168 265.172 288.649 261.06 291.019C260.926 291.095 260.812 291.202 260.729 291.332C260.646 291.462 260.597 291.611 260.584 291.765C260.778 291.671 260.975 291.584 261.165 291.476C261.253 291.424 261.353 291.397 261.456 291.397C261.558 291.397 261.659 291.424 261.747 291.476C262.114 291.739 262.478 292.009 262.843 292.275C266.9 289.484 269.025 284.962 270.78 280.464Z" fill="white"/>
<path d="M296.246 334.639C292.378 326.592 287.854 318.878 282.721 311.574C276.904 303.747 269.814 296.953 261.747 291.476C261.659 291.424 261.558 291.397 261.456 291.397C261.353 291.397 261.253 291.424 261.165 291.476C255.361 294.812 247.295 291.996 245.204 279.095C242.953 265.217 242.813 250.663 232.645 240.595C229.369 237.26 225.062 235.129 220.424 234.547C213.108 233.739 206.125 237.008 199.321 240.223C199.473 240.312 199.599 240.439 199.688 240.592C199.777 240.744 199.824 240.917 199.827 241.094C199.829 241.27 199.786 241.444 199.701 241.599C199.617 241.754 199.494 241.884 199.344 241.978C184.869 250.323 179.55 252.541 173.753 257.643C173.602 257.779 173.416 257.868 173.216 257.9C173.016 257.932 172.812 257.905 172.627 257.823C172.442 257.741 172.285 257.607 172.174 257.437C172.063 257.268 172.004 257.07 172.004 256.868C172.013 256.639 172.101 256.42 172.255 256.249C176.77 251.802 184.367 248.262 194.229 242.571C190.565 244.38 186.623 245.557 182.567 246.054C178.105 246.557 175.992 245.416 172.918 245.072C171.958 244.917 170.974 244.991 170.048 245.288C169.123 245.586 168.28 246.098 167.59 246.783C166.9 247.469 166.382 248.308 166.079 249.232C165.775 250.156 165.695 251.138 165.843 252.099C166.304 253.43 167.108 254.615 168.173 255.535C169.239 256.454 170.529 257.076 171.912 257.337C169.83 259.768 166.619 263.712 166.232 266.826C166.113 267.579 166.15 268.349 166.343 269.087C166.535 269.825 166.878 270.515 167.351 271.114C167.823 271.712 168.414 272.207 169.087 272.566C169.76 272.925 170.5 273.141 171.26 273.201C176.037 273.513 178.91 269.104 185.884 265.95C187.574 265.017 189.501 264.602 191.424 264.758C193.859 265.363 195.959 266.901 197.27 269.04C204.954 279.688 200.625 289.081 204.153 307.655C206.593 320.418 212.917 332.115 222.26 341.145C231.886 349.96 243.973 353.407 256.864 353.581C265.425 353.696 274.767 352.374 281.939 347.828C286.977 344.396 291.589 340.375 295.677 335.852C296.057 335.433 296.505 335.134 296.246 334.639ZM234.953 334.819C232.107 334.091 229.329 333.122 226.648 331.923C226.413 331.785 226.242 331.559 226.173 331.296C226.104 331.032 226.142 330.752 226.278 330.516C226.422 330.287 226.648 330.122 226.909 330.054C227.17 329.986 227.448 330.019 227.685 330.148C230.214 331.25 232.827 332.149 235.499 332.837C235.756 332.914 235.973 333.089 236.103 333.324C236.233 333.559 236.266 333.836 236.195 334.095C236.123 334.354 235.953 334.575 235.721 334.71C235.489 334.845 235.213 334.885 234.953 334.819Z" fill="white"/>
<path d="M235.499 332.837C232.827 332.149 230.214 331.25 227.685 330.149C227.448 330.02 227.17 329.986 226.909 330.054C226.648 330.122 226.422 330.288 226.279 330.516C226.142 330.752 226.104 331.032 226.173 331.296C226.242 331.56 226.413 331.785 226.648 331.923C229.329 333.122 232.107 334.091 234.953 334.819C235.213 334.885 235.489 334.846 235.721 334.71C235.954 334.575 236.123 334.354 236.195 334.095C236.266 333.836 236.233 333.559 236.103 333.324C235.973 333.089 235.756 332.914 235.499 332.837Z" fill="#424DE3"/>
<path d="M187.788 246.211C184.038 248.165 180.388 250.307 176.853 252.629C175.25 253.74 173.714 254.947 172.255 256.241C172.13 256.381 172.048 256.553 172.018 256.738C171.987 256.922 172.01 257.111 172.083 257.284C172.155 257.456 172.275 257.604 172.429 257.711C172.582 257.818 172.763 257.879 172.95 257.888C173.094 257.905 173.24 257.891 173.378 257.847C173.517 257.804 173.644 257.731 173.753 257.635C179.048 252.975 184.408 250.474 191.093 246.74C193.868 245.191 196.592 243.553 199.344 241.97C200.49 241.311 199.393 239.519 198.307 240.197C198.122 240.321 189.945 245.013 187.788 246.211Z" fill="#424DE3"/>
<path d="M120.596 194.684C119.397 190.449 116.365 180.871 116.186 180.272C116.145 180.125 116.047 180 115.913 179.924C115.78 179.849 115.623 179.829 115.475 179.868C111.242 181.067 101.662 184.095 101.063 184.278C100.916 184.319 100.791 184.417 100.715 184.55C100.639 184.683 100.619 184.84 100.659 184.988C102.038 189.167 104.892 198.8 105.071 199.399C105.112 199.547 105.21 199.672 105.342 199.747C105.475 199.823 105.633 199.843 105.78 199.803C110.013 198.605 119.593 195.572 120.192 195.394C120.339 195.352 120.464 195.254 120.539 195.121C120.615 194.989 120.635 194.832 120.596 194.684Z" fill="#424DE3"/>
<path d="M145.337 188.099C144.16 186.949 134.451 177.884 134.162 177.741C134.089 177.696 134.007 177.668 133.922 177.658C133.837 177.648 133.751 177.657 133.67 177.684C133.589 177.711 133.515 177.756 133.453 177.815C133.391 177.874 133.343 177.946 133.312 178.026C133.046 178.436 130.579 185.251 128.395 191.609C128.242 192.055 128.705 192.402 129.104 192.319L145.091 189.063C145.187 189.034 145.273 188.981 145.342 188.909C145.412 188.836 145.461 188.747 145.486 188.65C145.51 188.553 145.51 188.452 145.484 188.355C145.458 188.258 145.407 188.17 145.337 188.099Z" fill="#202020"/>
<path d="M160.448 177.35C159.819 175.887 158.748 174.657 157.386 173.832C156.023 173.006 154.437 172.626 152.849 172.746C151.462 172.825 150.138 173.352 149.076 174.247C148.013 175.141 147.269 176.356 146.954 177.71C145.607 183.857 153.217 188.468 158.234 184.76C159.341 183.919 160.152 182.749 160.55 181.417C160.948 180.085 160.912 178.661 160.448 177.35Z" fill="#424DE3"/>
<path d="M91.4749 173.27C90.3351 172.375 89.0138 171.739 87.603 171.406C86.1923 171.074 84.726 171.053 83.3064 171.345C80.7564 172.112 78.0831 174.745 79.5345 177.537C80.2279 178.586 81.1381 179.473 82.2039 180.139C83.2696 180.805 84.4658 181.234 85.7119 181.398C88.2874 181.889 91.5662 181.974 93.3172 179.656C95.0682 177.338 93.4532 174.788 91.4749 173.27Z" fill="#424DE3"/>
<path d="M66.4424 167.854C66.2724 167.603 67.0267 167.964 52.1879 162.329C51.5822 162.097 51.3166 162.898 51.6269 163.294L58.5522 172.167C58.6431 172.257 58.7608 172.315 58.8875 172.331C59.0141 172.348 59.1427 172.322 59.2535 172.259L66.1427 168.778C66.239 168.758 66.3283 168.712 66.4014 168.646C66.4745 168.58 66.529 168.496 66.5594 168.402C66.5898 168.309 66.5949 168.209 66.5744 168.112C66.5539 168.016 66.5083 167.927 66.4424 167.854Z" fill="#202020"/>
<path d="M84.0076 158.281L77.0313 152.756C76.9708 152.662 76.878 152.593 76.7704 152.562C76.6628 152.532 76.5478 152.542 76.4469 152.59L66.4594 156.476C66.1024 156.617 65.8219 157.142 66.2044 157.443L73.3125 163.162C73.3849 163.233 73.4747 163.285 73.5732 163.311C73.6716 163.337 73.7752 163.337 73.8735 163.31L83.7441 159.247C84.1033 159.103 84.3901 158.584 84.0076 158.281Z" fill="#424DE3"/>
<path d="M413.95 290.222C410.035 289.008 405.925 288.547 401.837 288.864C397.768 288.936 393.715 289.407 389.738 290.273C382.664 291.749 376.404 295.83 372.2 301.708C369.772 305.11 367.747 308.783 366.167 312.653C366.018 313.019 366.38 313.37 366.724 313.384C374.631 313.727 384.574 313.197 391.869 310.216C397.84 307.395 403.28 303.566 407.951 298.898C410.409 296.588 412.541 293.954 414.29 291.07C414.458 290.798 414.375 290.437 413.95 290.222Z" fill="#202020"/>
<path d="M369.204 270.181C369.137 270.082 369.04 270.008 368.928 269.968C368.872 269.928 368.809 269.9 368.742 269.887C368.674 269.874 368.605 269.876 368.539 269.893C368.472 269.91 368.41 269.941 368.358 269.985C368.305 270.028 368.262 270.083 368.233 270.145L368.205 270.183C368.163 270.248 368.135 270.32 368.122 270.396C365.796 276.407 365.292 282.97 366.673 289.266C367.267 291.601 368.306 293.801 369.733 295.743C369.786 295.827 369.859 295.897 369.947 295.946C370.034 295.994 370.132 296.02 370.232 296.02C370.332 296.02 370.431 295.994 370.518 295.946C370.605 295.897 370.679 295.827 370.732 295.743C375.392 288.362 373.811 277.047 369.204 270.181Z" fill="#202020"/>
<path d="M205.677 179.401V160.512C205.665 160.248 205.551 159.998 205.36 159.815C205.168 159.632 204.914 159.53 204.649 159.53C204.384 159.53 204.13 159.632 203.939 159.815C203.747 159.998 203.634 160.248 203.622 160.512V179.401C203.634 179.665 203.747 179.915 203.939 180.098C204.13 180.281 204.384 180.383 204.649 180.383C204.914 180.383 205.168 180.281 205.36 180.098C205.551 179.915 205.665 179.665 205.677 179.401Z" fill="#202020"/>
<path d="M211.316 182.253C211.553 182.385 211.831 182.42 212.093 182.351C212.355 182.282 212.58 182.114 212.721 181.883L226.822 163.413C226.96 163.177 226.998 162.897 226.929 162.633C226.86 162.37 226.69 162.144 226.455 162.006C226.218 161.874 225.939 161.839 225.677 161.908C225.415 161.976 225.189 162.144 225.048 162.376L210.949 180.838C210.879 180.954 210.834 181.084 210.814 181.219C210.795 181.353 210.803 181.49 210.837 181.622C210.871 181.754 210.931 181.877 211.014 181.985C211.096 182.094 211.199 182.185 211.316 182.253Z" fill="#202020"/>
<path d="M234.706 180.478L218.367 187.436C218.132 187.573 217.961 187.798 217.892 188.061C217.823 188.325 217.861 188.605 217.997 188.84C218.141 189.069 218.366 189.235 218.628 189.304C218.889 189.372 219.167 189.339 219.404 189.21L235.743 182.253C235.86 182.185 235.962 182.095 236.044 181.987C236.126 181.88 236.186 181.757 236.22 181.626C236.255 181.495 236.263 181.359 236.244 181.225C236.226 181.091 236.181 180.963 236.113 180.846C235.972 180.615 235.746 180.447 235.484 180.378C235.221 180.31 234.943 180.346 234.706 180.478Z" fill="#202020"/>
<path d="M155.35 310.203C156.279 309.262 154.828 307.808 153.897 308.75C150.75 311.937 143.546 319.239 143.093 319.7C142.162 320.641 143.614 322.095 144.545 321.151C146.682 318.988 151.406 314.198 155.35 310.203Z" fill="#202020"/>
<path d="M162.206 310.403C161.943 310.331 161.662 310.367 161.425 310.501C161.188 310.636 161.014 310.859 160.941 311.121L158.208 328.451C158.145 328.713 158.184 328.99 158.317 329.225C158.451 329.46 158.669 329.635 158.927 329.715C159.19 329.787 159.47 329.752 159.707 329.617C159.944 329.482 160.118 329.259 160.191 328.997C160.191 328.997 162.809 312.379 162.922 311.667C162.985 311.405 162.946 311.129 162.813 310.894C162.68 310.659 162.463 310.483 162.206 310.403Z" fill="#202020"/>
<path d="M171.721 311.121C171.644 310.861 171.469 310.642 171.234 310.508C170.998 310.374 170.72 310.336 170.457 310.403C170.194 310.476 169.972 310.65 169.837 310.887C169.703 311.124 169.668 311.405 169.741 311.667C171.481 316.13 175.446 326.294 175.691 326.916C175.771 327.174 175.946 327.391 176.18 327.525C176.414 327.658 176.691 327.697 176.953 327.635C177.216 327.562 177.439 327.388 177.574 327.151C177.709 326.914 177.744 326.633 177.671 326.37C169.207 304.676 172.624 313.437 171.721 311.121Z" fill="#202020"/>
<path d="M34.425 264.208C36.3453 257.371 40.0275 251.158 45.1031 246.192C46.0594 245.274 44.6037 243.823 43.6496 244.738C38.2248 249.875 34.3438 256.426 32.4445 263.651C32.3872 263.908 32.431 264.178 32.567 264.404C32.703 264.63 32.9207 264.796 33.175 264.866C33.4294 264.936 33.701 264.906 33.9336 264.781C34.1663 264.657 34.3422 264.448 34.425 264.197V264.208Z" fill="#202020"/>
<path d="M41.0656 240.867C42.0559 239.987 40.596 238.529 39.6121 239.415C33.1172 245.218 28.0047 252.402 24.65 260.44C24.6139 260.57 24.6037 260.706 24.6202 260.84C24.6367 260.973 24.6794 261.103 24.7459 261.22C24.8125 261.337 24.9015 261.44 25.0079 261.523C25.1144 261.606 25.2361 261.667 25.3661 261.702C25.6301 261.773 25.9111 261.737 26.1492 261.603C26.3874 261.47 26.5639 261.248 26.6411 260.986C29.8967 253.292 34.824 246.42 41.0656 240.867Z" fill="#202020"/>
<path d="M100.236 173.657C100.375 173.892 100.6 174.062 100.864 174.131C101.127 174.2 101.408 174.162 101.643 174.025C101.875 173.884 102.043 173.659 102.111 173.397C102.18 173.135 102.144 172.856 102.011 172.62L97.0063 161.857C96.8662 161.624 96.6398 161.456 96.3764 161.389C96.1129 161.322 95.8337 161.362 95.5995 161.5C95.3678 161.641 95.1999 161.866 95.1313 162.128C95.0627 162.39 95.0988 162.669 95.2319 162.905L100.236 173.657Z" fill="#424DE3"/>
<path d="M104.639 171.781C104.717 172.042 104.894 172.264 105.132 172.397C105.37 172.531 105.65 172.567 105.914 172.497C106.177 172.424 106.399 172.251 106.534 172.014C106.668 171.777 106.703 171.497 106.63 171.235L102.206 159.993C102.126 159.735 101.951 159.517 101.716 159.384C101.481 159.251 101.204 159.212 100.942 159.275C100.679 159.348 100.456 159.521 100.321 159.759C100.186 159.996 100.151 160.277 100.224 160.539L104.639 171.781Z" fill="#424DE3"/>
<path d="M86.6171 157.501C86.6971 157.759 86.8724 157.977 87.1072 158.11C87.3421 158.243 87.619 158.282 87.8815 158.219C88.144 158.146 88.3668 157.972 88.5011 157.735C88.6353 157.498 88.6701 157.217 88.5977 156.955C87.1711 153.386 85.7445 149.819 84.3179 146.253C84.2379 145.995 84.0627 145.777 83.8278 145.644C83.593 145.51 83.3161 145.471 83.0535 145.535C82.7906 145.607 82.5673 145.781 82.4326 146.018C82.2979 146.255 82.2629 146.536 82.3353 146.799C83.7633 150.366 85.1906 153.934 86.6171 157.501Z" fill="#424DE3"/>
<path d="M166.356 183.415C166.478 179.273 166.314 175.127 165.863 171.007C165.854 170.738 165.742 170.481 165.551 170.291C165.36 170.1 165.104 169.989 164.834 169.981C164.562 169.981 164.301 170.089 164.108 170.281C163.916 170.474 163.808 170.735 163.808 171.007C164.25 175.127 164.415 179.273 164.301 183.415C164.313 183.679 164.426 183.929 164.618 184.112C164.809 184.295 165.063 184.397 165.328 184.397C165.593 184.397 165.847 184.295 166.039 184.112C166.23 183.929 166.344 183.679 166.356 183.415Z" fill="#424DE3"/>
<path d="M68.0489 186.192C80.3739 188.849 88.4085 192.332 93.721 203.966C96.3637 210.09 98.3193 216.487 99.552 223.042C99.8389 224.332 101.819 223.786 101.533 222.496C101.288 221.393 100.561 218.246 100.451 217.789C94.86 194.535 86.7255 188.734 71.9185 184.996C50.1925 179.511 22.6801 179.573 18.5279 156.629C18.2941 155.331 16.3179 155.879 16.5474 157.176C20.5509 179.888 47.0029 181.66 68.0489 186.192Z" fill="white"/>
<path d="M181.413 202.593C181.662 203.889 183.64 203.341 183.396 202.045C180.155 184.985 176.577 168.415 162.879 157.632C150.316 147.751 132.819 150.575 119.23 144.232C112.386 141.059 107.049 135.341 104.355 128.295C104.025 127.426 103.766 126.535 103.505 125.645C103.422 125.394 103.246 125.185 103.013 125.061C102.78 124.936 102.509 124.906 102.255 124.976C102 125.046 101.783 125.211 101.647 125.438C101.511 125.664 101.467 125.933 101.524 126.191C103.478 133.597 108.165 139.987 114.642 144.075C133.486 156.134 158.497 144.362 173.247 173.931C177.693 182.833 179.543 192.793 181.413 202.593Z" fill="white"/>
<path d="M293.176 209.482C294.81 209.42 296.409 208.989 297.853 208.222C299.297 207.456 300.55 206.373 301.517 205.054C302.485 203.736 303.142 202.216 303.44 200.608C303.737 199 303.668 197.345 303.237 195.768C301.846 189.803 296.076 185.725 289.151 189.393C278.696 194.96 283.316 209.482 293.176 209.482ZM286.269 194.909C289.302 189.652 296.484 188.432 299.606 192.595C295.192 193.449 290.713 194.225 286.269 194.909ZM285.356 197.219C290.126 196.518 295.158 195.644 300.717 194.548C301.338 195.962 301.614 197.504 301.521 199.046C301.429 200.588 300.97 202.086 300.184 203.416C299.567 204.548 298.677 205.508 297.596 206.211C296.514 206.913 295.275 207.335 293.99 207.438C292.705 207.542 291.414 207.324 290.234 206.804C289.054 206.283 288.022 205.478 287.232 204.459C286.396 203.47 285.793 202.306 285.468 201.053C285.143 199.8 285.105 198.489 285.356 197.219Z" fill="#202020"/>
<path d="M81.9761 364.508C71.7798 356.526 59.1998 352.196 46.2507 352.213C33.3017 352.229 20.7328 356.591 10.557 364.599C10.4069 364.732 10.3004 364.907 10.2512 365.102C10.202 365.297 10.2125 365.502 10.2812 365.69C10.35 365.879 10.4738 366.042 10.6366 366.159C10.7995 366.277 10.9939 366.342 11.1945 366.348H81.4406C81.6527 366.34 81.857 366.266 82.0244 366.135C82.1918 366.005 82.3138 365.825 82.3731 365.621C82.4324 365.417 82.426 365.2 82.3547 365C82.2834 364.8 82.1509 364.628 81.9761 364.508ZM78.2191 364.342H14.2885C23.6529 357.772 34.8144 354.247 46.2538 354.247C57.6931 354.247 68.8546 357.772 78.2191 364.342Z" fill="#202020"/>
<path d="M309.253 221.325C291.276 212.889 272.278 223.807 260.115 239.951C257.871 242.926 255.865 246.064 253.921 249.241C250.693 236.138 244.185 224.072 235.008 214.179C220.46 198.981 197.927 193.611 182.771 198.783C181.481 190.925 179.344 183.23 176.396 175.833C173.565 168.69 168.906 162.416 162.888 157.639C150.327 147.758 132.83 150.582 119.24 144.239C112.397 141.064 107.06 135.347 104.365 128.301C104.038 127.432 103.777 126.542 103.515 125.651C103.432 125.401 103.256 125.192 103.024 125.067C102.791 124.943 102.52 124.912 102.265 124.982C102.011 125.053 101.793 125.218 101.657 125.444C101.521 125.67 101.477 125.94 101.535 126.197C103.488 133.599 108.172 139.987 114.644 144.075C133.486 156.134 158.497 144.362 173.247 173.933C176.926 182.078 179.48 190.685 180.838 199.518C178.061 200.568 175.522 202.16 173.367 204.201C171.212 206.243 169.486 208.692 168.287 211.408C163.882 212.417 152.669 215.01 150.012 215.622C149.99 215.539 149.943 215.465 149.878 215.409C135.658 202.984 112.81 203.084 100.33 217.294C94.775 194.497 86.6448 188.713 71.9185 184.996C49.7378 179.397 22.6567 179.454 18.5279 156.629C18.2941 155.331 16.32 155.879 16.5474 157.176C21.6155 185.937 62.7853 181.19 81.43 190.468C91.9573 195.708 95.9714 207.763 98.6893 219.283C95.052 224.001 92.4039 229.404 90.9033 235.169C80.4631 235.078 69.8318 240.112 60.9514 249.407C48.0073 263.005 40.0963 280.617 38.5284 299.325C37.5233 311.41 38.8195 327.435 50.7152 335.163C54.931 337.821 59.5529 339.771 64.3981 340.937C72.6219 342.737 81.0433 339.683 87.5096 332.56C93.7826 325.652 96.543 316.795 98.3769 308.017C101.618 328.714 120.664 351.405 142.328 351.405C148.69 351.417 154.875 349.314 159.911 345.427C159.952 345.395 159.986 345.355 160.013 345.31C161.982 346.502 163.988 347.637 165.984 348.78C181.235 357.518 189.605 360.383 199.157 362.446C220.609 367.087 242.834 366.796 264.157 361.596C291.357 354.405 320.682 325.259 329.562 285.553C332.361 273.037 333.432 259.513 329.86 247.04C326.766 236.215 319.621 226.189 309.253 221.325ZM225.016 208.401C237.04 216.65 245.452 229.791 250.049 243.567C247.382 247.72 244.668 251.855 241.717 255.803C237.324 240.35 225.567 230.265 210.199 235.259C207.693 231.5 203.936 228.75 199.595 227.498C195.998 226.361 192.304 225.56 188.56 225.103C186.08 224.778 178.785 223.754 177.197 221.807C176.774 221.232 176.558 220.53 176.583 219.815C176.608 219.101 176.874 218.416 177.338 217.872C178.283 216.752 179.571 215.976 181.003 215.664C183.785 215.269 186.616 215.401 189.348 216.053C189.566 216.106 189.794 216.102 190.011 216.042C190.227 215.981 190.424 215.866 190.582 215.707C190.741 215.548 190.856 215.351 190.917 215.135C190.977 214.918 190.981 214.69 190.927 214.472C190.428 212.275 189.72 210.128 189.259 207.923C189.162 207.598 188.944 207.324 188.65 207.156C188.356 206.989 188.008 206.941 187.68 207.024C182.083 208.367 176.447 209.533 170.837 210.819C180.449 193.719 208.373 196.987 225.016 208.401ZM194.225 264.072C189.125 261.269 183.211 264.922 178.404 268.16C175.353 270.221 173.262 271.741 170.461 271.169C169.687 270.874 169.031 270.332 168.595 269.628C168.159 268.923 167.966 268.094 168.047 267.27C168.428 265.31 169.306 263.48 170.597 261.957C173.33 258.187 182.051 252.407 188.959 248.187C199.421 241.795 200.222 241.374 205.947 238.971C213.909 235.628 221.421 234.447 228.506 239.273C230.389 240.576 232.073 242.146 233.506 243.933C244.877 257.915 240.246 278.764 247.01 288.77C250.41 293.809 256.077 295.983 261.354 293.176C274.954 303.019 282.861 311.663 294.491 334.751C292.759 336.617 290.942 338.398 289.066 340.119C283.365 345.344 279.03 348.511 271.397 350.463C268.38 351.208 265.304 351.687 262.204 351.894C250.021 352.703 237.165 350.251 227.201 343.088C221.17 338.574 216.204 332.793 212.651 326.151C199.688 302.948 207.353 283.813 200.751 271.061C199.326 268.129 197.052 265.694 194.225 264.072ZM148.844 337.467C151.809 339.924 154.941 342.173 158.217 344.199C150.21 350.393 138.029 351.092 127.829 345.924C112.51 338.166 99.9133 318.922 99.9324 302.094C99.9324 301.367 99.9324 300.641 99.8984 299.914C99.841 298.798 98.1283 298.531 97.92 299.701C95.7143 312.162 92.9666 327.671 80.6693 335.797C77.9606 337.68 74.8366 338.88 71.5638 339.295C68.291 339.71 64.9665 339.327 61.8736 338.179C58.3887 337.06 55.0571 335.51 51.9563 333.565C44.7313 328.946 40.9466 320.709 40.392 308.38C40.061 297.891 41.8017 287.439 45.5143 277.623C49.227 267.807 54.8389 258.82 62.0288 251.175C77.0015 235.012 93.6488 235.161 103.354 240.201C103.443 240.248 103.546 240.262 103.645 240.24C109.973 267.837 113.192 282.551 113.311 282.793C113.492 283.26 113.471 283.341 114.963 283.989C116.786 284.78 120.874 286.418 130.362 290.645C129.369 299.366 130.536 308.198 133.758 316.363C136.981 324.528 142.161 331.775 148.844 337.467ZM101.775 226.663C101.451 226.76 101.176 226.978 101.009 227.272C100.843 227.567 100.796 227.914 100.88 228.242C101.66 231.429 102.368 234.617 103.09 237.824C99.8909 236.379 96.4616 235.511 92.9603 235.259C96.8511 221.021 106.673 211.176 119.31 208.87C124.284 207.995 129.387 208.193 134.278 209.451C139.169 210.708 143.734 212.997 147.668 216.163C137.936 218.42 107.995 225.282 101.775 226.663ZM118.35 282.642L165.629 268.955C165.913 270.387 166.698 271.671 167.843 272.577C168.989 273.483 170.419 273.951 171.879 273.898C176.275 273.704 178.914 270.306 184.983 267.163C184.771 268.528 184.59 269.9 184.45 271.273C184.253 273.066 184.692 274.871 185.691 276.373C188.284 280.222 193.883 279.348 196.299 275.736C197.096 274.527 197.738 273.223 198.212 271.855C198.675 272.68 199.1 273.522 199.487 274.382C200.921 278.087 201.633 282.033 201.584 286.006C190.336 290.133 171.152 297.075 158.735 300.35C145.125 294.716 131.922 288.416 118.35 282.642ZM187 271.43C187.157 269.505 187.482 267.588 187.805 265.693C188.917 265.274 190.109 265.111 191.293 265.217C193.464 265.721 195.357 267.044 196.575 268.91C196.024 270.458 195.386 271.972 194.663 273.447C193.303 276.297 189.652 277.41 187.895 275.079C187.51 274.561 187.233 273.972 187.079 273.345C186.926 272.718 186.899 272.068 187 271.43ZM172.975 255.627C171.744 255.549 170.567 255.093 169.605 254.322C168.642 253.551 167.941 252.502 167.597 251.317C167.577 250.489 167.79 249.672 168.21 248.959C168.631 248.245 169.243 247.664 169.977 247.28C171.168 246.774 172.496 246.687 173.744 247.031C175.302 247.442 176.888 247.738 178.489 247.915C180.82 248.149 183.174 248.001 185.457 247.475C185.695 247.475 184.414 247.992 180.914 250.038C178.101 251.651 175.447 253.526 172.986 255.637L172.975 255.627ZM194.686 228.306C200.002 228.974 204.839 231.716 208.142 235.934C204.814 237.182 201.552 238.597 198.367 240.174C197.104 236.234 195.823 232.288 194.697 228.306H194.686ZM187.055 209.793C187.342 210.947 187.672 212.09 187.975 213.237C185.799 212.756 183.553 212.667 181.345 212.976C174.046 214.087 172.193 220.926 175.755 224.013C178.891 226.733 187.703 227.545 191.958 228.106C193.156 232.447 194.561 236.738 195.934 241.026C190.054 243.746 183.536 246.419 176.974 245.127C175.752 244.887 174.533 244.539 173.292 244.366C174.267 242.898 175.204 241.391 176.037 239.851C176.166 239.614 176.2 239.336 176.132 239.075C176.063 238.813 175.898 238.588 175.67 238.444C172.174 236.206 163.804 230.567 163.804 230.567C162.699 229.834 161.679 231.614 162.767 232.341L173.776 239.651C172.867 241.266 171.876 242.839 170.831 244.369C169.833 244.516 168.881 244.886 168.046 245.453C167.211 246.02 166.516 246.768 166.011 247.642C165.506 248.516 165.206 249.492 165.132 250.499C165.058 251.505 165.213 252.515 165.584 253.453C166.672 255.469 168.486 256.997 170.659 257.724C168.351 260.147 166.631 263.068 165.631 266.26L115.466 280.78C114.867 278.128 104.469 232.413 103.647 228.869C124.291 224.289 160.091 215.804 187.066 209.793H187.055ZM328.895 277.992C322.584 318.542 294.062 349.116 269.456 357.752C246.368 365.859 214.206 365.162 192.064 358.481C186.65 356.822 181.399 354.673 176.375 352.061C170.213 348.891 164.116 345.474 158.251 341.789C152.864 338.502 148.016 334.406 143.877 329.643C139.535 324.363 136.281 318.277 134.302 311.734C132.323 305.191 131.658 298.321 132.345 291.52C138.216 294.145 155.023 301.563 157.565 302.623C157.85 302.807 158.175 302.92 158.513 302.953C158.85 302.986 159.191 302.939 159.507 302.815C171.063 299.763 190.776 292.697 201.952 288.603C202.417 301.716 203.307 312.018 209.177 323.941C212.284 330.491 216.59 336.401 221.871 341.366C232.133 350.716 245.644 354.475 259.577 354.05C267.289 354.114 274.889 352.213 281.662 348.525C291.747 341.853 300.076 332.851 305.947 322.28C306.561 321.111 304.787 320.07 304.173 321.243C301.925 325.515 299.17 329.501 295.968 333.113C286.537 314.574 279.193 303.675 263.23 292.017C266.792 288.965 269.41 284.961 270.78 280.474C270.853 280.212 270.818 279.931 270.683 279.694C270.548 279.456 270.325 279.283 270.062 279.21C269.8 279.142 269.522 279.179 269.286 279.313C269.05 279.446 268.876 279.666 268.8 279.926C267.597 283.866 265.353 287.408 262.306 290.179C261.288 291.027 260.095 291.639 258.812 291.971C257.53 292.303 256.19 292.348 254.888 292.102C253.587 291.855 252.356 291.324 251.284 290.546C250.211 289.768 249.325 288.763 248.687 287.602C244.507 281.254 245.236 270.691 242.422 258.525C245.448 254.579 248.213 250.45 250.907 246.275C251.507 248.202 252.025 250.155 252.565 252.101C252.624 252.292 252.736 252.462 252.889 252.591C253.041 252.719 253.228 252.802 253.426 252.827C253.623 252.853 253.825 252.821 254.005 252.736C254.186 252.651 254.338 252.515 254.443 252.346C258.127 245.838 262.57 239.79 267.68 234.33C276.628 225.371 288.662 218.818 301.142 220.898C311.897 222.694 320.505 230.817 325.174 240.418C330.792 251.963 330.843 265.544 328.905 277.992H328.895Z" fill="#202020"/>
<path d="M100.251 185.104C101.484 189.456 104.501 198.966 104.663 199.52C104.737 199.774 104.907 199.988 105.138 200.118C105.368 200.247 105.64 200.282 105.895 200.213C109.508 199.191 116.809 196.888 120.317 195.8C120.445 195.763 120.563 195.702 120.667 195.619C120.77 195.536 120.856 195.433 120.919 195.317C120.983 195.201 121.023 195.073 121.036 194.942C121.05 194.81 121.038 194.677 121 194.55C119.848 191.054 117.638 183.657 116.594 180.149C116.519 179.894 116.346 179.679 116.114 179.55C115.881 179.422 115.607 179.389 115.351 179.46C115.351 179.46 101.539 183.691 100.942 183.87C100.688 183.945 100.474 184.116 100.345 184.346C100.216 184.577 100.182 184.849 100.251 185.104ZM102.47 185.5L114.965 181.675L118.79 194.17L106.295 197.995L102.47 185.5Z" fill="#202020"/>
<path d="M234.659 97.1401C236.914 100.412 239.751 103.242 243.028 105.489C243.142 105.571 243.273 105.626 243.412 105.651C243.55 105.676 243.692 105.671 243.828 105.635C243.964 105.599 244.09 105.533 244.198 105.443C244.305 105.353 244.392 105.24 244.451 105.113C247.333 98.7551 247.639 91.0881 245.363 82.3395C243.797 76.673 241.472 71.2441 238.453 66.2001C237.145 63.6776 235.631 61.2681 233.924 58.9964C233.805 58.865 233.654 58.7676 233.485 58.7141C233.316 58.6606 233.136 58.6529 232.963 58.6918C232.79 58.7307 232.63 58.8148 232.501 58.9355C232.371 59.0562 232.275 59.2092 232.224 59.3789C229.939 65.5183 228.787 72.0212 228.824 78.5719C229.046 85.1764 231.064 91.5957 234.659 97.1401ZM231.172 71.3788C231.703 68.1508 232.484 64.9692 233.51 61.863C234.375 63.155 235.233 64.566 236.115 66.1512C240.718 74.4111 244.288 81.5639 244.91 92.0763C245.132 95.8344 244.524 99.5954 243.13 103.092C238.452 99.3842 234.869 94.4754 232.763 88.89C230.657 83.3046 230.107 77.2522 231.172 71.3788Z" fill="#202020"/>
<path d="M128.987 192.757C129.2 192.757 127.882 193.003 145.212 189.471C145.468 189.397 145.684 189.224 145.813 188.991C145.942 188.757 145.973 188.482 145.9 188.226C145.73 187.646 138.384 181.012 134.638 177.559C134.542 177.454 134.426 177.37 134.296 177.312C134.166 177.255 134.026 177.225 133.883 177.225C133.741 177.225 133.601 177.255 133.471 177.312C133.341 177.37 133.225 177.454 133.129 177.559C132.598 178.147 128.764 189.246 128.004 191.475C127.958 191.626 127.949 191.786 127.977 191.941C128.006 192.097 128.071 192.243 128.167 192.368C128.263 192.493 128.388 192.594 128.53 192.661C128.673 192.729 128.83 192.762 128.987 192.757ZM130.475 190.43C131.582 187.223 132.872 183.564 134.26 179.951L142.825 187.914L130.475 190.43Z" fill="#202020"/>
<path d="M154.222 186.516C155.423 186.528 156.606 186.229 157.658 185.648C158.709 185.067 159.592 184.224 160.221 183.201C160.85 182.178 161.203 181.009 161.247 179.809C161.29 178.609 161.022 177.418 160.469 176.352C157.167 170.663 148.414 171.039 146.638 177.202C146.36 178.332 146.349 179.512 146.604 180.648C146.86 181.783 147.375 182.844 148.11 183.747C148.846 184.65 149.78 185.37 150.841 185.85C151.901 186.331 153.058 186.558 154.222 186.516ZM148.484 178.016C149.364 173.793 155.267 173.111 158.087 176.426C158.793 177.263 159.198 178.312 159.236 179.406C159.275 180.5 158.945 181.575 158.3 182.459C157.515 183.393 156.446 184.046 155.256 184.316C154.066 184.587 152.82 184.461 151.708 183.958C150.596 183.454 149.679 182.601 149.097 181.528C148.515 180.456 148.3 179.222 148.484 178.016Z" fill="#202020"/>
<path d="M83.2171 170.931C82.3097 171.178 81.4657 171.617 80.7412 172.217C80.0167 172.817 79.4286 173.564 79.016 174.409C78.7848 174.945 78.6793 175.527 78.7076 176.11C78.736 176.693 78.8975 177.262 79.1796 177.773C79.9044 178.868 80.8552 179.794 81.968 180.491C83.0808 181.187 84.3299 181.637 85.6311 181.811C88.5764 182.372 91.8425 182.312 93.6572 179.909C96.9722 175.525 89.7111 169.392 83.2171 170.931ZM90.0171 174.191C91.6916 175.221 93.2747 177.032 92.0868 178.676C91.1178 180.019 89.1352 180.425 86.1602 179.879C85.1129 179.767 84.1022 179.43 83.1968 178.891C82.2914 178.353 81.5127 177.626 80.9136 176.76C80.0636 175.134 81.9102 173.489 83.5104 172.935C84.6208 172.66 85.7777 172.63 86.9009 172.846C88.0242 173.063 89.0867 173.522 90.015 174.191H90.0171Z" fill="#202020"/>
<path d="M58.225 172.433C58.3196 172.538 58.4353 172.622 58.5645 172.68C58.6937 172.737 58.8336 172.767 58.9751 172.767C59.3002 172.767 58.7945 172.979 66.2915 169.188C66.45 169.144 66.5952 169.062 66.714 168.948C66.8328 168.834 66.9215 168.693 66.9723 168.537C67.023 168.38 67.0342 168.214 67.0047 168.052C66.9753 167.89 66.9062 167.738 66.8036 167.609C66.6485 167.293 65.9663 167.082 52.3536 161.934C51.3527 161.555 50.7216 162.809 51.306 163.559L58.225 172.433ZM55.0375 165.093L63.5587 168.328L59.2556 170.499L55.0375 165.093Z" fill="#202020"/>
<path d="M65.9451 157.771C73.7056 164.022 73.2211 163.748 73.7247 163.748C74.0371 163.748 73.474 163.927 80.8562 160.909C83.9545 159.634 84.1436 159.564 84.2924 159.371C84.4126 159.263 84.5039 159.126 84.5579 158.974C84.6119 158.821 84.627 158.658 84.6016 158.498C84.5763 158.339 84.5113 158.188 84.4128 158.06C84.3142 157.931 84.1852 157.83 84.0374 157.764C76.7507 151.986 77.0248 152.003 76.2407 152.21C76.0282 152.265 76.2067 152.222 66.3106 156.077C66.144 156.131 65.9945 156.229 65.8771 156.359C65.7597 156.489 65.6785 156.648 65.6415 156.819C65.6046 156.99 65.6131 157.168 65.6664 157.335C65.7196 157.502 65.8157 157.652 65.9451 157.771ZM68.5928 157.346L76.4298 154.275L81.6425 158.408L73.8947 161.596L68.5928 157.346Z" fill="#202020"/>
<path d="M414.078 289.816C411.122 288.884 408.039 288.419 404.94 288.437C389.789 288.518 378.803 290.957 370.868 302.855C368.852 305.89 367.143 309.118 365.768 312.492C365.719 312.641 365.706 312.8 365.729 312.955C365.753 313.11 365.812 313.258 365.903 313.386C365.994 313.514 366.114 313.619 366.253 313.693C366.392 313.766 366.546 313.806 366.703 313.809C374.61 314.152 384.663 313.62 392.026 310.609C398.037 307.752 403.52 303.897 408.242 299.206C410.751 296.888 412.91 294.219 414.653 291.282C414.729 291.151 414.773 291.005 414.785 290.854C414.796 290.703 414.773 290.552 414.717 290.411C414.662 290.27 414.576 290.144 414.465 290.041C414.354 289.938 414.222 289.861 414.078 289.816ZM412.25 291.338C407 298.509 400.129 304.339 392.199 308.352C388.76 309.855 385.111 310.825 381.38 311.228C377.012 311.781 372.606 311.987 368.205 311.844C370.265 306.751 373.359 302.142 377.292 298.308C384.602 291.257 395.915 290.402 404.917 290.445C407.389 290.424 409.854 290.724 412.25 291.338Z" fill="#202020"/>
<path d="M269.541 200.492L280.447 198.505C281.745 198.269 281.197 196.286 279.901 196.524L268.995 198.511C267.697 198.747 268.247 200.727 269.541 200.492Z" fill="#202020"/>
<path d="M391 274.565C392.016 273.715 390.549 272.261 389.546 273.111C382.576 279.367 376.6 286.649 371.824 294.706C375.73 287.079 373.87 276.356 369.567 269.943C368.885 268.929 367.616 269.762 367.738 270.249C365.383 276.342 364.873 282.993 366.271 289.374C366.875 291.75 367.931 293.986 369.382 295.962C369.46 296.087 369.563 296.193 369.686 296.274C369.809 296.355 369.948 296.408 370.094 296.43C370.239 296.451 370.388 296.44 370.529 296.398C370.67 296.357 370.8 296.284 370.91 296.187C362.386 310.375 356.116 325.801 352.325 341.913C352.244 302.787 352.217 270.844 348.481 237.811C364.206 238.295 378.89 232.073 387.192 218.578C387.269 218.463 387.32 218.333 387.342 218.197C387.364 218.061 387.356 217.921 387.319 217.788C387.282 217.655 387.216 217.532 387.127 217.427C387.037 217.322 386.926 217.237 386.801 217.179C383.282 215.519 379.465 214.584 375.577 214.428C371.689 214.273 367.809 214.9 364.169 216.274C360.528 217.647 357.201 219.738 354.384 222.423C351.568 225.107 349.32 228.331 347.773 231.901C346.13 218.043 343.627 204.299 340.281 190.751C335.612 174.728 327.035 160.117 315.32 148.232C298.637 131.087 284.54 124.58 264.603 115.269C280.047 105.353 282.665 82.3565 274.673 68.289C274.596 68.1567 274.49 68.0437 274.363 67.9587C274.236 67.8736 274.091 67.8187 273.939 67.7982C273.787 67.7777 273.633 67.7922 273.488 67.8404C273.342 67.8886 273.21 67.9694 273.101 68.0765C259.819 80.9562 254.883 92.4885 257.097 105.477C257.658 108.796 258.873 111.97 260.672 114.816C253.593 113.897 246.414 114.069 239.388 115.326C233.363 116.365 227.663 118.794 222.74 122.419C217.818 126.045 213.807 130.767 211.027 136.213C210.957 136.342 210.916 136.485 210.907 136.632C210.898 136.779 210.921 136.926 210.974 137.063C211.028 137.2 211.11 137.324 211.216 137.426C211.322 137.528 211.449 137.605 211.588 137.653C220.628 141.405 230.671 141.985 240.082 139.3C245.421 137.527 250.334 134.668 254.514 130.904C258.694 127.14 262.05 122.551 264.371 117.428C282.117 125.715 293.146 130.692 308.24 144.266C321.512 155.977 331.49 170.957 337.18 187.718C338.989 193.411 340.414 199.219 341.445 205.103C345.776 228.414 348.625 249.685 349.679 287.051C350.317 309.812 350.317 359.044 350.317 359.274C350.329 359.538 350.442 359.788 350.634 359.971C350.825 360.153 351.08 360.256 351.344 360.256C351.609 360.256 351.863 360.153 352.055 359.971C352.246 359.788 352.36 359.538 352.372 359.274C351.991 333.91 371.118 291.125 391 274.565ZM370.175 293.516C366.49 287.296 367.053 278.991 368.945 272.844C370.706 275.97 371.731 279.457 371.941 283.039C372.151 286.622 371.542 290.205 370.158 293.516H370.175ZM262.61 114.085C254.773 101.547 259.46 87.4587 266.517 78.3849C268.67 75.5918 271.009 72.9473 273.517 70.4693C281.822 87.8815 274.55 107.219 262.61 114.085ZM262.299 117.143C258.637 124.709 252.668 130.918 245.25 134.874C243.42 135.883 241.499 136.719 239.513 137.371C230.894 139.871 221.69 139.444 213.339 136.157C216.615 130.15 221.493 125.168 227.43 121.767C239.73 114.729 252.45 116.412 262.299 117.143ZM348.606 235.391C349.728 231.801 351.588 228.485 354.065 225.655C356.542 222.825 359.583 220.544 362.992 218.957C366.402 217.369 370.105 216.512 373.865 216.438C377.626 216.364 381.36 217.076 384.829 218.529C371.954 238.172 348.46 235.767 348.245 235.803L348.23 235.686C348.315 235.68 348.397 235.649 348.464 235.596C348.531 235.543 348.58 235.472 348.606 235.391Z" fill="#202020"/>
<path d="M125.298 252.561C130.243 254.441 135.286 256.052 140.229 257.93C140.359 257.966 140.495 257.976 140.628 257.959C140.762 257.943 140.891 257.9 141.009 257.833C141.126 257.766 141.229 257.677 141.312 257.571C141.394 257.464 141.455 257.342 141.491 257.212C141.559 256.95 141.522 256.672 141.388 256.436C141.255 256.201 141.035 256.026 140.775 255.95C136.285 254.25 131.718 252.75 127.215 251.084L137.375 237.564C137.513 237.329 137.551 237.049 137.482 236.785C137.413 236.521 137.242 236.296 137.007 236.158C136.771 236.025 136.492 235.989 136.229 236.058C135.966 236.127 135.741 236.295 135.6 236.527C131.962 241.368 128.324 246.21 124.684 251.052C124.249 251.632 124.748 252.352 125.298 252.561Z" fill="#202020"/>
<path d="M146.625 260.665C146.878 260.727 147.145 260.689 147.372 260.56C147.599 260.432 147.768 260.221 147.845 259.972C150.65 250.593 153.423 241.198 155.903 231.727C155.96 231.469 155.916 231.2 155.78 230.974C155.644 230.747 155.427 230.582 155.172 230.512C154.918 230.442 154.646 230.472 154.414 230.597C154.181 230.721 154.005 230.93 153.922 231.181C151.113 240.561 148.346 249.955 145.864 259.426C145.832 259.558 145.826 259.694 145.846 259.828C145.867 259.962 145.914 260.09 145.985 260.205C146.056 260.32 146.149 260.42 146.259 260.499C146.369 260.578 146.493 260.635 146.625 260.665Z" fill="#202020"/>
<path d="M226.648 331.925C229.329 333.124 232.107 334.093 234.953 334.821C235.213 334.887 235.489 334.848 235.721 334.712C235.954 334.577 236.123 334.356 236.195 334.097C236.266 333.838 236.233 333.561 236.103 333.326C235.973 333.091 235.756 332.916 235.499 332.839C232.827 332.151 230.214 331.252 227.685 330.151C227.448 330.022 227.17 329.988 226.909 330.056C226.648 330.124 226.422 330.29 226.279 330.518C226.142 330.754 226.104 331.034 226.173 331.298C226.242 331.562 226.413 331.787 226.648 331.925Z" fill="#202020"/>
<path d="M204.684 180.393C204.945 180.385 205.192 180.279 205.376 180.095C205.561 179.911 205.668 179.663 205.677 179.403V160.514C205.665 160.25 205.551 160 205.36 159.817C205.168 159.634 204.914 159.532 204.649 159.532C204.384 159.532 204.13 159.634 203.939 159.817C203.747 160 203.634 160.25 203.622 160.514V179.403C203.626 179.538 203.658 179.67 203.713 179.793C203.769 179.916 203.849 180.027 203.948 180.118C204.046 180.21 204.162 180.282 204.289 180.329C204.415 180.376 204.549 180.398 204.684 180.393Z" fill="#202020"/>
<path d="M226.455 162.002C226.218 161.869 225.939 161.833 225.677 161.902C225.414 161.971 225.189 162.139 225.048 162.371C223.465 164.447 211.533 180.081 210.947 180.846C210.81 181.082 210.772 181.362 210.841 181.626C210.91 181.889 211.081 182.115 211.316 182.253C211.553 182.385 211.831 182.42 212.093 182.351C212.355 182.282 212.58 182.114 212.721 181.883C214.308 179.807 226.238 164.175 226.822 163.408C226.96 163.173 226.998 162.893 226.929 162.629C226.86 162.365 226.69 162.14 226.455 162.002Z" fill="#202020"/>
<path d="M217.997 188.84C218.139 189.071 218.365 189.239 218.627 189.307C218.889 189.376 219.167 189.34 219.404 189.208L235.743 182.253C235.978 182.115 236.149 181.889 236.219 181.626C236.288 181.362 236.25 181.082 236.113 180.846C235.972 180.615 235.747 180.447 235.485 180.379C235.223 180.31 234.945 180.346 234.708 180.478L218.367 187.433C218.132 187.571 217.961 187.797 217.892 188.06C217.822 188.324 217.86 188.605 217.997 188.84Z" fill="#202020"/>
<path d="M153.897 308.75L143.091 319.7C142.163 320.641 143.614 322.095 144.545 321.153L155.35 310.203C156.279 309.262 154.828 307.806 153.897 308.75Z" fill="#202020"/>
<path d="M162.203 310.403C161.941 310.331 161.66 310.367 161.424 310.501C161.187 310.636 161.014 310.859 160.941 311.121L158.208 328.451C158.145 328.713 158.184 328.99 158.317 329.225C158.451 329.46 158.669 329.635 158.927 329.715C159.19 329.787 159.47 329.752 159.707 329.617C159.944 329.482 160.118 329.259 160.191 328.997C160.191 328.997 162.811 312.379 162.922 311.667C162.985 311.405 162.946 311.128 162.813 310.893C162.679 310.658 162.461 310.483 162.203 310.403Z" fill="#202020"/>
<path d="M171.721 311.121C171.641 310.863 171.466 310.645 171.231 310.512C170.996 310.379 170.719 310.34 170.457 310.403C170.195 310.476 169.972 310.651 169.838 310.887C169.704 311.124 169.669 311.405 169.741 311.667C171.481 316.13 175.446 326.294 175.691 326.916C175.768 327.176 175.942 327.395 176.178 327.529C176.413 327.663 176.691 327.701 176.953 327.635C177.216 327.562 177.439 327.388 177.574 327.151C177.709 326.914 177.744 326.633 177.671 326.37C177.573 326.124 171.819 311.368 171.721 311.121Z" fill="#202020"/>
<path d="M171.834 311.41L171.849 311.449L171.834 311.41Z" fill="#202020"/>
<path d="M33.1988 264.9C33.4522 264.963 33.7198 264.926 33.9467 264.797C34.1736 264.668 34.3424 264.457 34.4186 264.208C36.3389 257.371 40.0211 251.158 45.0967 246.192C46.0529 245.274 44.5973 243.823 43.6453 244.738C38.2192 249.874 34.3374 256.425 32.4381 263.651C32.4046 263.783 32.3977 263.92 32.418 264.055C32.4382 264.19 32.4852 264.319 32.556 264.435C32.6269 264.552 32.7202 264.653 32.8306 264.733C32.9409 264.813 33.0661 264.87 33.1988 264.9Z" fill="#202020"/>
<path d="M39.6121 239.415C33.117 245.218 28.0038 252.401 24.6479 260.438C24.6117 260.568 24.6016 260.704 24.618 260.838C24.6344 260.972 24.6771 261.101 24.7437 261.219C24.8102 261.336 24.8992 261.439 25.0056 261.522C25.1121 261.605 25.2339 261.666 25.364 261.702C25.6279 261.773 25.9089 261.737 26.1471 261.603C26.3853 261.47 26.5618 261.248 26.639 260.986C29.8983 253.291 34.83 246.418 41.0762 240.867C42.0559 239.987 40.5875 238.535 39.6121 239.415Z" fill="#202020"/>
<path d="M100.236 173.657C100.375 173.892 100.6 174.062 100.864 174.131C101.127 174.2 101.408 174.162 101.643 174.025C101.875 173.884 102.043 173.659 102.111 173.397C102.18 173.135 102.144 172.856 102.011 172.62L97.0063 161.857C96.8662 161.624 96.6398 161.456 96.3764 161.389C96.1129 161.322 95.8337 161.362 95.5995 161.5C95.3678 161.641 95.1999 161.866 95.1313 162.128C95.0627 162.39 95.0988 162.669 95.2319 162.905L100.236 173.657Z" fill="#202020"/>
<path d="M104.639 171.781C104.717 172.042 104.894 172.264 105.132 172.397C105.37 172.531 105.65 172.567 105.914 172.497C106.044 172.461 106.166 172.4 106.273 172.317C106.379 172.234 106.468 172.131 106.535 172.013C106.601 171.896 106.644 171.766 106.66 171.632C106.677 171.498 106.667 171.363 106.63 171.232L102.206 159.991C102.126 159.734 101.95 159.516 101.716 159.383C101.481 159.25 101.204 159.212 100.942 159.275C100.679 159.348 100.456 159.521 100.321 159.759C100.186 159.996 100.151 160.277 100.224 160.539L104.639 171.781Z" fill="#202020"/>
<path d="M86.6171 157.501C86.6971 157.759 86.8723 157.977 87.1072 158.11C87.3421 158.243 87.6189 158.282 87.8815 158.219C88.144 158.146 88.3668 157.972 88.501 157.735C88.6353 157.498 88.67 157.217 88.5976 156.955C87.171 153.389 85.7444 149.822 84.3179 146.253C84.2379 145.995 84.0627 145.777 83.8278 145.644C83.5929 145.51 83.3161 145.471 83.0535 145.535C82.791 145.608 82.5682 145.782 82.4339 146.019C82.2997 146.256 82.2649 146.537 82.3374 146.799C83.7639 150.366 85.1905 153.934 86.6171 157.501Z" fill="#202020"/>
<path d="M165.365 184.405C165.625 184.396 165.871 184.288 166.055 184.105C166.239 183.921 166.346 183.675 166.356 183.415C166.478 179.273 166.314 175.127 165.863 171.007C165.854 170.738 165.742 170.481 165.551 170.291C165.36 170.1 165.104 169.989 164.834 169.981C164.562 169.981 164.301 170.089 164.108 170.281C163.916 170.474 163.808 170.735 163.808 171.007C164.25 175.127 164.415 179.273 164.301 183.415C164.311 183.687 164.429 183.944 164.629 184.13C164.828 184.316 165.093 184.415 165.365 184.405Z" fill="#202020"/>
</svg>
