<svg width="120" height="120" viewBox="0 0 120 120" fill="none" xmlns="http://www.w3.org/2000/svg">
<path d="M62.0106 81.5246C60.0306 80.8442 58.5378 81.8108 56.4486 80.651C56.149 80.4847 55.9159 80.2203 55.7886 79.9022C55.7413 79.7298 55.7355 79.5486 55.7717 79.3735C55.8079 79.1984 55.885 79.0343 55.9968 78.8948C56.5032 78.1868 57.4116 77.9384 58.2396 77.7518C54.2128 77.3966 50.4487 75.6024 47.637 72.698C46.3658 72.7804 45.0958 72.8804 43.827 72.998C44.429 74.6637 45.121 76.2955 45.9 77.8862C46.2348 78.6392 46.5522 79.3964 46.9302 80.129C47.7957 81.8454 48.8853 83.4393 50.1702 84.869C54.3852 83.8688 58.5966 82.8386 62.8518 82.0214C62.6089 81.7992 62.3224 81.63 62.0106 81.5246Z" fill="#FAFAFA"/>
<path d="M43.9254 86.3035C45.2304 86.0185 48.855 85.1767 50.169 84.8713C48.8842 83.4414 47.7947 81.8475 46.929 80.1313C46.7766 79.8355 44.3622 74.6809 43.824 72.9991C45.0924 72.8819 46.3624 72.7819 47.634 72.6991C47.5044 72.5611 47.3776 72.4211 47.2536 72.2791C41.2638 72.6853 35.6808 73.4599 29.73 74.4301C22.8132 75.5587 15.8652 77.1901 10.2144 81.0439C4.60859 84.8677 1.61999 90.7921 3.59999 97.3705C6.52799 107.101 18.1518 107.653 28.326 107.683C32.7359 107.764 37.1444 107.456 41.5002 106.762C41.8602 106.699 43.8936 106.313 44.0316 106.252C43.9993 106.258 43.9659 106.258 43.9338 106.25C43.9016 106.243 43.8716 106.228 43.8458 106.208C43.82 106.187 43.7991 106.161 43.7845 106.131C43.7699 106.102 43.7621 106.069 43.7616 106.036C43.746 104.221 43.7136 98.2687 43.7616 86.5183C43.7618 86.4695 43.7779 86.4221 43.8074 86.3834C43.837 86.3446 43.8784 86.3165 43.9254 86.3035Z" fill="#424DE3"/>
<path d="M115.658 66.3523C115.037 63.3295 114.653 61.4821 113.629 59.3101C114.254 61.0273 115.193 63.5701 115.009 65.3875C114.989 65.6558 114.912 65.9167 114.783 66.1529C114.654 66.3891 114.477 66.5951 114.262 66.7573C114.047 66.9194 113.8 67.034 113.538 67.0932C113.276 67.1525 113.004 67.1552 112.74 67.1011C112.8 67.1845 113.696 68.4517 113.746 68.5231C114.063 68.614 114.399 68.6095 114.713 68.5103C115.027 68.411 115.305 68.2214 115.511 67.9651C115.646 67.7209 115.728 67.4516 115.753 67.174C115.779 66.8965 115.746 66.6167 115.658 66.3523Z" fill="#FAFAFA"/>
<path d="M114.428 63.402C114.118 62.046 113.706 60.7153 113.197 59.421C113.099 59.1528 113.521 59.0382 113.623 59.2968C112.701 57.2934 112.109 56.0058 110.577 54.4704C109.913 53.6953 108.996 53.1803 107.989 53.0166C106.963 52.9298 105.931 53.0873 104.978 53.4762C104.375 53.707 103.792 53.9861 103.234 54.3108C103.325 54.4308 107.686 60.1794 109.226 62.262C108.586 60.4344 107.944 58.6072 107.299 56.7804C107.203 56.5086 107.635 56.3934 107.729 56.6604C108.376 58.5004 109.024 60.3422 109.672 62.1858L109.885 62.0202C109.909 61.9967 109.938 61.9789 109.971 61.9682C110.003 61.9575 110.037 61.9542 110.071 61.9585C110.104 61.9629 110.136 61.9747 110.165 61.9932C110.193 62.0116 110.217 62.0363 110.235 62.0652C110.377 62.3652 111.112 63.9786 111.334 64.4856C111.36 64.4976 111.384 64.515 111.403 64.5366C111.495 64.6656 111.614 64.7729 111.751 64.8509C111.889 64.9289 112.042 64.9757 112.199 64.9881C112.357 65.0004 112.515 64.978 112.664 64.9224C112.812 64.8668 112.946 64.7794 113.056 64.6662C113.525 64.1322 113.284 63.2916 113.185 62.67C112.74 59.8998 112.276 57.651 110.589 55.1208C110.429 54.8808 110.815 54.6582 110.974 54.8958C112.151 56.6696 112.944 58.6691 113.304 60.7668C113.375 61.1304 113.731 63.0804 113.766 63.5934C113.812 63.9064 113.77 64.226 113.645 64.5166C113.52 64.8072 113.317 65.0574 113.058 65.2392C112.85 65.3616 112.615 65.4299 112.374 65.4376C112.133 65.4454 111.893 65.3924 111.678 65.2836C111.801 65.6997 112.001 66.0892 112.267 66.432C112.284 66.4369 112.302 66.444 112.318 66.453C112.544 66.6006 112.807 66.6826 113.077 66.6901C113.347 66.6976 113.614 66.6302 113.848 66.4954C114.083 66.3605 114.275 66.1636 114.404 65.9262C114.534 65.6888 114.595 65.4204 114.581 65.1504C114.607 64.5635 114.556 63.9756 114.428 63.402Z" fill="#FAFAFA"/>
<path d="M76.26 57.339C74.43 57.7038 72.3276 57.213 70.0698 57.3696C68.6641 57.4869 67.2529 57.527 65.8428 57.4896C63.2219 57.3823 60.6595 56.6815 58.3488 55.44C54.5586 53.4 53.3922 51.2514 48.4788 49.5C48.4656 49.5144 48.4512 49.527 48.4374 49.5414C48.9438 52.8492 49.188 53.5956 48.8826 54.6594C48.8295 54.8492 48.714 55.0155 48.5547 55.1315C48.3954 55.2476 48.2017 55.3066 48.0048 55.299C47.8143 55.2739 47.6334 55.2008 47.479 55.0865C47.3246 54.9722 47.2018 54.8204 47.1222 54.6456C46.7416 53.9529 46.4312 53.2239 46.1958 52.4694C45.771 53.1645 45.3934 53.8873 45.0654 54.633C46.1454 57.0282 46.26 57.513 46.8198 58.4874C47.0841 58.9397 47.3214 59.4073 47.5302 59.8878C47.6598 60.192 47.8302 60.6036 47.6184 60.9078C46.8384 62.0208 44.7732 60.2232 43.8066 59.2644C43.7112 59.1696 43.6176 59.0724 43.521 58.9776C43.4175 59.4015 43.3438 59.8322 43.3002 60.2664C43.272 60.5496 42.8268 60.552 42.8544 60.2664C42.8676 60.1344 42.8886 60.0042 42.9066 59.8728C42.3969 59.6628 41.8584 59.5309 41.3094 59.4816C41.0256 59.4558 41.0238 59.01 41.3094 59.0358C41.8803 59.0867 42.4412 59.2176 42.9756 59.4246C43.014 59.211 43.0572 58.9992 43.107 58.7874C43.1862 58.4466 43.542 59.13 42.0786 57.4464C42.0612 57.4272 41.6952 56.9898 41.5944 56.865C41.2853 56.9305 40.9926 57.0579 40.734 57.2395C40.4755 57.4212 40.2564 57.6533 40.09 57.9219C39.9236 58.1905 39.8133 58.4901 39.7658 58.8025C39.7183 59.1149 39.7346 59.4337 39.8136 59.7396C39.8973 60.1113 40.0748 60.4553 40.3292 60.7389C40.5836 61.0225 40.9064 61.2362 41.2668 61.3596C41.9814 61.6742 42.7811 61.7392 43.5372 61.5444C43.3068 69.8286 48.9972 76.7244 58.2372 77.7528C65.001 76.2276 66.4656 77.4396 69.5076 75.744C73.1166 73.7328 75.8076 69.03 76.86 65.2122C77.3766 63.3384 77.0676 62.8242 77.4498 62.0652C77.2675 60.4435 76.8673 58.8538 76.26 57.339ZM55.9746 65.7126C55.9716 65.7697 55.9469 65.8235 55.9054 65.8629C55.8639 65.9023 55.8089 65.9242 55.7517 65.9242C55.6945 65.9242 55.6395 65.9023 55.598 65.8629C55.5565 65.8235 55.5318 65.7697 55.5288 65.7126V64.47C55.5318 64.4129 55.5565 64.3591 55.598 64.3197C55.6395 64.2803 55.6945 64.2584 55.7517 64.2584C55.8089 64.2584 55.8639 64.2803 55.9054 64.3197C55.9469 64.3591 55.9716 64.4129 55.9746 64.47V65.7126ZM59.562 63.2628C57.7584 63.465 56.562 61.9002 55.0182 60.9732C54.5104 60.6727 53.968 60.4347 53.403 60.2646C53.1294 60.18 53.2476 59.7468 53.523 59.8344C54.608 60.1937 55.6173 60.7502 56.5002 61.476C57.3738 62.1798 58.3692 62.9508 59.5602 62.817C59.847 62.7852 59.8434 63.2316 59.562 63.2628ZM59.6898 62.2716C57.2526 61.989 55.881 59.7582 53.5878 59.6142C53.3022 59.5962 53.301 59.1492 53.5878 59.1684C54.0824 59.1988 54.5675 59.3179 55.02 59.52C57.2442 60.528 57.6822 61.4838 59.6886 61.8288C59.9718 61.86 59.9742 62.3046 59.6898 62.2716ZM59.7378 61.7238C55.533 59.4 55.785 59.5266 55.38 59.3364C54.9256 59.091 54.4098 58.9824 53.895 59.0238C53.6136 59.0634 53.493 58.6338 53.775 58.5942C54.8922 58.4364 55.875 59.082 56.8128 59.5992C57.8616 60.1796 58.9108 60.7596 59.9604 61.3392C60.2142 61.4778 59.9886 61.86 59.7378 61.7238ZM68.1504 68.4342C67.6782 69.1884 67.1358 70.0026 66.1602 70.0062C65.6519 70.0024 65.1532 69.8679 64.7119 69.6158C64.2706 69.3636 63.9015 69.0022 63.6402 68.5662C63.4716 68.7348 63.3054 68.9064 63.1338 69.0726C63.0917 69.1132 63.0353 69.1357 62.9768 69.1351C62.9184 69.1346 62.8624 69.1111 62.8211 69.0698C62.7797 69.0284 62.7562 68.9725 62.7557 68.914C62.7552 68.8555 62.7776 68.7991 62.8182 68.757C63.051 68.517 63.2928 68.2848 63.5292 68.0472C63.5533 68.0231 63.5826 68.0048 63.6148 67.9938C63.647 67.9828 63.6814 67.9793 63.7152 67.9837C63.749 67.988 63.7813 68.0001 63.8097 68.0189C63.8381 68.0377 63.8618 68.0628 63.879 68.0922C64.0794 68.5289 64.4006 68.8993 64.8046 69.1595C65.2085 69.4197 65.6785 69.559 66.159 69.561C66.9528 69.561 67.3872 68.8122 67.7646 68.2098C67.92 67.9656 68.3028 68.19 68.1504 68.4342ZM72.4296 65.7126C72.4266 65.7697 72.4019 65.8235 72.3604 65.8629C72.3189 65.9023 72.2639 65.9242 72.2067 65.9242C72.1495 65.9242 72.0945 65.9023 72.053 65.8629C72.0115 65.8235 71.9868 65.7697 71.9838 65.7126V64.47C71.9868 64.4129 72.0115 64.3591 72.053 64.3197C72.0945 64.2803 72.1495 64.2584 72.2067 64.2584C72.2639 64.2584 72.3189 64.2803 72.3604 64.3197C72.4019 64.3591 72.4266 64.4129 72.4296 64.47V65.7126ZM73.3896 63.1488C73.2384 62.7371 73.0178 62.3544 72.7374 62.0172C72.6198 61.8542 72.4623 61.724 72.2801 61.6391C72.0979 61.5542 71.8969 61.5175 71.6964 61.5324C71.2985 61.5897 70.9167 61.728 70.5744 61.9389C70.2322 62.1497 69.9369 62.4286 69.7068 62.7582C69.543 62.991 69.1572 62.769 69.3222 62.5332C69.5994 62.1294 69.9611 61.7906 70.3821 61.5402C70.8031 61.2898 71.2734 61.1338 71.7606 61.083C72.8352 61.0374 73.4916 62.1492 73.8198 63.03C73.92 63.3 73.4892 63.4158 73.3908 63.1488H73.3896ZM73.8936 62.3688C73.7207 61.8964 73.4667 61.4579 73.143 61.0728C73.0062 60.8875 72.8238 60.7407 72.6136 60.6466C72.4033 60.5525 72.1723 60.5143 71.943 60.5358C71.4961 60.6039 71.0677 60.762 70.6837 61.0005C70.2997 61.2391 69.9682 61.5531 69.7092 61.9236C69.5454 62.1564 69.1596 61.9344 69.3246 61.6986C69.6262 61.2495 70.0228 60.8721 70.4863 60.5933C70.9499 60.3145 71.4691 60.141 72.0072 60.0852C73.2162 59.9832 73.9578 61.2594 74.3262 62.25C74.4252 62.52 73.9932 62.6346 73.8948 62.3676L73.8936 62.3688ZM74.2968 61.4304C74.1082 60.9157 73.8317 60.4376 73.4796 60.0174C73.3294 59.813 73.129 59.6507 72.8978 59.5462C72.6665 59.4418 72.4123 59.3986 72.1596 59.421C71.6683 59.4938 71.197 59.6662 70.7747 59.9276C70.3524 60.1891 69.988 60.5341 69.7038 60.9414C69.54 61.1742 69.1518 60.9504 69.3192 60.7164C69.6483 60.2327 70.0784 59.8262 70.5799 59.5248C71.0814 59.2235 71.6422 59.0346 72.2238 58.971C73.5282 58.896 74.3274 60.243 74.7234 61.311C74.8278 61.5804 74.3958 61.6962 74.298 61.4292L74.2968 61.4304Z" fill="#FAFAFA"/>
<path d="M101.653 94.8944C101.653 94.8944 89.8704 83.1416 88.8276 82.0694C88.7953 82.0359 88.7741 81.9933 88.767 81.9473C88.7599 81.9013 88.7672 81.8542 88.788 81.8126C88.4556 82.5578 88.1092 83.2978 87.7488 84.0326C86.5158 82.6268 85.4586 81.2684 84.2952 80.0486C80.4748 85.8309 75.6257 90.863 69.9888 94.895C72.7137 98.2131 75.7336 101.277 79.0116 104.05C81.5154 106.101 83.2716 106.761 85.2084 107.025C93.1986 108.111 98.019 101.885 101.995 94.865L101.998 94.8554C101.98 94.8833 101.956 94.9068 101.928 94.9243C101.9 94.9418 101.868 94.9528 101.835 94.9566C101.802 94.9603 101.769 94.9567 101.737 94.9459C101.706 94.9352 101.677 94.9176 101.653 94.8944ZM85.1628 104.395H89.1876C89.2447 104.398 89.2985 104.423 89.3379 104.465C89.3773 104.506 89.3992 104.561 89.3992 104.618C89.3992 104.675 89.3773 104.73 89.3379 104.772C89.2985 104.813 89.2447 104.838 89.1876 104.841H85.1628C85.1057 104.838 85.0519 104.813 85.0125 104.772C84.9731 104.73 84.9512 104.675 84.9512 104.618C84.9512 104.561 84.9731 104.506 85.0125 104.465C85.0519 104.423 85.1057 104.398 85.1628 104.395Z" fill="#424DE3"/>
<path d="M78.2214 54.4266C77.6916 53.3845 77.0599 52.3975 76.3356 51.48C76.2156 51.5616 75.6216 51.9372 75.4476 52.041C74.474 52.7059 73.3869 53.1868 72.24 53.46C72.066 53.4894 71.8674 53.3094 71.988 53.1324C72.8458 51.9081 73.6406 50.6408 74.3694 49.3356C73.7555 48.7607 73.1035 48.2281 72.4176 47.7414C71.3616 50.5884 69.0276 53.073 66.75 55.1784C66.1835 55.7056 65.4801 56.0626 64.7202 56.2086C64.4021 56.27 64.0727 56.2246 63.783 56.0796C63.6427 55.9953 63.5234 55.8802 63.4341 55.743C63.3448 55.6058 63.2879 55.45 63.2676 55.2876C63.2128 54.741 63.2742 54.1889 63.4476 53.6676C64.2389 50.6714 65.4724 47.81 67.1076 45.1776C65.0903 44.6584 63.0166 44.3906 60.9336 44.3802C60.2508 45.72 60.7668 46.7874 61.8384 47.895C61.8802 47.9368 61.9036 47.9934 61.9036 48.0525C61.9036 48.1116 61.8802 48.1682 61.8384 48.21C61.7966 48.2518 61.74 48.2752 61.6809 48.2752C61.6218 48.2752 61.5652 48.2518 61.5234 48.21C60.408 47.1378 59.814 45.7788 60.4434 44.3772C59.4886 44.377 58.5345 44.4296 57.5856 44.535C56.7822 45.195 55.773 45.75 56.178 46.8084C56.8266 48.1428 57.7278 48.039 58.7388 49.3188C58.9188 49.5444 58.5258 49.7694 58.3536 49.5438C57.825 48.8532 57.4122 48.837 56.3232 47.8218C56.1051 47.6169 55.932 47.3687 55.8151 47.0932C55.6982 46.8177 55.6399 46.5209 55.644 46.2216C55.6995 45.8965 55.8251 45.5873 56.0121 45.3157C56.1991 45.044 56.4431 44.8163 56.727 44.6484C55.3875 44.8875 51.4441 45.3551 48.261 48.4092C48.291 48.5946 48.405 49.3206 48.4302 49.4892C53.4702 51.264 54.4524 53.349 58.3506 55.4448C60.661 56.6875 63.2234 57.3896 65.8446 57.498C67.2547 57.5354 68.6658 57.4953 70.0716 57.378C72.6894 57.198 75.0672 57.9 77.2068 57.0654C77.7174 56.872 78.157 56.5274 78.4668 56.0778C78.792 55.5 78.4866 54.948 78.2214 54.4266Z" fill="#FAFAFA"/>
<path d="M87.96 70.9448C87.9393 70.919 87.9127 70.8984 87.8826 70.8848C87.2424 70.604 86.5998 70.964 86.0502 71.2874C84.8639 72.0217 83.7654 72.8892 82.776 73.8728C83.8569 72.2186 84.6482 70.3925 85.116 68.4728C85.3115 67.9704 85.3407 67.4186 85.1994 66.8984C85.0931 66.6853 84.9223 66.5113 84.7112 66.4011C84.5001 66.291 84.2595 66.2504 84.024 66.2852C82.764 66.3944 81.7698 67.3898 80.9148 68.2172C79.8924 69.2072 78.9062 70.2326 77.9562 71.2934C78.752 69.4182 79.3941 67.4814 79.8762 65.5022C80.1276 64.466 80.571 63.0788 79.9062 62.105C79.3104 61.2314 78.0024 60.965 77.4582 62.0642C77.1582 62.6762 77.2626 63.3092 77.0952 64.2284C76.7542 65.8476 76.1984 67.414 75.4428 68.8862C74.0958 71.5748 72.1932 74.2508 69.516 75.743C66.516 77.4158 64.9416 76.2416 58.2456 77.7518C57.4176 77.9384 56.5092 78.1868 56.0028 78.8948C55.891 79.0343 55.8139 79.1984 55.7777 79.3735C55.7415 79.5486 55.7473 79.7297 55.7946 79.9022C55.9219 80.2203 56.155 80.4847 56.4546 80.651C57.223 81.0723 58.0882 81.2851 58.9644 81.2684C60.2658 81.2522 61.8972 81.1352 62.8566 82.0238C56.8104 83.1854 50.8038 84.7922 43.9314 86.3036C43.8846 86.3168 43.8433 86.345 43.8139 86.3837C43.7845 86.4225 43.7684 86.4697 43.7682 86.5184V106.036C43.7687 106.069 43.7765 106.102 43.7911 106.131C43.8057 106.161 43.8266 106.187 43.8524 106.208C43.8782 106.228 43.9082 106.243 43.9404 106.251C43.9725 106.258 44.0059 106.259 44.0382 106.252H44.0502C47.721 105.398 51.3293 104.296 54.8502 102.952C62.6094 100.115 69.7222 95.7535 75.7698 90.125C79.9301 86.3269 83.4404 81.8732 86.1612 76.9406C86.9922 75.4406 87.8322 73.7264 88.1712 72.9572C88.3376 72.5877 88.4196 72.1857 88.4112 71.7806C88.4056 71.6159 88.362 71.4547 88.2837 71.3097C88.2054 71.1647 88.0946 71.0398 87.96 70.9448ZM79.176 79.2518L77.7594 80.9126C77.5734 81.131 77.259 80.8142 77.4444 80.597L78.861 78.9368C79.0476 78.7202 79.3614 79.0346 79.176 79.2518ZM75.456 75.692L74.4162 76.9424C74.232 77.1632 73.9188 76.8464 74.1006 76.6274L75.141 75.3764C75.3252 75.1556 75.639 75.473 75.4566 75.692H75.456Z" fill="#FAFAFA"/>
<path d="M103.951 62.691C101.501 63.4218 98.9106 62.9244 96.495 62.3118C96.4401 62.2941 96.3942 62.2559 96.3669 62.2051C96.3397 62.1543 96.3331 62.0949 96.3486 62.0394C96.3641 61.9838 96.4005 61.9365 96.4501 61.9072C96.4998 61.8779 96.5589 61.8689 96.615 61.8822C98.9628 62.4594 101.465 62.97 103.84 62.259C104.189 62.0435 104.489 61.7574 104.721 61.419C104.898 61.1792 104.997 60.8905 105.005 60.5924C105.012 60.2942 104.927 60.0011 104.762 59.7528C104.389 59.2296 103.917 58.7858 103.371 58.4472C102.263 57.6933 100.992 57.212 99.6618 57.0426C99.411 57.0066 99.4632 57.0102 99.129 56.6052C97.9378 56.7511 96.8309 57.2954 95.988 58.1496C94.548 59.6232 94.4124 61.2978 94.1358 63.2346C93.29 69.66 91.4878 75.9227 88.7892 81.8148C88.769 81.8566 88.762 81.9035 88.7691 81.9494C88.7761 81.9952 88.797 82.0379 88.8288 82.0716C89.8716 83.1438 101.654 94.8966 101.654 94.8966C101.678 94.9198 101.707 94.9373 101.738 94.948C101.77 94.9587 101.803 94.9623 101.836 94.9585C101.869 94.9548 101.901 94.9437 101.929 94.9261C101.957 94.9086 101.981 94.885 101.999 94.857C105.821 88.128 110.29 77.7246 111.55 70.3224C109.544 68.4528 105.78 64.8 103.951 62.691Z" fill="#FAFAFA"/>
<path d="M96.9756 47.3244C96.9756 47.3244 94.374 49.4454 94.2864 49.527C94.2138 49.595 94.1554 49.6768 94.1147 49.7675C94.0739 49.8583 94.0516 49.9562 94.0489 50.0557C94.0463 50.1551 94.0635 50.2541 94.0994 50.3469C94.1353 50.4397 94.1893 50.5244 94.2582 50.5962C94.3587 50.7052 94.4899 50.7812 94.6344 50.8143C94.779 50.8474 94.9302 50.836 95.0682 50.7816C95.5794 50.496 95.6682 50.1552 97.6938 48.5874C97.817 48.5176 97.9207 48.4179 97.9954 48.2976C98.07 48.1772 98.1132 48.04 98.121 47.8986C98.1173 47.7672 98.078 47.6393 98.0074 47.5284C97.9368 47.4176 97.8375 47.3279 97.72 47.269C97.6025 47.2101 97.4712 47.1841 97.3401 47.1939C97.209 47.2036 97.0831 47.2487 96.9756 47.3244V47.3244Z" fill="#8A39E1"/>
<path d="M115.228 70.6886C114.751 69.9548 112.249 66.4112 112.241 66.3992C111.821 65.894 112.031 65.8946 110.235 62.0672C110.217 62.0382 110.193 62.0136 110.165 61.9951C110.136 61.9766 110.104 61.9648 110.071 61.9605C110.037 61.9561 110.003 61.9594 109.971 61.9701C109.938 61.9808 109.909 61.9986 109.885 62.0222L109.354 62.4344C109.312 62.3744 99.525 49.4912 99.0342 48.8618C98.9995 48.8267 98.9541 48.8043 98.9052 48.798C98.8562 48.7917 98.8066 48.8019 98.7642 48.827C97.5747 49.7202 96.4382 50.6818 95.3604 51.707C95.3197 51.7493 95.297 51.8057 95.297 51.8645C95.297 51.9232 95.3197 51.9796 95.3604 52.022C96.603 53.5604 99.3648 56.8994 99.417 56.9558C99.6606 57.1868 101.013 56.921 103.369 58.4474C103.915 58.7859 104.388 59.2298 104.76 59.753C105.354 60.6236 104.789 61.6784 103.885 62.2196C103.857 62.2383 103.833 62.2626 103.816 62.2911C103.798 62.3196 103.787 62.3514 103.783 62.3846C103.779 62.4177 103.781 62.4514 103.791 62.4834C103.801 62.5154 103.817 62.5449 103.84 62.57C106.283 65.36 113.037 71.8952 113.856 72.3362C114.077 72.4251 114.321 72.4416 114.552 72.3833C114.783 72.3251 114.989 72.195 115.142 72.0119C115.294 71.8287 115.385 71.602 115.4 71.3642C115.416 71.1264 115.355 70.8899 115.228 70.6886Z" fill="#8A39E1"/>
<path d="M115.601 72.3205C115.415 72.1015 115.101 72.4183 115.286 72.6355L116.629 74.2135C116.815 74.4325 117.128 74.1157 116.944 73.8985L115.601 72.3205Z" fill="#FAFAFA"/>
<path d="M55.5288 64.4702V65.7128C55.5318 65.7699 55.5565 65.8237 55.598 65.8631C55.6395 65.9025 55.6945 65.9244 55.7517 65.9244C55.8089 65.9244 55.8639 65.9025 55.9054 65.8631C55.9469 65.8237 55.9716 65.7699 55.9746 65.7128V64.4702C55.9716 64.4131 55.9469 64.3593 55.9054 64.3199C55.8639 64.2805 55.8089 64.2585 55.7517 64.2585C55.6945 64.2585 55.6395 64.2805 55.598 64.3199C55.5565 64.3593 55.5318 64.4131 55.5288 64.4702Z" fill="#FAFAFA"/>
<path d="M71.9838 64.5517V66.2731C71.9868 66.3522 72.0115 66.4267 72.053 66.4813C72.0945 66.5358 72.1495 66.5662 72.2067 66.5662C72.2639 66.5662 72.3189 66.5358 72.3604 66.4813C72.4018 66.4267 72.4266 66.3522 72.4296 66.2731V64.5517C72.4266 64.4726 72.4018 64.3981 72.3604 64.3435C72.3189 64.289 72.2639 64.2585 72.2067 64.2585C72.1495 64.2585 72.0945 64.289 72.053 64.3435C72.0115 64.3981 71.9868 64.4726 71.9838 64.5517Z" fill="#303030"/>
<path d="M67.7658 68.2094C67.3884 68.8094 66.9546 69.56 66.1602 69.5606C65.6797 69.5586 65.2097 69.4193 64.8057 69.1591C64.4018 68.8989 64.0806 68.5285 63.8802 68.0918C63.863 68.0624 63.8393 68.0373 63.8109 68.0185C63.7825 67.9997 63.7502 67.9876 63.7164 67.9833C63.6826 67.9789 63.6482 67.9824 63.616 67.9934C63.5837 68.0044 63.5545 68.0227 63.5304 68.0468C63.294 68.2868 63.0504 68.516 62.8194 68.7566C62.7788 68.7987 62.7563 68.8551 62.7569 68.9136C62.7574 68.9721 62.7809 69.028 62.8222 69.0694C62.8636 69.1107 62.9195 69.1342 62.978 69.1347C63.0365 69.1353 63.0929 69.1128 63.135 69.0722C63.3066 68.906 63.4728 68.7344 63.6414 68.5658C63.9027 69.0018 64.2718 69.3632 64.7131 69.6154C65.1544 69.8675 65.6531 70.002 66.1614 70.0058C67.137 70.0022 67.6794 69.188 68.1516 68.4338C68.3028 68.1902 67.92 67.9664 67.7658 68.2094Z" fill="#FAFAFA"/>
<path d="M59.6898 61.826C57.714 61.4864 57.219 60.5132 55.0212 59.5172C54.5682 59.3159 54.0826 59.1978 53.5878 59.1686C53.301 59.1494 53.3022 59.5964 53.5878 59.6144C55.8984 59.7596 57.2376 61.9874 59.6898 62.2718C59.9742 62.3048 59.9718 61.8602 59.6898 61.826Z" fill="#FAFAFA"/>
<path d="M69.708 60.9404C69.9921 60.5329 70.3565 60.1879 70.7788 59.9264C71.2011 59.6649 71.6724 59.4926 72.1638 59.42C72.4165 59.3976 72.6707 59.4407 72.9019 59.5452C73.1332 59.6496 73.3335 59.8119 73.4838 60.0164C73.8362 60.4363 74.1127 60.9145 74.301 61.4294C74.3988 61.6964 74.8308 61.5806 74.7306 61.3094C74.3346 60.2414 73.5354 58.8938 72.231 58.9694C71.6494 59.0328 71.0885 59.2217 70.587 59.523C70.0855 59.8244 69.6554 60.231 69.3264 60.7148C69.156 60.9488 69.5442 61.1732 69.708 60.9404Z" fill="#FAFAFA"/>
<path d="M69.708 61.9201C69.967 61.5496 70.2985 61.2355 70.6825 60.997C71.0665 60.7584 71.4949 60.6003 71.9418 60.5323C72.1711 60.5109 72.4021 60.549 72.6123 60.6431C72.8226 60.7372 73.005 60.884 73.1418 61.0693C73.4657 61.4542 73.7197 61.8928 73.8924 62.3653C73.9908 62.6323 74.4228 62.5165 74.3226 62.2453C73.9548 61.2547 73.212 59.9785 72.0036 60.0805C71.4655 60.1364 70.9464 60.3099 70.4828 60.5887C70.0192 60.8675 69.6226 61.2448 69.321 61.6939C69.159 61.9333 69.5442 62.1553 69.708 61.9201Z" fill="#FAFAFA"/>
<path d="M69.708 62.7601C69.9381 62.4305 70.2334 62.1516 70.5756 61.9408C70.9179 61.7299 71.2997 61.5916 71.6976 61.5343C71.8981 61.5194 72.099 61.5562 72.2813 61.641C72.4635 61.7259 72.621 61.8561 72.7386 62.0191C73.019 62.3563 73.2396 62.739 73.3908 63.1507C73.4892 63.4171 73.9212 63.3019 73.821 63.0307C73.4934 62.1505 72.8364 61.0375 71.7618 61.0837C71.2746 61.1346 70.8043 61.2906 70.3833 61.541C69.9623 61.7913 69.6007 62.1301 69.3234 62.5339C69.159 62.7691 69.5442 62.9911 69.708 62.7601Z" fill="#FAFAFA"/>
<path d="M59.562 62.82C58.368 62.9538 57.3726 62.1828 56.502 61.479C55.618 60.7515 54.6069 60.1939 53.52 59.8344C53.2458 59.7468 53.1276 60.18 53.4 60.2646C53.9651 60.4346 54.5074 60.6726 55.0152 60.9732C56.556 61.9002 57.7554 63.465 59.559 63.2628C59.844 63.2316 59.847 62.7852 59.562 62.82Z" fill="#FAFAFA"/>
<path d="M59.9628 61.3388L56.8152 59.5988C55.8798 59.0816 54.8952 58.436 53.7774 58.5938C53.4948 58.6334 53.6148 59.063 53.8974 59.0234C54.4122 58.982 54.928 59.0905 55.3824 59.336C55.7802 59.5232 55.5072 59.3846 59.739 61.7234C59.9886 61.8602 60.2142 61.478 59.9628 61.3388Z" fill="#FAFAFA"/>
<path d="M43.2 58.6572C43.176 58.6712 43.1552 58.69 43.1388 58.7124C43.1224 58.7348 43.1107 58.7603 43.1046 58.7874C43.0536 59.004 43.0086 59.2236 42.9732 59.4246C42.4385 59.2185 41.8777 59.0877 41.307 59.0358C41.0214 59.01 41.0232 59.4558 41.307 59.4816C41.8558 59.5325 42.394 59.6643 42.9042 59.8728C42.8736 60.0792 42.8562 60.2262 42.852 60.2664C42.8244 60.552 43.272 60.5496 43.2978 60.2664C43.3416 59.8322 43.4154 59.4016 43.5186 58.9776C43.4134 58.872 43.3072 58.7652 43.2 58.6572Z" fill="#FAFAFA"/>
<path d="M72.7668 25.2601C72.5268 24.0571 71.8956 22.7653 70.641 22.3741C69.2274 21.9331 67.7766 22.8805 67.1436 24.1141C65.7702 26.7907 67.4064 29.2183 66.6444 34.4269C66.18 37.6003 64.7382 40.4911 65.6556 42.7669C65.7622 43.0355 65.9566 43.2601 66.2072 43.4041C66.4579 43.548 66.7498 43.6028 67.0356 43.5595C67.3168 43.4756 67.5763 43.3311 67.7956 43.1361C68.015 42.9411 68.1889 42.7004 68.3052 42.4309C68.9921 41.1215 69.6078 39.7759 70.1496 38.4001C70.0206 38.0079 70.0118 37.586 70.1244 37.1887C70.2428 36.4225 70.4488 35.6724 70.7382 34.9531C70.8128 34.7657 70.9324 34.5996 71.0864 34.4694C71.2404 34.3392 71.4242 34.249 71.6214 34.2067C72.0078 32.9425 72.327 31.6587 72.5778 30.3607C72.9637 28.6879 73.0278 26.9569 72.7668 25.2601Z" fill="#424DE3"/>
<path d="M71.5674 42.7297C71.2484 42.6385 70.9146 42.6113 70.585 42.6497C70.2555 42.6881 69.9369 42.7914 69.6474 42.9535C68.037 43.6861 66.9624 45.1963 66.1458 46.7647C65.0045 48.9628 64.0995 51.2757 63.4458 53.6647C63.2724 54.186 63.211 54.738 63.2658 55.2847C63.2861 55.4471 63.343 55.6028 63.4323 55.74C63.5216 55.8773 63.6409 55.9924 63.7812 56.0767C64.0709 56.2217 64.4003 56.267 64.7184 56.2057C65.4783 56.0597 66.1817 55.7027 66.7482 55.1755C68.8914 53.1955 71.1216 50.8441 72.2478 48.1633C72.5504 47.4429 72.7682 46.6899 72.897 45.9193C73.1304 44.6491 72.8166 43.2145 71.5674 42.7297Z" fill="#424DE3"/>
<path d="M72.315 34.526C72.2179 34.3965 72.0834 34.2998 71.9297 34.2488C71.7761 34.1979 71.6105 34.1951 71.4552 34.241C71.1341 34.3788 70.8776 34.634 70.7382 34.9544C70.4352 35.715 70.2212 36.508 70.1004 37.3178C69.8676 38.378 70.3656 38.9534 70.9698 38.9732C71.9682 39.0056 72.3966 37.8146 72.5742 37.0244C72.7518 36.2342 72.8496 35.2052 72.315 34.526Z" fill="#424DE3"/>
<path d="M82.6404 24.6439C82.6171 24.523 82.5646 24.4096 82.4875 24.3136C82.4104 24.2176 82.311 24.1419 82.198 24.0931C82.085 24.0443 81.9617 24.0239 81.839 24.0336C81.7162 24.0433 81.5977 24.0829 81.4938 24.1489C80.9878 24.4536 80.5975 24.918 80.3844 25.4689C80.2792 25.7427 80.2786 26.0456 80.3828 26.3198C80.487 26.594 80.6885 26.8202 80.949 26.9551C81.96 27.3685 82.8654 25.9093 82.6404 24.6439Z" fill="#424DE3"/>
<path d="M91.9578 35.9114C91.7784 35.812 91.5728 35.7702 91.3689 35.7916C91.1649 35.8131 90.9725 35.8968 90.8178 36.0314C90.4351 36.2983 90.1423 36.6748 89.9778 37.1114C89.8248 37.5914 89.9862 38.2472 90.5844 38.2766C91.1826 38.306 91.7028 37.7276 92.028 37.2968C92.3532 36.866 92.4768 36.2582 91.9578 35.9114Z" fill="#424DE3"/>
<path d="M83.2608 38.432C83.2292 37.9508 83.0316 37.4954 82.7016 37.1438C82.4869 36.9764 82.231 36.8703 81.9609 36.8366C81.6908 36.8029 81.4166 36.8429 81.1674 36.9524C80.1483 37.3939 79.319 38.183 78.8274 39.179C77.466 41.5028 76.6344 44.1092 75.6372 46.598C74.6927 48.9164 73.4674 51.1102 71.9886 53.1302C71.8686 53.3102 72.0666 53.4872 72.2406 53.4578C73.3871 53.1852 74.474 52.7051 75.4476 52.0412C78.3643 50.3858 80.6677 47.8318 82.014 44.7602C82.9142 42.7758 83.341 40.6095 83.2608 38.432Z" fill="#424DE3"/>
<path d="M78.3792 16.6873C77.7792 14.8543 76.944 12.6457 75.0462 12.3445C73.9662 12.1729 72.7662 12.7369 72.6102 13.8691C72.6053 14.6649 72.8012 15.449 73.1796 16.1491C73.7928 17.7091 74.4342 19.2601 74.9694 20.8495C76.9404 26.7007 77.3694 34.1569 74.7366 39.8239C74.7109 39.8746 74.7055 39.9332 74.7216 39.9878C74.7377 40.0423 74.7739 40.0887 74.823 40.1174C74.8721 40.1461 74.9303 40.155 74.9857 40.1423C75.0411 40.1295 75.0896 40.0961 75.1212 40.0489C76.6497 37.8189 77.8233 35.3653 78.6 32.7757C80.1284 27.5103 80.0516 21.9087 78.3792 16.6873Z" fill="#424DE3"/>
<path d="M48.525 50.1092C48.0789 46.6564 47.2591 43.2623 46.08 39.9866C45.5214 38.4968 45.0072 36.8336 43.746 35.771C42.4716 34.6964 41.454 35.2868 41.331 36.77C41.2785 38.5508 41.5878 40.3237 42.24 41.9816C42.273 42.0716 44.28 47.285 44.3148 47.3702C46.2546 52.3622 45.4584 50.3234 46.197 52.4702C46.4322 53.2248 46.7425 53.9538 47.1234 54.6464C47.203 54.8213 47.3257 54.973 47.4801 55.0873C47.6346 55.2016 47.8155 55.2748 48.006 55.2998C48.2027 55.307 48.3961 55.2478 48.5551 55.1318C48.7141 55.0158 48.8294 54.8497 48.8826 54.6602C49.1898 53.588 48.9204 52.6958 48.525 50.1092ZM45.7734 47.4182C45.5526 46.7106 45.3326 46.0032 45.1134 45.296C45.0282 45.0212 45.4584 44.9048 45.5436 45.176L46.2036 47.2976C46.2888 47.5742 45.858 47.6912 45.7734 47.4182ZM44.8734 38.9936L45.5334 41.1152C45.6192 41.3906 45.1884 41.507 45.1038 41.2352C44.8838 40.5276 44.6638 39.8204 44.4438 39.1136C44.358 38.837 44.7882 38.7206 44.8734 38.9936Z" fill="#424DE3"/>
<path d="M39.6876 30.2616C39.5676 29.6976 39.1992 28.9674 38.4978 29.2272C36.726 29.8842 37.1238 33.411 38.7036 34.3836C39.6606 34.9728 39.7548 33.3192 39.8028 32.7636C39.8868 31.9284 39.848 31.0855 39.6876 30.2616Z" fill="#424DE3"/>
<path d="M37.476 44.0316C37.4106 44.5494 37.3608 45.135 37.8612 45.4476C38.0485 45.5612 38.2617 45.6249 38.4805 45.6328C38.6994 45.6407 38.9166 45.5924 39.1116 45.4926C39.5711 45.2174 39.9481 44.8236 40.203 44.3526C40.3614 44.1126 39.9756 43.8888 39.8178 44.1276C39.6052 44.5352 39.2826 44.875 38.8866 45.1086C38.7385 45.1828 38.5707 45.2084 38.4072 45.1818C38.2437 45.1552 38.0927 45.0777 37.9758 44.9604C37.8696 44.7645 37.8389 44.5366 37.8894 44.3196C38.0232 42.9396 38.4108 42.4992 38.2494 41.847C38.186 41.663 38.0851 41.4941 37.9531 41.351C37.8211 41.208 37.6608 41.0938 37.4825 41.0158C37.3041 40.9379 37.1116 40.8977 36.9169 40.8979C36.7222 40.8982 36.5298 40.9388 36.3516 41.0172C35.947 41.1885 35.6027 41.4766 35.3628 41.8446C35.1143 42.2826 34.8907 42.7343 34.6932 43.1976C34.6103 43.3974 34.4792 43.5735 34.3117 43.7103C34.1442 43.8471 33.9455 43.9404 33.7332 43.9818C33.567 43.9801 33.4044 43.9326 33.2634 43.8445C33.1224 43.7565 33.0084 43.6312 32.934 43.4826C32.4228 42.6342 32.8632 41.6754 33.0168 40.7904C33.129 40.3588 33.1032 39.9028 32.943 39.4866C32.8455 39.2913 32.6778 39.1401 32.4734 39.0634C32.2691 38.9867 32.0433 38.9902 31.8414 39.0732C30.9822 39.3732 30.5364 40.2918 30.1014 41.016C29.8522 41.449 29.489 41.8053 29.0514 42.0462C28.8532 42.1473 28.6283 42.1835 28.4084 42.1497C28.1885 42.1159 27.9848 42.0138 27.8262 41.8578C26.9664 41.0256 27.42 39.741 27.7764 38.7876C27.8772 38.5188 27.4464 38.4024 27.3468 38.6676C26.9868 39.6234 26.6442 40.6992 27.1422 41.6742C27.2301 41.8722 27.3582 42.0497 27.5184 42.1954C27.6787 42.3411 27.8675 42.4519 28.0729 42.5206C28.2783 42.5894 28.4957 42.6146 28.7114 42.5947C28.9271 42.5748 29.1362 42.5102 29.3256 42.405C30.192 41.9358 30.5652 41.0124 31.11 40.2534C31.35 39.9204 31.7382 39.4602 32.1858 39.4542C32.6796 39.447 32.6568 40.1262 32.6196 40.4628C32.511 41.445 32.0076 42.411 32.3994 43.3932C32.709 44.1696 33.5052 44.7132 34.3152 44.2548C35.2386 43.734 35.2614 42.5496 35.9454 41.8314C36.5352 41.1282 37.7118 41.1894 37.8408 42.0882C37.8 42.8268 37.6296 42.819 37.476 44.0316Z" fill="#424DE3"/>
<path d="M83.7918 49.1184C84.2532 49.032 84.5424 49.4634 84.7152 49.8186C84.93 50.2608 85.0998 50.8044 85.5798 51.0276C85.7023 51.082 85.8359 51.1071 85.9698 51.1009C86.1037 51.0948 86.2344 51.0576 86.3514 50.9922C86.4685 50.9268 86.5687 50.8351 86.6442 50.7243C86.7197 50.6135 86.7684 50.4866 86.7864 50.3538C86.862 49.8312 86.8104 49.7142 86.6556 48.2622C86.6256 47.9802 86.1792 47.9772 86.2098 48.2622C86.3148 48.8801 86.3692 49.5056 86.3724 50.1324C86.3124 50.7234 85.8204 50.9124 85.4322 50.2776C85.2413 49.8072 84.9839 49.3668 84.6678 48.9696C84.5139 48.8267 84.3227 48.7302 84.1163 48.6913C83.9099 48.6525 83.6967 48.6728 83.5014 48.75C83.0076 48.99 83.052 49.5732 83.1414 50.025C83.3303 50.5491 83.4006 51.1085 83.3472 51.663C83.2872 51.9066 83.136 52.1754 82.8462 52.1172C82.6125 52.0473 82.4082 51.903 82.2642 51.7062C81.9642 51.3534 81.6558 50.9514 81.153 50.9136C80.8882 50.9204 80.6321 51.0094 80.4202 51.1683C80.2083 51.3272 80.0511 51.5481 79.9704 51.8004C79.8321 52.4417 79.9212 53.1111 80.2224 53.694C80.3256 53.958 80.757 53.8428 80.652 53.574C80.3636 53.0641 80.2779 52.4642 80.412 51.894C80.4404 51.7899 80.4926 51.6938 80.5645 51.6133C80.6363 51.5328 80.7258 51.4701 80.826 51.43C80.9262 51.39 81.0343 51.3737 81.1418 51.3825C81.2494 51.3912 81.3534 51.4248 81.4458 51.4806C81.8442 51.7638 82.0458 52.2282 82.497 52.4586C82.6067 52.5171 82.7279 52.551 82.8521 52.5579C82.9763 52.5648 83.1006 52.5446 83.2161 52.4986C83.3317 52.4526 83.4359 52.382 83.5214 52.2917C83.607 52.2014 83.6718 52.0935 83.7114 51.9756C83.8726 51.4638 83.8651 50.9137 83.6898 50.4066C83.6172 50.1 83.28 49.215 83.7918 49.1184Z" fill="#424DE3"/>
<path d="M47.5302 59.8872C47.0436 58.7472 46.704 58.422 46.2168 57.2766C45.9216 56.583 44.721 53.8854 44.5536 53.5098C43.9571 52.1306 43.2178 50.8177 42.348 49.5924C41.9132 48.9965 41.4073 48.4559 40.8414 47.9826C40.296 47.4361 39.5935 47.0738 38.832 46.9464C38.4901 46.9294 38.1528 47.0316 37.8778 47.2354C37.6027 47.4392 37.4069 47.7321 37.3236 48.0642C36.7236 50.3562 38.4216 52.5816 39.9036 54.6174C40.8858 56.0551 41.9885 57.4066 43.2 58.6572C44.2764 59.7582 46.7322 62.172 47.616 60.9078C47.8314 60.603 47.6598 60.1914 47.5302 59.8872Z" fill="#424DE3"/>
<path d="M64.605 18.17C65.2818 18.3032 65.3556 19.289 65.7798 19.8698C65.9066 20.0854 66.1079 20.2471 66.3458 20.3245C66.5836 20.4019 66.8416 20.3895 67.071 20.2898C67.3079 20.1458 67.4965 19.9345 67.6129 19.6828C67.7293 19.4312 67.7681 19.1506 67.7244 18.8768C67.605 18.3463 67.5206 17.8086 67.4718 17.267C67.4988 16.6976 67.6518 16.6748 68.0262 16.898C68.4105 17.1778 68.7254 17.5422 68.9466 17.963C69.0936 18.209 69.483 17.9828 69.3312 17.738C69.0754 17.2484 68.7049 16.828 68.2512 16.5128C68.1486 16.4084 68.016 16.3385 67.872 16.3128C67.7279 16.287 67.5794 16.3067 67.4469 16.369C67.3145 16.4313 67.2047 16.5333 67.1327 16.6607C67.0608 16.7881 67.0302 16.9348 67.0452 17.0804C66.9048 18.0338 67.6608 19.0304 67.0452 19.7594C66.9745 19.8439 66.878 19.9028 66.7705 19.927C66.6631 19.9511 66.5506 19.9393 66.4506 19.8932C66.0144 19.688 65.8866 19.0832 65.7054 18.6848C65.6295 18.4577 65.4995 18.2525 65.3266 18.087C65.1537 17.9214 64.9431 17.8004 64.713 17.7344C64.4756 17.7112 64.2377 17.773 64.0417 17.909C63.8458 18.0449 63.7045 18.2461 63.6432 18.4766C63.5203 19.0437 63.5688 19.6345 63.7824 20.174C63.9984 20.8538 63.6624 21.524 63.2424 21.4844C62.9376 21.4562 62.6646 21.1328 62.4888 20.909C62.2774 20.637 62.1187 20.3279 62.0208 19.9976C62.0031 19.9427 61.9648 19.8968 61.914 19.8696C61.8632 19.8423 61.8039 19.8357 61.7483 19.8512C61.6928 19.8667 61.6454 19.9031 61.6161 19.9528C61.5868 20.0024 61.5779 20.0615 61.5912 20.1176C61.8312 20.9234 62.943 22.6274 63.9096 21.6554C64.0857 21.453 64.208 21.2094 64.2651 20.9472C64.3221 20.685 64.3121 20.4127 64.236 20.1554C64.1238 19.6208 63.8424 19.0286 64.1196 18.4976C64.1587 18.4009 64.2258 18.3181 64.3123 18.2597C64.3988 18.2014 64.5007 18.1701 64.605 18.17Z" fill="#424DE3"/>
<path d="M50.8914 42.1759L50.2314 40.0543C50.1462 39.7813 49.716 39.8977 49.8012 40.1743L50.4612 42.2959C50.5464 42.5677 50.9772 42.4513 50.8914 42.1759Z" fill="#FAFAFA"/>
<path d="M45.4428 34.0423C45.528 34.3153 45.9582 34.1989 45.8724 33.9223L45.2118 31.8001C45.1266 31.5271 44.6964 31.6435 44.7822 31.9201L45.4428 34.0423Z" fill="#FAFAFA"/>
<path d="M46.86 29.6473C46.6396 28.9397 46.4196 28.2325 46.2 27.5257C46.1154 27.2527 45.6846 27.3691 45.7704 27.6457L46.4304 29.7673C46.5144 30.0385 46.9446 29.9221 46.86 29.6473Z" fill="#FAFAFA"/>
<path d="M41.3196 25.2367L41.9796 27.3583C42.0648 27.6313 42.495 27.5149 42.4092 27.2383L41.7492 25.1167C41.6646 24.8455 41.2338 24.9601 41.3196 25.2367Z" fill="#FAFAFA"/>
<path d="M45.2034 22.7125L44.5434 20.5909C44.4588 20.3179 44.028 20.4343 44.1138 20.7109L44.7738 22.8331C44.859 23.1043 45.2892 22.9873 45.2034 22.7125Z" fill="#FAFAFA"/>
<path d="M37.44 19.848C37.3548 19.575 36.9246 19.6914 37.0104 19.968L37.6704 22.0902C37.755 22.3632 38.1858 22.2462 38.1 21.9702L37.44 19.848Z" fill="#FAFAFA"/>
<path d="M40.5372 17.5452C40.3168 16.8376 40.0968 16.1302 39.8772 15.423C39.7926 15.15 39.3618 15.267 39.4476 15.543L40.1076 17.6646C40.1922 17.9364 40.62 17.82 40.5372 17.5452Z" fill="#FAFAFA"/>
<path d="M45.534 41.1151L44.874 38.9935C44.7888 38.7205 44.3586 38.8369 44.4438 39.1135C44.6646 39.8203 44.8846 40.5275 45.1038 41.2351C45.189 41.5069 45.6198 41.3905 45.534 41.1151Z" fill="#FAFAFA"/>
<path d="M45.54 45.18C45.4548 44.907 45.0246 45.0234 45.1098 45.3C45.3302 46.0076 45.5502 46.715 45.7698 47.4222C45.8544 47.6952 46.2852 47.5782 46.1994 47.3022L45.54 45.18Z" fill="#FAFAFA"/>
<path d="M96.9756 47.3245C96.9756 47.3245 94.374 49.4455 94.2864 49.5271C94.2138 49.5951 94.1555 49.6769 94.1147 49.7676C94.074 49.8584 94.0516 49.9563 94.0489 50.0557C94.0462 50.1551 94.0633 50.2541 94.0991 50.3469C94.1349 50.4397 94.1888 50.5245 94.2576 50.5963C94.3583 50.7053 94.4896 50.7813 94.6342 50.8144C94.7789 50.8475 94.9301 50.8361 95.0682 50.7817C95.58 50.4961 95.6682 50.1553 97.6938 48.5869C97.8172 48.5174 97.921 48.4178 97.9956 48.2973C98.0702 48.1769 98.1131 48.0396 98.1204 47.8981C98.1167 47.7668 98.0775 47.6389 98.0069 47.5281C97.9363 47.4173 97.837 47.3277 97.7196 47.2689C97.6021 47.21 97.4709 47.1841 97.3399 47.1939C97.2089 47.2037 97.083 47.2488 96.9756 47.3245ZM97.4358 48.2281C96.6761 48.8071 95.9462 49.4241 95.2488 50.0767C95.1366 50.1787 94.9884 50.3767 94.8288 50.3899C94.7438 50.3908 94.6615 50.3597 94.5983 50.3028C94.5351 50.2459 94.4955 50.1674 94.4874 50.0827C94.4748 49.9249 94.6044 49.8427 94.7112 49.7527L97.209 47.7055C97.2388 47.6785 97.2741 47.6583 97.3124 47.6462C97.3507 47.6341 97.3912 47.6304 97.4311 47.6355C97.471 47.6405 97.5093 47.654 97.5435 47.6752C97.5776 47.6965 97.6068 47.7248 97.629 47.7583C97.7622 47.9641 97.5888 48.1099 97.4358 48.2281Z" fill="#303030"/>
<path d="M115.601 72.3205C115.415 72.1015 115.101 72.4183 115.286 72.6355L116.629 74.2135C116.815 74.4325 117.129 74.1157 116.944 73.8985L115.601 72.3205Z" fill="#FAFAFA"/>
<path d="M55.5294 64.5519V66.2509C55.5294 66.3316 55.5529 66.409 55.5946 66.4661C55.6364 66.5232 55.693 66.5553 55.752 66.5553C55.8111 66.5553 55.8677 66.5232 55.9094 66.4661C55.9512 66.409 55.9746 66.3316 55.9746 66.2509V64.5519C55.9746 64.4712 55.9512 64.3938 55.9094 64.3367C55.8677 64.2796 55.8111 64.2476 55.752 64.2476C55.693 64.2476 55.6364 64.2796 55.5946 64.3367C55.5529 64.3938 55.5294 64.4712 55.5294 64.5519Z" fill="#303030"/>
<path d="M67.7658 68.2094C67.3614 68.8556 66.9354 69.5594 66.1602 69.5612C65.7051 69.5536 65.2603 69.4245 64.8719 69.1873C64.4835 68.95 64.1655 68.6132 63.951 68.2118C63.9288 68.1716 63.9006 68.1338 63.8814 68.0918C63.8642 68.0624 63.8404 68.0373 63.8119 68.0185C63.7835 67.9997 63.7511 67.9876 63.7173 67.9833C63.6834 67.9789 63.649 67.9824 63.6168 67.9934C63.5845 68.0044 63.5551 68.0227 63.531 68.0468C63.2952 68.2868 63.051 68.516 62.8206 68.7566C62.78 68.7987 62.7576 68.8551 62.7581 68.9136C62.7586 68.9721 62.7821 69.028 62.8235 69.0694C62.8648 69.1107 62.9208 69.1342 62.9793 69.1347C63.0377 69.1353 63.0941 69.1128 63.1362 69.0722C63.3066 68.9072 63.471 68.7368 63.639 68.5694C63.9049 69.0012 64.275 69.3593 64.7153 69.6109C65.1556 69.8625 65.652 69.9995 66.159 70.0094C67.1346 70.0052 67.677 69.1916 68.1492 68.4374C68.3028 68.1902 67.92 67.9664 67.7658 68.2094ZM63.4734 68.2316C63.4709 68.1906 63.4791 68.1496 63.4973 68.1128C63.5155 68.0759 63.5431 68.0445 63.5772 68.0216C63.5434 68.0448 63.5161 68.0763 63.4979 68.1131C63.4798 68.1499 63.4713 68.1907 63.4734 68.2316Z" fill="#303030"/>
<path d="M59.6898 61.826C57.7146 61.4864 57.219 60.5132 55.0212 59.5172C54.5681 59.316 54.0826 59.1979 53.5878 59.1686C53.301 59.1494 53.3022 59.5958 53.5878 59.6144C55.8504 59.762 57.285 61.9928 59.6898 62.2718C59.9742 62.3048 59.9718 61.8602 59.6898 61.826Z" fill="#FAFAFA"/>
<path d="M74.7276 61.3106C74.3316 60.242 73.5324 58.895 72.228 58.9706C71.6464 59.034 71.0855 59.2229 70.584 59.5243C70.0825 59.8256 69.6524 60.2322 69.3234 60.716C69.156 60.9494 69.5424 61.1726 69.708 60.941C69.9928 60.5342 70.3574 60.1897 70.7796 59.9283C71.2018 59.6669 71.6727 59.4942 72.1638 59.4206C72.4165 59.3982 72.6707 59.4413 72.9019 59.5458C73.1332 59.6503 73.3335 59.8125 73.4838 60.017C73.8342 60.4383 74.1105 60.9161 74.301 61.43C74.3964 61.6958 74.8278 61.5806 74.7276 61.3106Z" fill="#FAFAFA"/>
<path d="M74.325 62.2489C73.926 61.1689 73.1622 60.0001 72.006 60.0841C71.4692 60.1446 70.9517 60.32 70.4888 60.5984C70.0259 60.8768 69.6284 61.2517 69.3234 61.6975C69.1554 61.9309 69.5424 62.1541 69.708 61.9225C69.9641 61.5493 70.2948 61.2332 70.6793 60.9943C71.0638 60.7555 71.4937 60.599 71.9418 60.5347C72.1713 60.5107 72.4032 60.5477 72.6139 60.642C72.8246 60.7363 73.0067 60.8845 73.1418 61.0717C73.4643 61.4576 73.7181 61.896 73.8924 62.3677C73.9938 62.6341 74.424 62.5201 74.325 62.2489Z" fill="#FAFAFA"/>
<path d="M72.7386 62.0173C73.0178 62.3554 73.2384 62.7379 73.3914 63.1489C73.4904 63.4153 73.9206 63.3001 73.821 63.0289C73.4652 62.0689 72.7848 61.0213 71.7618 61.0819C71.2741 61.1308 70.803 61.2859 70.3817 61.5365C69.9605 61.787 69.5992 62.1269 69.3234 62.5321C69.1548 62.7649 69.5424 62.9881 69.708 62.7571C69.9387 62.4281 70.2342 62.1497 70.5763 61.9389C70.9184 61.7281 71.3 61.5894 71.6976 61.5313C71.8982 61.5165 72.0992 61.5534 72.2815 61.6385C72.4637 61.7236 72.6211 61.854 72.7386 62.0173Z" fill="#FAFAFA"/>
<path d="M59.562 63.263C59.8434 63.2318 59.847 62.783 59.562 62.8172C58.482 62.9372 57.5712 62.3132 56.7114 61.643C55.7734 60.8412 54.6899 60.2272 53.52 59.8346C53.2458 59.747 53.1282 60.1796 53.4 60.2648C53.9648 60.435 54.507 60.6729 55.0146 60.9734C56.559 61.9004 57.7584 63.4652 59.562 63.263Z" fill="#FAFAFA"/>
<path d="M59.9628 61.3388L56.8152 59.5988C55.8798 59.0816 54.8952 58.436 53.7774 58.5938C53.4942 58.6334 53.6148 59.0624 53.8974 59.0234C54.8484 58.8908 55.8984 59.6006 56.7858 60.0914L59.739 61.7234C59.9886 61.8602 60.2142 61.478 59.9628 61.3388Z" fill="#FAFAFA"/>
<path d="M22.9008 88.347C29.6597 88.276 36.409 87.8173 43.1154 86.973C43.3962 86.9382 43.3998 86.493 43.1154 86.5278C37.9338 87.174 32.6592 87.603 27.3594 87.795C25.8738 87.849 24.387 87.8664 22.9008 87.9012C22.8437 87.9042 22.7899 87.929 22.7505 87.9704C22.7111 88.0119 22.6892 88.0669 22.6892 88.1241C22.6892 88.1813 22.7111 88.2363 22.7505 88.2778C22.7899 88.3193 22.8437 88.3441 22.9008 88.347Z" fill="#FAFAFA"/>
<path d="M74.4168 76.9423L75.4566 75.6919C75.6366 75.4729 75.3252 75.1555 75.1416 75.3763L74.1012 76.6273C73.92 76.8463 74.2326 77.1601 74.4168 76.9423Z" fill="#303030"/>
<path d="M77.76 80.9125L79.1772 79.2517C79.362 79.0345 79.0482 78.7177 78.8616 78.9361L77.445 80.5975C77.259 80.8141 77.5728 81.1309 77.76 80.9125Z" fill="#303030"/>
<path d="M7.72501 97.9532L7.33321 94.6382C7.30021 94.3568 6.85321 94.3532 6.88801 94.6382C7.01801 95.743 7.14841 96.848 7.27921 97.9532C7.31221 98.2346 7.75861 98.2376 7.72501 97.9532Z" fill="#FAFAFA"/>
<path d="M89.1876 104.841C89.2447 104.838 89.2985 104.813 89.3379 104.772C89.3773 104.73 89.3992 104.675 89.3992 104.618C89.3992 104.561 89.3773 104.506 89.3379 104.464C89.2985 104.423 89.2447 104.398 89.1876 104.395H85.1628C85.1057 104.398 85.0519 104.423 85.0125 104.464C84.9731 104.506 84.9512 104.561 84.9512 104.618C84.9512 104.675 84.9731 104.73 85.0125 104.772C85.0519 104.813 85.1057 104.838 85.1628 104.841H89.1876Z" fill="#FAFAFA"/>
<path d="M70.641 22.3722C69.2274 21.9312 67.7766 22.8786 67.1436 24.1122C65.7702 26.7888 67.4064 29.2164 66.6438 34.425C66.18 37.5984 64.7388 40.4892 65.6556 42.765C65.7622 43.0336 65.9566 43.2582 66.2072 43.4021C66.4579 43.5461 66.7498 43.6009 67.0356 43.5576C67.3168 43.4737 67.5763 43.3291 67.7956 43.1342C68.015 42.9392 68.1889 42.6984 68.3052 42.429C68.9924 41.1217 69.6087 39.7784 70.1514 38.4048C70.2202 38.5677 70.334 38.7077 70.4795 38.8085C70.6249 38.9092 70.796 38.9664 70.9728 38.9736C71.9712 39.006 72.3996 37.815 72.5772 37.0248C73.011 35.0982 72.327 34.1448 71.6244 34.2084C72.0108 32.9441 72.33 31.6603 72.5808 30.3624C72.9671 28.6886 73.0312 26.9565 72.7698 25.2588C72.528 24.0552 71.8956 22.7634 70.641 22.3722ZM71.7732 34.6584C72.0132 34.7316 72.1398 35.0514 72.1932 35.2668C72.3143 36.004 72.2421 36.76 71.9838 37.461C71.8887 37.8123 71.696 38.1295 71.4282 38.376C71.3677 38.4329 71.2953 38.4757 71.2162 38.5011C71.1371 38.5265 71.0533 38.5339 70.971 38.5228C70.8886 38.5117 70.8098 38.4824 70.7403 38.437C70.6707 38.3915 70.6122 38.3311 70.569 38.2602C70.4619 37.9528 70.4564 37.6192 70.5534 37.3086C70.7196 36.5724 71.0538 34.4364 71.7732 34.6584ZM71.0664 34.482C70.9298 34.6186 70.8187 34.7785 70.7382 34.9542C70.4353 35.7193 70.2197 36.5161 70.0956 37.3296C69.5022 38.8998 69.1788 39.558 68.6466 40.7442C68.3883 41.3545 68.0815 41.9432 67.7292 42.5046C67.0632 43.518 66.0054 43.3386 65.8356 41.7408C65.6244 39.7542 66.4098 37.8282 66.8448 35.808C67.9188 30.8136 66.7614 28.4148 67.0728 25.8618C67.4928 22.4268 71.0592 21.5316 72.1038 24.5352C73.08 27.3414 71.94 31.6458 71.0664 34.482Z" fill="#FAFAFA"/>
<path d="M82.6404 24.6439C82.6172 24.523 82.5648 24.4095 82.4877 24.3135C82.4107 24.2174 82.3113 24.1416 82.1982 24.0928C82.0852 24.0439 81.9619 24.0234 81.8391 24.0331C81.7163 24.0428 81.5978 24.0823 81.4938 24.1483C80.988 24.4533 80.5978 24.9176 80.3844 25.4683C80.2791 25.7421 80.2784 26.0451 80.3826 26.3193C80.4868 26.5936 80.6884 26.8197 80.949 26.9545C81.96 27.3685 82.866 25.9093 82.6404 24.6439ZM80.814 25.5895C80.9214 25.2955 81.873 23.9749 82.1754 24.6493C82.2738 25.0009 82.251 25.3755 82.1106 25.7125C81.9978 26.0791 81.8034 26.4871 81.384 26.5675C80.841 26.6713 80.6688 25.9855 80.814 25.5895Z" fill="#FAFAFA"/>
<path d="M90.8184 36.0332C90.4317 36.2958 90.1377 36.6738 89.9784 37.1132C89.8134 37.5932 89.9868 38.249 90.585 38.2784C91.1832 38.3078 91.7034 37.7294 92.0286 37.2986C92.3538 36.8678 92.4774 36.2552 91.9584 35.9078C91.7785 35.8093 91.5726 35.7685 91.3686 35.7909C91.1647 35.8133 90.9726 35.8979 90.8184 36.0332ZM91.1358 37.5986C90.5628 38.0738 90.2274 37.787 90.4074 37.2344C90.54 36.8288 91.3596 35.8244 91.8144 36.3728C92.1216 36.7436 91.38 37.3946 91.1358 37.5986Z" fill="#FAFAFA"/>
<path d="M74.8272 40.1269C74.877 40.153 74.9348 40.1595 74.9892 40.1452C75.0436 40.1308 75.0907 40.0967 75.1212 40.0495C76.6498 37.8193 77.8233 35.3655 78.6 32.7757C80.1286 27.5102 80.052 21.9084 78.3798 16.6867C78.0527 15.3995 77.4448 14.2006 76.5996 13.1761C75.1128 11.6335 72.8196 12.3403 72.6108 13.8691C72.606 14.6649 72.8018 15.449 73.1802 16.1491C73.9314 18.0613 74.7402 19.9891 75.3264 21.9691C76.9728 27.5143 77.2038 34.5091 74.7372 39.8221C74.7229 39.848 74.7139 39.8764 74.7107 39.9058C74.7074 39.9352 74.7101 39.965 74.7185 39.9933C74.7268 40.0217 74.7408 40.0481 74.7594 40.071C74.7781 40.094 74.8011 40.113 74.8272 40.1269ZM76.6272 25.7299C75.8646 20.9845 74.2746 17.9113 73.2672 15.1459C73.056 14.5681 72.8574 13.8493 73.3002 13.3351C73.6634 12.9797 74.1478 12.7752 74.6558 12.7626C75.1638 12.75 75.6577 12.9303 76.038 13.2673C77.0076 14.0749 77.4636 15.3817 77.8584 16.5367C79.034 20.0361 79.4722 23.741 79.1455 27.4181C78.8187 31.0952 77.7341 34.6648 75.96 37.9021C77.1155 33.9501 77.3446 29.7849 76.6296 25.7299H76.6272Z" fill="#FAFAFA"/>
<path d="M115.509 67.9651C115.644 67.7211 115.727 67.4518 115.752 67.1743C115.778 66.8967 115.746 66.6169 115.658 66.3523C115.009 63.1951 114.682 61.5937 113.504 59.0371C112.647 57.1801 112.042 55.9387 110.577 54.4705C109.913 53.6953 108.996 53.1803 107.989 53.0167C106.293 52.9382 104.617 53.3993 103.2 54.3337C101.109 51.5833 99.24 49.1281 99.0342 48.8617C98.9995 48.8266 98.9541 48.8042 98.9052 48.7979C98.8563 48.7916 98.8067 48.8018 98.7642 48.8269C97.5748 49.7201 96.4383 50.6817 95.3604 51.7069C95.3198 51.7492 95.297 51.8057 95.297 51.8644C95.297 51.9231 95.3198 51.9795 95.3604 52.0219C96.3678 53.2693 98.3748 55.7005 99.1254 56.6059C97.9371 56.7604 96.8329 57.3028 95.9844 58.149C95.1359 58.9953 94.5905 60.0979 94.4328 61.2859C93.93 64.0459 93.2004 72.9007 87.7482 84.0319C86.5152 82.6261 85.4586 81.2683 84.2958 80.0485C85.7536 77.7813 87.0468 75.4124 88.1652 72.9601C88.3316 72.5906 88.4136 72.1886 88.4052 71.7835C88.4003 71.6181 88.3571 71.4561 88.2789 71.3104C88.2007 71.1646 88.0897 71.039 87.9546 70.9435C87.9339 70.9177 87.9074 70.8971 87.8772 70.8835C87.237 70.6027 86.5938 70.9627 86.0448 71.2861C84.8588 72.0206 83.7604 72.8878 82.7706 73.8709C83.8519 72.217 84.6432 70.3908 85.1106 68.4709C85.3061 67.9685 85.3353 67.4167 85.194 66.8965C85.0878 66.6834 84.9169 66.5093 84.7058 66.3992C84.4947 66.2891 84.2542 66.2485 84.0186 66.2833C82.7586 66.3925 81.7644 67.3879 80.9094 68.2153C79.887 69.2053 78.9008 70.2307 77.9508 71.2915C78.7467 69.4163 79.3888 67.4795 79.8708 65.5003C80.1222 64.4641 80.5656 63.0769 79.9008 62.1031C79.3092 61.2367 78.0024 60.9667 77.4498 62.0377C77.2633 60.4223 76.8645 58.8386 76.2636 57.3277C76.6971 57.2772 77.116 57.1396 77.4949 56.923C77.8738 56.7065 78.205 56.4155 78.4686 56.0677C78.7944 55.5001 78.4884 54.9463 78.2232 54.4249C77.6917 53.3834 77.0604 52.3959 76.338 51.4765C78.8472 49.8401 80.8213 47.5036 82.0158 44.7565C82.9156 42.773 83.3424 40.6078 83.2626 38.4313C83.231 37.9501 83.0334 37.4947 82.7034 37.1431C82.4889 36.9758 82.233 36.8696 81.963 36.8359C81.693 36.8022 81.4189 36.8422 81.1698 36.9517C78.0498 38.0317 76.7934 44.7649 74.376 49.3357C73.7603 48.7603 73.1069 48.2267 72.42 47.7385C72.6346 47.1478 72.7953 46.5389 72.9 45.9193C73.1316 44.6485 72.8172 43.2139 71.5686 42.7291C70.5192 42.3217 69.0426 43.1491 68.2128 43.9147C67.8035 44.2961 67.4342 44.7182 67.1106 45.1747C65.0925 44.6565 63.0184 44.3881 60.9348 44.3755C61.7634 42.6907 64.5594 41.1187 63.4158 38.4679C62.5218 36.3955 60.4992 35.9647 58.4448 33.6193C58.0363 33.2225 57.7382 32.7262 57.5796 32.1793C57.4434 31.1947 58.0596 30.5935 58.8198 29.6245C59.2853 29.0725 59.6057 28.4131 59.7519 27.7059C59.898 26.9988 59.8653 26.2664 59.6567 25.5751C59.4482 24.8839 59.0703 24.2556 58.5574 23.7473C58.0446 23.239 57.4129 22.8668 56.7198 22.6645C56.6628 22.6485 56.6017 22.656 56.5501 22.685C56.4985 22.7141 56.4606 22.7625 56.4447 22.8196C56.4288 22.8766 56.4362 22.9376 56.4653 22.9892C56.4944 23.0408 56.5428 23.0788 56.5998 23.0947C57.0962 23.2403 57.5586 23.4837 57.9596 23.8106C58.3606 24.1374 58.6923 24.5411 58.9351 24.998C59.1779 25.4548 59.327 25.9556 59.3736 26.4709C59.4201 26.9861 59.3632 27.5055 59.2062 27.9985C58.7196 29.5585 57.1662 30.3385 57.1062 31.8985C57.1375 32.4454 57.3407 32.9685 57.687 33.3931C59.871 36.1183 61.6272 36.3931 62.7672 38.1811C63.0219 38.5711 63.1733 39.0195 63.2072 39.4841C63.2411 39.9487 63.1564 40.4144 62.961 40.8373C61.9704 42.5959 61.074 42.9715 60.441 44.3725C59.4878 44.3725 58.5354 44.4252 57.588 44.5303C59.4276 43.0231 59.3832 40.2013 58.0614 38.3959C55.9272 35.4799 53.1744 36.0559 52.5768 34.7191C52.4818 34.4462 52.4546 34.1543 52.4975 33.8685C52.5403 33.5828 52.652 33.3117 52.8228 33.0787C53.2031 32.5654 53.6665 32.1193 54.1938 31.7587C55.1979 31.0314 55.9773 30.0366 56.4432 28.8877C56.6584 28.3179 56.7287 27.7037 56.6478 27.1C56.567 26.4964 56.3375 25.9223 55.98 25.4293C55.2423 24.595 54.2629 24.0115 53.178 23.7601C52.9152 23.6773 52.6512 23.5975 52.3836 23.5291C52.3275 23.5158 52.2684 23.5247 52.2188 23.554C52.1691 23.5833 52.1327 23.6307 52.1172 23.6862C52.1017 23.7417 52.1083 23.8011 52.1356 23.8519C52.1629 23.9027 52.2087 23.9409 52.2636 23.9587C53.298 24.2641 54.4362 24.5497 55.248 25.2973C55.6774 25.7044 55.9836 26.2242 56.1314 26.7972C56.2792 27.3702 56.2627 27.9732 56.0838 28.5373C55.6743 29.691 54.9203 30.6911 53.9238 31.4023C53.0082 32.1289 51.9168 33.0157 52.0254 34.3219C52.0459 34.5984 52.133 34.8659 52.2793 35.1015C52.4255 35.3371 52.6266 35.5338 52.8654 35.6749C53.3409 35.9401 53.8482 36.144 54.375 36.2815C55.455 36.6473 56.4328 37.2642 57.228 38.0815C58.7412 39.6373 59.1138 42.1897 57.6078 43.8967C57.3263 44.1592 57.0313 44.4069 56.724 44.6389C54.6344 44.9253 52.6127 45.5824 50.754 46.5793C50.799 46.2347 50.925 45.9057 51.1218 45.6193C51.5667 45.1108 52.183 44.7836 52.8534 44.7001C53.5332 44.5858 54.1809 44.3283 54.7536 43.9447C55.3016 43.5139 55.677 42.901 55.8116 42.2171C55.9463 41.5333 55.8312 40.8238 55.4874 40.2175C54.72 38.8651 53.1768 38.6575 51.7902 38.4001C48.4944 37.7905 47.5086 35.6881 48.0498 34.0903C49.0698 31.5859 53.0406 31.5103 53.3862 28.8235C53.395 28.4947 53.3378 28.1675 53.2179 27.8612C53.0981 27.5549 52.918 27.2758 52.6884 27.0403C51.4002 25.7071 49.2084 25.0645 47.37 24.9913C47.0832 24.9793 47.0838 25.4251 47.37 25.4365C48.2074 25.4754 49.0361 25.624 49.8348 25.8787C51.1188 26.2777 52.8462 27.2095 52.9422 28.5547C53.0352 29.8687 51.5586 30.7195 50.3676 31.3525C49.8081 31.6549 49.2767 32.0069 48.78 32.4043C46.4196 34.2679 47.3178 37.6381 50.7996 38.6341C52.125 39.0133 53.8176 38.9071 54.8052 40.0231C55.0198 40.2671 55.184 40.551 55.2886 40.8586C55.3932 41.1663 55.436 41.4915 55.4146 41.8157C55.3932 42.1399 55.308 42.4567 55.1639 42.7479C55.0198 43.0391 54.8196 43.299 54.5748 43.5127C53.4402 44.5063 51.8814 43.9483 50.7552 45.3805C50.4639 45.8155 50.3066 46.3264 50.3028 46.8499C49.5632 47.2915 48.8755 47.8148 48.2526 48.4099C47.8085 45.5372 47.0808 42.7156 46.08 39.9865C45.5214 38.4967 45.0072 36.8335 43.746 35.7709C42.4716 34.6963 41.454 35.2867 41.331 36.7699C41.2785 38.5507 41.5878 40.3236 42.24 41.9815C42.273 42.0715 44.28 47.2849 44.3148 47.3701C46.5462 53.1127 45.4194 50.2813 46.1958 52.4701C45.7703 53.1677 45.3909 53.8925 45.06 54.6397C44.0214 52.2433 42.7434 49.5811 40.8396 47.9827C40.2942 47.4362 39.5917 47.0739 38.8302 46.9465C38.4884 46.9296 38.1513 47.0317 37.8763 47.2354C37.6013 47.4391 37.4053 47.7318 37.3218 48.0637C36.7218 50.3563 38.4198 52.5817 39.9018 54.6175C40.3872 55.2847 40.9866 56.1175 41.5908 56.8657C41.2818 56.9313 40.9894 57.0588 40.731 57.2404C40.4726 57.4221 40.2537 57.6542 40.0874 57.9227C39.9211 58.1913 39.8109 58.4907 39.7635 58.8029C39.716 59.1152 39.7322 59.4338 39.8112 59.7397C39.895 60.1113 40.0725 60.4553 40.3269 60.7388C40.5813 61.0224 40.904 61.2361 41.2644 61.3597C41.979 61.6742 42.7787 61.7393 43.5348 61.5445C43.3743 65.4628 44.7012 69.2969 47.2494 72.2779C41.2944 72.6817 35.7408 73.4491 29.7294 74.4289C22.8126 75.5575 15.8646 77.1889 10.2138 81.0427C6.54 83.5507 3.726 87.1519 3.12 91.5457C2.74348 94.0175 3.09884 96.5455 4.14224 98.8177C5.18564 101.09 6.87143 103.007 8.9916 104.332C14.2524 107.512 22.1094 107.664 28.3278 107.683C33.0534 107.781 37.7772 107.415 42.4314 106.591C46.6615 105.718 50.8135 104.502 54.846 102.955C60.2342 100.967 65.3264 98.2544 69.9822 94.8919C72.8022 98.2297 77.745 103.622 81.5166 105.798C84.2015 107.216 87.3322 107.536 90.2484 106.69C94.8876 105.32 98.0262 101.324 100.575 97.2505C106.072 88.4659 110.46 76.6993 111.555 70.3177C112.131 70.8577 112.664 71.3461 113.13 71.7667C113.341 71.9945 113.587 72.1861 113.86 72.3337C114.075 72.4198 114.312 72.4376 114.537 72.3844C114.763 72.3312 114.967 72.2098 115.121 72.0367C115.275 71.8635 115.371 71.647 115.398 71.4168C115.424 71.1866 115.379 70.9538 115.268 70.7503C115.183 70.5925 114.459 69.5503 113.749 68.5405C114.067 68.6183 114.4 68.6057 114.711 68.504C115.022 68.4023 115.299 68.2156 115.509 67.9651ZM113.197 59.4211C113.709 60.7143 114.121 62.0453 114.428 63.4021C114.555 63.9763 114.606 64.5648 114.58 65.1523C114.591 66.1381 113.804 67.1779 112.265 66.4339C112.016 66.0785 111.816 65.6904 111.671 65.2807C111.888 65.3886 112.128 65.4415 112.37 65.4346C112.612 65.4277 112.848 65.3612 113.058 65.2411C113.317 65.0592 113.52 64.809 113.645 64.5184C113.77 64.2278 113.812 63.9082 113.766 63.5953C113.547 61.8009 113.177 60.0284 112.658 58.2967C113.153 59.3263 113.251 59.5717 113.197 59.4211ZM104.474 54.1621C105.714 53.5825 107.571 53.1241 108.826 53.6989C109.492 54.0747 110.091 54.5597 110.596 55.1335C112.237 57.5965 112.722 59.7889 113.185 62.6719C113.284 63.2935 113.525 64.1341 113.056 64.6681C112.302 65.5291 111.394 64.5157 111.334 64.4881C111.094 63.9349 110.752 63.1681 110.235 62.0677C110.204 62.0164 110.154 61.9797 110.095 61.9655C110.037 61.9513 109.975 61.9609 109.924 61.9921C109.894 62.0107 109.999 61.9321 109.671 62.1877L107.729 56.6629C107.634 56.3941 107.204 56.5099 107.299 56.7829C108.936 61.4395 109.163 62.1349 109.262 62.3155C108.73 61.6141 105.986 58.0015 103.472 54.6955C103.78 54.5155 104.16 54.3091 104.474 54.1621ZM75.6852 47.6443C77.7336 42.7945 79.1994 37.1983 81.9852 37.2793C82.8492 37.3993 82.896 38.6809 82.8306 39.5509C82.791 40.0747 82.7454 40.5979 82.6566 41.1157C82.1068 44.2412 80.5886 47.115 78.3168 49.3309C76.6975 50.8799 74.7848 52.0894 72.6912 52.8883C73.8643 51.2462 74.8675 49.4892 75.6852 47.6443ZM70.5 43.1245C71.7816 42.7951 72.6306 43.9939 72.5226 45.2713C72.2274 48.7627 69.6828 51.7285 67.161 54.1711C66.3774 54.9301 65.4066 55.8313 64.3038 55.7803C64.1991 55.7756 64.0973 55.7445 64.0079 55.6898C63.9185 55.6352 63.8444 55.5587 63.7926 55.4677C63.6601 55.1325 63.642 54.763 63.741 54.4165C64.2843 52.0984 65.0995 49.8526 66.1698 47.7259C67.0614 45.7801 68.418 43.6597 70.5 43.1245ZM50.3316 47.3551C50.5313 48.4586 51.1582 49.439 52.0761 50.0833C52.9941 50.7276 54.1291 50.9839 55.2348 50.7967C55.5168 50.7487 55.398 50.3233 55.1148 50.3665C54.6126 50.4463 54.0994 50.4248 53.6057 50.3031C53.1119 50.1814 52.6475 49.9621 52.2399 49.658C51.8322 49.354 51.4896 48.9714 51.2323 48.5328C50.9749 48.0941 50.808 47.6084 50.7414 47.1043C52.4093 46.167 54.2253 45.5221 56.1108 45.1975C55.8457 45.4758 55.6814 45.8349 55.644 46.2175C55.6398 46.5167 55.6981 46.8134 55.815 47.0888C55.932 47.3643 56.1051 47.6123 56.3232 47.8171C57.4362 48.8551 57.8142 48.8371 58.3536 49.5397C58.5258 49.7653 58.9164 49.5397 58.7388 49.3147C57.7242 48.0301 56.8278 48.1417 56.178 46.8043C55.8852 46.0399 56.3436 45.5233 56.904 45.0643C58.022 44.9033 59.1501 44.8215 60.2796 44.8195C59.9442 46.0999 60.5748 47.2921 61.524 48.2047C61.5658 48.2464 61.6224 48.2699 61.6815 48.2699C61.7406 48.2699 61.7972 48.2464 61.839 48.2047C61.8808 48.1629 61.9042 48.1062 61.9042 48.0472C61.9042 47.9881 61.8808 47.9314 61.839 47.8897C60.9672 46.9897 60.3534 46.0003 60.7494 44.8189C62.8048 44.8143 64.8531 45.0601 66.849 45.5509C65.3587 48.0908 64.2151 50.8188 63.4488 53.6623C63.2754 54.1836 63.214 54.7356 63.2688 55.2823C63.2891 55.4447 63.346 55.6004 63.4353 55.7376C63.5246 55.8748 63.6439 55.9899 63.7842 56.0743C64.0739 56.2193 64.4033 56.2646 64.7214 56.2033C65.4813 56.0573 66.1848 55.7002 66.7512 55.1731C68.8944 53.1931 71.1246 50.8417 72.2508 48.1609C72.9216 48.6372 73.5563 49.1625 74.1498 49.7323C73.482 50.9095 72.7272 52.0447 71.9898 53.1271C71.8698 53.3071 72.0678 53.4841 72.2418 53.4547C73.5802 53.1131 74.843 52.5246 75.9654 51.7195C76.7453 52.7084 77.4166 53.7783 77.9676 54.9109C78.0557 55.0334 78.1151 55.1742 78.1415 55.3228C78.1678 55.4714 78.1605 55.6241 78.12 55.7695C77.7498 56.5939 76.2774 56.9695 75.3726 57.0031C74.225 57.0311 73.0766 56.9996 71.9322 56.9089C70.5577 56.8856 69.1829 56.9359 67.8138 57.0595C65.2016 57.1779 62.5937 56.7445 60.1602 55.7875C57.7368 54.8275 55.9254 53.3473 53.8116 51.8077C52.1596 50.569 50.3136 49.613 48.3486 48.9787V48.9607C48.936 48.3404 49.6027 47.8005 50.3316 47.3551ZM46.08 50.6851C46.0338 50.5447 43.3722 43.6927 43.3266 43.5781C42.3732 41.1649 41.8716 39.7603 41.7666 37.5181C41.7401 37.1399 41.7677 36.7598 41.8488 36.3895C41.9508 35.9695 42.2322 35.5753 42.7158 35.6899C43.92 35.9761 44.8368 37.9021 45.2652 39.0667C46.7807 43.0048 47.7906 47.1192 48.2706 51.3115C48.4103 52.0859 48.5104 52.8669 48.5706 53.6515C48.6576 54.6325 48.1122 55.1479 47.769 54.7579C47.4948 54.445 47.2808 54.0841 47.1378 53.6935C46.7316 52.7761 46.38 51.6001 46.08 50.6851ZM38.433 51.6295C37.806 50.5459 37.1934 48.5641 38.0436 47.6737C38.5836 47.1073 39.4044 47.5009 39.9396 47.8615C41.973 49.2301 43.1436 51.5215 44.169 53.7349C44.5344 54.5245 45.945 57.8101 46.0752 58.0609C46.3152 58.5247 46.9242 59.5387 47.1708 60.1651C47.4108 60.7735 47.1138 60.9451 46.5222 60.7291C44.1198 59.8435 39.7278 53.8645 38.433 51.6295ZM43.6488 61.0387C43.0223 61.2698 42.3345 61.2737 41.7054 61.0495C41.3981 60.9785 41.1115 60.8368 40.8685 60.6357C40.6255 60.4346 40.4328 60.1795 40.3056 59.8909C40.2065 59.5786 40.1774 59.2484 40.2202 58.9237C40.263 58.5989 40.3768 58.2875 40.5534 58.0117C40.7168 57.799 40.9224 57.6225 41.1573 57.4932C41.3922 57.364 41.6514 57.2847 41.9184 57.2605C42.2286 57.6271 42.7218 58.1767 43.1934 58.6633C43.1496 58.692 43.1185 58.7365 43.1064 58.7875C43.056 59.0053 43.0128 59.2249 42.9774 59.4265C42.4419 59.2204 41.8807 59.089 41.3094 59.0359C41.0238 59.0101 41.0256 59.4559 41.3094 59.4817C41.8582 59.5311 42.3964 59.6627 42.906 59.8723C42.8754 60.0793 42.8586 60.2263 42.855 60.2665C42.8268 60.5521 43.275 60.5497 43.3002 60.2665C43.3436 59.8374 43.4164 59.4118 43.518 58.9927C44.9778 60.4471 46.878 61.9669 47.6184 60.9079C47.8314 60.6031 47.6598 60.1915 47.5302 59.8879C47.3214 59.4074 47.0842 58.9398 46.8198 58.4875C46.2591 57.4244 45.755 56.3325 45.3096 55.2163C45.6217 54.4618 45.9837 53.729 46.3932 53.0227C46.585 53.5843 46.8291 54.1266 47.1222 54.6427C47.2018 54.8175 47.3246 54.9692 47.479 55.0835C47.6334 55.1978 47.8143 55.271 48.0048 55.2961C48.2013 55.3038 48.3946 55.2454 48.5538 55.13C48.713 55.0147 48.8288 54.8492 48.8826 54.6601C49.1898 53.5891 48.9198 52.6969 48.5226 50.1103C48.6514 49.9554 48.7888 49.808 48.9342 49.6687C53.5272 51.3997 54.591 53.4199 58.3464 55.4389C60.6568 56.6817 63.2192 57.3837 65.8404 57.4921C67.2505 57.5298 68.6617 57.4897 70.0674 57.3721C72.1296 57.2293 74.0424 57.6355 75.807 57.4063C76.6996 59.5578 77.1362 61.8712 77.0892 64.2001C76.7457 65.8287 76.1897 67.4052 75.4356 68.8891C74.0886 71.5777 72.1866 74.2537 69.5088 75.7459C66.7536 77.2819 65.2008 76.4173 59.7798 77.4355C49.3158 76.9069 43.6578 69.6019 43.9842 61.2355C43.9842 61.1962 43.9739 61.1576 43.9543 61.1235C43.9348 61.0894 43.9067 61.061 43.8728 61.0412C43.8389 61.0213 43.8004 61.0106 43.7611 61.0102C43.7218 61.0097 43.6831 61.0195 43.6488 61.0387ZM47.6316 72.6979C50.4429 75.5979 54.2019 77.3923 58.2246 77.7547C57.368 77.8519 56.5758 78.257 55.9956 78.8947C55.884 79.0343 55.8069 79.1983 55.7707 79.3734C55.7345 79.5485 55.7402 79.7296 55.7874 79.9021C55.9147 80.2202 56.1478 80.4846 56.4474 80.6509C57.2159 81.0719 58.0811 81.2847 58.9572 81.2683C60.2586 81.2521 61.89 81.1351 62.8494 82.0237C58.7004 82.8205 54.5694 83.8279 50.166 84.8695C48.8826 83.4393 47.7943 81.8455 46.9296 80.1295C46.5516 79.3969 46.2342 78.6397 45.8994 77.8867C45.1198 76.2956 44.4271 74.6634 43.8246 72.9973C45.0926 72.8797 46.3616 72.7799 47.6316 72.6979ZM43.9254 86.3035C43.8786 86.3167 43.8374 86.3449 43.8079 86.3836C43.7785 86.4223 43.7624 86.4696 43.7622 86.5183C43.7622 86.5183 43.7622 103.895 43.7622 105.857C39.5823 106.761 35.3188 107.224 31.0422 107.237C21.6984 107.272 9.0222 107.549 4.8546 99.3301C2.1504 93.9967 3.1434 87.2731 9.039 82.4839C14.1672 78.3181 21.294 76.3537 27.8322 75.2131C33.2274 74.2723 38.0052 73.5505 43.3392 73.0411C43.8348 74.4517 44.4081 75.8338 45.0564 77.1811C46.1568 79.5001 46.9872 81.9847 49.6464 84.9919C47.7972 85.4287 45.9 85.8697 43.9254 86.3035ZM66.8004 96.5395C60.0402 100.838 51.9144 103.948 44.2074 105.754C44.2074 105.694 44.2236 86.7541 44.22 86.6935C50.4438 85.3309 57.3528 83.5135 63.3282 82.3825C63.361 82.3732 63.3912 82.3566 63.4166 82.3339C63.442 82.3112 63.4618 82.283 63.4747 82.2515C63.4875 82.22 63.493 82.1859 63.4907 82.1519C63.4884 82.118 63.4784 82.085 63.4614 82.0555C63.1727 81.7039 62.8134 81.4169 62.4068 81.2129C62.0003 81.0089 61.5554 80.8924 61.101 80.8711C59.7252 80.7013 58.461 81.0685 56.988 80.4325C56.6778 80.323 56.414 80.1115 56.2398 79.8325C56.1909 79.6667 56.1954 79.4897 56.2525 79.3266C56.3097 79.1635 56.4167 79.0225 56.5584 78.9235C56.938 78.6223 57.3815 78.4121 57.855 78.3091C64.3692 76.8259 66.1638 77.6431 68.7108 76.6123C71.4948 75.4849 73.5666 73.0489 75.057 70.5175C76.1478 68.6653 77.3454 65.9317 77.6058 63.7417C77.6802 63.1207 77.5692 62.1103 78.2862 61.8259C79.0284 61.6243 79.9386 62.2357 79.77 63.7339C79.6913 64.3448 79.5675 64.949 79.3998 65.5417C78.8176 67.9096 78.0022 70.2141 76.9656 72.4213C76.866 72.6331 77.139 72.9013 77.3154 72.6913C78.8149 70.9316 80.4177 69.2626 82.1154 67.6933C82.743 67.1491 84.1824 66.3133 84.705 66.9451C84.9954 67.2979 84.7842 67.9267 84.6912 68.3185C83.9964 71.2435 82.803 73.1185 81.072 75.6595C80.931 75.8677 81.252 76.1203 81.4224 75.9301C82.7826 74.3887 84.849 72.3823 86.6844 71.4457C86.8238 71.347 86.983 71.2799 87.1509 71.2488C87.3189 71.2177 87.4915 71.2235 87.657 71.2657C88.3026 71.6215 87.801 72.8017 87.4488 73.4485C86.2295 76.0328 84.8125 78.5192 83.2104 80.8855C78.8134 87.1236 73.2387 92.4411 66.8004 96.5395ZM96.006 102.567C93.8395 104.908 90.8871 106.369 87.7122 106.671C86.0158 106.809 84.3106 106.549 82.7322 105.912C78.8778 104.288 73.0794 97.8457 70.3428 94.6261C75.7102 90.7347 80.35 85.928 84.0492 80.4265C85.2186 81.6757 86.6106 83.4313 87.6444 84.5923C87.6687 84.616 87.698 84.634 87.7301 84.6448C87.7623 84.6557 87.7966 84.659 87.8302 84.6547C87.8639 84.6503 87.8962 84.6384 87.9246 84.6198C87.953 84.6012 87.9768 84.5764 87.9942 84.5473C88.3582 83.8081 88.709 83.0627 89.0466 82.3111C89.757 83.0221 100.83 94.0945 101.524 94.7881C100.037 97.3867 98.1102 100.424 96.006 102.567ZM101.761 94.3711L89.2482 81.8593C91.9176 75.8361 93.726 69.4673 94.62 62.9401C94.6954 61.6936 95.0265 60.4759 95.5926 59.3629C96.2692 58.2878 97.331 57.5118 98.5608 57.1939C100.133 56.7739 101.997 57.5593 103.368 58.4473C103.914 58.7858 104.386 59.2297 104.759 59.7529C104.924 60.0011 105.009 60.2943 105.002 60.5924C104.994 60.8906 104.895 61.1792 104.718 61.4191C103.458 63.4339 98.8944 62.4457 96.612 61.8847C96.5559 61.8714 96.4968 61.8803 96.4472 61.9096C96.3975 61.9389 96.3611 61.9863 96.3456 62.0418C96.3301 62.0973 96.3367 62.1567 96.364 62.2075C96.3913 62.2583 96.4372 62.2965 96.492 62.3143C98.9094 62.9269 101.498 63.4243 103.946 62.6941C105.785 64.7743 108.759 67.6987 111.15 69.9469C110.1 76.9093 105.589 87.5767 101.761 94.3711ZM114.841 70.9111C114.906 71.0108 114.944 71.1258 114.951 71.2447C114.958 71.3636 114.934 71.4823 114.882 71.5892C114.829 71.6961 114.75 71.7874 114.651 71.8542C114.552 71.921 114.438 71.9609 114.319 71.9701C114.193 71.966 114.07 71.9353 113.957 71.8801C113.844 71.8248 113.743 71.7463 113.663 71.6497C111.16 69.4135 106.507 64.9297 104.337 62.4553C104.763 62.1953 105.091 61.8017 105.27 61.3359C105.449 60.8701 105.468 60.3583 105.326 59.8801C104.982 59.1892 104.453 58.6076 103.798 58.2001C102.589 57.3295 101.179 56.7787 99.7002 56.5987C98.6094 55.2823 96.903 53.2177 95.8218 51.8827C96.7775 50.9746 97.7835 50.1211 98.835 49.3261C99.8112 50.5789 108.184 61.5931 109.116 62.8573C109.134 62.8858 109.158 62.91 109.187 62.9282C109.215 62.9463 109.247 62.9579 109.281 62.9622C109.314 62.9665 109.348 62.9634 109.38 62.953C109.412 62.9427 109.442 62.9253 109.466 62.9023L109.954 62.5231C111.358 65.5231 111.365 65.8063 111.64 66.3229C111.89 66.7129 113.436 68.7937 114.843 70.9135L114.841 70.9111ZM113.348 67.8967C113.32 67.8788 113.291 67.8635 113.26 67.8511C113.065 67.5721 112.883 67.3147 112.732 67.1011C112.996 67.154 113.268 67.1504 113.53 67.0905C113.793 67.0306 114.039 66.9158 114.254 66.7537C114.469 66.5915 114.647 66.3857 114.776 66.1498C114.905 65.9139 114.983 65.6533 115.004 65.3851C115.08 65.7451 115.154 66.1061 115.226 66.4681C115.329 66.9769 115.411 67.5901 114.916 67.9081C114.681 68.0564 114.409 68.1343 114.132 68.1327C113.855 68.1311 113.583 68.05 113.351 67.8991L113.348 67.8967Z" fill="#303030"/>
<path d="M38.7036 34.3836C39.6606 34.9728 39.7554 33.3192 39.8028 32.7636C39.8868 31.9284 39.848 31.0855 39.6876 30.2616C39.5676 29.6982 39.1992 28.9674 38.4978 29.2272C36.726 29.8842 37.1238 33.411 38.7036 34.3836ZM38.3766 29.8032C38.8956 29.373 39.1398 29.7822 39.27 30.4482C39.4604 31.5928 39.4294 32.7634 39.1788 33.8964C39.1218 34.0326 39.0588 34.0806 38.9286 33.999C37.8408 33.3294 37.2648 30.7242 38.3766 29.8032Z" fill="#FAFAFA"/>
<path d="M37.86 45.4477C38.0473 45.5613 38.2605 45.6251 38.4793 45.6329C38.6982 45.6408 38.9155 45.5926 39.1104 45.4927C39.5699 45.2175 39.9469 44.8238 40.2018 44.3527C40.3518 44.1247 39.9882 43.8679 39.8028 44.1487C39.5927 44.5482 39.2749 44.8807 38.8854 45.1087C38.7372 45.1827 38.5694 45.2081 38.406 45.1814C38.2425 45.1547 38.0916 45.0772 37.9746 44.9599C37.8684 44.7639 37.8377 44.5357 37.8882 44.3185C38.022 42.9385 38.4108 42.5035 38.2482 41.8465C38.1849 41.6625 38.084 41.4935 37.952 41.3504C37.82 41.2073 37.6598 41.0932 37.4814 41.0152C37.303 40.9373 37.1103 40.8972 36.9157 40.8976C36.721 40.898 36.5285 40.9387 36.3504 41.0173C35.2704 41.4643 35.0784 42.4849 34.692 43.1971C34.6091 43.3969 34.478 43.573 34.3105 43.7099C34.143 43.8467 33.9443 43.94 33.732 43.9813C33.5657 43.9798 33.4031 43.9323 33.2621 43.8443C33.1211 43.7562 33.0071 43.6309 32.9328 43.4821C32.4216 42.6337 32.862 41.6761 33.0156 40.7893C33.1274 40.3577 33.1009 39.9019 32.94 39.4861C32.8429 39.2905 32.6752 39.139 32.4707 39.0622C32.2663 38.9854 32.0403 38.9889 31.8384 39.0721C30.3384 39.6943 30.42 41.3245 29.046 42.0445C28.8479 42.1459 28.623 42.1823 28.4031 42.1486C28.1831 42.1149 27.9794 42.0128 27.8208 41.8567C26.9892 41.0515 27.3768 39.8503 27.771 38.7865C27.8718 38.5171 27.441 38.4013 27.3408 38.6665C26.9808 39.6223 26.6388 40.6981 27.1368 41.6731C27.2247 41.8711 27.3528 42.0486 27.513 42.1943C27.6733 42.3401 27.8621 42.4508 28.0675 42.5196C28.2729 42.5883 28.4904 42.6135 28.706 42.5936C28.9217 42.5737 29.1309 42.5091 29.3202 42.4039C30.1914 41.9323 30.5724 40.9939 31.104 40.2523C31.344 39.9193 31.7328 39.4597 32.1804 39.4531C32.6742 39.4459 32.652 40.1251 32.6148 40.4611C32.5062 41.4421 32.0016 42.4075 32.394 43.3921C32.7036 44.1685 33.4998 44.7121 34.3098 44.2537C35.055 43.8337 35.2188 42.9835 35.607 42.2899C36.366 40.9363 37.707 41.2009 37.8354 42.0871C37.7988 42.7645 37.6182 42.8989 37.4754 44.0305C37.41 44.5495 37.3608 45.1351 37.86 45.4477Z" fill="#FAFAFA"/>
<path d="M83.7918 49.1186C84.2532 49.0322 84.5424 49.4636 84.7152 49.8188C84.9306 50.261 85.0998 50.8046 85.5798 51.0278C85.7024 51.0822 85.8359 51.1073 85.9698 51.1012C86.1038 51.095 86.2344 51.0578 86.3515 50.9924C86.4686 50.9271 86.5688 50.8354 86.6443 50.7245C86.7198 50.6137 86.7684 50.4869 86.7864 50.354C86.862 49.8314 86.8104 49.7144 86.6556 48.2624C86.6256 47.9804 86.1792 47.9774 86.2098 48.2624C86.3145 48.8804 86.3689 49.5059 86.3724 50.1326C86.3124 50.7236 85.8204 50.9126 85.4322 50.2778C85.2414 49.8075 84.9839 49.367 84.6678 48.9698C84.5139 48.8269 84.3228 48.7304 84.1164 48.6916C83.91 48.6527 83.6968 48.6731 83.5014 48.7502C83.0076 48.9902 83.052 49.5734 83.1414 50.0252C83.3303 50.5493 83.4006 51.1087 83.3472 51.6632C83.2872 51.9068 83.136 52.1756 82.8462 52.1174C82.6125 52.0478 82.408 51.9034 82.2642 51.7064C81.9642 51.3536 81.6558 50.9516 81.153 50.9138C80.8883 50.9207 80.6323 51.0098 80.4204 51.1687C80.2085 51.3276 80.0512 51.5484 79.9704 51.8006C79.8322 52.442 79.9213 53.1114 80.2224 53.6942C80.3256 53.9582 80.757 53.843 80.6526 53.5742C80.363 53.0648 80.2762 52.4649 80.4096 51.8942C80.4381 51.7902 80.4903 51.6941 80.5621 51.6136C80.634 51.5331 80.7235 51.4703 80.8237 51.4303C80.9238 51.3902 81.032 51.3739 81.1395 51.3827C81.247 51.3915 81.3511 51.4251 81.4434 51.4808C81.8412 51.764 82.0434 52.2284 82.4946 52.4588C82.6044 52.5173 82.7256 52.5512 82.8498 52.5581C82.974 52.5651 83.0982 52.5448 83.2138 52.4989C83.3294 52.4529 83.4336 52.3823 83.5191 52.292C83.6046 52.2016 83.6694 52.0938 83.709 51.9758C83.87 51.464 83.8624 50.914 83.6874 50.4068C83.6172 50.1002 83.28 49.2152 83.7918 49.1186Z" fill="#FAFAFA"/>
<path d="M63.24 21.4861C62.9352 21.4579 62.6622 21.1345 62.4864 20.9107C62.2766 20.6376 62.1181 20.3289 62.0184 19.9993C61.9995 19.9426 61.9589 19.8956 61.9055 19.8686C61.8522 19.8417 61.7903 19.8369 61.7334 19.8553C61.6809 19.8732 61.6369 19.9101 61.6102 19.9587C61.5834 20.0073 61.5758 20.0641 61.5888 20.1181C61.8288 20.9239 62.9406 22.6279 63.9072 21.6559C64.0834 21.4535 64.2056 21.2099 64.2627 20.9477C64.3197 20.6855 64.3097 20.4132 64.2336 20.1559C64.0998 19.5187 63.852 19.1095 64.1172 18.4981C64.1576 18.4013 64.2256 18.3186 64.3129 18.2603C64.4001 18.202 64.5025 18.1708 64.6074 18.1705C65.2368 18.2947 65.2524 19.0057 65.7822 19.8703C65.9103 20.0845 66.1117 20.2451 66.3491 20.3224C66.5864 20.3996 66.8438 20.3882 67.0734 20.2903C67.3081 20.144 67.495 19.9324 67.6111 19.6813C67.7271 19.4303 67.7674 19.1509 67.7268 18.8773C67.6518 18.3127 67.6158 18.3133 67.5156 17.7901C67.464 17.5225 67.4262 16.9297 67.6206 16.7857C67.7166 16.7149 67.9386 16.8457 68.0286 16.8985C68.4135 17.1777 68.7285 17.5422 68.949 17.9635C69.0996 18.2071 69.4854 17.9833 69.3336 17.7385C69.0778 17.2489 68.7073 16.8285 68.2536 16.5133C68.151 16.4089 68.0185 16.339 67.8744 16.3133C67.7303 16.2875 67.5818 16.3072 67.4493 16.3695C67.3169 16.4318 67.2071 16.5337 67.1351 16.6612C67.0632 16.7886 67.0326 16.9353 67.0476 17.0809C67.0192 17.5374 67.0741 17.9952 67.2096 18.4321C67.2486 18.612 67.2751 18.7945 67.2888 18.9781C67.335 19.5391 66.9336 20.1181 66.4488 19.8937C66.0138 19.6891 65.8866 19.0873 65.7036 18.6853C65.6277 18.4582 65.4977 18.253 65.3248 18.0875C65.1519 17.9219 64.9413 17.8009 64.7112 17.7349C64.4742 17.7137 64.2373 17.7764 64.0417 17.912C63.8462 18.0477 63.7045 18.2477 63.6414 18.4771C63.5156 19.044 63.5641 19.6357 63.7806 20.1745C63.9954 20.8555 63.66 21.5257 63.24 21.4861Z" fill="#FAFAFA"/>
<path d="M50.8914 42.176L50.2314 40.0544C50.1462 39.7814 49.716 39.8984 49.8012 40.1744C50.0212 40.8812 50.2412 41.5884 50.4612 42.296C50.5464 42.5678 50.9772 42.4514 50.8914 42.176Z" fill="#FAFAFA"/>
<path d="M44.7822 31.9201L45.4422 34.0417C45.5274 34.3147 45.9576 34.1977 45.8718 33.9217L45.2118 31.8001C45.1266 31.5289 44.6964 31.6453 44.7822 31.9201Z" fill="#FAFAFA"/>
<path d="M46.86 29.6473C46.6396 28.9397 46.4196 28.2325 46.2 27.5257C46.1154 27.2527 45.6846 27.3691 45.7704 27.6457L46.4304 29.7673C46.5144 30.0385 46.9446 29.9221 46.86 29.6473Z" fill="#FAFAFA"/>
<path d="M42.4098 27.2401L41.7498 25.1185C41.6652 24.8455 41.2344 24.9619 41.3202 25.2385L41.9802 27.3601C42.0654 27.6313 42.4956 27.5149 42.4098 27.2401Z" fill="#FAFAFA"/>
<path d="M44.5434 20.5909C44.4576 20.3179 44.0274 20.4343 44.1132 20.7109L44.7732 22.8325C44.8584 23.1055 45.2886 22.9885 45.2034 22.7125C44.983 22.0049 44.763 21.2977 44.5434 20.5909Z" fill="#FAFAFA"/>
<path d="M37.44 19.8482C37.3548 19.5752 36.9246 19.6916 37.0098 19.9682C37.2306 20.6758 37.4506 21.3832 37.6698 22.0904C37.755 22.3628 38.1852 22.2464 38.0994 21.9704L37.44 19.8482Z" fill="#FAFAFA"/>
<path d="M40.5372 17.5452L39.8772 15.423C39.7926 15.15 39.3618 15.267 39.4476 15.543L40.1076 17.6646C40.1922 17.9364 40.62 17.82 40.5372 17.5452Z" fill="#FAFAFA"/>
<path d="M45.534 41.1151L44.874 38.9935C44.7888 38.7205 44.3586 38.8369 44.4438 39.1135C44.6646 39.8203 44.8846 40.5275 45.1038 41.2351C45.189 41.5069 45.6198 41.3905 45.534 41.1151Z" fill="#FAFAFA"/>
<path d="M45.54 45.1803C45.4548 44.9073 45.0246 45.0237 45.1098 45.3003C45.3302 46.0079 45.5502 46.7151 45.7698 47.4219C45.855 47.6955 46.2858 47.5785 46.2 47.3019L45.54 45.1803Z" fill="#FAFAFA"/>
<path d="M75 63.4616V59.6155L71.9231 58.4616L69.6154 59.6155L64.2308 60.3847L60 58.4616L53.8462 57.6924L51.9231 60.3847L52.9605 61.0072L57.6923 63.8462L65.7692 63.077L70 63.8462H73.0769L75 63.4616Z" fill="#FAFAFA"/>
<path d="M53.8462 59.6155L51.1538 63.8462M75 59.6155V63.4616L73.0769 63.8462H70L65.7692 63.077L57.6923 63.8462L51.9231 60.3847L53.8462 57.6924L60 58.4616L64.2308 60.3847L69.6154 59.6155L71.9231 58.4616L75 59.6155Z" stroke="#FAFAFA"/>
</svg>
