<svg width="31" height="31" viewBox="0 0 31 31" fill="none" xmlns="http://www.w3.org/2000/svg">
<g clip-path="url(#clip0_959_63)">
<path d="M15.4998 0.221191C7.07529 0.221191 0.221191 7.07463 0.221191 15.4998C0.221191 23.9249 7.07529 30.7783 15.4998 30.7783C23.9242 30.7783 30.7783 23.9249 30.7783 15.4998C30.7783 7.07463 23.9242 0.221191 15.4998 0.221191ZM10.8498 22.1426H8.19262V12.1783H10.8498V22.1426ZM9.52119 10.1855C8.78716 10.1855 8.19262 9.59094 8.19262 8.85691C8.19262 8.12287 8.78716 7.52833 9.52119 7.52833C10.2552 7.52833 10.8498 8.12287 10.8498 8.85691C10.8498 9.59094 10.2552 10.1855 9.52119 10.1855ZM23.4712 22.1426H20.814V18.8212V17.1605C20.814 15.8817 19.7678 14.8355 18.489 14.8355C17.2103 14.8355 16.164 15.8817 16.164 17.1605V22.1426H13.5069V12.1783H16.164V13.3847C16.9399 12.6393 17.9922 12.1783 19.1533 12.1783C21.5381 12.1783 23.4712 14.1114 23.4712 16.4962V22.1426Z" fill="#F1F5F9"/>
</g>
<defs>
<clipPath id="clip0_959_63">
<rect width="31" height="31" fill="white"/>
</clipPath>
</defs>
</svg>
