<svg width="31" height="30" viewBox="0 0 31 30" fill="none" xmlns="http://www.w3.org/2000/svg">
<ellipse cx="15.6154" cy="15" rx="14.8718" ry="15" fill="#0A0430"/>
<path d="M11.8834 9C12.3976 9 12.8727 9.03952 13.3085 9.15806C13.7444 9.23709 14.1019 9.40009 14.4202 9.59767C14.7385 9.79525 14.9736 10.0768 15.1352 10.4374C15.2919 10.798 15.3752 11.2376 15.3752 11.7167C15.3752 12.2748 15.2576 12.754 14.9785 13.1146C14.7385 13.4751 14.3467 13.7962 13.8668 14.0333C14.5426 14.2309 15.0568 14.5914 15.3703 15.0706C15.6837 15.5497 15.8845 16.1474 15.8845 16.829C15.8845 17.3872 15.7669 17.8663 15.5661 18.2664C15.3703 18.6665 15.0519 19.0271 14.6944 19.2642C14.3369 19.5062 13.9011 19.7038 13.4261 19.8223C12.951 19.9409 12.476 20.0199 12.001 20.0199L6.69238 20.0298V9H11.8834ZM11.5651 13.4751C12.001 13.4751 12.3585 13.3566 12.6327 13.1541C12.907 12.9516 13.0294 12.5959 13.0294 12.1563C13.0294 11.9143 12.9902 11.6772 12.9119 11.5191C12.8335 11.3611 12.716 11.2376 12.5544 11.119C12.3976 11.04 12.236 10.961 12.0401 10.9214C11.8443 10.8819 11.6435 10.8819 11.4084 10.8819H9.11161V13.4801C9.11161 13.4751 11.5651 13.4751 11.5651 13.4751ZM11.6827 18.1923C11.9226 18.1923 12.1577 18.1528 12.3585 18.1133C12.5544 18.0738 12.7551 17.9947 12.9119 17.8712C13.0686 17.7477 13.191 17.6292 13.3085 17.4316C13.3869 17.234 13.4652 16.992 13.4652 16.7105C13.4652 16.1523 13.3085 15.7522 12.9902 15.4707C12.6719 15.2286 12.236 15.1101 11.7218 15.1101H9.11161V18.1874H11.6827V18.1923Z" fill="white"/>
<path d="M19.332 18.1531C19.6504 18.4742 20.1254 18.6322 20.7571 18.6322C21.193 18.6322 21.5897 18.5137 21.908 18.3112C22.2263 18.0691 22.4222 17.832 22.5005 17.59H24.4398C24.1215 18.5483 23.6465 19.2299 23.0148 19.6695C22.383 20.0696 21.6288 20.3067 20.718 20.3067C20.0862 20.3067 19.5279 20.1881 19.0137 19.9856C18.4995 19.788 18.1028 19.5065 17.7453 19.1064C17.3878 18.7458 17.1136 18.3062 16.952 17.7876C16.7561 17.2689 16.6729 16.7108 16.6729 16.0687C16.6729 15.471 16.7512 14.9079 16.952 14.3892C17.1528 13.8706 17.427 13.431 17.7845 13.0309C18.142 12.6703 18.5779 12.3493 19.0529 12.1517C19.5671 11.9541 20.0813 11.8306 20.718 11.8306C21.3938 11.8306 21.9863 11.9492 22.5005 12.2307C23.0148 12.5123 23.4114 12.8284 23.7297 13.3075C24.0481 13.7471 24.2831 14.2658 24.4447 14.8239C24.5231 15.3821 24.5623 15.9452 24.5231 16.5824H18.7787C18.7787 17.2344 19.0137 17.832 19.332 18.1531ZM21.8296 13.9546C21.5505 13.673 21.1146 13.515 20.6004 13.515C20.2429 13.515 19.9687 13.594 19.7287 13.7125C19.4888 13.8311 19.332 13.9941 19.1753 14.1521C19.0186 14.3102 18.9354 14.5127 18.8962 14.7103C18.857 14.9079 18.8178 15.0709 18.8178 15.2289H22.383C22.3047 14.6362 22.1039 14.2361 21.8296 13.9546ZM18.3428 9.76099H22.7797V10.8378H18.3428V9.76099Z" fill="white"/>
</svg>
