<svg width="31" height="31" viewBox="0 0 31 31" fill="none" xmlns="http://www.w3.org/2000/svg">
<g clip-path="url(#clip0_810_28)">
<path d="M15.5 0.221436C7.07554 0.221436 0.221436 7.07487 0.221436 15.5C0.221436 23.9251 7.07554 30.7786 15.5 30.7786C23.9245 30.7786 30.7786 23.9251 30.7786 15.5C30.7786 7.07487 23.9245 0.221436 15.5 0.221436ZM10.85 22.1429H8.19286V12.1786H10.85V22.1429ZM9.52144 10.1857C8.7874 10.1857 8.19286 9.59119 8.19286 8.85715C8.19286 8.12311 8.7874 7.52858 9.52144 7.52858C10.2555 7.52858 10.85 8.12311 10.85 8.85715C10.85 9.59119 10.2555 10.1857 9.52144 10.1857ZM23.4714 22.1429H20.8143V18.8214V17.1607C20.8143 15.882 19.768 14.8357 18.4893 14.8357C17.2105 14.8357 16.1643 15.882 16.1643 17.1607V22.1429H13.5071V12.1786H16.1643V13.3849C16.9402 12.6396 17.9924 12.1786 19.1536 12.1786C21.5384 12.1786 23.4714 14.1117 23.4714 16.4964V22.1429Z" fill="#0A0430"/>
</g>
<defs>
<clipPath id="clip0_810_28">
<rect width="31" height="31" fill="white"/>
</clipPath>
</defs>
</svg>
