<svg width="367" height="443" viewBox="0 0 367 443" fill="none" xmlns="http://www.w3.org/2000/svg">
<path d="M107.415 295.171L114.614 316.612L124.027 311.783L114.259 291.516C114.259 291.516 107.88 294.816 107.415 295.171Z" fill="#84D492"/>
<path d="M154.018 234.347C166.103 230.937 177.795 226.267 188.905 220.415L243.881 229.053C243.881 229.053 253.937 234.879 255.155 235.056C258.597 234.776 262.042 235.548 265.034 237.271C269.088 240.084 277.194 240.084 279.299 240.438C282.337 241.421 285.24 242.783 287.937 244.492C290.041 245.732 299.389 248.722 300.984 249.786C302.578 250.849 306.255 252.001 307.141 256.431C308.38 261.875 309.121 267.421 309.356 272.999C309.179 277.052 308.138 287.972 306.543 292.203C304.948 296.433 298.082 318.451 297.683 320.998C297.285 323.545 296.465 340.733 295.468 344.277C294.471 347.821 289.665 366.427 288.823 369.816C287.982 373.205 281.602 390.084 280.539 393.074C279.476 396.064 277.881 401.535 278.324 403.819C278.964 406.287 279.144 408.857 278.856 411.394C278.501 414.229 280.805 428.139 280.096 429.114C279.387 430.089 254.712 431.216 246.096 428.582C237.48 425.945 203.103 429.646 189.17 428.937C175.238 428.228 138.425 427.874 133.153 426.722C127.881 425.57 121.347 425.324 124.515 421.804C127.682 418.281 128.036 413.343 128.214 408.514C128.678 404.149 129.56 399.839 130.849 395.643L119.774 319.78L136.033 286.555L154.018 234.347Z" fill="#BED4FC"/>
<path d="M306.964 212.64C309.733 214.589 309.378 214.168 306.964 214.478C304.55 214.789 303.287 214.877 302.999 216.45C302.762 217.73 302.399 218.985 301.914 220.193C301.8 220.109 301.696 220.012 301.604 219.905C297.174 213.393 300.607 215.076 292.478 214.412C290.861 214.412 295.313 212.906 296.62 209.982C297.107 208.897 294.826 204.843 296.111 205.552C300.009 207.612 298.746 206.859 299.234 207.147C300.696 208.055 305.037 204.489 306.698 204.001C307.208 207.59 303.11 209.805 306.964 212.64Z" fill="#FFEB8D"/>
<path d="M339.746 143.975C340.831 144.374 337.531 145.326 336.18 146.345C333.965 147.984 336.047 149.357 335.87 151.661C334.142 150.93 332.193 147.231 329.624 147.231C324.994 148.781 324.706 149.446 323.887 149.446C324.153 147.785 328.051 144.418 325.836 142.624C324.972 141.959 322.824 138.792 323.909 139.035C328.206 140.032 328.184 140.232 329.003 139.656C333.323 136.688 333.433 132.125 334.231 138.371C334.917 143.975 333.522 141.76 339.746 143.975Z" fill="#FFEB8D"/>
<path d="M334.364 71.0129C334.253 71.1679 334.164 71.3673 334.009 71.4337C328.428 74.3132 328.051 73.9588 328.383 75.8637C329.225 81.1133 329.026 80.2937 328.893 81.2019C322.979 75.8416 325.327 76.5282 324.463 76.3732C322.824 76.1295 319.767 77.968 316.821 78.5882C315.802 78.5882 316.201 78.3667 318.748 74.1582C321.561 69.5731 307.872 64.1464 319.745 67.5132C321.96 68.1555 321.561 67.8454 325.592 62.4187C326.877 60.6688 326.058 68.5764 329.048 68.8422C330.089 68.8422 331.529 70.0826 333.899 70.6142C334.073 70.7229 334.23 70.8574 334.364 71.0129Z" fill="#FFEB8D"/>
<path d="M105.244 167.454C116.496 164.929 105.244 168.473 107.747 172.681C109.807 176.314 110.649 175.982 106.64 175.096C101.988 174.055 104.092 173.745 99.2636 178.64C98.6877 179.238 99.3744 176.801 99.5516 174.498C99.7509 171.751 94.4349 170.865 93.6597 169.425C94.0362 169.425 93.3717 169.425 96.7828 169.093C100.991 168.739 98.9978 166.369 100.836 162.603C102.342 163.91 103.893 167.742 105.244 167.454Z" fill="#FFEB8D"/>
<path d="M127.881 117.661C128.435 118.591 125.666 117.661 121.746 116.199C119.531 115.379 120.04 113.718 114.813 121.028C112.797 123.885 115.743 114.737 112.399 113.497C104.823 110.661 104.823 111.282 113.152 108.269C114.968 107.605 114.104 103.64 115.367 100.229C123.274 107.627 116.607 107.007 128.169 104.349C126.464 108.912 122.92 110.218 124.958 112.588C126.089 114.184 127.068 115.882 127.881 117.661Z" fill="#FFEB8D"/>
<path d="M188.284 247.659C189.325 252.576 190.344 253.152 189.193 252.975C179.159 251.403 169.368 241.479 167.353 233.151C166.976 231.578 166.71 231.733 168.394 231.157C173.333 229.408 175.88 227.525 175.26 228.632C174.02 230.847 174.906 233.705 174.751 234.724C174.175 238.556 176.833 241.789 180.665 243.827C181.174 244.093 180.997 244.049 184.386 244.27C186.601 243.739 186.889 243.517 187.155 244.27C187.65 245.357 188.029 246.492 188.284 247.659Z" fill="#E7BCA5"/>
<path d="M267.227 79.0312C273.296 81.5785 275.002 81.9772 270.904 82.9961C268.334 82.3759 268.024 82.3316 266.474 79.1863C266.319 78.7876 266.806 78.854 267.227 79.0312Z" fill="#D8E9FF"/>
<path d="M279.365 78.0566C279.742 78.0566 279.72 78.3224 279.565 78.5218C278.656 79.74 277.615 81.5342 275.91 80.4488C271.48 77.5915 262.841 76.2846 265.211 72.5856C266.186 71.0794 265.389 72.8071 270.439 74.9778C275.91 77.3257 277.881 78.2338 279.365 78.0566Z" fill="#D8E9FF"/>
<path d="M281.181 73.2722C282.533 73.4051 280.871 75.8195 278.723 75.7752C275.157 74.5348 264.414 70.5921 267.382 68.2442C267.736 67.9784 267.559 67.2253 268.069 67.2696C268.955 67.2696 267.781 68.1999 273.65 70.5478C279.52 72.8957 280.03 73.095 281.181 73.2722Z" fill="#D8E9FF"/>
<path d="M270.084 62.5294C281.824 71.3894 286.475 66.8265 282.931 70.9464C282.267 71.7217 279.697 70.4148 278.723 70.0604C273.983 68.3106 266.075 65.7855 270.084 62.5294Z" fill="#D8E9FF"/>
<path d="M301.139 46.7808C301.825 46.9801 301.316 48.5971 300.696 48.2648C298.348 47.0687 300.319 46.515 301.139 46.7808Z" fill="#FFEB8D"/>
<path d="M277.726 40.7118C276.508 41.7085 275.954 39.7815 276.752 39.56C277.017 39.4935 277.483 40.3352 277.726 40.7118Z" fill="#FFEB8D"/>
<path d="M286.077 22.5931C313.52 22.438 319.435 58.5424 290.905 61.7985C287.184 62.2415 286.475 61.1783 285.324 62.6623C283.241 65.6083 284.593 66.9373 282.887 66.4943C279.405 65.6047 276.086 64.1693 273.052 62.2415C270.239 60.5359 275.267 60.0265 273.806 56.859C272.344 53.6916 272.277 56.1059 269.974 52.429C259.319 35.4401 274.426 21.9507 286.077 22.5931ZM299.765 50.8121C301.161 54.2675 305.502 46.0941 302.158 45.0088C298.813 43.9234 297.927 46.2713 297.395 46.1384C292.256 44.9866 295.446 45.6511 292.478 44.1228C291.105 43.414 290.019 45.0752 288.912 43.5026C287.162 40.9775 288.425 43.5026 280.207 40.2245C279.631 40.003 279.321 39.2056 278.878 38.674C278.435 38.1424 277.748 38.1424 276.929 37.9209C274.536 37.2785 273.163 42.1736 276.929 42.8159C277.327 42.8159 277.615 42.8159 277.482 43.5026C276.641 47.113 281.536 50.1476 280.561 51.8974C279.236 54.4298 278.303 57.1482 277.793 59.96C277.682 60.6245 278.28 60.2701 278.523 60.4695C279.454 61.2669 279.897 57.1027 282.289 52.6062C283.906 49.616 279.21 46.6257 279.321 44.0563C279.454 40.756 280.738 42.6387 283.751 43.5912C285.434 44.1228 286.719 43.5912 287.184 44.6987C287.485 45.2907 287.988 45.7546 288.601 46.0068C289.215 46.2589 289.899 46.2818 290.529 46.072C292.567 45.5404 292.035 47.113 294.427 47.6225C296.819 48.1319 296.797 48.0212 296.797 48.9072C296.797 49.2173 296.797 49.5495 296.421 49.6381C295.282 50.0268 294.196 50.5551 293.187 51.2108C291.924 51.8088 292.478 50.7899 290.374 52.1632C287.206 54.2232 287.738 52.9163 286.409 53.9574C284.194 55.7515 279.343 60.8682 280.894 62.0864C282.444 63.3047 282.621 60.1151 285.767 57.2356C288.912 54.3561 288.425 55.7515 289.488 55.0206C291.703 53.6473 292.013 53.4479 292.345 53.4258C294.25 53.2707 295.712 51.6759 297.152 51.543C299.101 51.3658 298.591 49.6603 299.012 49.7932C299.433 49.9261 299.61 50.4355 299.765 50.8121Z" fill="#FFEB8D"/>
<path d="M109.918 43.0817C110.266 44.2327 110.256 45.4622 109.89 46.6076C109.524 47.7526 108.819 48.7598 107.868 49.4956C106.917 50.2313 105.765 50.6606 104.564 50.7275C103.364 50.794 102.172 50.4943 101.145 49.8685C100.119 49.2422 99.3064 48.3192 98.8158 47.2218C98.3253 46.1239 98.1799 44.9029 98.3986 43.7209C98.6173 42.5384 99.1896 41.4503 100.041 40.6005C100.891 39.7508 101.98 39.1794 103.162 38.9619C104.597 38.7029 106.077 38.9792 107.323 39.7385C108.568 40.4978 109.491 41.6875 109.918 43.0817Z" fill="#BED4FC"/>
<path d="M87.967 62.1529C88.9416 61.0454 90.182 59.9379 90.78 61.422C90.78 61.422 70.6457 83.9264 70.6014 83.9707C68.9623 82.841 68.3199 85.1446 87.967 62.1529Z" fill="#BED4FC"/>
<path d="M101.324 81.7335C101.722 82.686 101.545 82.3316 87.5905 96.1532C86.8817 96.8841 87.214 96.862 86.4387 85.7648C86.4387 84.7238 95.2987 77.7908 98.1561 74.3797C101.013 70.9686 100.26 71.5445 101.324 81.7335Z" fill="#BED4FC"/>
<path d="M77.047 53.1599C78.7525 52.9384 73.9238 56.859 70.402 62.175C69.6046 63.3268 66.5922 67.3581 65.4182 67.5131C65.4182 67.5131 54.3432 67.8454 54.3432 67.7789C54.0331 67.3581 59.9472 61.7098 65.4182 55.4414C66.1049 54.4003 66.1049 54.5775 77.047 53.1599Z" fill="#BED4FC"/>
<path d="M130.894 21.0203C130.676 24.1544 129.989 27.2381 128.856 30.1683C123.518 43.1926 123.983 42.0186 122.521 39.4048C115.743 27.3331 106.351 26.1148 108.123 25.0295C112.615 21.7216 117.664 19.2459 123.03 17.72C131.425 15.505 130.495 17.72 130.894 21.0203Z" fill="#FF9C9F"/>
<path d="M265.278 183.203C263.572 177.377 267.781 162.692 269.043 159.436C270.756 153.566 271.253 147.408 270.505 141.339C269.619 134.406 264.746 122.667 262.177 116.974C259.607 111.282 248.444 100.738 244.9 97.9916C241.356 95.245 224.367 88.1127 218.32 85.4547C212.273 82.7967 201.397 82.1987 201.397 82.1987C199.774 80.1677 197.509 78.7485 194.974 78.173C192.439 77.5975 189.783 77.8999 187.443 79.0312C180.798 81.9772 179.69 89.0652 179.114 89.2202C165.381 89.0652 163.454 100.14 163.454 100.14C158.36 105.301 159.777 108.557 161.904 111.946C164.03 115.335 170.919 115.424 170.919 115.424C170.919 115.424 212.804 106.32 225.585 126.255C238.366 146.19 233.338 178.706 233.338 178.706L233.692 211.001C235.721 212.927 238.257 214.235 241.003 214.773C243.749 215.31 246.591 215.054 249.197 214.035C241.245 207.966 242.773 204.511 242.773 204.511C254.823 211.953 260.139 204.511 260.139 204.511C258.092 204.11 256.173 203.215 254.552 201.902C252.93 200.589 251.654 198.899 250.836 196.98C254.386 198.055 258.052 198.702 261.756 198.907C271.657 199.859 273.872 194.477 273.872 194.477C273.872 194.477 266.961 189.028 265.278 183.203Z" fill="#FFEB8D"/>
<path d="M180.443 199.35C179.824 198.659 179.481 197.764 179.481 196.836C179.481 195.908 179.824 195.013 180.443 194.322C166.821 185.927 169.745 178.994 166.821 180.39C163.686 181.773 160.337 182.612 156.92 182.87C156.034 183.136 159.379 188.851 166.755 191.31C173.001 193.392 160.11 199.35 158.138 199.505C154.926 199.749 168.482 207.878 176.168 202.695C176.349 202.548 176.571 202.462 176.803 202.449C177.035 202.436 177.265 202.496 177.461 202.621C177.658 202.746 177.809 202.929 177.895 203.145C177.981 203.361 177.997 203.599 177.94 203.824C177.317 206.92 176.202 209.896 174.64 212.64C178.472 213.327 182.858 210.802 186.047 208.631C186.889 208.077 186.579 207.102 186.911 206.416C187.044 206.106 184.253 204.046 180.443 199.35Z" fill="#FFEB8D"/>
<path d="M145.557 226.639C149.611 235.056 149.788 234.635 148.791 234.989L103.76 249.852C103.228 249.852 103.959 251.115 93.9476 231.312C93.4381 230.316 90.758 231.667 122.366 221.079C127.859 219.241 133.087 217.402 138.956 215.475C140.463 214.988 139.2 213.482 145.557 226.639ZM139.51 233.838C138.558 232.198 137.805 233.328 136.631 233.372C136.343 233.372 107.658 242.232 105.621 243.207C104.624 243.628 103.716 244.957 104.934 245.267C105.399 245.378 137.805 235.809 139.51 233.838ZM132.555 224.49C133.264 224.136 133.751 222.895 132.245 222.585C131.979 222.585 130.274 223.095 127.815 223.715C119.066 225.93 117.847 227.569 115.588 227.525C112.974 227.525 113.085 228.588 109.187 229.452C100.327 231.423 101.767 232.265 99.3965 232.376C99.1085 232.376 98.6434 233.062 98.5548 233.328C98.3554 234.126 100.77 234.591 101.922 233.948C104.385 232.625 107.074 231.776 109.851 231.445C113.506 230.803 113.373 229.629 115.522 229.74C119.619 229.186 121.17 227.525 124.891 226.595C128.612 225.664 129.72 225.93 132.555 224.49ZM126.73 232.575C127.1 232.6 127.467 232.49 127.764 232.266C128.061 232.043 128.268 231.72 128.347 231.357C128.347 228.81 119.487 232.863 115.3 233.572C111.49 234.214 102.83 236.739 101.567 238.113C100.681 239.087 101.168 239.641 102.365 239.707C106.795 238.201 106.197 238.002 107.791 237.492C117.006 234.901 110.671 237.027 120.439 234.214C124.869 233.018 125.157 232.575 126.73 232.575Z" fill="#FFF6DD"/>
<path d="M110.405 286.422C111.07 287.773 108.633 288.526 107.215 288.792C106.374 288.238 108.234 291.317 87.9449 250.45C74.965 224.623 74.965 225.664 76.294 225.664C83.2048 225.686 72.5064 210.425 110.405 286.422Z" fill="#84D492"/>
<path d="M81.2113 241.767C105.886 291.826 105.421 289.523 104.358 289.899C91.0681 294.462 97.713 303.189 96.3397 306.179C95.6088 305.138 49.8247 211.333 49.5146 210.558C49.869 210.425 48.673 209.827 68.0764 221.411C74.3005 225.133 70.6901 220.392 81.2113 241.767Z" fill="#84D492"/>
<path d="M149.389 217.225C141.836 201.565 142.345 202.495 141.725 202.717C135.08 205.087 100.305 216.627 94.4349 218.554C79.971 223.338 80.8791 222.408 81.7651 224.136C115.655 290.386 110.56 286.643 114.436 285.602C118.977 285.491 115.943 293.044 116.098 293.443C116.253 293.842 117.36 296.611 117.98 296.389C119.318 295.807 120.686 295.297 122.078 294.861C125.209 294.398 128.259 293.495 131.137 292.181C137.339 289.013 137.428 298.958 129.587 302.79C127.466 304.08 125.188 305.092 122.809 305.803C122.41 305.803 122.322 306.113 122.499 306.467C124.094 309.834 123.695 309.568 124.714 309.568C136.675 309.568 135.257 307.641 143.541 305.891C145.978 305.36 146.997 308.35 146.044 310.321C145.823 310.764 146.199 310.72 146.665 310.587C146.665 310.587 186.535 298.781 188.262 298.228C189.99 297.674 189.17 299.667 149.389 217.225ZM150.275 236.739C149.921 236.872 108.722 250.539 103.76 252.001C101.922 251.801 102.276 252.798 92.0206 231.467C90.6473 228.632 88.831 229.961 139.311 213.172C141.304 212.507 141.216 213.172 143.984 218.842C151.471 234.214 153.11 235.765 150.275 236.739Z" fill="#84D492"/>
<path d="M269.708 346.515C271.923 349.815 272.432 344.632 254.026 370.614C252.031 373.314 249.871 375.888 247.558 378.322C244.435 381.933 241.932 385.964 236.992 389.751C225.43 398.611 216.769 396.396 206.691 384.59C205.166 381.996 204.08 379.167 203.479 376.218C202.04 370.392 199.47 368.775 197.676 362.175C192.98 344.92 198.097 261.547 198.562 261.126C200.467 259.377 197.499 260.24 193.224 254.659C189.746 250.229 191.363 245.488 184.364 234.103C184.224 233.795 184.016 233.523 183.755 233.308C183.494 233.093 183.187 232.941 182.858 232.863C181.507 232.641 182.614 234.391 183.234 235.765C184.165 237.78 182.26 236.496 181.905 236.473C180.997 236.363 180.377 237.404 183.478 239.22C183.854 239.442 184.873 239.464 185.139 239.818C185.399 240.313 185.586 240.843 185.693 241.391C185.693 241.701 185.693 241.789 185.405 241.812C182.968 242.1 181.905 242.609 179.89 240.903C178.738 239.929 176.678 237.714 176.722 236.208C176.833 231.778 176.08 229.563 179.89 227.348C181.374 226.528 181.639 225.133 181.728 223.494C181.883 220.481 184.918 222.12 186.158 218.2C187.93 212.618 196.037 217.535 194.863 214.412C191.275 204.998 180.022 198.907 181.573 196.205C183.035 193.835 188.373 198.243 189.746 199.837C194.043 204.688 201.929 211.289 202.638 215.896C203.081 218.665 205.008 219.617 206.935 226.085C210.412 237.692 214.355 242.631 214.82 255.456C215.551 275.391 236.128 351.897 236.151 351.964C236.726 353.16 238.1 352.65 238.033 351.41C237.236 336.547 228.952 320.156 230.99 320.045C234.349 319.813 237.711 320.47 240.736 321.95C242.773 323.479 255.355 334.664 256.462 335.705C261.291 340.003 266.407 341.464 269.708 346.515Z" fill="#E7BCA5"/>
<path d="M244.634 158.616C253.981 150.709 265.034 157.132 255.709 172.061C253.848 175.007 251.988 177.554 243.859 180.921C233.293 185.351 232.031 158.306 231.831 207.501C231.831 221.456 233.337 225.642 252.94 235.144C253.715 235.521 246.915 240.593 246.871 240.615C235.065 249.077 241.998 245.045 228.93 250.295C226.715 251.137 217.567 254.924 217.412 253.529C215.64 238.711 212.096 235.322 209.659 226.639C207.444 218.975 204.963 217.026 204.742 214.456C204.432 210.691 195.882 203.381 194.841 202.052C194.464 201.609 194.508 201.432 195.062 201.233C220.025 193.104 216.238 186.924 213.713 188.408C208.574 191.398 185.56 199.638 174.839 187.345C163.078 173.833 162.812 149.845 167.685 151.351C169.699 151.796 171.796 151.681 173.749 151.017C175.702 150.353 177.435 149.166 178.76 147.585C180.045 146.301 178.76 151.196 184.962 152.326C186.247 152.569 186.734 150.997 185.959 150.62C184.076 149.668 182.304 149.225 181.285 146.057C180.488 143.598 188.151 145.57 187.93 139.811C187.93 138.282 186.446 138.238 186.114 139.611C185.516 141.981 186.114 141.627 182.57 142.292C182.26 142.292 182.171 142.292 182.282 141.915C184.231 135.779 183.611 134.03 185.604 132.546C186.468 132.041 187.451 131.777 188.451 131.783C189.451 131.788 190.431 132.062 191.289 132.576C192.147 133.09 192.851 133.825 193.328 134.704C193.805 135.583 194.037 136.574 193.999 137.574C194.287 144.817 201.309 155.427 209.504 155.116C221.111 154.651 224.455 142.69 226.56 141.383C227.955 140.497 229.417 141.051 235.309 144.662C237.037 145.703 232.008 156.202 240.204 159.79C241.068 160.167 239.185 161.318 241.289 162.005C241.533 162.271 242.729 160.211 244.634 158.616ZM255.244 165.571C255.551 164.952 255.678 164.26 255.611 163.572C255.545 162.885 255.287 162.23 254.868 161.681C254.448 161.133 253.884 160.712 253.237 160.468C252.591 160.224 251.89 160.165 251.213 160.3C247.624 161.075 243.704 165.638 245.609 169.337C246.251 170.599 245.609 173.213 244.28 173.523C241.644 174.099 241.467 172.859 240.824 174.055C240.182 175.251 241.599 176.27 243.039 176.27C247.602 176.27 249.13 171.042 247.669 168.229C247.481 167.922 247.37 167.574 247.348 167.216C247.324 166.857 247.389 166.498 247.536 166.169C248.466 163.954 253.095 159.768 253.538 165.704C253.649 166.324 254.779 166.546 255.244 165.571ZM185.338 168.074C185.338 167.277 184.851 164.951 182.991 164.907C180.776 164.907 180.443 168.207 182.038 169.824C182.991 170.821 184.807 171.042 185.338 168.074Z" fill="#E7BCA5"/>
<path d="M149.544 333.158C156.012 337.588 155.015 333.357 151.892 354.356C150.379 363.415 148.255 372.362 145.535 381.135C144.915 382.951 145.845 375.93 145.535 368.487C145.225 358.387 134.814 341.509 133.707 341.907C131.492 342.638 135.922 345.23 141.326 360.203C145.025 370.702 143.076 385.144 140.485 388.998C137.118 393.96 134.194 396.064 125.711 394.779C121.905 394.206 118.355 392.517 115.509 389.927C112.662 387.337 110.647 383.961 109.718 380.227C108.522 375.31 106.573 369.639 107.503 363.681C111.933 331.785 109.275 346.559 114.813 354.178H115.81C115.499 351.764 115.278 351.963 112.31 342.217C111.38 339.116 111.357 338.674 110.383 338.053C106.196 335.44 106.972 335.019 106.152 330.589C105.643 327.909 102.342 328.617 102.763 324.852C102.878 323.79 102.721 322.716 102.306 321.732C101.892 320.748 101.233 319.885 100.393 319.226C98.8648 317.786 99.2192 313.533 101.877 310.764C106.617 305.847 107.149 303.654 111.756 300.243C112.487 299.689 112.664 299.889 119.486 298.294C120.97 297.94 120.062 297.585 123.185 297.031C131.536 295.525 133.64 292.601 133.552 294.462C133.36 295.96 132.755 297.376 131.805 298.55C130.854 299.723 129.595 300.609 128.169 301.107C126.373 302.153 124.473 303.006 122.499 303.654C109.209 306.667 109.918 315.571 112.088 313.024C114.924 309.701 114.503 309.015 115.566 310.964C116.363 312.426 115.965 311.761 113.351 314.109C111.136 316.103 103.738 322.083 107.326 321.552C107.836 321.552 108.123 321.219 112.819 317.277C116.164 314.441 117.515 311.894 128.324 311.783C134.548 311.783 139.399 308.926 143.63 308.106C145.247 307.774 144.826 312.957 133.485 316.014C131.01 317.006 128.443 317.747 125.821 318.229C123.748 318.333 121.748 319.032 120.062 320.245C118.512 321.707 117.36 322.46 118.157 323.279C118.445 323.589 118.711 323.833 119.132 323.39C121.812 320.599 124.581 320.732 130.207 319.602C131.89 319.27 131.536 318.428 134.216 318.163C136.958 317.691 139.672 317.07 142.345 316.302C144.56 316.302 142.855 320.998 131.27 325.472C125.666 327.687 123.03 328.285 121.059 331.231C120.527 332.029 120.084 333.225 121.059 333.668C122.676 334.399 121.701 331.01 127.483 328.905C128.479 328.551 128.723 328.462 129.077 332.892C129.83 342.505 126.286 346.714 125.999 350.612C125.999 351.144 126.619 351.831 127.283 351.011C128.289 348.843 129.184 346.625 129.963 344.366C134.925 329.526 123.318 324.697 138.823 329.459C145.845 331.63 146.82 331.298 149.544 333.158Z" fill="#E7BCA5"/>
<path d="M113.683 288.171C116.696 287.485 114.193 293.997 108.677 297.031C104.247 299.534 103.804 299.778 103.184 300.531C102.564 301.284 103.184 302.237 103.76 302.037C107.393 300.974 113.417 294.484 101.058 308.682C98.1339 312.049 98.5769 312.293 98.1782 309.325C98.2048 308.197 98.3083 307.072 98.4883 305.958C99.0421 303.322 96.1404 297.098 99.2414 295.127C103.254 292.686 107.517 290.681 111.956 289.146C112.489 288.751 113.069 288.424 113.683 288.171Z" fill="#E7BCA5"/>
<path d="M168.704 124.04C168.704 123.73 170.476 115.18 172.647 112.057C174.817 108.934 182.26 100.982 182.26 100.982C182.26 100.982 187.797 103.861 188.307 98.7669C188.307 98.7669 190.389 100.738 192.737 97.0835C195.085 93.4288 201.22 93.8053 203.435 94.7799C205.65 95.7545 211.741 96.862 215.108 102.51C218.475 108.159 230.015 127.85 232.075 130.685C234.135 133.52 240.669 141.76 235.818 143.156L226.958 138.105C226.958 138.105 223.879 129.09 216.149 127.806C208.419 126.521 199.227 125.746 195.461 132.236C195.461 132.236 188.041 127.806 182.88 132.524C182.88 132.524 181.706 125.591 175.26 124.505C168.815 123.42 168.704 124.04 168.704 124.04Z" fill="#E7BCA5"/>
<path d="M20.3652 166.524L19.3241 160.255L24.3079 164.464L30.7314 161.451L28.5607 168.606L33.1236 175.251L25.504 173.944L22.4916 180.678L20.5645 172.593L13.9417 169.448L20.3652 166.524Z" fill="#FFEB8D"/>
<path d="M339.392 164.641C329.048 172.881 327.94 188.674 322.735 184.886C316.777 180.456 312.967 175.827 312.79 169.182C312.79 167.343 311.793 165.549 310.021 166.214C308.581 166.841 307.101 167.374 305.591 167.808C300.518 169.137 300.718 164.53 298.37 166.679C297.423 167.332 296.541 168.074 295.734 168.894C295.003 169.558 295.357 169.182 293.674 167.919C291.991 166.657 289.554 168.384 289.886 169.359C290.048 169.596 290.284 169.771 290.558 169.855C290.832 169.94 291.126 169.929 291.393 169.824C292.699 169.248 292.899 170.489 294.228 171.552C296.443 173.346 298.193 167.498 300.098 168.849C303.265 171.064 304.705 170.311 309.533 168.672C312.524 167.675 306.787 174.298 318.77 184.465C325.415 190.158 326.545 188.364 331.75 177.953C333.655 174.143 337.398 167.941 340.787 165.859C342.183 164.995 343.822 164.552 347.233 166.967C355.229 172.637 351.663 174.077 350.622 176.535C350.445 176.978 351.397 177.776 351.818 177.2C354.454 173.59 353.723 174.719 354.276 172.969C353.324 167.476 344.353 160.698 339.392 164.641Z" fill="black"/>
<path d="M336.069 136.4C335.892 135.292 335.538 134.185 335.316 133.099C335.29 132.837 335.185 132.589 335.015 132.387C334.845 132.185 334.618 132.04 334.364 131.97C333.5 131.704 333.389 132.191 330.421 135.713C327.785 138.836 329.358 138.305 322.89 136.71C322.533 136.773 322.194 136.915 321.899 137.126C321.604 137.337 321.36 137.611 321.184 137.928C320.741 138.57 320.786 138.814 322.757 142.004C324.44 144.728 324.972 144.064 324.175 145.238C319.988 151.506 318.105 153.566 325.814 150.753C330.244 149.158 330.066 148.914 330.709 149.557C333.699 152.547 337.819 157.597 338.063 153.367C338.168 151.707 337.911 150.044 337.31 148.494C336.999 146.899 343.091 146.079 343.445 143.798C343.475 143.699 343.484 143.595 343.472 143.492C343.46 143.389 343.427 143.29 343.375 143.201C343.323 143.112 343.253 143.034 343.17 142.973C343.087 142.911 342.992 142.868 342.891 142.845C334.452 139.855 337.066 142.779 336.069 136.4ZM336.18 146.301C333.965 147.94 336.047 149.313 335.87 151.617C334.142 150.886 332.193 147.187 329.623 147.187C324.994 148.737 324.706 149.402 323.887 149.402C324.152 147.741 328.051 144.374 325.836 142.58C324.972 141.915 322.823 138.748 323.909 138.991C328.206 139.988 328.184 140.187 329.003 139.611C333.323 136.643 333.433 132.08 334.231 138.327C334.917 143.953 333.522 141.649 339.746 143.909C340.765 144.329 337.575 145.282 336.18 146.301Z" fill="black"/>
<path d="M308.426 100.384C308.603 109.244 314.163 113.674 304.86 112.478C290.595 110.617 287.738 107.184 289.089 117.55C289.266 118.945 289.333 118.502 282.444 121.293C278.989 122.711 280.561 124.461 282.444 123.73C288.735 121.16 291.503 120.784 291.304 118.037C290.861 113.186 290.241 112.323 292.079 112.633C304.505 114.626 306.61 115.091 308.847 114.848C317.574 113.917 306.455 100.029 312.413 97.1277C316.599 95.0456 317.995 98.3681 338.085 106.364C339.192 106.807 340.3 107.25 340.654 106.209C341.009 105.168 339.99 105.102 339.436 104.88C319.501 96.7069 321.539 96.3082 317.286 94.9127C316.35 94.4749 315.32 94.2768 314.289 94.3364C313.257 94.396 312.257 94.7114 311.378 95.2542C310.499 95.7971 309.769 96.5502 309.253 97.4459C308.738 98.3411 308.454 99.3508 308.426 100.384Z" fill="black"/>
<path d="M317.02 73.25C315.359 75.9745 311.505 81.9107 315.071 81.0247C316.4 80.7146 318.947 80.2273 319.501 80.0058C322.89 78.854 323.001 78.3888 323.466 78.8761C327.896 83.3061 331.063 88.157 330.842 80.0501C330.709 76.2403 329.867 75.6201 330.953 75.1992C332.392 74.579 335.25 72.9842 336.047 72.7849C338.772 71.9653 338.904 70.1933 337.731 69.6617C336.557 69.1301 333.301 68.5099 331.285 67.6461C328.073 66.2063 329.446 68.1777 327.386 60.0265C327.338 59.784 327.214 59.5629 327.032 59.395C326.851 59.2271 326.621 59.1207 326.375 59.0914C326.13 59.062 325.881 59.1107 325.665 59.2307C325.449 59.3511 325.276 59.5364 325.171 59.7607C324.906 60.1151 323.975 61.4441 321.14 65.6083C320.476 66.605 314.119 63.2604 313.078 64.5008C310.464 67.5353 317.884 71.8324 317.02 73.25ZM319.678 67.6239C321.893 68.2663 321.495 67.9562 325.526 62.5294C326.811 60.7796 325.991 68.6871 328.981 68.9529C330 68.9529 331.462 70.1933 333.832 70.7249C334.023 70.7938 334.202 70.8909 334.364 71.0129C334.253 71.1679 334.164 71.3673 334.009 71.4337C328.427 74.3132 328.051 73.9588 328.383 75.8637C329.225 81.1133 329.026 80.2937 328.893 81.2019C322.979 75.8416 325.327 76.5282 324.463 76.3732C322.824 76.1295 319.767 77.968 316.821 78.5882C315.802 78.5882 316.201 78.3667 318.748 74.1582C321.495 69.6174 307.806 64.235 319.678 67.6239Z" fill="black"/>
<path d="M264.658 78.3224C264.559 79.1875 264.642 80.0634 264.901 80.8942C265.161 81.7255 265.591 82.4927 266.165 83.1479C266.738 83.8027 267.442 84.3303 268.232 84.6972C269.021 85.0641 269.879 85.2618 270.749 85.2775C273.983 85.5655 275.29 82.7967 276.508 83.0625C279.232 83.5941 281.403 80.5817 281.492 78.4332C281.492 77.3035 282.333 76.5504 282.776 75.4651C283.219 74.3797 282.644 73.6931 283.219 73.5159C284.067 72.9331 284.75 72.1418 285.204 71.2187C285.658 70.2957 285.867 69.2715 285.811 68.2442C285.811 67.9562 286.564 66.9373 285.811 66.0292C285.656 65.8298 286.409 64.6337 286.586 64.4565C286.763 64.2793 307.85 65.9627 311.549 47.3789C316.954 20.2231 273.341 9.23668 265.211 35.3294C260.781 49.3724 272.299 56.8148 271.613 58.2545C269.819 61.9536 268.667 60.4695 268.002 62.0865C266.23 66.1842 268.002 65.6748 267.05 66.1842C263.86 67.8233 265.632 69.839 264.525 70.6142C263.661 71.2493 263.074 72.1933 262.889 73.2497C262.703 74.306 262.932 75.393 263.528 76.2846C264.392 77.3035 264.835 77.525 264.658 78.3224ZM270.904 82.9961C268.335 82.3759 268.025 82.3316 266.474 79.1863C266.275 78.7876 266.762 78.854 267.183 79.0312C273.296 81.5563 275.002 81.955 270.904 82.9961ZM269.885 52.4291C259.231 35.5287 274.315 21.9508 285.988 22.5931C313.432 22.4381 319.346 58.5425 290.817 61.7985C287.096 62.2415 286.387 61.1783 285.235 62.6624C283.153 65.6083 284.504 66.9373 282.799 66.4943C279.317 65.6047 275.997 64.1694 272.964 62.2415C270.151 60.536 275.179 60.0265 273.717 56.8591C272.255 53.6916 272.277 56.106 269.885 52.4291ZM269.996 62.5295C281.735 71.3895 286.387 66.8266 282.843 70.9465C282.178 71.7217 279.609 70.4149 278.634 70.0605C273.983 68.3106 266.075 65.7855 270.084 62.5295H269.996ZM267.294 68.2442C267.648 67.9784 267.471 67.2253 267.98 67.2696C268.866 67.2696 267.692 68.1999 273.562 70.5478C279.432 72.8957 279.941 73.1615 281.093 73.2722C282.245 73.383 280.96 75.8195 278.745 75.7752C275.157 74.5348 264.436 70.5921 267.382 68.2442H267.294ZM265.079 72.6742C266.053 71.168 265.256 72.8957 270.306 75.0664C275.777 77.4364 277.748 78.3224 279.166 78.1452C279.543 78.1452 279.52 78.411 279.365 78.6104C278.457 79.8286 277.416 81.6228 275.711 80.5374C271.391 77.525 262.841 76.2846 265.211 72.5856L265.079 72.6742Z" fill="black"/>
<path d="M308.448 211.222C306.721 210.115 307.385 209.982 307.762 208.343C309.29 201.698 309.223 202.163 309.135 201.698C309.124 201.51 309.062 201.329 308.954 201.175C308.847 201.021 308.7 200.899 308.528 200.824C308.356 200.748 308.167 200.722 307.981 200.747C307.795 200.772 307.619 200.848 307.474 200.967C305.259 202.717 302.734 203.758 300.474 205.397C299.433 206.106 295.933 202.562 295.136 202.872C293.962 203.359 293.098 203.935 293.475 205.375C295.047 211.067 294.56 210.469 293.741 211.001C291.326 212.551 289.311 213.216 289.466 215.187C289.466 216.782 294.294 216.671 296.111 216.693C297.927 216.716 297.55 217.491 298.171 218.51C300.939 223.073 302.601 225.708 303.974 220.525C305.17 216.228 303.686 216.693 311.04 216.45C314.185 216.206 311.815 213.371 308.448 211.222ZM306.876 214.434C304.284 214.766 303.199 214.833 302.911 216.405C302.674 217.686 302.31 218.94 301.825 220.149C301.711 220.065 301.608 219.968 301.515 219.861C297.085 213.349 300.519 215.032 292.389 214.368C290.773 214.368 295.225 212.861 296.532 209.938C297.019 208.852 294.737 204.799 296.022 205.508C299.92 207.568 298.658 206.815 299.145 207.102C300.607 208.011 304.949 204.444 306.61 203.957C307.208 207.612 302.999 209.827 306.964 212.618C309.755 214.545 309.379 214.124 306.876 214.434Z" fill="black"/>
<path d="M283.751 241.191C277.46 237.869 272.388 240.35 264.636 235.964C262.409 234.404 259.702 233.682 256.994 233.926C255.111 234.413 238.764 227.281 235.243 219.529C234.497 217.507 234.108 215.371 234.091 213.216C233.936 211.532 242.22 218.753 250.238 214.811C250.446 214.738 250.628 214.607 250.764 214.434C250.9 214.261 250.983 214.052 251.004 213.834C251.025 213.615 250.983 213.394 250.882 213.198C250.782 213.002 250.628 212.839 250.437 212.729C247.533 211.51 245.085 209.411 243.438 206.726C243.172 206.283 242.862 205.397 243.881 206.084C252.896 212.219 264.724 205.663 261.114 203.869C257.903 203.055 255.053 201.201 253.007 198.597C252.564 198.043 253.007 198.132 253.273 198.287C259.918 201.255 269.265 200.834 274.537 195.762C277.283 193.104 268.468 191.974 266.54 181.608C264.613 171.242 270.97 164.442 272.078 146.744C272.654 137.529 265.787 120.452 261.446 114.072C249.64 96.7512 232.651 88.2899 211.453 82.2651C206.435 81.1101 201.205 81.255 196.259 82.6859C195.373 83.0403 195.572 84.5022 196.635 84.3472C204.285 82.6581 212.283 83.6432 219.295 87.1381C227.933 91.2137 245.011 95.0678 257.968 113.297C286.409 153.167 251.323 173.102 268.888 191.31C272.587 195.141 273.119 194.521 271.369 195.562C268.232 197.317 264.665 198.156 261.074 197.984C257.483 197.812 254.012 196.635 251.058 194.588C249.684 193.702 248.267 194.588 248.998 196.249C252.077 203.691 259.563 204.666 257.636 205.33C247.447 208.764 243.327 202.517 241.888 201.72C238.831 200.081 238.277 206.726 246.694 213.127C248.444 214.456 233.736 213.327 233.869 208.52C235.087 168.03 231.189 185.794 242.951 184.155C252.719 182.76 263.993 168.916 261.291 159.148C259.475 152.658 253.472 153.411 251.966 152.326C237.369 141.849 229.616 138.615 225.386 131.97C220.38 124.129 201.707 121.426 195.129 130.663C194.885 131.017 194.686 131.106 194.354 130.663C193.745 129.933 192.994 129.336 192.145 128.908C191.297 128.48 190.37 128.23 189.422 128.174C188.473 128.118 187.523 128.257 186.631 128.582C185.738 128.907 184.921 129.412 184.231 130.065C183.943 130.375 183.81 130.375 183.699 129.932C182.548 125.192 176.102 122.955 170.808 122.667C169.989 122.667 169.834 122.955 171.96 117.439C172.359 116.42 174.662 116.199 178.073 118.635C181.152 120.54 179.004 113.408 174.109 113.519C171.894 113.519 180.576 104.016 181.927 102.444C182.636 101.646 182.836 103.02 184.585 103.175C185.316 103.175 185.782 102.023 184.896 101.336C173.533 92.4762 185.582 74.2689 196.303 80.1387C198.518 81.4012 199.603 79.0533 197.455 77.9237C189.879 74.2246 181.307 79.2748 178.915 87.5589C178.605 88.5778 178.539 87.4039 173.378 88.6C171.066 89.1457 168.94 90.2943 167.217 91.9281C165.493 93.5624 164.233 95.6239 163.565 97.903C163.265 98.9489 162.683 99.8916 161.882 100.627C156.787 106.121 159.224 113.12 165.027 114.87C165.448 115.003 167.109 115.202 167.242 114.427C167.596 113.142 166.555 113.12 165.736 112.876C157.983 110.551 162.524 100.118 163.388 103.817C164.252 107.516 169.258 112.168 170.343 110.263C171.428 108.358 162.458 106.054 165.78 97.7479C168.394 91.1029 178.295 88.8879 178.273 91.4795C178.14 99.675 181.772 100.339 180.886 101.27C176.456 105.899 174.241 107.538 171.517 113.297C171.32 113.794 170.95 114.203 170.476 114.449C167.131 116 165.891 121.094 167.176 120.341C169.922 118.502 169.036 118.613 168.35 122.046C168.017 123.663 165.802 122.179 160.22 125.192C150.275 130.685 155.104 143.731 163.565 149.512C166.777 151.727 157.23 154.806 166.71 177.554C166.755 177.628 166.781 177.711 166.786 177.796C166.792 177.882 166.776 177.967 166.741 178.046C166.707 178.124 166.653 178.193 166.586 178.246C166.519 178.299 166.44 178.336 166.356 178.352C162.872 179.92 159.101 180.75 155.281 180.788C153.952 180.655 153.996 182.117 154.395 183.18C157.695 192.04 166.843 192.86 165.116 193.879C158.138 198.043 158.293 197.268 156.433 197.711C156.09 197.745 155.774 197.913 155.554 198.178C155.334 198.443 155.228 198.785 155.259 199.128C155.104 200.923 156.499 201.942 158.448 203.337C166.777 209.273 174.972 205.552 175.393 205.951C174.738 208.184 173.679 210.278 172.27 212.131C169.213 216.007 177.918 216.561 185.161 211.998C185.292 211.965 185.429 211.965 185.56 211.998C185.312 213.607 184.956 215.198 184.497 216.76C183.434 220.282 180.754 218.975 179.735 222.63C178.826 226.019 161.638 230.759 159.401 232.176C158.67 232.619 159.202 232.952 152.512 219.285C143.032 199.992 143.652 200.014 141.216 200.834C135.545 202.65 137.517 203.603 133.973 196.404C132.156 192.705 90.7138 203.514 77.9997 218.643C75.3195 221.965 76.9365 222.785 77.8446 221.965C78.3541 221.522 81.8981 214.523 101.833 205.906C111.29 201.808 121.272 199.05 131.492 197.711C132.644 197.578 132.179 197.246 134.46 202.296C135.036 203.581 79.6609 220.658 78.2876 222.408C76.9143 224.158 73.8576 223.604 74.7879 222.895C74.9937 222.756 75.1379 222.542 75.1914 222.299C75.245 222.056 75.2035 221.802 75.0759 221.589C70.6459 211.333 65.5957 210.514 66.2159 208.299C66.2159 207.878 64.2667 203.293 64.6211 202.628C64.9755 201.964 75.4303 211.267 75.0759 217.402C75.0759 218.953 77.5567 219.617 77.158 216.782C76.0283 208.476 64.9755 197.179 62.0517 200.768C61.5422 201.366 63.6908 205.729 63.7351 207.036C62.3175 206.615 54.5428 200.391 52.0842 203.47C51.5304 204.134 51.7962 204.223 55.2516 210.602C56.1155 212.219 53.6347 210.403 51.176 208.941C43.8001 204.511 46.746 208.786 50.6666 217.092C94.3242 306.999 97.8018 312.337 97.3588 314.818C97.1336 316.143 97.2541 317.503 97.7079 318.768C98.1618 320.033 98.9342 321.159 99.9503 322.039C100.294 322.393 100.541 322.83 100.669 323.306C100.797 323.783 100.801 324.284 100.681 324.763C100.438 330.234 104.358 329.348 104.314 332.405C104.337 334.482 105.126 336.477 106.529 338.009C109.896 340.468 108.456 335.661 105.466 363.127C104.624 370.813 107.016 377.082 108.323 381.844C111.092 391.767 121.613 397.216 128.923 397.349C129.676 397.349 129.986 397.083 128.923 400.383C125.534 410.995 129.831 413.186 124.736 419.698C123.835 421.007 123.314 422.541 123.23 424.128C123.258 424.342 123.359 424.535 123.514 424.684C123.67 424.829 123.871 424.918 124.084 424.934C124.297 424.95 124.509 424.889 124.684 424.769C124.859 424.644 124.987 424.466 125.046 424.261C126.109 420.298 129.476 418.571 129.609 413.033C129.609 412.058 129.742 405.945 129.964 405.015C131.935 396.485 131.514 397.371 132.644 397.194C139.842 396.042 141.371 392.011 145.424 386.517C148.259 382.663 154.284 356.969 156.167 338.873C156.167 338.164 156.167 337.433 156.809 336.946C157.452 336.458 160.641 316.679 160.575 314.796C160.575 314.065 159.29 313.777 159.024 314.441C158.293 316.191 157.186 327.045 155.79 334.243C155.635 335.129 155.281 334.576 151.959 332.228C147.529 329.083 146.886 329.836 141.371 328.263C132.511 325.671 134.726 326.978 139.665 323.833C146.31 319.536 145.867 315.527 145.114 314.574C144.361 313.622 141.969 314.176 145.114 313.267C174.419 304.784 185.649 301.594 189.658 299.977C192.427 298.914 191.873 298.604 191.208 297.895C191.208 297.895 187 289.345 160.198 234.79C159.8 233.948 159.556 234.258 164.872 232.575C165.226 232.575 165.337 232.575 165.404 232.952C166.725 238.744 169.822 243.979 174.264 247.925C186.158 257.915 190.522 254.437 191.43 255.965C198.983 268.835 195.129 238.666 193.645 331.585C193.645 366.915 196.768 364.81 200.976 375.155C201.309 375.93 203.191 384.015 204.498 385.454C217.456 400.804 227.822 400.538 239.207 391.258C248.754 383.483 264.768 358.343 266.009 359.295C267.249 360.248 269.287 360.336 271.236 361.665C273.872 363.459 277.992 365.209 281.027 364.323C283.53 363.592 282.865 365.32 295.867 327.111C296.554 325.073 295.269 343.724 290.928 360.713C284.947 384.059 275.423 397.393 277.638 406.299C278.524 409.755 276.995 410.995 277.638 416.666C279.853 433.057 278.767 432.014 280.539 432.171C282.311 432.324 280.34 419.432 280.185 418.679C278.834 411.793 280.584 409.819 279.675 406.009C277.328 396.286 290.241 380.648 295.978 346.492C298.503 331.541 296.576 325.716 301.693 311.252C308.072 293.355 312.192 280.751 309.201 261.879C306.986 248.08 302.711 251.203 283.751 241.191ZM76.2941 225.686C83.2049 225.686 72.4622 210.403 110.339 286.444C111.003 287.795 108.567 288.548 107.149 288.814C106.307 288.26 108.168 291.339 87.8786 250.472C74.9651 224.623 74.9651 225.664 76.2941 225.664V225.686ZM54.4099 205.109C57.3559 204.755 69.9149 213.327 72.9495 221.877C67.7889 219.31 62.8346 216.348 58.1311 213.017C57.7103 211.222 54.7865 206.394 54.4099 205.087V205.109ZM96.3399 306.202C95.6089 305.138 49.8249 211.355 49.5148 210.58C49.8692 210.447 48.6731 209.849 68.0765 221.434C74.3006 225.155 70.6902 220.437 81.2114 241.789C105.887 291.848 105.421 289.545 104.358 289.921C91.0903 294.462 97.691 303.167 96.3399 306.179V306.202ZM98.1783 309.391C98.2045 308.263 98.3084 307.138 98.4884 306.024C99.0422 303.389 96.1405 297.164 99.2415 295.193C103.254 292.753 107.517 290.748 111.956 289.213C112.487 288.803 113.067 288.46 113.683 288.194C116.696 287.529 114.193 294.019 108.677 297.054C104.247 299.557 103.804 299.8 103.184 300.553C102.564 301.306 103.184 302.259 103.76 302.06C107.393 300.996 113.418 294.506 101.058 308.705C98.134 312.093 98.577 312.315 98.1783 309.369V309.391ZM115.145 296.101C115.522 297.031 115.389 296.876 111.933 297.563C111.933 297.563 111.933 297.563 111.933 297.386C113.861 296.212 114.148 294.883 114.525 294.972C114.902 295.06 114.835 295.415 115.145 296.168V296.101ZM133.397 315.903C130.922 316.895 128.355 317.637 125.733 318.118C123.659 318.222 121.66 318.922 119.974 320.134C118.423 321.596 117.272 322.349 118.069 323.168C118.357 323.479 118.623 323.722 119.044 323.279C121.724 320.488 124.493 320.621 130.119 319.492C131.802 319.159 131.448 318.318 134.128 318.052C136.87 317.581 139.583 316.96 142.257 316.191C144.472 316.191 142.766 320.887 131.182 325.361C125.556 327.576 122.942 328.174 120.971 331.12C120.439 331.918 119.996 333.114 120.971 333.557C122.588 334.288 121.613 330.899 127.394 328.795C128.391 328.44 128.635 328.352 128.989 332.782C129.742 342.395 126.198 346.603 125.91 350.502C125.91 351.033 126.53 351.72 127.195 350.9C127.859 350.081 129.653 344.831 129.875 344.255C134.837 329.415 123.23 324.586 138.735 329.348C145.845 331.563 146.731 331.187 149.456 333.047C155.923 337.477 154.927 333.247 151.803 354.245C150.29 363.305 148.166 372.251 145.446 381.024C144.826 382.841 145.757 375.819 145.446 368.377C145.136 358.276 134.726 341.398 133.618 341.797C131.403 342.528 135.833 345.119 141.238 360.093C144.937 370.592 142.988 385.033 140.396 388.888C137.029 393.849 134.106 395.953 125.622 394.669C121.817 394.095 118.266 392.407 115.42 389.817C112.574 387.226 110.559 383.851 109.63 380.116C108.434 375.199 106.485 369.528 107.415 363.57C111.845 331.674 109.187 346.448 114.724 354.068H115.721C115.411 351.653 115.19 351.853 112.221 342.107C111.291 339.006 111.269 338.563 110.294 337.943C106.108 335.329 106.883 334.908 106.064 330.478C105.554 327.798 102.254 328.507 102.675 324.741C102.79 323.68 102.632 322.605 102.218 321.621C101.803 320.637 101.145 319.775 100.305 319.115C98.7764 317.675 99.1308 313.422 101.789 310.654C106.529 305.736 107.06 303.544 111.668 300.132C112.399 299.579 112.576 299.778 119.398 298.183C120.882 297.829 119.974 297.474 123.097 296.921C131.448 295.415 133.552 292.491 133.463 294.351C133.272 295.85 132.667 297.265 131.716 298.439C130.766 299.613 129.507 300.498 128.081 300.996C126.285 302.042 124.385 302.896 122.41 303.544C109.12 306.556 109.829 315.46 112 312.913C114.835 309.591 114.414 308.904 115.477 310.853C116.275 312.315 115.876 311.65 113.262 313.998C111.047 315.992 103.649 321.972 107.238 321.441C107.747 321.441 108.035 321.109 112.731 317.166C116.076 314.331 117.427 311.783 128.236 311.673C134.46 311.673 139.311 308.815 143.542 307.996C145.158 307.73 144.738 312.913 133.397 315.97V315.903ZM118.113 310.986C117.825 310.72 117.958 311.141 116.696 308.572C116.408 307.951 116.895 307.774 119.996 306.822C120.395 306.689 120.749 307.42 121.657 309.435C121.857 309.967 121.48 310.1 118.113 311.052V310.986ZM188.152 298.228C186.38 298.781 146.62 310.565 146.554 310.587C146.089 310.72 145.712 310.764 145.934 310.321C146.886 308.284 145.934 305.293 143.431 305.891C135.147 307.641 136.564 309.546 124.603 309.568C123.695 309.568 124.094 309.834 122.388 306.467C122.211 306.113 122.388 305.891 122.698 305.803C125.077 305.092 127.355 304.08 129.476 302.79C137.317 298.959 137.229 289.013 131.027 292.181C128.148 293.496 125.098 294.398 121.967 294.861C120.575 295.297 119.208 295.807 117.87 296.389C117.249 296.611 116.275 294.174 115.987 293.443C115.699 292.712 118.866 285.491 114.326 285.602C110.449 286.643 115.544 290.386 81.6544 224.136C80.7684 222.408 79.8603 223.338 94.3242 218.554C100.194 216.627 135.058 205.087 141.614 202.717C142.235 202.495 141.614 201.565 149.278 217.225C189.171 299.667 189.791 297.785 188.152 298.294V298.228ZM237.391 146.877C237.391 145.991 236.948 145.991 247.802 153.034C249.219 153.942 245.919 153.566 242.552 157.464C241.91 158.217 241.888 158.173 240.957 157.73C236.926 155.936 236.815 151.55 237.391 146.943V146.877ZM198.296 130.685C202.726 127.052 217.124 127.141 222.661 133.409C227.49 138.903 215.529 158.993 203.723 150.731C198.053 146.766 192.781 135.115 198.296 130.685ZM169.679 140.741C169.679 139.634 168.438 125.856 170.232 125.945C173.601 125.825 176.93 126.704 179.801 128.47C184.563 131.593 179.159 153.167 167.552 148.892C166.312 148.405 169.59 145.503 169.679 140.741ZM163.565 127.03C164.717 126.676 165.78 126.41 167.065 126.1C167.464 126.1 167.663 126.1 167.619 126.543C166.467 136.533 169.701 139.368 165.869 147.032C165.426 147.962 165.337 148.006 164.584 147.408C155.303 139.833 152.712 130.419 163.565 127.03ZM167.663 151.395C169.677 151.841 171.774 151.725 173.727 151.061C175.68 150.397 177.413 149.21 178.738 147.63C180 146.345 178.738 151.24 184.94 152.37C186.225 152.613 186.712 151.041 185.937 150.664C184.054 149.712 182.282 149.269 181.263 146.101C180.466 143.643 188.129 145.614 187.908 139.855C187.908 138.327 186.424 138.282 186.092 139.656C185.494 142.026 186.092 141.671 182.548 142.336C182.238 142.336 182.149 142.336 182.26 141.959C184.209 135.824 183.589 134.074 185.582 132.59C186.446 132.085 187.429 131.822 188.429 131.827C189.429 131.832 190.409 132.106 191.267 132.62C192.125 133.134 192.829 133.869 193.306 134.748C193.783 135.628 194.015 136.619 193.977 137.618C194.265 144.861 201.287 155.471 209.482 155.161C221.089 154.696 224.433 142.735 226.538 141.428C227.933 140.542 229.395 141.095 235.287 144.706C237.015 145.747 231.986 156.246 240.182 159.834C241.046 160.211 239.163 161.363 241.267 162.049C241.6 162.049 242.796 160.078 244.701 158.483C254.048 150.576 265.101 156.999 255.776 171.928C253.915 174.874 252.054 177.421 243.925 180.788C233.36 185.218 232.097 158.173 231.898 207.368C231.898 221.323 233.404 225.509 253.007 235.011C253.782 235.388 246.982 240.46 246.938 240.483C235.132 248.944 242.065 244.913 228.996 250.162C226.781 251.004 217.633 254.791 217.478 253.396C215.706 238.578 212.162 235.189 209.726 226.506C207.511 218.842 205.03 216.893 204.808 214.323C204.498 210.558 195.948 203.248 194.907 201.919C194.531 201.476 194.575 201.299 195.129 201.1C220.092 192.971 216.304 186.791 213.779 188.275C208.64 191.265 185.627 199.505 174.906 187.212C163.011 173.966 162.746 149.978 167.619 151.484L167.663 151.395ZM174.64 212.64C176.199 209.881 177.306 206.89 177.918 203.78C177.975 203.554 177.959 203.317 177.873 203.101C177.787 202.885 177.636 202.701 177.439 202.577C177.243 202.451 177.013 202.391 176.781 202.405C176.549 202.418 176.327 202.504 176.146 202.65C168.46 207.833 154.904 199.704 158.116 199.461C160.043 199.306 172.979 193.347 166.733 191.265C159.357 188.807 156.012 183.092 156.898 182.826C160.358 182.597 163.752 181.773 166.932 180.39C169.856 178.994 166.932 185.927 180.554 194.322C179.935 195.013 179.592 195.908 179.592 196.836C179.592 197.764 179.935 198.659 180.554 199.35C184.364 204.001 187.199 205.995 187 206.438C186.668 207.147 187 208.121 186.136 208.653C182.836 210.89 178.45 213.415 174.64 212.64ZM189.215 252.887C179.181 251.314 169.391 241.391 167.375 233.062C166.998 231.49 166.733 231.645 168.416 231.069C173.355 229.319 175.903 227.436 175.282 228.544C174.042 230.759 174.928 233.616 174.773 234.635C174.197 238.467 176.855 241.701 180.687 243.739C181.197 244.004 181.019 243.96 184.408 244.182C186.623 243.65 186.911 243.428 187.177 244.182C187.663 245.287 188.041 246.437 188.307 247.615C189.193 252.51 190.344 253.152 189.193 252.975L189.215 252.887ZM254.048 370.525C252.053 373.225 249.893 375.8 247.58 378.233C244.457 381.844 241.954 385.875 237.015 389.663C225.452 398.523 216.792 396.308 206.713 384.502C205.187 381.907 204.102 379.078 203.502 376.129C202.062 370.304 199.492 368.687 197.698 362.086C193.002 344.831 198.119 261.459 198.584 261.038C200.489 259.288 197.521 260.152 193.246 254.57C189.769 250.14 191.386 245.4 184.386 234.015C184.246 233.707 184.038 233.435 183.777 233.22C183.516 233.005 183.209 232.852 182.88 232.774C181.529 232.553 182.636 234.303 183.256 235.676C184.187 237.692 182.282 236.407 181.927 236.385C181.019 236.274 180.399 237.315 183.5 239.131C183.877 239.353 184.896 239.375 185.161 239.729C185.422 240.224 185.608 240.754 185.715 241.302C185.715 241.612 185.715 241.701 185.427 241.723C182.991 242.011 181.927 242.52 179.912 240.815C178.76 239.84 176.7 237.625 176.744 236.119C176.855 231.689 176.102 229.474 179.912 227.259C181.396 226.439 181.662 225.044 181.75 223.405C181.905 220.392 184.94 222.032 186.18 218.111C187.952 212.529 196.059 217.447 194.885 214.323C191.297 204.91 180.045 198.818 181.595 196.116C183.057 193.746 188.373 198.154 189.769 199.749C194.066 204.6 201.951 211.2 202.66 215.807C203.103 218.554 205.03 219.529 206.957 225.996C210.435 237.603 214.377 242.542 214.842 255.367C215.573 275.302 236.151 351.808 236.173 351.875C236.749 353.071 238.122 352.584 238.056 351.321C237.258 336.458 228.974 320.067 231.012 319.957C234.371 319.724 237.733 320.381 240.758 321.862C242.796 323.39 255.377 334.576 256.484 335.617C261.069 339.825 266.186 341.287 269.486 346.337C271.834 349.815 272.455 344.632 254.026 370.614L254.048 370.525ZM187.598 212.95C188.617 207.723 188.506 207.922 189.126 208.52C190.237 209.739 191.142 211.131 191.806 212.64C192.272 213.504 190.854 213.194 190.832 213.105C187.664 213.681 187.288 213.947 187.465 213.039L187.598 212.95ZM282.666 358.298C282.573 358.484 282.445 358.649 282.289 358.786C282.167 358.663 282.056 358.53 281.957 358.387C275.932 349.527 272.898 347.312 271.48 344.787C269.686 341.619 264.503 338.341 261.38 336.436C259.32 335.174 255.31 331.054 252.143 328.551C244.989 322.903 244.811 319.337 234.6 317.941C233.05 317.72 230.68 318.406 230.303 318.096C229.927 317.786 230.303 317.254 232.097 313.799C233.601 310.679 235.404 307.712 237.48 304.939C246.65 292.003 244.789 292.668 247.912 287.33C253.406 277.85 254.845 279.001 263.639 269.61C275.688 256.718 276.286 256.431 277.084 254.393C277.438 253.44 276.597 252.997 276.154 253.462C248.599 282.568 251.235 276.72 245.587 287.263C233.072 310.654 240.381 294.373 229.705 313.622C228.575 315.637 216.415 260.063 217.589 256.342C217.921 255.279 219.162 256.984 228.664 252.953C243.039 246.817 235.464 251.801 247.491 242.941C253.583 238.511 256.351 233.572 262.531 237.271C270.505 242.055 273.385 240.084 280.872 242.299C284.836 243.473 284.438 244.78 301.072 251.491C305.945 253.462 306.632 257.76 307.208 261.99C310.065 284.295 308.072 286.998 282.533 358.387L282.666 358.298Z" fill="black"/>
<path d="M277.04 42.8159C277.438 42.8159 277.726 42.8159 277.593 43.5025C276.752 47.113 281.647 50.1475 280.672 51.8974C279.347 54.4297 278.414 57.1482 277.903 59.96C277.793 60.6245 278.391 60.2701 278.634 60.4694C279.565 61.2668 280.008 57.1026 282.4 52.6062C284.017 49.6159 279.321 46.6257 279.432 44.0563C279.565 40.7559 280.849 42.6387 283.862 43.5911C285.545 44.1227 286.83 43.5911 287.295 44.6986C287.595 45.2902 288.098 45.7546 288.712 46.0067C289.326 46.2588 290.01 46.2818 290.64 46.0719C292.677 45.5403 292.146 47.113 294.538 47.6224C296.93 48.1319 296.908 48.0211 296.908 48.9071C296.908 49.2172 296.908 49.5495 296.532 49.6381C295.393 50.0267 294.306 50.5547 293.298 51.2107C292.035 51.8088 292.589 50.7899 290.485 52.1632C287.317 54.2231 287.849 52.9163 286.52 53.9573C284.305 55.7515 279.454 60.8681 281.004 62.0864C282.555 63.3046 282.732 60.115 285.877 57.2355C289.023 54.356 288.535 55.7515 289.599 55.0205C291.814 53.6472 292.124 53.4479 292.456 53.4257C294.361 53.2707 295.823 51.6759 297.262 51.543C299.212 51.3658 298.702 49.6602 299.123 49.7931C299.544 49.926 299.544 50.3469 299.699 50.7234C301.094 54.201 305.436 46.0055 302.091 44.9201C298.747 43.8348 297.861 46.1827 297.329 46.0498C292.19 44.898 295.38 45.5625 292.412 44.0341C291.038 43.3253 289.953 44.9866 288.845 43.4139C287.096 40.8888 288.358 43.4139 280.141 40.1357C279.565 39.9142 279.254 39.1168 278.811 38.5852C278.368 38.0536 277.682 38.0536 276.862 37.8321C274.537 37.2784 273.163 42.0849 277.04 42.8159ZM301.139 46.7807C301.825 46.9801 301.316 48.597 300.696 48.2648C298.348 47.0687 300.319 46.5149 301.139 46.7807ZM276.774 39.5598C277.04 39.5598 277.505 40.3351 277.748 40.7116C276.53 41.7084 275.954 39.8699 276.752 39.5598H276.774Z" fill="black"/>
<path d="M292.5 281.438C285.146 285.203 275.334 292.048 252.63 293.443C251.766 293.443 250.903 293.842 251.013 294.728C251.124 295.614 269.952 296.611 293.098 283.254C296.155 281.46 294.516 280.419 292.5 281.438Z" fill="black"/>
<path d="M256.086 287.485C267.936 283.786 283.175 271.98 282.2 270.695C280.273 268.237 275.4 278.115 255.443 285.912C254.734 286.178 255.045 287.263 256.086 287.485Z" fill="black"/>
<path d="M247.735 136.732C248.111 137.131 256.861 145.06 257.813 142.602C258.168 141.671 257.592 141.406 254.535 139.279C238.609 128.47 231.853 106.586 224.278 101.89C223.769 101.58 223.348 102.798 223.547 103.175C225.288 105.093 226.866 107.153 228.265 109.332C237.546 124.173 235.242 123.198 247.735 136.732Z" fill="black"/>
<path d="M248.865 249.077C243.837 252.067 243.726 253.507 241.112 254.636C239.384 255.39 225.607 260.772 226.781 262.788C227.423 263.829 227.313 262.987 242.286 256.32C244.415 254.994 246.444 253.514 248.355 251.89C255.93 246.419 256.994 246.507 256.617 245.245C255.953 243.229 251.833 247.327 248.865 249.077Z" fill="black"/>
<path d="M243.106 176.181C247.669 176.181 249.197 170.954 247.735 168.141C247.547 167.834 247.437 167.486 247.414 167.127C247.391 166.768 247.455 166.409 247.602 166.081C248.532 163.866 253.162 159.679 253.605 165.616C253.605 166.324 254.757 166.546 255.244 165.616C255.55 164.997 255.678 164.304 255.612 163.617C255.545 162.929 255.287 162.274 254.868 161.726C254.448 161.177 253.883 160.757 253.237 160.513C252.591 160.268 251.89 160.21 251.213 160.344C247.624 161.119 243.704 165.682 245.609 169.381C246.251 170.644 245.609 173.257 244.28 173.567C241.644 174.143 241.467 172.903 240.824 174.099C240.182 175.295 241.599 176.181 243.106 176.181Z" fill="black"/>
<path d="M227.8 75.3099C227.933 73.8037 227.49 69.5731 231.233 68.5542C234.246 67.7125 235.907 68.0004 237.258 65.6525C238.41 63.659 237.258 63.0388 238.343 60.9789C241.976 54.3339 240.115 55.3528 244.988 53.2264C258.013 47.4452 247.203 40.0693 246.052 43.7905C245.453 45.5846 246.605 46.6035 247.381 44.8758C247.779 43.9677 252.01 47.2459 247.026 49.9703C242.419 52.4733 240.182 52.4511 238.941 55.6186C237.701 58.786 235.708 60.8017 235.774 63.7255C235.774 65.8076 233.847 65.7411 231.61 66.1841C229.839 66.669 228.29 67.7479 227.221 69.2404C226.152 70.7329 225.629 72.5472 225.74 74.3796C225.784 78.3666 227.512 78.7653 227.8 75.3099Z" fill="black"/>
<path d="M199.891 93.1851C198.458 93.152 197.033 93.4231 195.712 93.9805C194.391 94.5378 193.203 95.3691 192.227 96.419C190.92 97.8144 192.227 99.077 193.556 97.9473C194.546 96.9248 195.775 96.1661 197.133 95.7404C198.491 95.3151 199.934 95.2358 201.331 95.5108C217.899 97.7258 219.051 118.17 235.995 138.371C238.011 140.741 239.584 139.877 238.808 138.482C235.681 134.62 232.789 130.574 230.148 126.366C216.171 101.292 214.82 95.4001 199.891 93.1851Z" fill="black"/>
<path d="M201.22 113.74C200.445 114.56 199.869 116.332 201.021 115.955C202.615 115.313 204.122 113.43 208.131 113.474C213.69 113.474 215.706 121.626 216.083 117.484C215.618 110.905 207.555 106.94 201.22 113.74Z" fill="black"/>
<path d="M205.052 139.811C206.248 139.811 206.314 139.013 206.625 137.795C206.27 135.447 204.41 135.58 203.967 136.931C203.524 138.282 203.745 139.744 205.052 139.811Z" fill="black"/>
<path d="M187.11 96.131C187.11 97.615 187.11 100.317 188.639 100.074C190.654 99.7636 187.332 95.9981 190.411 91.2137C190.753 90.5504 191.239 89.9721 191.833 89.5198C192.426 89.0679 193.113 88.7534 193.844 88.6C194.1 88.4957 194.324 88.3261 194.495 88.1086C194.666 87.8912 194.778 87.633 194.819 87.3596C194.708 84.4358 187.022 87.6475 187.11 96.131Z" fill="black"/>
<path d="M172.425 14.0874C173.089 14.2646 174.042 13.3121 175.105 13.1349C176.7 12.8691 180.931 12.7362 181.75 14.3532C184.386 19.4255 175.46 25.7604 174.374 32.7598C173.688 37.1898 178.339 38.3416 185.449 40.313C191.585 41.9964 180.155 49.8153 183.655 54.5333C184.231 55.2864 185.87 56.7483 187.199 58.1437C190.544 61.6434 186.202 66.3171 188.395 66.7822C190.588 67.2474 192.205 59.9379 188.395 56.2388C184.164 51.986 183.721 53.4701 188.218 45.6068C189.392 43.5469 190.034 39.9364 187.465 38.8289C184.895 37.7214 185.25 38.541 179.092 36.1488C169.701 32.5383 187.553 21.8177 183.323 13.4672C182.348 11.075 180.288 11.3408 177.475 11.075C171.805 10.9421 171.605 13.8659 172.425 14.0874Z" fill="black"/>
<path d="M185.339 168.074C185.339 167.277 184.851 164.951 182.991 164.907C180.776 164.907 180.443 168.207 182.038 169.824C182.991 170.821 184.807 171.042 185.339 168.074Z" fill="black"/>
<path d="M177.254 136.067C177.076 133.852 175.327 133.852 175.039 134.694C173.643 137.197 176.545 139.545 177.254 136.067Z" fill="black"/>
<path d="M139.2 213.172C88.7202 229.983 90.4701 228.677 91.9098 231.467C102.165 252.798 101.811 251.801 103.649 252.001C108.7 250.539 149.899 236.872 150.164 236.739C153 235.765 151.36 234.214 143.785 218.842C141.127 213.26 141.216 212.507 139.2 213.172ZM148.769 234.989L103.76 249.852C103.228 249.852 103.959 251.115 93.9476 231.312C93.4382 230.316 90.758 231.667 122.366 221.079C127.859 219.241 133.087 217.402 138.956 215.475C140.485 214.988 139.267 213.482 145.601 226.55C149.611 235.056 149.788 234.657 148.791 234.989H148.769Z" fill="black"/>
<path d="M136.631 233.372C136.343 233.372 107.658 242.232 105.621 243.207C104.624 243.628 103.716 244.957 104.934 245.267C105.333 245.267 137.738 235.809 139.444 233.838C138.558 232.198 137.805 233.328 136.631 233.372Z" fill="black"/>
<path d="M109.896 231.445C113.55 230.803 113.417 229.629 115.566 229.74C119.664 229.186 121.214 227.525 124.935 226.595C128.657 225.664 129.72 225.93 132.622 224.38C133.33 224.025 133.818 222.785 132.311 222.475C132.046 222.475 130.34 222.984 127.881 223.604C119.132 225.819 117.914 227.458 115.655 227.414C113.041 227.414 113.152 228.477 109.253 229.341C100.393 231.312 101.833 232.154 99.4629 232.265C99.175 232.265 98.7098 232.952 98.6212 233.217C98.4219 234.015 100.836 234.48 101.988 233.838C104.452 232.555 107.134 231.744 109.896 231.445Z" fill="black"/>
<path d="M117.382 120.917C120.616 116.62 118.711 117.24 129.365 120.917C129.587 121.02 129.836 121.049 130.075 121.001C130.315 120.954 130.533 120.831 130.698 120.651C130.864 120.471 130.967 120.243 130.994 120C131.021 119.757 130.971 119.512 130.849 119.3C129.683 116.77 128.336 114.327 126.818 111.99C125.91 110.839 130.584 105.855 130.672 103.13C130.805 99.1213 122.588 105.788 120.793 103.441C119.354 101.558 117.161 99.4757 115.721 97.1942C115.079 96.1532 113.838 95.7766 113.639 97.017C111.933 108.336 114.68 105.545 108.367 107.981C104.845 109.355 104.735 109.332 104.535 110.462C103.915 114.028 112.155 114.538 112.177 116.155C112.31 123.442 112.022 122.999 112.177 124.527C112.208 124.732 112.294 124.925 112.426 125.085C112.558 125.245 112.73 125.367 112.925 125.437C113.12 125.508 113.331 125.524 113.534 125.485C113.738 125.446 113.927 125.352 114.082 125.214C115.3 123.876 116.404 122.439 117.382 120.917ZM112.399 113.497C104.823 110.661 104.823 111.282 113.152 108.269C114.968 107.605 114.104 103.64 115.367 100.229C123.274 107.627 116.607 107.007 128.169 104.349C126.464 108.912 122.92 110.218 124.958 112.588C126.096 114.183 127.083 115.881 127.904 117.661C128.457 118.591 125.689 117.661 121.768 116.199C119.553 115.379 120.062 113.718 114.835 121.028C112.797 123.885 115.743 114.737 112.399 113.497Z" fill="black"/>
<path d="M74.7434 82.1987C75.8066 81.0469 75.8287 81.0469 76.8033 82.1987C77.7953 83.3782 78.548 84.7403 79.0183 86.2078C79.417 87.6254 77.9108 86.8723 77.4457 86.8945C75.2307 86.8945 76.1388 88.5557 76.6926 88.8215C82.1415 91.4574 84.4894 85.1889 84.6445 87.2489C84.8881 90.0398 84.8659 93.0743 84.9988 96.7291C84.9988 98.3903 86.35 99.6529 87.4796 98.634C88.6093 97.6151 91.6217 94.5584 95.8967 90.3942C102.896 83.5498 103.184 83.7492 103.095 82.398C102.076 67.5575 100.88 71.323 105.753 66.0292C111.645 59.6721 123.473 46.7365 127.305 38.984C133.219 27.2667 135.567 14.9291 130.052 14.3089C122.676 13.4894 109.851 19.935 103.472 25.539C98.8974 29.4565 94.6248 33.714 90.6914 38.2752C77.4014 52.8721 81.1669 50.502 75.1864 51.2994C63.1589 52.8499 67.3674 50.2584 52.4162 66.5608C50.5777 68.5764 51.8846 69.9497 53.0807 69.9497C56.6706 69.5748 60.2831 69.4564 63.8899 69.5953C63.2641 70.2429 62.8041 71.0326 62.5496 71.8965C62.2951 72.7603 62.2532 73.6733 62.428 74.5569C62.8899 76.3124 63.8158 77.9112 65.1082 79.1863C65.8391 79.6514 66.3707 78.8319 66.0827 77.968C65.9498 77.525 63.6684 74.1582 64.3329 73.3387C64.9974 72.5191 66.6808 73.3387 71.5759 77.0599C72.9271 78.0788 70.3356 79.0534 68.1427 82.2873C66.8802 84.1922 69.1173 85.1668 69.7153 85.6098C70.3134 86.0528 70.8671 86.1414 71.4652 85.7205L74.7434 82.1987ZM63.8899 97.1056C48.3849 121.471 44.9295 146.987 56.8905 178.706C57.112 179.26 57.8651 181.763 58.6182 181.253C61.0104 179.681 48.3627 159.746 52.5269 130.419C56.3589 103.441 74.1675 87.8691 74.6769 85.5212C74.9427 84.3694 74.5219 83.8821 73.1486 84.4137C69.7552 88.4115 66.6607 92.6535 63.8899 97.1056ZM70.8007 73.9589C66.4815 70.7028 64.7759 72.1426 65.5954 70.7471C65.9941 70.0605 66.3928 69.2852 67.0352 69.5732C70.114 69.839 71.1773 71.0129 74.8985 73.538C75.5408 73.981 75.0313 74.4683 74.0124 75.4651C73.4144 76.1296 73.5473 75.9967 70.8893 73.9589H70.8007ZM70.5349 83.9707C68.8958 82.841 68.1648 85.1446 87.9005 62.1529C88.8751 61.0454 90.1155 59.9379 90.7136 61.422C90.78 61.4884 70.6457 83.9264 70.5349 83.9707ZM82.3851 86.1857C80.4359 87.8469 82.1858 86.1857 78.819 81.7557C77.2685 79.7179 77.0691 79.7179 77.3571 79.3856C79.1512 77.2814 78.7747 76.2846 83.0718 84.6795C83.5148 85.2775 83.0718 85.6098 82.4516 86.1414L82.3851 86.1857ZM87.524 96.1975C86.8152 96.9284 87.1474 96.9063 86.3721 85.8091C86.3721 84.7681 95.2321 77.8351 98.0895 74.424C100.947 71.0129 100.304 71.5888 101.257 81.7778C101.722 82.686 101.545 82.3316 87.5904 96.1532L87.524 96.1975ZM108.19 25.0295C112.662 21.7287 117.688 19.2533 123.03 17.72C131.425 15.505 130.495 17.72 130.894 21.0204C130.679 24.1548 129.992 27.2388 128.856 30.1683C123.518 43.1925 123.983 42.0186 122.521 39.4049C115.743 27.3331 106.374 26.1592 108.19 25.0295ZM105.333 27.2445C108.168 24.5644 124.271 41.1104 121.945 44.2114C115.145 53.3372 91.4888 79.9172 85.2425 83.7492C83.9417 81.2172 82.4613 78.7819 80.8125 76.4618C80.2588 75.6423 80.1923 76.196 88.0112 67.4911C92.4412 62.4409 93.7038 61.865 92.1533 59.9601C91.4888 59.1405 89.7168 57.9444 88.5872 59.0962C87.4575 60.248 86.8373 61.0233 81.2776 67.4025C76.161 73.2501 77.2242 72.5856 75.4079 71.2123C68.0984 65.6969 66.7915 70.0383 71.4652 64.08C81.947 51.0892 93.2362 38.7717 105.266 27.2002L105.333 27.2445ZM65.2632 55.375C66.1714 54.3118 66.1713 54.489 77.047 53.16C78.7525 52.9385 73.9238 56.8591 70.402 62.1751C69.6046 63.3269 66.5922 67.3582 65.4183 67.5132C65.4183 67.5132 54.3433 67.8455 54.3433 67.779C53.8781 67.3803 59.7922 61.7321 65.2632 55.375Z" fill="black"/>
<path d="M120.439 234.303C124.869 233.018 125.157 232.619 126.73 232.597C127.1 232.622 127.468 232.512 127.764 232.288C128.061 232.065 128.268 231.742 128.347 231.379C128.347 228.832 119.487 232.885 115.3 233.594C111.49 234.236 102.83 236.761 101.567 238.135C100.681 239.109 101.168 239.663 102.365 239.729C106.795 238.223 106.197 238.024 107.791 237.514C117.05 234.989 110.671 237.116 120.439 234.303Z" fill="black"/>
<path d="M112.62 163.91C111.247 164.087 106.684 165.084 105.975 165.283C104.668 165.616 100.57 156.556 99.5293 159.923C96.982 168.207 100.482 166.856 93.9918 167.41C91.3338 167.631 91.2895 168.34 91.3559 169.625C91.3559 170.489 91.666 170.666 93.2608 171.64C100.46 176.07 97.3143 172.859 96.7162 181.054C96.7162 182.184 97.2921 182.715 98.2003 182.427C100.26 181.741 103.516 175.782 105.022 176.558C107.202 177.312 109.42 177.947 111.667 178.463C112.93 178.817 113.462 178.152 113.307 177.178C113.063 175.627 111.357 174.963 109.652 171.818C109.275 171.087 109.364 171.419 113.595 166.346C114.325 165.416 114.658 163.666 112.62 163.91ZM107.747 172.77C109.807 176.403 110.649 176.07 106.639 175.184C101.988 174.143 104.092 173.833 99.2635 178.728C98.6876 179.326 99.3742 176.89 99.5514 174.586C99.7508 171.84 94.4348 170.954 93.6595 169.514C94.0361 169.514 93.3716 169.514 96.7827 169.182C100.991 168.827 98.9977 166.457 100.836 162.692C102.342 163.976 103.893 167.831 105.266 167.543C116.496 164.929 105.31 168.473 107.747 172.77Z" fill="black"/>
<path d="M104.336 52.7613C115.034 52.2075 114.281 36.5476 104.004 36.7913C92.6851 38.1646 94.745 53.16 104.336 52.7613ZM103.162 38.962C104.025 38.8089 104.91 38.8486 105.756 39.0783C106.601 39.3079 107.385 39.7218 108.051 40.29C108.718 40.8587 109.25 41.5675 109.61 42.3657C109.971 43.1643 110.149 44.0326 110.134 44.9085C110.12 45.784 109.911 46.6459 109.523 47.4316C109.136 48.2173 108.58 48.9072 107.894 49.4525C107.209 49.9978 106.411 50.3848 105.559 50.5854C104.706 50.7859 103.819 50.7952 102.963 50.6127C101.616 50.326 100.411 49.5797 99.5532 48.502C98.6962 47.4244 98.2403 46.0821 98.2637 44.7051C98.2874 43.3286 98.7888 42.0024 99.6825 40.9549C100.576 39.907 101.806 39.2025 103.162 38.962Z" fill="black"/>
<path d="M79.9045 200.103C78.4426 200.369 78.1547 202.318 80.0374 202.318C89.6505 202.163 90.1378 184.753 80.8791 184.886C79.8727 184.849 78.8675 184.992 77.911 185.307C77.7781 184.044 80.126 178.529 77.6452 174.232C74.8986 169.492 66.9468 169.802 64.3552 176.336C63.3605 179.162 62.9344 182.158 63.1015 185.149C63.2691 188.141 64.0262 191.07 65.3298 193.768C65.8393 194.765 67.124 194.189 66.8139 192.86C60.1689 173.966 73.1709 169.093 76.0947 175.915C78.5312 181.608 73.2595 187.898 75.541 189.205C77.1579 190.113 77.9775 186.547 81.1006 186.99C85.1541 187.699 85.885 192.107 85.2205 195.053C84.0909 199.904 81.0342 199.882 79.9045 200.103Z" fill="black"/>
<path d="M56.9792 183.269C44.5973 162.935 41.4742 127.385 56.7798 98.4125C60.3005 92.2399 64.2452 86.319 68.5858 80.6925C70.6457 78.6769 68.5858 77.6137 67.4561 78.8984C54.6313 94.0711 44.5752 116.044 44.5752 135.846C44.5752 164.862 51.8404 178.994 55.473 183.336C57.245 185.373 58.1531 185.196 56.9792 183.269Z" fill="black"/>
<path d="M46.7017 200.768C35.6267 204.245 36.8893 191.398 47.8535 195.85C47.9888 195.932 48.1402 195.984 48.2973 196.001C48.4548 196.018 48.6135 196.001 48.7633 195.95C48.9131 195.899 49.05 195.817 49.1648 195.708C49.2792 195.599 49.3682 195.466 49.4262 195.319C50.0242 193.968 48.8503 193.635 47.7206 193.259C41.6737 191.243 48.4073 179.703 56.78 193.79C57.4666 194.942 58.6406 194.145 58.3748 193.259C56.6028 186.946 49.5148 182.184 45.0848 186.06C44.1428 186.856 43.5125 187.96 43.3059 189.176C43.0993 190.392 43.3293 191.642 43.9551 192.705C38.7277 192.838 37.3101 194.92 36.7121 197.644C35.516 204.068 45.86 204.821 48.4959 202.296C49.5148 201.277 48.6731 200.147 46.7017 200.768Z" fill="black"/>
<path d="M31.6617 161.407C31.3295 160.743 31.108 159.458 29.5796 160.388C23.3555 164.176 24.618 163.578 22.9346 161.784C20.4095 159.148 19.7672 158.129 18.5046 158.439C17.9509 158.594 18.0838 159.724 18.2167 160.322C19.745 167.41 20.2323 165.527 17.3528 166.59C16.6883 166.856 16.1124 167.166 13.4101 168.296C13.1556 168.412 12.9401 168.599 12.7887 168.835C12.6377 169.071 12.5571 169.345 12.5571 169.625C12.5571 169.905 12.6377 170.178 12.7887 170.414C12.9401 170.65 13.1556 170.837 13.4101 170.954C21.6499 174.033 19.7893 173.457 20.3431 176.934C20.9854 180.921 21.0962 181.918 21.9379 182.007C22.281 182.053 22.6297 181.984 22.9302 181.812C23.2306 181.64 23.4658 181.373 23.5991 181.054C27.0545 172.659 24.7952 174.874 28.0291 175.45C33.5888 176.447 33.8767 177.001 34.6741 176.026C35.4715 175.051 33.8546 173.612 33.0572 172.704C27.8298 166.679 29.3803 170.666 31.6617 161.407ZM30.0226 173.523C28.839 173.435 27.6896 173.087 26.6558 172.504C23.8649 171.596 23.8649 177.178 22.7574 178.13C22.4892 176.96 22.341 175.765 22.3144 174.564C22.3144 172.128 20.9854 171.95 16.9541 169.735C16.0681 169.226 18.0838 169.027 20.3652 167.875C22.6467 166.723 20.8304 164.508 20.7861 162.958C20.7861 162.027 22.3366 164.264 23.3112 165.483C24.8174 167.365 24.9946 164.375 29.2252 163.113C28.5164 166.767 26.0578 167.72 28.4278 170.245C31.8832 173.944 30.9529 173.612 30.0226 173.523Z" fill="black"/>
</svg>
