<svg width="135" height="131" viewBox="0 0 135 131" fill="none" xmlns="http://www.w3.org/2000/svg">
<path d="M26.6 94V24.3H11.2V94H26.6ZM34.9828 86.4C39.8828 92.4 47.1828 95.4 56.9828 95.4C71.7828 95.4 79.1828 88.7 79.1828 78.4C79.1828 71.7 75.0828 66.9 66.7828 64.1C61.1828 62.1 56.9828 61.4 55.0828 60.6C53.4828 59.9 52.9828 59.2 52.9828 57.9C52.9828 56 54.7828 54.7 57.9828 54.7C62.2828 54.7 65.8828 55.9 68.5828 58.4L75.6828 48.6C71.1828 44.3 65.4828 42.1 58.3828 42.1C52.8828 42.1 48.2828 43.5 44.4828 46.4C40.6828 49.2 38.7828 53.2 38.7828 58.3C38.7828 65 42.6828 69.6 50.3828 72.3C51.8828 72.8 54.1828 73.5 57.1828 74.2C60.1828 74.9 62.1828 75.6 63.2828 76.2C64.3828 76.8 64.9828 77.6 64.9828 78.6C64.9828 81.3 62.4828 82.7 57.3828 82.7C51.6828 82.7 46.3828 80.5 43.5828 77.2L34.9828 86.4ZM111.553 42C103.753 42 97.1531 44.6 91.7531 49.7C86.4531 54.8 83.7531 61.1 83.7531 68.7C83.7531 76.3 86.4531 82.6 91.7531 87.7C97.1531 92.8 103.753 95.3 111.553 95.3C119.853 95.3 126.853 92.2 132.553 85.9L123.153 76.6C119.853 80.1 116.053 81.8 111.553 81.8C104.353 81.8 98.6531 76.3 98.6531 68.7C98.6531 61.1 104.253 55.5 111.553 55.5C116.053 55.5 119.853 57.2 123.153 60.7L132.553 51.4C126.853 45.1 119.853 42 111.553 42Z" fill="#8A39E1" fill-opacity="0.8"/>
<path d="M22.6 91V21.3H7.2V91H22.6ZM30.9828 83.4C35.8828 89.4 43.1828 92.4 52.9828 92.4C67.7828 92.4 75.1828 85.7 75.1828 75.4C75.1828 68.7 71.0828 63.9 62.7828 61.1C57.1828 59.1 52.9828 58.4 51.0828 57.6C49.4828 56.9 48.9828 56.2 48.9828 54.9C48.9828 53 50.7828 51.7 53.9828 51.7C58.2828 51.7 61.8828 52.9 64.5828 55.4L71.6828 45.6C67.1828 41.3 61.4828 39.1 54.3828 39.1C48.8828 39.1 44.2828 40.5 40.4828 43.4C36.6828 46.2 34.7828 50.2 34.7828 55.3C34.7828 62 38.6828 66.6 46.3828 69.3C47.8828 69.8 50.1828 70.5 53.1828 71.2C56.1828 71.9 58.1828 72.6 59.2828 73.2C60.3828 73.8 60.9828 74.6 60.9828 75.6C60.9828 78.3 58.4828 79.7 53.3828 79.7C47.6828 79.7 42.3828 77.5 39.5828 74.2L30.9828 83.4ZM107.553 39C99.7531 39 93.1531 41.6 87.7531 46.7C82.4531 51.8 79.7531 58.1 79.7531 65.7C79.7531 73.3 82.4531 79.6 87.7531 84.7C93.1531 89.8 99.7531 92.3 107.553 92.3C115.853 92.3 122.853 89.2 128.553 82.9L119.153 73.6C115.853 77.1 112.053 78.8 107.553 78.8C100.353 78.8 94.6531 73.3 94.6531 65.7C94.6531 58.1 100.253 52.5 107.553 52.5C112.053 52.5 115.853 54.2 119.153 57.7L128.553 48.4C122.853 42.1 115.853 39 107.553 39Z" fill="#303030"/>
</svg>
