<svg width="367" height="443" viewBox="0 0 367 443" fill="none" xmlns="http://www.w3.org/2000/svg">
<path d="M107.415 295.171L114.614 316.612L124.028 311.783L114.259 291.516C114.259 291.516 107.88 294.816 107.415 295.171Z" fill="#84D492"/>
<path d="M154.018 234.347C166.103 230.937 177.795 226.267 188.905 220.415L243.881 229.053C243.881 229.053 253.937 234.879 255.155 235.056C258.597 234.776 262.042 235.548 265.034 237.271C269.088 240.084 277.194 240.084 279.299 240.438C282.337 241.421 285.24 242.783 287.937 244.492C290.041 245.732 299.389 248.722 300.984 249.785C302.578 250.849 306.255 252 307.141 256.43C308.38 261.875 309.121 267.42 309.356 272.999C309.179 277.052 308.138 287.972 306.543 292.203C304.948 296.433 298.082 318.45 297.683 320.998C297.285 323.545 296.465 340.733 295.468 344.277C294.471 347.821 289.665 366.427 288.823 369.816C287.982 373.205 281.602 390.084 280.539 393.074C279.476 396.064 277.881 401.535 278.324 403.819C278.964 406.287 279.144 408.857 278.856 411.394C278.501 414.229 280.805 428.139 280.096 429.114C279.387 430.088 254.712 431.216 246.096 428.582C237.48 425.944 203.103 429.645 189.17 428.937C175.238 428.228 138.425 427.873 133.153 426.722C127.881 425.57 121.347 425.324 124.515 421.804C127.682 418.281 128.036 413.343 128.214 408.514C128.678 404.149 129.56 399.838 130.849 395.643L119.774 319.779L136.033 286.554L154.018 234.347Z" fill="#BED4FC"/>
<path d="M306.964 212.64C309.733 214.589 309.378 214.168 306.964 214.478C304.55 214.789 303.287 214.877 302.999 216.45C302.762 217.73 302.399 218.985 301.914 220.193C301.8 220.109 301.696 220.012 301.604 219.905C297.174 213.393 300.607 215.076 292.478 214.412C290.861 214.412 295.313 212.906 296.62 209.982C297.107 208.897 294.826 204.843 296.111 205.552C300.009 207.612 298.746 206.859 299.234 207.147C300.696 208.055 305.037 204.489 306.698 204.001C307.208 207.59 303.11 209.805 306.964 212.64Z" fill="#FFEB8D"/>
<path d="M339.746 143.975C340.831 144.373 337.531 145.326 336.18 146.345C333.965 147.984 336.047 149.357 335.87 151.661C334.142 150.93 332.193 147.231 329.624 147.231C324.994 148.781 324.706 149.446 323.887 149.446C324.153 147.785 328.051 144.418 325.836 142.624C324.972 141.959 322.824 138.792 323.909 139.035C328.206 140.032 328.184 140.231 329.003 139.655C333.323 136.687 333.433 132.124 334.231 138.371C334.917 143.975 333.522 141.76 339.746 143.975Z" fill="#FFEB8D"/>
<path d="M334.364 71.0128C334.253 71.1678 334.164 71.3672 334.009 71.4336C328.428 74.3131 328.051 73.9587 328.383 75.8636C329.225 81.1132 329.026 80.2936 328.893 81.2018C322.979 75.8415 325.327 76.5281 324.463 76.3731C322.824 76.1294 319.767 77.9679 316.821 78.5881C315.802 78.5881 316.201 78.3666 318.748 74.1581C321.561 69.573 307.872 64.1463 319.745 67.5131C321.96 68.1554 321.561 67.8453 325.592 62.4186C326.877 60.6687 326.058 68.5763 329.048 68.8421C330.089 68.8421 331.529 70.0825 333.899 70.6141C334.073 70.7228 334.23 70.8573 334.364 71.0128Z" fill="#FFEB8D"/>
<path d="M105.244 167.454C116.496 164.929 105.244 168.473 107.747 172.681C109.807 176.314 110.649 175.982 106.64 175.096C101.988 174.055 104.092 173.744 99.2636 178.64C98.6877 179.238 99.3744 176.801 99.5516 174.498C99.7509 171.751 94.4349 170.865 93.6597 169.425C94.0362 169.425 93.3717 169.425 96.7828 169.093C100.991 168.739 98.9978 166.369 100.836 162.603C102.342 163.91 103.893 167.742 105.244 167.454Z" fill="#FFEB8D"/>
<path d="M127.881 117.661C128.435 118.591 125.666 117.661 121.746 116.199C119.531 115.379 120.04 113.718 114.813 121.027C112.797 123.885 115.743 114.737 112.398 113.496C104.823 110.661 104.823 111.281 113.151 108.269C114.968 107.604 114.104 103.64 115.366 100.229C123.274 107.627 116.607 107.006 128.169 104.348C126.464 108.911 122.92 110.218 124.957 112.588C126.089 114.184 127.068 115.882 127.881 117.661Z" fill="#FFEB8D"/>
<path d="M188.284 247.659C189.325 252.576 190.344 253.152 189.193 252.975C179.159 251.403 169.368 241.479 167.353 233.151C166.976 231.578 166.71 231.733 168.394 231.157C173.333 229.408 175.88 227.525 175.26 228.632C174.02 230.847 174.906 233.705 174.751 234.724C174.175 238.556 176.833 241.789 180.665 243.827C181.174 244.093 180.997 244.049 184.386 244.27C186.601 243.739 186.889 243.517 187.155 244.27C187.65 245.357 188.029 246.492 188.284 247.659Z" fill="#E7BCA5"/>
<path d="M267.227 79.0313C273.296 81.5786 275.002 81.9773 270.904 82.9962C268.334 82.376 268.024 82.3317 266.474 79.1864C266.319 78.7877 266.806 78.8541 267.227 79.0313Z" fill="#D8E9FF"/>
<path d="M279.365 78.0567C279.742 78.0567 279.72 78.3225 279.565 78.5219C278.656 79.7401 277.615 81.5343 275.91 80.4489C271.48 77.5916 262.841 76.2847 265.211 72.5857C266.186 71.0795 265.389 72.8072 270.439 74.9779C275.91 77.3258 277.881 78.2339 279.365 78.0567Z" fill="#D8E9FF"/>
<path d="M281.181 73.2721C282.533 73.405 280.871 75.8194 278.723 75.7751C275.157 74.5347 264.414 70.5919 267.382 68.244C267.736 67.9782 267.559 67.2252 268.069 67.2695C268.955 67.2695 267.781 68.1997 273.65 70.5476C279.52 72.8955 280.03 73.0949 281.181 73.2721Z" fill="#D8E9FF"/>
<path d="M270.084 62.5293C281.824 71.3893 286.475 66.8264 282.931 70.9463C282.267 71.7216 279.697 70.4147 278.723 70.0603C273.983 68.3104 266.075 65.7853 270.084 62.5293Z" fill="#D8E9FF"/>
<path d="M301.139 46.7808C301.825 46.9801 301.316 48.5971 300.696 48.2648C298.348 47.0687 300.319 46.515 301.139 46.7808Z" fill="#FFEB8D"/>
<path d="M277.726 40.7116C276.508 41.7084 275.954 39.7814 276.752 39.5599C277.017 39.4934 277.483 40.3351 277.726 40.7116Z" fill="#FFEB8D"/>
<path d="M286.077 22.5933C313.52 22.4383 319.435 58.5427 290.905 61.7987C287.184 62.2417 286.475 61.1785 285.324 62.6626C283.241 65.6085 284.593 66.9375 282.887 66.4945C279.405 65.6049 276.086 64.1696 273.052 62.2417C270.239 60.5362 275.267 60.0267 273.806 56.8593C272.344 53.6918 272.277 56.1062 269.974 52.4293C259.319 35.4403 274.426 21.951 286.077 22.5933ZM299.765 50.8123C301.161 54.2677 305.502 46.0944 302.158 45.009C298.813 43.9237 297.927 46.2716 297.395 46.1387C292.256 44.9869 295.446 45.6514 292.478 44.123C291.105 43.4142 290.019 45.0755 288.912 43.5028C287.162 40.9777 288.425 43.5028 280.207 40.2247C279.631 40.0032 279.321 39.2058 278.878 38.6742C278.435 38.1426 277.748 38.1426 276.929 37.9211C274.536 37.2788 273.163 42.1738 276.929 42.8162C277.327 42.8162 277.615 42.8162 277.482 43.5028C276.641 47.1133 281.536 50.1478 280.561 51.8977C279.236 54.43 278.303 57.1484 277.793 59.9603C277.682 60.6248 278.28 60.2704 278.523 60.4697C279.454 61.2671 279.897 57.1029 282.289 52.6065C283.906 49.6162 279.21 46.626 279.321 44.0566C279.454 40.7562 280.738 42.639 283.751 43.5914C285.434 44.123 286.719 43.5914 287.184 44.6989C287.485 45.2909 287.988 45.7549 288.601 46.007C289.215 46.2591 289.899 46.2821 290.529 46.0722C292.567 45.5406 292.035 47.1133 294.427 47.6227C296.819 48.1322 296.797 48.0214 296.797 48.9074C296.797 49.2175 296.797 49.5498 296.421 49.6384C295.282 50.027 294.196 50.5554 293.187 51.211C291.924 51.8091 292.478 50.7902 290.374 52.1635C287.206 54.2234 287.738 52.9166 286.409 53.9576C284.194 55.7518 279.343 60.8684 280.894 62.0867C282.444 63.3049 282.621 60.1153 285.767 57.2358C288.912 54.3563 288.425 55.7518 289.488 55.0208C291.703 53.6475 292.013 53.4482 292.345 53.426C294.25 53.271 295.712 51.6762 297.152 51.5433C299.101 51.3661 298.591 49.6605 299.012 49.7934C299.433 49.9263 299.61 50.4358 299.765 50.8123Z" fill="#FFEB8D"/>
<path d="M109.918 43.0817C110.266 44.2327 110.256 45.4622 109.891 46.6076C109.525 47.7526 108.819 48.7598 107.868 49.4956C106.917 50.2313 105.765 50.6606 104.565 50.7275C103.364 50.794 102.172 50.4943 101.145 49.8685C100.119 49.2422 99.3066 48.3192 98.8161 47.2218C98.3256 46.1239 98.1802 44.9029 98.3988 43.7209C98.6175 42.5384 99.1898 41.4503 100.041 40.6005C100.891 39.7508 101.98 39.1794 103.162 38.9619C104.598 38.7029 106.078 38.9792 107.323 39.7385C108.568 40.4978 109.491 41.6875 109.918 43.0817Z" fill="#BED4FC"/>
<path d="M87.967 62.1531C88.9416 61.0456 90.182 59.9381 90.78 61.4221C90.78 61.4221 70.6457 83.9265 70.6014 83.9708C68.9623 82.8412 68.3199 85.1448 87.967 62.1531Z" fill="#BED4FC"/>
<path d="M101.323 81.7335C101.722 82.686 101.545 82.3316 87.5903 96.1532C86.8815 96.8841 87.2137 96.862 86.4385 85.7648C86.4385 84.7238 95.2985 77.7908 98.1558 74.3797C101.013 70.9686 100.26 71.5445 101.323 81.7335Z" fill="#BED4FC"/>
<path d="M77.047 53.1598C78.7525 52.9383 73.9238 56.8589 70.402 62.1749C69.6046 63.3267 66.5922 67.358 65.4182 67.513C65.4182 67.513 54.3432 67.8453 54.3432 67.7788C54.0331 67.358 59.9472 61.7097 65.4182 55.4413C66.1049 54.4002 66.1049 54.5774 77.047 53.1598Z" fill="#BED4FC"/>
<path d="M130.894 21.0206C130.676 24.1547 129.989 27.2384 128.856 30.1685C123.518 43.1928 123.983 42.0188 122.521 39.4051C115.743 27.3333 106.352 26.1151 108.124 25.0297C112.616 21.7218 117.665 19.2462 123.031 17.7202C131.425 15.5052 130.495 17.7202 130.894 21.0206Z" fill="#FF9C9F"/>
<path d="M265.278 183.203C263.572 177.377 267.781 162.692 269.043 159.436C270.756 153.565 271.253 147.408 270.505 141.339C269.619 134.406 264.746 122.667 262.177 116.974C259.607 111.281 248.444 100.738 244.9 97.9915C241.356 95.2449 224.367 88.1126 218.32 85.4546C212.273 82.7966 201.397 82.1985 201.397 82.1985C199.774 80.1676 197.509 78.7484 194.974 78.1729C192.439 77.5974 189.783 77.8998 187.443 79.0311C180.798 81.977 179.69 89.065 179.114 89.2201C165.381 89.065 163.454 100.14 163.454 100.14C158.36 105.301 159.777 108.557 161.904 111.946C164.03 115.335 170.919 115.424 170.919 115.424C170.919 115.424 212.804 106.32 225.585 126.255C238.366 146.19 233.338 178.706 233.338 178.706L233.692 211.001C235.721 212.927 238.257 214.235 241.003 214.773C243.749 215.31 246.591 215.054 249.197 214.035C241.245 207.966 242.773 204.511 242.773 204.511C254.823 211.953 260.139 204.511 260.139 204.511C258.092 204.11 256.173 203.214 254.552 201.902C252.93 200.589 251.654 198.899 250.836 196.98C254.386 198.055 258.052 198.702 261.756 198.907C271.657 199.859 273.872 194.477 273.872 194.477C273.872 194.477 266.961 189.028 265.278 183.203Z" fill="#FFEB8D"/>
<path d="M180.443 199.35C179.824 198.659 179.481 197.764 179.481 196.836C179.481 195.908 179.824 195.013 180.443 194.322C166.821 185.927 169.745 178.994 166.821 180.39C163.686 181.773 160.337 182.612 156.92 182.87C156.034 183.136 159.379 188.851 166.755 191.31C173.001 193.392 160.11 199.35 158.138 199.505C154.926 199.749 168.482 207.878 176.168 202.695C176.349 202.548 176.571 202.462 176.803 202.449C177.035 202.436 177.265 202.496 177.461 202.621C177.658 202.746 177.809 202.929 177.895 203.145C177.981 203.361 177.997 203.599 177.94 203.824C177.317 206.92 176.202 209.896 174.64 212.64C178.472 213.327 182.858 210.802 186.047 208.631C186.889 208.077 186.579 207.102 186.911 206.416C187.044 206.106 184.253 204.046 180.443 199.35Z" fill="#FFEB8D"/>
<path d="M145.557 226.639C149.61 235.056 149.787 234.635 148.791 234.989L103.76 249.852C103.228 249.852 103.959 251.114 93.9473 231.312C93.4379 230.316 90.7577 231.667 122.366 221.079C127.859 219.241 133.086 217.402 138.956 215.475C140.462 214.988 139.2 213.482 145.557 226.639ZM139.51 233.837C138.557 232.198 137.804 233.328 136.63 233.372C136.342 233.372 107.658 242.232 105.62 243.207C104.624 243.628 103.715 244.957 104.934 245.267C105.399 245.378 137.804 235.809 139.51 233.837ZM132.555 224.49C133.264 224.136 133.751 222.895 132.245 222.585C131.979 222.585 130.273 223.095 127.815 223.715C119.065 225.93 117.847 227.569 115.588 227.525C112.974 227.525 113.085 228.588 109.187 229.452C100.327 231.423 101.766 232.265 99.3962 232.376C99.1083 232.376 98.6431 233.062 98.5545 233.328C98.3552 234.125 100.77 234.591 101.921 233.948C104.384 232.625 107.074 231.776 109.851 231.445C113.506 230.803 113.373 229.629 115.521 229.74C119.619 229.186 121.17 227.525 124.891 226.594C128.612 225.664 129.72 225.93 132.555 224.49ZM126.729 232.575C127.1 232.599 127.467 232.49 127.764 232.266C128.061 232.043 128.267 231.72 128.346 231.357C128.346 228.809 119.486 232.863 115.3 233.572C111.49 234.214 102.829 236.739 101.567 238.112C100.681 239.087 101.168 239.641 102.364 239.707C106.794 238.201 106.196 238.002 107.791 237.492C117.005 234.901 110.671 237.027 120.439 234.214C124.869 233.018 125.157 232.575 126.729 232.575Z" fill="#FFF6DD"/>
<path d="M110.405 286.422C111.069 287.773 108.633 288.526 107.215 288.792C106.373 288.238 108.234 291.317 87.9447 250.45C74.9648 224.623 74.9648 225.664 76.2938 225.664C83.2046 225.686 72.5061 210.425 110.405 286.422Z" fill="#84D492"/>
<path d="M81.2113 241.767C105.886 291.826 105.421 289.523 104.358 289.899C91.0681 294.462 97.713 303.189 96.3397 306.179C95.6088 305.138 49.8247 211.333 49.5146 210.558C49.869 210.425 48.673 209.827 68.0764 221.411C74.3005 225.133 70.6901 220.392 81.2113 241.767Z" fill="#84D492"/>
<path d="M149.389 217.225C141.836 201.565 142.345 202.495 141.725 202.717C135.08 205.087 100.304 216.627 94.4347 218.554C79.9707 223.339 80.8789 222.408 81.7649 224.136C115.654 290.387 110.56 286.643 114.436 285.602C118.977 285.491 115.942 293.045 116.097 293.443C116.252 293.842 117.36 296.611 117.98 296.389C119.318 295.807 120.686 295.297 122.078 294.861C125.209 294.398 128.259 293.495 131.137 292.181C137.339 289.013 137.428 298.959 129.587 302.791C127.466 304.08 125.188 305.093 122.809 305.803C122.41 305.803 122.322 306.113 122.499 306.467C124.094 309.834 123.695 309.568 124.714 309.568C136.675 309.568 135.257 307.641 143.541 305.892C145.978 305.36 146.997 308.35 146.044 310.322C145.823 310.765 146.199 310.72 146.664 310.587C146.664 310.587 186.534 298.781 188.262 298.228C189.99 297.674 189.17 299.667 149.389 217.225ZM150.275 236.739C149.92 236.872 108.721 250.539 103.76 252.001C101.921 251.801 102.276 252.798 92.0203 231.468C90.647 228.632 88.8307 229.961 139.311 213.172C141.304 212.507 141.215 213.172 143.984 218.842C151.471 234.214 153.11 235.765 150.275 236.739Z" fill="#84D492"/>
<path d="M269.708 346.515C271.923 349.815 272.432 344.632 254.026 370.614C252.031 373.314 249.871 375.888 247.558 378.322C244.435 381.933 241.932 385.964 236.992 389.751C225.43 398.611 216.769 396.396 206.691 384.59C205.166 381.996 204.08 379.167 203.479 376.218C202.04 370.392 199.47 368.775 197.676 362.175C192.98 344.92 198.097 261.547 198.562 261.126C200.467 259.377 197.499 260.24 193.224 254.659C189.746 250.229 191.363 245.488 184.364 234.103C184.224 233.795 184.016 233.523 183.755 233.308C183.494 233.093 183.187 232.941 182.858 232.863C181.507 232.641 182.614 234.391 183.234 235.765C184.165 237.78 182.26 236.496 181.905 236.473C180.997 236.363 180.377 237.404 183.478 239.22C183.854 239.442 184.873 239.464 185.139 239.818C185.399 240.313 185.586 240.843 185.693 241.391C185.693 241.701 185.693 241.789 185.405 241.812C182.968 242.1 181.905 242.609 179.89 240.903C178.738 239.929 176.678 237.714 176.722 236.208C176.833 231.778 176.08 229.563 179.89 227.348C181.374 226.528 181.639 225.133 181.728 223.494C181.883 220.481 184.918 222.12 186.158 218.2C187.93 212.618 196.037 217.535 194.863 214.412C191.275 204.998 180.022 198.907 181.573 196.205C183.035 193.835 188.373 198.243 189.746 199.837C194.043 204.688 201.929 211.289 202.638 215.896C203.081 218.665 205.008 219.617 206.935 226.085C210.412 237.692 214.355 242.631 214.82 255.456C215.551 275.391 236.128 351.897 236.151 351.964C236.726 353.16 238.1 352.65 238.033 351.41C237.236 336.547 228.952 320.156 230.99 320.045C234.349 319.813 237.711 320.47 240.736 321.95C242.773 323.479 255.355 334.664 256.462 335.705C261.291 340.003 266.407 341.464 269.708 346.515Z" fill="#E7BCA5"/>
<path d="M244.634 158.616C253.981 150.709 265.034 157.132 255.709 172.061C253.848 175.007 251.988 177.554 243.859 180.921C233.293 185.351 232.031 158.306 231.831 207.501C231.831 221.456 233.337 225.642 252.94 235.144C253.715 235.521 246.915 240.593 246.871 240.615C235.065 249.077 241.998 245.045 228.93 250.295C226.715 251.137 217.567 254.924 217.412 253.529C215.64 238.711 212.096 235.322 209.659 226.639C207.444 218.975 204.963 217.026 204.742 214.456C204.432 210.691 195.882 203.381 194.841 202.052C194.464 201.609 194.508 201.432 195.062 201.233C220.025 193.104 216.238 186.924 213.713 188.408C208.574 191.398 185.56 199.638 174.839 187.345C163.078 173.833 162.812 149.845 167.685 151.351C169.699 151.796 171.796 151.681 173.749 151.017C175.702 150.353 177.435 149.166 178.76 147.585C180.045 146.301 178.76 151.196 184.962 152.326C186.247 152.569 186.734 150.997 185.959 150.62C184.076 149.668 182.304 149.225 181.285 146.057C180.488 143.598 188.151 145.57 187.93 139.811C187.93 138.282 186.446 138.238 186.114 139.611C185.516 141.981 186.114 141.627 182.57 142.292C182.26 142.292 182.171 142.292 182.282 141.915C184.231 135.779 183.611 134.03 185.604 132.546C186.468 132.041 187.451 131.777 188.451 131.783C189.451 131.788 190.431 132.062 191.289 132.576C192.147 133.09 192.851 133.825 193.328 134.704C193.805 135.583 194.037 136.574 193.999 137.574C194.287 144.817 201.309 155.427 209.504 155.116C221.111 154.651 224.455 142.69 226.56 141.383C227.955 140.497 229.417 141.051 235.309 144.662C237.037 145.703 232.008 156.202 240.204 159.79C241.068 160.167 239.185 161.318 241.289 162.005C241.533 162.271 242.729 160.211 244.634 158.616ZM255.244 165.571C255.551 164.952 255.678 164.26 255.611 163.572C255.545 162.885 255.287 162.23 254.868 161.681C254.448 161.133 253.884 160.712 253.237 160.468C252.591 160.224 251.89 160.165 251.213 160.3C247.624 161.075 243.704 165.638 245.609 169.337C246.251 170.599 245.609 173.213 244.28 173.523C241.644 174.099 241.467 172.859 240.824 174.055C240.182 175.251 241.599 176.27 243.039 176.27C247.602 176.27 249.13 171.042 247.669 168.229C247.481 167.922 247.37 167.574 247.348 167.216C247.324 166.857 247.389 166.498 247.536 166.169C248.466 163.954 253.095 159.768 253.538 165.704C253.649 166.324 254.779 166.546 255.244 165.571ZM185.338 168.074C185.338 167.277 184.851 164.951 182.991 164.907C180.776 164.907 180.443 168.207 182.038 169.824C182.991 170.821 184.807 171.042 185.338 168.074Z" fill="#E7BCA5"/>
<path d="M149.544 333.158C156.012 337.588 155.015 333.358 151.892 354.356C150.379 363.415 148.255 372.362 145.535 381.135C144.915 382.952 145.845 375.93 145.535 368.488C145.225 358.387 134.814 341.509 133.707 341.908C131.492 342.639 135.922 345.23 141.327 360.204C145.026 370.703 143.076 385.144 140.485 388.999C137.118 393.96 134.194 396.064 125.711 394.78C121.905 394.206 118.355 392.518 115.509 389.928C112.662 387.337 110.648 383.962 109.719 380.227C108.522 375.31 106.573 369.639 107.504 363.681C111.934 331.785 109.276 346.559 114.813 354.179H115.81C115.5 351.764 115.278 351.964 112.31 342.218C111.38 339.117 111.358 338.674 110.383 338.054C106.197 335.44 106.972 335.019 106.152 330.589C105.643 327.909 102.343 328.618 102.763 324.852C102.879 323.79 102.721 322.716 102.307 321.732C101.892 320.748 101.233 319.885 100.393 319.226C98.865 317.786 99.2194 313.533 101.877 310.765C106.618 305.847 107.149 303.655 111.756 300.243C112.487 299.69 112.664 299.889 119.487 298.294C120.971 297.94 120.063 297.585 123.186 297.032C131.536 295.526 133.641 292.602 133.552 294.462C133.361 295.96 132.756 297.376 131.805 298.55C130.854 299.724 129.596 300.609 128.169 301.107C126.374 302.153 124.473 303.007 122.499 303.655C109.209 306.667 109.918 315.571 112.089 313.024C114.924 309.702 114.503 309.015 115.566 310.964C116.364 312.426 115.965 311.761 113.351 314.109C111.136 316.103 103.738 322.083 107.326 321.552C107.836 321.552 108.124 321.22 112.82 317.277C116.164 314.442 117.515 311.894 128.325 311.784C134.549 311.784 139.4 308.926 143.63 308.107C145.247 307.774 144.826 312.958 133.485 316.014C131.011 317.006 128.443 317.748 125.822 318.229C123.748 318.333 121.748 319.033 120.063 320.245C118.512 321.707 117.36 322.46 118.158 323.279C118.446 323.59 118.711 323.833 119.132 323.39C121.812 320.599 124.581 320.732 130.207 319.603C131.891 319.27 131.536 318.429 134.216 318.163C136.958 317.692 139.672 317.071 142.345 316.302C144.56 316.302 142.855 320.998 131.27 325.472C125.667 327.687 123.031 328.285 121.059 331.231C120.528 332.029 120.085 333.225 121.059 333.668C122.676 334.399 121.702 331.01 127.483 328.906C128.48 328.551 128.723 328.463 129.078 332.893C129.831 342.506 126.287 346.714 125.999 350.613C125.999 351.144 126.619 351.831 127.283 351.011C128.289 348.843 129.184 346.626 129.964 344.366C134.925 329.526 123.319 324.697 138.824 329.459C145.845 331.63 146.82 331.298 149.544 333.158Z" fill="#E7BCA5"/>
<path d="M113.683 288.171C116.696 287.485 114.193 293.997 108.678 297.031C104.248 299.534 103.805 299.778 103.184 300.531C102.564 301.284 103.184 302.237 103.76 302.037C107.393 300.974 113.418 294.484 101.058 308.682C98.1342 312.049 98.5772 312.293 98.1785 309.325C98.2051 308.197 98.3086 307.072 98.4886 305.958C99.0423 303.322 96.1407 297.098 99.2417 295.127C103.254 292.686 107.517 290.681 111.956 289.146C112.489 288.751 113.07 288.424 113.683 288.171Z" fill="#E7BCA5"/>
<path d="M168.704 124.04C168.704 123.73 170.476 115.18 172.647 112.057C174.817 108.934 182.26 100.982 182.26 100.982C182.26 100.982 187.797 103.862 188.307 98.767C188.307 98.767 190.389 100.738 192.737 97.0836C195.085 93.4289 201.22 93.8054 203.435 94.78C205.65 95.7546 211.741 96.8621 215.108 102.51C218.475 108.159 230.015 127.85 232.075 130.685C234.135 133.52 240.669 141.76 235.818 143.156L226.958 138.105C226.958 138.105 223.879 129.09 216.149 127.806C208.419 126.521 199.227 125.746 195.461 132.236C195.461 132.236 188.041 127.806 182.88 132.524C182.88 132.524 181.706 125.591 175.26 124.505C168.815 123.42 168.704 124.04 168.704 124.04Z" fill="#E7BCA5"/>
<path d="M20.3649 166.524L19.3239 160.255L24.3076 164.464L30.7311 161.451L28.5604 168.606L33.1233 175.251L25.5037 173.944L22.4913 180.678L20.5643 172.593L13.9414 169.448L20.3649 166.524Z" fill="#FFEB8D"/>
<path d="M339.392 164.641C329.048 172.88 327.94 188.673 322.735 184.886C316.777 180.456 312.967 175.826 312.79 169.181C312.79 167.343 311.793 165.549 310.021 166.213C308.581 166.841 307.101 167.374 305.591 167.808C300.518 169.137 300.718 164.53 298.37 166.679C297.423 167.332 296.541 168.074 295.734 168.893C295.003 169.558 295.357 169.181 293.674 167.919C291.991 166.656 289.554 168.384 289.886 169.359C290.048 169.595 290.284 169.771 290.558 169.855C290.832 169.94 291.126 169.929 291.393 169.824C292.699 169.248 292.899 170.488 294.228 171.551C296.443 173.346 298.193 167.498 300.098 168.849C303.265 171.064 304.705 170.311 309.533 168.672C312.524 167.675 306.787 174.298 318.77 184.465C325.415 190.158 326.545 188.363 331.75 177.953C333.655 174.143 337.398 167.941 340.787 165.859C342.183 164.995 343.822 164.552 347.233 166.966C355.229 172.637 351.663 174.077 350.622 176.535C350.445 176.978 351.397 177.776 351.818 177.2C354.454 173.589 353.723 174.719 354.276 172.969C353.324 167.476 344.353 160.698 339.392 164.641Z" fill="#F2F2F2"/>
<path d="M336.069 136.4C335.892 135.292 335.538 134.185 335.316 133.1C335.29 132.837 335.185 132.589 335.015 132.387C334.845 132.185 334.618 132.04 334.364 131.97C333.5 131.704 333.389 132.191 330.421 135.713C327.785 138.836 329.358 138.305 322.89 136.71C322.533 136.773 322.194 136.915 321.899 137.126C321.604 137.337 321.36 137.611 321.184 137.928C320.741 138.571 320.786 138.814 322.757 142.004C324.44 144.728 324.972 144.064 324.175 145.238C319.988 151.506 318.105 153.566 325.814 150.753C330.244 149.158 330.066 148.915 330.709 149.557C333.699 152.547 337.819 157.597 338.063 153.367C338.168 151.707 337.911 150.044 337.31 148.494C336.999 146.899 343.091 146.079 343.445 143.798C343.475 143.699 343.484 143.595 343.472 143.492C343.46 143.39 343.427 143.291 343.375 143.201C343.323 143.112 343.253 143.034 343.17 142.973C343.087 142.912 342.992 142.868 342.891 142.846C334.452 139.855 337.066 142.779 336.069 136.4ZM336.18 146.301C333.965 147.94 336.047 149.313 335.87 151.617C334.142 150.886 332.193 147.187 329.623 147.187C324.994 148.737 324.706 149.402 323.887 149.402C324.152 147.741 328.051 144.374 325.836 142.58C324.972 141.915 322.823 138.748 323.909 138.991C328.206 139.988 328.184 140.188 329.003 139.612C333.323 136.644 333.433 132.081 334.231 138.327C334.917 143.953 333.522 141.649 339.746 143.909C340.765 144.33 337.575 145.282 336.18 146.301Z" fill="black"/>
<path d="M308.426 100.384C308.603 109.244 314.163 113.674 304.86 112.478C290.595 110.617 287.738 107.184 289.089 117.55C289.266 118.946 289.333 118.503 282.444 121.293C278.989 122.711 280.561 124.461 282.444 123.73C288.735 121.161 291.503 120.784 291.304 118.037C290.861 113.187 290.241 112.323 292.079 112.633C304.505 114.626 306.61 115.091 308.847 114.848C317.574 113.918 306.455 100.029 312.413 97.1278C316.599 95.0457 317.995 98.3682 338.085 106.364C339.192 106.807 340.3 107.25 340.654 106.209C341.009 105.168 339.99 105.102 339.436 104.88C319.501 96.707 321.539 96.3083 317.286 94.9128C316.35 94.4751 315.32 94.2769 314.289 94.3365C313.257 94.3961 312.257 94.7115 311.378 95.2544C310.499 95.7972 309.769 96.5503 309.253 97.446C308.738 98.3413 308.454 99.3509 308.426 100.384Z" fill="#F2F2F2"/>
<path d="M317.02 73.25C315.359 75.9745 311.505 81.9107 315.071 81.0247C316.4 80.7146 318.947 80.2273 319.501 80.0058C322.89 78.854 323.001 78.3888 323.466 78.8761C327.896 83.3061 331.063 88.157 330.842 80.0501C330.709 76.2403 329.867 75.6201 330.953 75.1992C332.392 74.579 335.25 72.9842 336.047 72.7849C338.772 71.9653 338.904 70.1933 337.731 69.6617C336.557 69.1301 333.301 68.5099 331.285 67.6461C328.073 66.2063 329.446 68.1777 327.386 60.0265C327.338 59.784 327.214 59.5629 327.032 59.395C326.851 59.2271 326.621 59.1207 326.375 59.0914C326.13 59.062 325.881 59.1107 325.665 59.2307C325.449 59.3511 325.276 59.5364 325.171 59.7607C324.906 60.1151 323.975 61.4441 321.14 65.6083C320.476 66.605 314.119 63.2604 313.078 64.5008C310.464 67.5353 317.884 71.8324 317.02 73.25ZM319.678 67.6239C321.893 68.2663 321.495 67.9562 325.526 62.5294C326.811 60.7796 325.991 68.6871 328.981 68.9529C330 68.9529 331.462 70.1933 333.832 70.7249C334.023 70.7938 334.202 70.8909 334.364 71.0129C334.253 71.1679 334.164 71.3673 334.009 71.4337C328.427 74.3132 328.051 73.9588 328.383 75.8637C329.225 81.1133 329.026 80.2937 328.893 81.2019C322.979 75.8416 325.327 76.5282 324.463 76.3732C322.824 76.1295 319.767 77.968 316.821 78.5882C315.802 78.5882 316.201 78.3667 318.748 74.1582C321.495 69.6174 307.806 64.235 319.678 67.6239Z" fill="black"/>
<path d="M264.658 78.3224C264.559 79.1875 264.642 80.0634 264.901 80.8942C265.161 81.7255 265.591 82.4927 266.165 83.1479C266.738 83.8027 267.442 84.3303 268.232 84.6972C269.021 85.0641 269.879 85.2618 270.749 85.2775C273.983 85.5655 275.29 82.7967 276.508 83.0625C279.232 83.5941 281.403 80.5817 281.492 78.4332C281.492 77.3035 282.333 76.5504 282.776 75.4651C283.219 74.3797 282.644 73.6931 283.219 73.5159C284.067 72.9331 284.75 72.1418 285.204 71.2187C285.658 70.2957 285.867 69.2715 285.811 68.2442C285.811 67.9562 286.564 66.9373 285.811 66.0292C285.656 65.8298 286.409 64.6337 286.586 64.4565C286.763 64.2793 307.85 65.9627 311.549 47.3789C316.954 20.2231 273.341 9.23668 265.211 35.3294C260.781 49.3724 272.299 56.8148 271.613 58.2545C269.819 61.9536 268.667 60.4695 268.002 62.0865C266.23 66.1842 268.002 65.6748 267.05 66.1842C263.86 67.8233 265.632 69.839 264.525 70.6142C263.661 71.2493 263.074 72.1933 262.889 73.2497C262.703 74.306 262.932 75.393 263.528 76.2846C264.392 77.3035 264.835 77.525 264.658 78.3224ZM270.904 82.9961C268.335 82.3759 268.025 82.3316 266.474 79.1863C266.275 78.7876 266.762 78.854 267.183 79.0312C273.296 81.5563 275.002 81.955 270.904 82.9961ZM269.885 52.4291C259.231 35.5287 274.315 21.9508 285.988 22.5931C313.432 22.4381 319.346 58.5425 290.817 61.7985C287.096 62.2415 286.387 61.1783 285.235 62.6624C283.153 65.6083 284.504 66.9373 282.799 66.4943C279.317 65.6047 275.997 64.1694 272.964 62.2415C270.151 60.536 275.179 60.0265 273.717 56.8591C272.255 53.6916 272.277 56.106 269.885 52.4291ZM269.996 62.5295C281.735 71.3895 286.387 66.8266 282.843 70.9465C282.178 71.7217 279.609 70.4149 278.634 70.0605C273.983 68.3106 266.075 65.7855 270.084 62.5295H269.996ZM267.294 68.2442C267.648 67.9784 267.471 67.2253 267.98 67.2696C268.866 67.2696 267.692 68.1999 273.562 70.5478C279.432 72.8957 279.941 73.1615 281.093 73.2722C282.245 73.383 280.96 75.8195 278.745 75.7752C275.157 74.5348 264.436 70.5921 267.382 68.2442H267.294ZM265.079 72.6742C266.053 71.168 265.256 72.8957 270.306 75.0664C275.777 77.4364 277.748 78.3224 279.166 78.1452C279.543 78.1452 279.52 78.411 279.365 78.6104C278.457 79.8286 277.416 81.6228 275.711 80.5374C271.391 77.525 262.841 76.2846 265.211 72.5856L265.079 72.6742Z" fill="black"/>
<path d="M308.448 211.222C306.721 210.115 307.385 209.982 307.762 208.343C309.29 201.698 309.223 202.163 309.135 201.698C309.124 201.51 309.062 201.329 308.954 201.175C308.847 201.021 308.7 200.899 308.528 200.824C308.356 200.748 308.167 200.721 307.981 200.746C307.795 200.772 307.619 200.848 307.474 200.967C305.259 202.717 302.734 203.758 300.474 205.397C299.433 206.105 295.933 202.561 295.136 202.872C293.962 203.359 293.098 203.935 293.475 205.375C295.047 211.067 294.56 210.469 293.741 211.001C291.326 212.551 289.311 213.216 289.466 215.187C289.466 216.782 294.294 216.671 296.111 216.693C297.927 216.715 297.55 217.491 298.171 218.509C300.939 223.072 302.601 225.708 303.974 220.525C305.17 216.228 303.686 216.693 311.04 216.45C314.185 216.206 311.815 213.371 308.448 211.222ZM306.876 214.434C304.284 214.766 303.199 214.833 302.911 216.405C302.674 217.686 302.31 218.94 301.825 220.149C301.711 220.064 301.608 219.968 301.515 219.861C297.085 213.349 300.519 215.032 292.389 214.367C290.773 214.367 295.225 212.861 296.532 209.937C297.019 208.852 294.737 204.799 296.022 205.507C299.92 207.567 298.658 206.814 299.145 207.102C300.607 208.01 304.949 204.444 306.61 203.957C307.208 207.612 302.999 209.827 306.964 212.618C309.755 214.545 309.379 214.124 306.876 214.434Z" fill="black"/>
<path d="M283.751 241.191C277.46 237.869 272.388 240.349 264.636 235.964C262.409 234.404 259.702 233.682 256.994 233.926C255.111 234.413 238.764 227.281 235.243 219.528C234.497 217.506 234.108 215.371 234.091 213.216C233.936 211.532 242.22 218.753 250.238 214.81C250.446 214.738 250.628 214.607 250.764 214.434C250.9 214.261 250.983 214.052 251.004 213.833C251.025 213.614 250.983 213.394 250.882 213.198C250.782 213.002 250.628 212.839 250.437 212.728C247.533 211.51 245.085 209.41 243.438 206.726C243.172 206.283 242.862 205.397 243.881 206.083C252.896 212.219 264.724 205.662 261.114 203.868C257.903 203.054 255.053 201.201 253.007 198.597C252.564 198.043 253.007 198.131 253.273 198.287C259.918 201.255 269.265 200.834 274.537 195.761C277.283 193.103 268.468 191.974 266.54 181.608C264.613 171.241 270.97 164.441 272.078 146.743C272.654 137.529 265.787 120.451 261.446 114.072C249.64 96.7509 232.651 88.2896 211.453 82.2648C206.435 81.1098 201.205 81.2548 196.259 82.6857C195.373 83.0401 195.572 84.502 196.635 84.3469C204.285 82.6579 212.283 83.643 219.295 87.1378C227.933 91.2134 245.011 95.0675 257.968 113.297C286.409 153.167 251.323 173.102 268.888 191.309C272.587 195.141 273.119 194.521 271.369 195.562C268.232 197.317 264.665 198.156 261.074 197.984C257.483 197.812 254.012 196.635 251.058 194.587C249.684 193.701 248.267 194.587 248.998 196.249C252.077 203.691 259.563 204.666 257.636 205.33C247.447 208.763 243.327 202.517 241.888 201.72C238.831 200.081 238.277 206.726 246.694 213.127C248.444 214.456 233.736 213.326 233.869 208.52C235.087 168.03 231.189 185.794 242.951 184.155C252.719 182.759 263.993 168.916 261.291 159.147C259.475 152.658 253.472 153.411 251.966 152.325C237.369 141.848 229.616 138.614 225.386 131.969C220.38 124.128 201.707 121.426 195.129 130.663C194.885 131.017 194.686 131.106 194.354 130.663C193.745 129.933 192.994 129.336 192.145 128.908C191.297 128.479 190.37 128.229 189.422 128.173C188.473 128.117 187.523 128.256 186.631 128.582C185.738 128.907 184.921 129.412 184.231 130.065C183.943 130.375 183.81 130.375 183.699 129.932C182.548 125.192 176.102 122.954 170.808 122.666C169.989 122.666 169.834 122.954 171.96 117.439C172.359 116.42 174.662 116.199 178.073 118.635C181.152 120.54 179.004 113.408 174.109 113.518C171.894 113.518 180.576 104.016 181.927 102.443C182.636 101.646 182.836 103.019 184.585 103.174C185.316 103.174 185.782 102.023 184.896 101.336C173.533 92.476 185.582 74.2687 196.303 80.1384C198.518 81.401 199.603 79.0531 197.455 77.9234C189.879 74.2244 181.307 79.2746 178.915 87.5587C178.605 88.5776 178.539 87.4036 173.378 88.5997C171.066 89.1454 168.94 90.294 167.217 91.9279C165.493 93.5621 164.233 95.6237 163.565 97.9027C163.265 98.9486 162.683 99.8914 161.882 100.627C156.787 106.12 159.224 113.12 165.027 114.87C165.448 115.003 167.109 115.202 167.242 114.427C167.596 113.142 166.555 113.12 165.736 112.876C157.983 110.55 162.524 100.118 163.388 103.817C164.252 107.516 169.258 112.167 170.343 110.262C171.428 108.358 162.458 106.054 165.78 97.7477C168.394 91.1027 178.295 88.8877 178.273 91.4792C178.14 99.6747 181.772 100.339 180.886 101.27C176.456 105.899 174.241 107.538 171.517 113.297C171.32 113.794 170.95 114.203 170.476 114.449C167.131 115.999 165.891 121.094 167.176 120.341C169.922 118.502 169.036 118.613 168.35 122.046C168.017 123.663 165.802 122.179 160.22 125.192C150.275 130.685 155.104 143.731 163.565 149.512C166.777 151.727 157.23 154.806 166.71 177.554C166.755 177.627 166.781 177.71 166.786 177.796C166.792 177.882 166.776 177.967 166.741 178.045C166.707 178.124 166.653 178.192 166.586 178.246C166.519 178.299 166.44 178.335 166.356 178.352C162.872 179.92 159.101 180.749 155.281 180.788C153.952 180.655 153.996 182.117 154.395 183.18C157.695 192.04 166.843 192.86 165.116 193.879C158.138 198.043 158.293 197.268 156.433 197.711C156.09 197.744 155.774 197.912 155.554 198.178C155.334 198.443 155.228 198.785 155.259 199.128C155.104 200.922 156.499 201.941 158.448 203.337C166.777 209.273 174.972 205.552 175.393 205.95C174.738 208.184 173.679 210.278 172.27 212.13C169.213 216.007 177.918 216.56 185.161 211.997C185.292 211.965 185.429 211.965 185.56 211.997C185.312 213.607 184.956 215.197 184.497 216.76C183.434 220.281 180.754 218.975 179.735 222.629C178.826 226.018 161.638 230.758 159.401 232.176C158.67 232.619 159.202 232.951 152.512 219.285C143.032 199.992 143.652 200.014 141.216 200.834C135.545 202.65 137.517 203.603 133.973 196.404C132.156 192.705 90.7138 203.514 77.9997 218.642C77.4862 219.279 77.1304 219.824 76.8972 220.283C75.9131 222.219 77.1105 222.627 77.8446 221.965C78.3541 221.522 81.8981 214.522 101.833 205.906C111.29 201.808 121.272 199.049 131.492 197.711C132.644 197.578 132.179 197.245 134.46 202.296C135.036 203.58 79.6609 220.658 78.2876 222.408C76.9143 224.158 73.8576 223.604 74.7879 222.895C74.9937 222.755 75.1379 222.542 75.1914 222.299C75.245 222.056 75.2035 221.802 75.0759 221.588C70.6459 211.333 65.5957 210.513 66.2159 208.298C66.2159 207.877 64.2667 203.292 64.6211 202.628C64.9755 201.963 75.4303 211.266 75.0759 217.402C75.0759 217.515 75.089 217.623 75.1131 217.725C75.4213 219.031 77.5277 219.411 77.158 216.782C76.0283 208.476 64.9755 197.179 62.0517 200.767C61.5422 201.365 63.6908 205.729 63.7351 207.036C62.3175 206.615 54.5428 200.391 52.0842 203.47C51.5304 204.134 51.7962 204.223 55.2516 210.602C56.1155 212.219 53.6347 210.403 51.176 208.941C43.8001 204.511 46.746 208.786 50.6666 217.092C94.3242 306.999 97.8018 312.337 97.3588 314.818C97.1336 316.143 97.2541 317.503 97.7079 318.768C98.1618 320.033 98.9342 321.159 99.9503 322.039C100.294 322.393 100.541 322.83 100.669 323.306C100.797 323.783 100.801 324.284 100.681 324.763C100.438 330.234 104.358 329.348 104.314 332.405C104.337 334.482 105.126 336.477 106.529 338.009C109.896 340.467 108.456 335.661 105.466 363.127C104.624 370.813 107.016 377.081 108.323 381.844C111.092 391.767 121.613 397.216 128.923 397.349C129.676 397.349 129.986 397.083 128.923 400.383C125.534 410.995 129.831 413.186 124.736 419.698C123.835 421.007 123.314 422.541 123.23 424.128C123.258 424.341 123.359 424.535 123.514 424.684C123.67 424.829 123.871 424.917 124.084 424.933C124.297 424.949 124.509 424.889 124.684 424.768C124.859 424.643 124.987 424.466 125.046 424.261C126.109 420.298 129.476 418.57 129.609 413.033C129.609 412.058 129.742 405.945 129.964 405.014C131.935 396.485 131.514 397.371 132.644 397.194C139.842 396.042 141.371 392.01 145.424 386.517C148.259 382.663 154.284 356.969 156.167 338.873C156.167 338.164 156.167 337.433 156.809 336.946C157.452 336.458 160.641 316.678 160.575 314.796C160.575 314.065 159.29 313.777 159.024 314.441C158.293 316.191 157.186 327.045 155.79 334.243C155.635 335.129 155.281 334.575 151.959 332.228C147.529 329.082 146.886 329.835 141.371 328.263C132.511 325.671 134.726 326.978 139.665 323.833C146.31 319.536 145.867 315.526 145.114 314.574C144.361 313.622 141.969 314.175 145.114 313.267C174.419 304.784 185.649 301.594 189.658 299.977C192.427 298.914 191.873 298.604 191.208 297.895C191.208 297.895 187 289.345 160.198 234.79C159.8 233.948 159.556 234.258 164.872 232.575C165.226 232.575 165.337 232.575 165.404 232.951C166.725 238.744 169.822 243.979 174.264 247.925C186.158 257.914 190.522 254.437 191.43 255.965C198.983 268.834 195.129 238.666 193.645 331.585C193.645 366.914 196.768 364.81 200.976 375.154C201.309 375.93 203.191 384.014 204.498 385.454C217.456 400.804 227.822 400.538 239.207 391.257C248.754 383.483 264.768 358.342 266.009 359.295C267.249 360.247 269.287 360.336 271.236 361.665C273.872 363.459 277.992 365.209 281.027 364.323C283.53 363.592 282.865 365.32 295.867 327.111C296.554 325.073 295.269 343.723 290.928 360.712C284.947 384.059 275.423 397.393 277.638 406.299C278.524 409.755 276.995 410.995 277.638 416.665C279.853 433.056 278.767 432.013 280.539 432.17C282.311 432.323 280.34 419.432 280.185 418.679C278.834 411.792 280.584 409.819 279.675 406.009C277.328 396.285 290.241 380.647 295.978 346.492C298.503 331.541 296.576 325.716 301.693 311.252C308.072 293.354 312.192 280.751 309.201 261.879C306.986 248.08 302.711 251.203 283.751 241.191ZM76.2941 225.686C83.2049 225.686 72.4622 210.403 110.339 286.444C111.003 287.795 108.567 288.548 107.149 288.814C106.307 288.26 108.168 291.339 87.8786 250.472C74.9651 224.623 74.9651 225.664 76.2941 225.664V225.686ZM54.4099 205.109C54.412 205.108 54.4141 205.108 54.4162 205.108C57.3737 204.767 69.9171 213.332 72.9495 221.876C67.7889 219.31 62.8346 216.348 58.1311 213.016C57.7125 211.232 54.8179 206.445 54.4162 205.108C54.414 205.101 54.4119 205.094 54.4099 205.087V205.109ZM96.3399 306.201C95.6089 305.138 49.8249 211.355 49.5148 210.58C49.8692 210.447 48.6731 209.849 68.0765 221.433C74.3006 225.154 70.6902 220.437 81.2114 241.789C105.887 291.848 105.421 289.545 104.358 289.921C91.0903 294.462 97.691 303.167 96.3399 306.179V306.201ZM98.1783 309.391C98.2045 308.263 98.3084 307.138 98.4884 306.024C99.0422 303.388 96.1405 297.164 99.2415 295.193C103.254 292.752 107.517 290.747 111.956 289.212C112.487 288.802 113.067 288.46 113.683 288.193C116.696 287.529 114.193 294.019 108.677 297.053C104.247 299.556 103.804 299.8 103.184 300.553C102.564 301.306 103.184 302.259 103.76 302.059C107.393 300.996 113.418 294.506 101.058 308.704C98.134 312.093 98.577 312.315 98.1783 309.369V309.391ZM115.145 296.101C115.522 297.031 115.389 296.876 111.933 297.563C111.933 297.563 111.933 297.563 111.933 297.386C113.861 296.212 114.148 294.883 114.525 294.971C114.902 295.06 114.835 295.414 115.145 296.167V296.101ZM133.397 315.903C130.922 316.895 128.355 317.636 125.733 318.118C123.659 318.222 121.66 318.921 119.974 320.134C118.423 321.596 117.272 322.349 118.069 323.168C118.357 323.478 118.623 323.722 119.044 323.279C121.724 320.488 124.493 320.621 130.119 319.491C131.802 319.159 131.448 318.317 134.128 318.052C136.87 317.581 139.583 316.959 142.257 316.191C144.472 316.191 142.766 320.887 131.182 325.361C125.556 327.576 122.942 328.174 120.971 331.12C120.439 331.917 119.996 333.114 120.971 333.557C122.588 334.288 121.613 330.899 127.394 328.794C128.391 328.44 128.635 328.351 128.989 332.781C129.742 342.394 126.198 346.603 125.91 350.501C125.91 351.033 126.53 351.72 127.195 350.9C127.859 350.08 129.653 344.831 129.875 344.255C134.837 329.415 123.23 324.586 138.735 329.348C145.845 331.563 146.731 331.187 149.456 333.047C155.923 337.477 154.927 333.246 151.803 354.245C150.29 363.304 148.166 372.251 145.446 381.024C144.826 382.84 145.757 375.819 145.446 368.376C145.136 358.276 134.726 341.398 133.618 341.796C131.403 342.527 135.833 345.119 141.238 360.092C144.937 370.591 142.988 385.033 140.396 388.887C137.029 393.849 134.106 395.953 125.622 394.668C121.817 394.095 118.266 392.406 115.42 389.816C112.574 387.226 110.559 383.851 109.63 380.116C108.434 375.199 106.485 369.528 107.415 363.57C111.845 331.674 109.187 346.448 114.724 354.068H115.721C115.411 351.653 115.19 351.853 112.221 342.107C111.291 339.006 111.269 338.562 110.294 337.942C106.108 335.329 106.883 334.908 106.064 330.478C105.554 327.798 102.254 328.506 102.675 324.741C102.79 323.679 102.632 322.605 102.218 321.621C101.803 320.637 101.145 319.774 100.305 319.115C98.7764 317.675 99.1308 313.422 101.789 310.653C106.529 305.736 107.06 303.543 111.668 300.132C112.399 299.578 112.576 299.778 119.398 298.183C120.882 297.829 119.974 297.474 123.097 296.92C131.448 295.414 133.552 292.49 133.463 294.351C133.272 295.85 132.667 297.265 131.716 298.439C130.766 299.612 129.507 300.498 128.081 300.996C126.285 302.042 124.385 302.896 122.41 303.543C109.12 306.556 109.829 315.46 112 312.913C114.835 309.59 114.414 308.904 115.477 310.853C116.275 312.315 115.876 311.65 113.262 313.998C111.047 315.992 103.649 321.972 107.238 321.441C107.747 321.441 108.035 321.108 112.731 317.166C116.076 314.33 117.427 311.783 128.236 311.672C134.46 311.672 139.311 308.815 143.542 307.995C145.158 307.73 144.738 312.913 133.397 315.969V315.903ZM118.113 310.986C117.825 310.72 117.958 311.141 116.696 308.571C116.408 307.951 116.895 307.774 119.996 306.822C120.395 306.689 120.749 307.42 121.657 309.435C121.857 309.967 121.48 310.1 118.113 311.052V310.986ZM188.152 298.227C186.38 298.781 146.62 310.565 146.554 310.587C146.089 310.72 145.712 310.764 145.934 310.321C146.886 308.283 145.934 305.293 143.431 305.891C135.147 307.641 136.564 309.546 124.603 309.568C123.695 309.568 124.094 309.834 122.388 306.467C122.211 306.113 122.388 305.891 122.698 305.803C125.077 305.092 127.355 304.08 129.476 302.79C137.317 298.958 137.229 289.013 131.027 292.18C128.148 293.495 125.098 294.397 121.967 294.861C120.575 295.297 119.208 295.807 117.87 296.389C117.249 296.61 116.275 294.174 115.987 293.443C115.699 292.712 118.866 285.491 114.326 285.602C110.449 286.643 115.544 290.386 81.6544 224.136C80.7684 222.408 79.8603 223.338 94.3242 218.554C100.194 216.627 135.058 205.087 141.614 202.717C142.235 202.495 141.614 201.565 149.278 217.225C189.171 299.667 189.791 297.784 188.152 298.294V298.227ZM237.391 146.876C237.391 145.99 236.948 145.99 247.802 153.034C249.219 153.942 245.919 153.566 242.552 157.464C241.91 158.217 241.888 158.173 240.957 157.73C236.926 155.936 236.815 151.55 237.391 146.943V146.876ZM198.296 130.685C202.726 127.052 217.124 127.141 222.661 133.409C227.49 138.902 215.529 158.992 203.723 150.73C198.053 146.766 192.781 135.115 198.296 130.685ZM169.679 140.741C169.679 139.633 168.438 125.856 170.232 125.945C173.601 125.825 176.93 126.703 179.801 128.47C184.563 131.593 179.159 153.167 167.552 148.892C166.312 148.405 169.59 145.503 169.679 140.741ZM163.565 127.03C164.717 126.676 165.78 126.41 167.065 126.1C167.464 126.1 167.663 126.1 167.619 126.543C166.467 136.532 169.701 139.368 165.869 147.031C165.426 147.962 165.337 148.006 164.584 147.408C155.303 139.833 152.712 130.419 163.565 127.03ZM167.663 151.395C169.677 151.84 171.774 151.725 173.727 151.061C175.68 150.397 177.413 149.21 178.738 147.629C180 146.345 178.738 151.24 184.94 152.37C186.225 152.613 186.712 151.041 185.937 150.664C184.054 149.712 182.282 149.269 181.263 146.101C180.466 143.642 188.129 145.614 187.908 139.855C187.908 138.326 186.424 138.282 186.092 139.655C185.494 142.026 186.092 141.671 182.548 142.336C182.238 142.336 182.149 142.336 182.26 141.959C184.209 135.824 183.589 134.074 185.582 132.59C186.446 132.085 187.429 131.822 188.429 131.827C189.429 131.832 190.409 132.106 191.267 132.62C192.125 133.134 192.829 133.869 193.306 134.748C193.783 135.627 194.015 136.619 193.977 137.618C194.265 144.861 201.287 155.471 209.482 155.16C221.089 154.695 224.433 142.734 226.538 141.427C227.933 140.541 229.395 141.095 235.287 144.706C237.015 145.747 231.986 156.246 240.182 159.834C241.046 160.211 239.163 161.362 241.267 162.049C241.6 162.049 242.796 160.078 244.701 158.483C254.048 150.575 265.101 156.999 255.776 171.928C253.915 174.874 252.054 177.421 243.925 180.788C233.36 185.218 232.097 158.173 231.898 207.368C231.898 221.323 233.404 225.509 253.007 235.011C253.782 235.388 246.982 240.46 246.938 240.482C235.132 248.944 242.065 244.912 228.996 250.162C226.781 251.004 217.633 254.791 217.478 253.396C215.706 238.577 212.162 235.188 209.726 226.506C207.511 218.842 205.03 216.893 204.808 214.323C204.498 210.558 195.948 203.248 194.907 201.919C194.531 201.476 194.575 201.299 195.129 201.1C220.092 192.971 216.304 186.791 213.779 188.275C208.64 191.265 185.627 199.505 174.906 187.212C163.011 173.966 162.746 149.977 167.619 151.484L167.663 151.395ZM174.64 212.64C176.199 209.881 177.306 206.89 177.918 203.78C177.975 203.554 177.959 203.317 177.873 203.101C177.787 202.885 177.636 202.701 177.439 202.576C177.243 202.451 177.013 202.391 176.781 202.404C176.549 202.418 176.327 202.504 176.146 202.65C168.46 207.833 154.904 199.704 158.116 199.46C160.043 199.305 172.979 193.347 166.733 191.265C159.357 188.806 156.012 183.092 156.898 182.826C160.358 182.597 163.752 181.773 166.932 180.389C169.856 178.994 166.932 185.927 180.554 194.322C179.935 195.013 179.592 195.908 179.592 196.836C179.592 197.764 179.935 198.659 180.554 199.35C184.364 204.001 187.199 205.995 187 206.438C186.668 207.147 187 208.121 186.136 208.653C182.836 210.89 178.45 213.415 174.64 212.64ZM189.215 252.886C179.181 251.314 169.391 241.39 167.375 233.062C166.998 231.489 166.733 231.644 168.416 231.069C173.355 229.319 175.903 227.436 175.282 228.543C174.042 230.758 174.928 233.616 174.773 234.635C174.197 238.467 176.855 241.701 180.687 243.738C181.197 244.004 181.019 243.96 184.408 244.181C186.623 243.65 186.911 243.428 187.177 244.181C187.663 245.287 188.041 246.437 188.307 247.615C189.193 252.51 190.344 253.152 189.193 252.975L189.215 252.886ZM254.048 370.525C252.053 373.225 249.893 375.799 247.58 378.233C244.457 381.844 241.954 385.875 237.015 389.663C225.452 398.523 216.792 396.308 206.713 384.502C205.187 381.907 204.102 379.078 203.502 376.129C202.062 370.303 199.492 368.686 197.698 362.086C193.002 344.831 198.119 261.458 198.584 261.037C200.489 259.288 197.521 260.151 193.246 254.57C189.769 250.14 191.386 245.4 184.386 234.014C184.246 233.706 184.038 233.435 183.777 233.219C183.516 233.004 183.209 232.852 182.88 232.774C181.529 232.553 182.636 234.302 183.256 235.676C184.187 237.691 182.282 236.407 181.927 236.385C181.019 236.274 180.399 237.315 183.5 239.131C183.877 239.353 184.896 239.375 185.161 239.729C185.422 240.224 185.608 240.754 185.715 241.302C185.715 241.612 185.715 241.701 185.427 241.723C182.991 242.011 181.927 242.52 179.912 240.815C178.76 239.84 176.7 237.625 176.744 236.119C176.855 231.689 176.102 229.474 179.912 227.259C181.396 226.439 181.662 225.044 181.75 223.405C181.905 220.392 184.94 222.031 186.18 218.111C187.952 212.529 196.059 217.446 194.885 214.323C191.297 204.909 180.045 198.818 181.595 196.116C183.057 193.746 188.373 198.154 189.769 199.748C194.066 204.599 201.951 211.2 202.66 215.807C203.103 218.554 205.03 219.528 206.957 225.996C210.435 237.603 214.377 242.542 214.842 255.367C215.573 275.302 236.151 351.808 236.173 351.875C236.749 353.071 238.122 352.583 238.056 351.321C237.258 336.458 228.974 320.067 231.012 319.956C234.371 319.724 237.733 320.381 240.758 321.861C242.796 323.39 255.377 334.575 256.484 335.617C261.069 339.825 266.186 341.287 269.486 346.337C271.834 349.815 272.455 344.632 254.026 370.614L254.048 370.525ZM187.598 212.95C188.617 207.722 188.506 207.922 189.126 208.52C190.237 209.739 191.142 211.13 191.806 212.64C192.272 213.504 190.854 213.193 190.832 213.105C187.664 213.681 187.288 213.947 187.465 213.038L187.598 212.95ZM282.666 358.298C282.573 358.483 282.445 358.649 282.289 358.785C282.167 358.663 282.056 358.529 281.957 358.387C275.932 349.527 272.898 347.312 271.48 344.787C269.686 341.619 264.503 338.341 261.38 336.436C259.32 335.174 255.31 331.054 252.143 328.551C244.989 322.902 244.811 319.336 234.6 317.941C233.05 317.719 230.68 318.406 230.303 318.096C229.927 317.786 230.303 317.254 232.097 313.799C233.601 310.679 235.404 307.712 237.48 304.939C246.65 292.003 244.789 292.668 247.912 287.33C253.406 277.849 254.845 279.001 263.639 269.61C275.688 256.718 276.286 256.43 277.084 254.392C277.438 253.44 276.597 252.997 276.154 253.462C248.599 282.567 251.235 276.72 245.587 287.263C233.072 310.653 240.381 294.373 229.705 313.622C228.575 315.637 216.415 260.063 217.589 256.342C217.921 255.278 219.162 256.984 228.664 252.953C243.039 246.817 235.464 251.801 247.492 242.941C253.583 238.511 256.351 233.571 262.531 237.271C270.505 242.055 273.385 240.084 280.872 242.299C284.836 243.473 284.438 244.779 301.072 251.491C305.945 253.462 306.632 257.759 307.208 261.99C310.065 284.295 308.072 286.997 282.533 358.387L282.666 358.298Z" fill="black"/>
<path d="M169.679 140.741C169.679 139.633 168.438 125.856 170.232 125.945C173.601 125.825 176.93 126.703 179.801 128.47C184.563 131.593 179.159 153.167 167.552 148.892C166.312 148.405 169.59 145.503 169.679 140.741Z" fill="#F2F2F2"/>
<path d="M163.565 127.03C164.717 126.676 165.78 126.41 167.065 126.1C167.464 126.1 167.663 126.1 167.619 126.543C166.467 136.532 169.701 139.368 165.869 147.031C165.426 147.962 165.337 148.006 164.584 147.408C155.303 139.833 152.712 130.419 163.565 127.03Z" fill="#F2F2F2"/>
<path d="M198.296 130.685C202.726 127.052 217.124 127.141 222.661 133.409C227.49 138.902 215.529 158.992 203.723 150.73C198.053 146.766 192.781 135.115 198.296 130.685Z" fill="#F2F2F2"/>
<path d="M101.833 205.906C81.8981 214.522 78.3541 221.522 77.8446 221.965C77.1105 222.627 75.9131 222.219 76.8972 220.283L76.5 220L76 219.5L75.5 218.5L75.1131 217.725C75.089 217.623 75.0759 217.515 75.0759 217.402C75.4303 211.266 64.9755 201.963 64.6211 202.628C64.2667 203.292 66.2159 207.877 66.2159 208.298C65.5957 210.513 70.6459 211.333 75.0759 221.588C75.2035 221.802 75.245 222.056 75.1914 222.299C75.1379 222.542 74.9937 222.755 74.7879 222.895C73.8576 223.604 76.9143 224.158 78.2876 222.408C79.6609 220.658 135.036 203.58 134.46 202.296C132.179 197.245 132.644 197.578 131.492 197.711C121.272 199.049 111.29 201.808 101.833 205.906Z" fill="#F2F2F2"/>
<path d="M72.9495 221.876C69.9171 213.332 57.3737 204.767 54.4162 205.108C54.8179 206.445 57.7125 211.232 58.1311 213.016C62.8346 216.348 67.7889 219.31 72.9495 221.876Z" fill="#F2F2F2"/>
<path d="M277.04 42.8161C277.438 42.8161 277.726 42.8161 277.593 43.5028C276.752 47.1132 281.647 50.1478 280.672 51.8976C279.347 54.43 278.414 57.1484 277.903 59.9602C277.793 60.6247 278.391 60.2703 278.634 60.4697C279.565 61.2671 280.008 57.1029 282.4 52.6064C284.017 49.6162 279.321 46.6259 279.432 44.0565C279.565 40.7562 280.849 42.6389 283.862 43.5914C285.545 44.123 286.83 43.5914 287.295 44.6989C287.595 45.2905 288.098 45.7548 288.712 46.0069C289.326 46.2591 290.01 46.282 290.64 46.0722C292.677 45.5406 292.146 47.1132 294.538 47.6227C296.93 48.1321 296.908 48.0214 296.908 48.9074C296.908 49.2175 296.908 49.5497 296.532 49.6383C295.393 50.027 294.306 50.5549 293.298 51.211C292.035 51.809 292.589 50.7901 290.485 52.1634C287.317 54.2234 287.849 52.9165 286.52 53.9576C284.305 55.7517 279.454 60.8684 281.004 62.0866C282.555 63.3049 282.732 60.1153 285.877 57.2358C289.023 54.3563 288.535 55.7517 289.599 55.0208C291.814 53.6475 292.124 53.4481 292.456 53.426C294.361 53.2709 295.823 51.6761 297.262 51.5432C299.212 51.366 298.702 49.6605 299.123 49.7934C299.544 49.9263 299.544 50.3471 299.699 50.7237C301.094 54.2012 305.436 46.0057 302.091 44.9204C298.747 43.835 297.861 46.1829 297.329 46.05C292.19 44.8982 295.38 45.5627 292.412 44.0344C291.038 43.3256 289.953 44.9868 288.845 43.4142C287.096 40.8891 288.358 43.4142 280.141 40.136C279.565 39.9145 279.254 39.1171 278.811 38.5855C278.368 38.0539 277.682 38.0539 276.862 37.8324C274.537 37.2786 273.163 42.0852 277.04 42.8161ZM301.139 46.781C301.825 46.9803 301.316 48.5973 300.696 48.265C298.348 47.0689 300.319 46.5152 301.139 46.781ZM276.774 39.5601C277.04 39.5601 277.505 40.3353 277.748 40.7119C276.53 41.7086 275.954 39.8702 276.752 39.5601H276.774Z" fill="black"/>
<path d="M292.5 281.438C285.146 285.203 275.334 292.047 252.63 293.443C251.766 293.443 250.903 293.842 251.013 294.728C251.124 295.614 269.952 296.61 293.098 283.254C296.155 281.46 294.516 280.419 292.5 281.438Z" fill="black"/>
<path d="M256.086 287.485C267.936 283.786 283.175 271.98 282.2 270.695C280.273 268.237 275.4 278.115 255.443 285.912C254.734 286.178 255.045 287.263 256.086 287.485Z" fill="black"/>
<path d="M247.735 136.732C248.111 137.131 256.861 145.06 257.813 142.602C258.168 141.671 257.592 141.405 254.535 139.279C238.609 128.47 231.853 106.586 224.278 101.89C223.769 101.58 223.348 102.798 223.547 103.175C225.288 105.093 226.866 107.153 228.265 109.332C237.546 124.173 235.242 123.198 247.735 136.732Z" fill="black"/>
<path d="M248.865 249.077C243.837 252.067 243.726 253.507 241.112 254.637C239.384 255.39 225.607 260.772 226.781 262.788C227.423 263.829 227.313 262.987 242.286 256.32C244.415 254.995 246.444 253.514 248.355 251.89C255.93 246.419 256.994 246.508 256.617 245.245C255.953 243.229 251.833 247.327 248.865 249.077Z" fill="black"/>
<path d="M243.106 176.181C247.669 176.181 249.197 170.954 247.735 168.14C247.547 167.834 247.437 167.486 247.414 167.127C247.391 166.768 247.455 166.409 247.602 166.081C248.532 163.866 253.162 159.679 253.605 165.615C253.605 166.324 254.757 166.546 255.244 165.615C255.55 164.996 255.678 164.304 255.612 163.617C255.545 162.929 255.287 162.274 254.868 161.725C254.448 161.177 253.883 160.756 253.237 160.512C252.591 160.268 251.89 160.21 251.213 160.344C247.624 161.119 243.704 165.682 245.609 169.381C246.251 170.643 245.609 173.257 244.28 173.567C241.644 174.143 241.467 172.903 240.824 174.099C240.182 175.295 241.599 176.181 243.106 176.181Z" fill="black"/>
<path d="M227.8 75.3101C227.933 73.8039 227.49 69.5732 231.233 68.5543C234.246 67.7126 235.907 68.0006 237.258 65.6527C238.41 63.6592 237.258 63.039 238.343 60.979C241.976 54.334 240.115 55.3529 244.988 53.2265C258.013 47.4454 247.203 40.0694 246.052 43.7906C245.453 45.5848 246.605 46.6037 247.381 44.876C247.779 43.9678 252.01 47.246 247.026 49.9705C242.419 52.4734 240.182 52.4513 238.941 55.6187C237.701 58.7862 235.708 60.8018 235.774 63.7256C235.774 65.8077 233.847 65.7413 231.61 66.1843C229.839 66.6692 228.29 67.7481 227.221 69.2406C226.152 70.7331 225.629 72.5474 225.74 74.3798C225.784 78.3668 227.512 78.7655 227.8 75.3101Z" fill="#F2F2F2"/>
<path d="M199.891 93.1853C198.458 93.1523 197.033 93.4233 195.712 93.9807C194.391 94.5381 193.203 95.3693 192.227 96.4192C190.92 97.8147 192.227 99.0772 193.556 97.9476C194.546 96.925 195.775 96.1663 197.133 95.7406C198.491 95.3153 199.934 95.236 201.331 95.5111C217.899 97.7261 219.051 118.171 235.995 138.371C238.011 140.741 239.584 139.878 238.808 138.482C235.681 134.621 232.789 130.575 230.148 126.366C216.171 101.292 214.82 95.4003 199.891 93.1853Z" fill="black"/>
<path d="M201.22 113.74C200.445 114.56 199.869 116.332 201.021 115.955C202.615 115.313 204.122 113.43 208.131 113.474C213.69 113.474 215.706 121.626 216.083 117.484C215.618 110.905 207.555 106.94 201.22 113.74Z" fill="black"/>
<path d="M205.052 139.811C206.248 139.811 206.314 139.013 206.625 137.795C206.27 135.447 204.41 135.58 203.967 136.931C203.524 138.282 203.745 139.744 205.052 139.811Z" fill="black"/>
<path d="M187.11 96.1311C187.11 97.6151 187.11 100.317 188.639 100.074C190.654 99.7637 187.332 95.9982 190.411 91.2138C190.753 90.5505 191.239 89.9722 191.833 89.5199C192.426 89.0681 193.113 88.7535 193.844 88.6001C194.1 88.4958 194.324 88.3262 194.495 88.1088C194.666 87.8913 194.778 87.6331 194.819 87.3597C194.708 84.4359 187.022 87.6476 187.11 96.1311Z" fill="black"/>
<path d="M172.425 14.0871C173.089 14.2643 174.042 13.3119 175.105 13.1347C176.7 12.8689 180.931 12.736 181.75 14.3529C184.386 19.4253 175.46 25.7602 174.374 32.7596C173.688 37.1896 178.339 38.3414 185.449 40.3127C191.585 41.9961 180.155 49.8151 183.655 54.533C184.231 55.2861 185.87 56.748 187.199 58.1435C190.544 61.6432 186.202 66.3168 188.395 66.782C190.588 67.2472 192.205 59.9376 188.395 56.2386C184.164 51.9858 183.721 53.4698 188.218 45.6066C189.392 43.5466 190.034 39.9362 187.465 38.8287C184.895 37.7212 185.25 38.5407 179.092 36.1485C169.701 32.5381 187.553 21.8175 183.323 13.4669C182.348 11.0747 180.288 11.3405 177.475 11.0747C171.805 10.9418 171.605 13.8656 172.425 14.0871Z" fill="#F2F2F2"/>
<path d="M185.339 168.074C185.339 167.277 184.851 164.951 182.991 164.907C180.776 164.907 180.443 168.207 182.038 169.824C182.991 170.821 184.807 171.042 185.339 168.074Z" fill="black"/>
<path d="M177.254 136.068C177.076 133.853 175.327 133.853 175.039 134.694C173.643 137.197 176.545 139.545 177.254 136.068Z" fill="black"/>
<path d="M139.2 213.172C88.7202 229.983 90.4701 228.677 91.9098 231.467C102.165 252.798 101.811 251.801 103.649 252.001C108.7 250.539 149.899 236.872 150.164 236.739C153 235.765 151.36 234.214 143.785 218.842C141.127 213.26 141.216 212.507 139.2 213.172ZM148.769 234.989L103.76 249.852C103.228 249.852 103.959 251.115 93.9476 231.312C93.4382 230.316 90.758 231.667 122.366 221.079C127.859 219.241 133.087 217.402 138.956 215.475C140.485 214.988 139.267 213.482 145.601 226.55C149.611 235.056 149.788 234.657 148.791 234.989H148.769Z" fill="black"/>
<path d="M136.631 233.373C136.343 233.373 107.658 242.233 105.621 243.207C104.624 243.628 103.716 244.957 104.934 245.267C105.333 245.267 137.738 235.809 139.444 233.838C138.558 232.199 137.805 233.328 136.631 233.373Z" fill="black"/>
<path d="M109.895 231.445C113.55 230.803 113.417 229.629 115.566 229.74C119.664 229.186 121.214 227.525 124.935 226.595C128.656 225.664 129.72 225.93 132.621 224.38C133.33 224.025 133.817 222.785 132.311 222.475C132.045 222.475 130.34 222.984 127.881 223.604C119.132 225.819 117.914 227.458 115.654 227.414C113.041 227.414 113.151 228.477 109.253 229.341C100.393 231.312 101.833 232.154 99.4627 232.265C99.1748 232.265 98.7096 232.952 98.621 233.217C98.4217 234.015 100.836 234.48 101.988 233.838C104.452 232.555 107.133 231.744 109.895 231.445Z" fill="black"/>
<path d="M117.382 120.917C120.616 116.62 118.711 117.24 129.365 120.917C129.587 121.02 129.836 121.049 130.075 121.002C130.315 120.954 130.533 120.831 130.698 120.651C130.864 120.471 130.967 120.243 130.994 120C131.021 119.757 130.971 119.512 130.849 119.3C129.683 116.77 128.336 114.327 126.818 111.991C125.91 110.839 130.584 105.855 130.672 103.131C130.805 99.1214 122.588 105.789 120.793 103.441C119.354 101.558 117.161 99.4758 115.721 97.1943C115.079 96.1533 113.838 95.7767 113.639 97.0171C111.933 108.336 114.68 105.545 108.367 107.981C104.845 109.355 104.735 109.333 104.535 110.462C103.915 114.028 112.155 114.538 112.177 116.155C112.31 123.442 112.022 122.999 112.177 124.527C112.208 124.732 112.294 124.925 112.426 125.086C112.558 125.245 112.73 125.368 112.925 125.438C113.12 125.508 113.331 125.524 113.534 125.485C113.738 125.446 113.927 125.352 114.082 125.214C115.3 123.877 116.404 122.439 117.382 120.917ZM112.399 113.497C104.823 110.662 104.823 111.282 113.152 108.269C114.968 107.605 114.104 103.64 115.367 100.229C123.274 107.627 116.607 107.007 128.169 104.349C126.464 108.912 122.92 110.219 124.958 112.589C126.096 114.183 127.083 115.881 127.904 117.661C128.457 118.591 125.689 117.661 121.768 116.199C119.553 115.379 120.062 113.718 114.835 121.028C112.797 123.885 115.743 114.737 112.399 113.497Z" fill="black"/>
<path d="M105.333 27.2447C108.168 24.5646 124.271 41.1106 121.945 44.2116C115.145 53.3374 91.4888 79.9174 85.2425 83.7494C83.9417 81.2175 82.4613 78.7822 80.8125 76.462C80.7176 76.3215 80.637 76.2214 80.6079 76.1081C80.4677 75.5602 81.5327 74.7039 88.0113 67.4913C88.8245 66.5642 89.531 65.7879 90.133 65.1265C92.81 62.1849 93.4192 61.5155 92.1533 59.9603C91.4888 59.1407 89.7168 57.9446 88.5872 59.0964C87.7845 59.9149 87.239 60.5432 84.9959 63.1269C84.0822 64.1794 82.8868 65.5563 81.2777 67.4027C77.9943 71.1551 77.2557 72.226 76.6679 72.1487C76.3398 72.1056 76.0587 71.7045 75.4079 71.2125C71.1276 67.9828 68.9056 68.1331 68.7376 67.6158C68.6186 67.2498 69.5283 66.5495 71.4652 64.0802C81.947 51.0894 93.2362 38.772 105.266 27.2004L105.333 27.2447Z" fill="#F2F2F2"/>
<path d="M70.8007 73.9591C68.4755 72.2062 66.9077 71.8143 66.0836 71.6082C65.3769 71.4315 65.2171 71.3916 65.5954 70.7473C65.6179 70.7087 65.6403 70.6698 65.6628 70.6308C66.0398 69.9768 66.429 69.3017 67.0352 69.5734C69.5514 69.7906 70.7214 70.6144 73.0962 72.2866C73.6272 72.6605 74.2184 73.0768 74.8985 73.5383C75.5343 73.9767 75.0416 74.4586 74.0434 75.435L74.0124 75.4653C73.8411 75.6557 73.7298 75.7806 73.5956 75.814C73.2615 75.8973 72.7859 75.4131 70.8893 73.9591H70.8007Z" fill="#F2F2F2"/>
<path d="M82.3852 86.1859C81.369 87.0519 81.3581 87.015 81.1036 86.1537C80.8699 85.3627 80.4307 83.8766 78.819 81.7559C78.4079 81.2156 78.0917 80.8185 77.8545 80.5205C77.197 79.6947 77.1455 79.63 77.3571 79.3858C77.5298 79.1832 77.6825 78.9909 77.8211 78.8162C79.1221 77.1767 79.1884 77.0931 83.0718 84.6797C83.4949 85.2509 83.1098 85.5796 82.5341 86.0711C82.507 86.0942 82.4795 86.1177 82.4516 86.1416L82.3852 86.1859Z" fill="#F2F2F2"/>
<path fill-rule="evenodd" clip-rule="evenodd" d="M76.8034 82.1989C75.8288 81.0471 75.8066 81.0471 74.7434 82.1989L71.4652 85.7207C70.8671 86.1416 70.3134 86.053 69.7153 85.61C69.6334 85.5493 69.5207 85.4786 69.3904 85.3969C68.5699 84.8824 67.0532 83.9314 68.1427 82.2875C69.0253 80.9859 69.9724 80.0503 70.7011 79.3305C71.783 78.2619 72.3833 77.6689 71.5759 77.0601C66.6808 73.3389 64.9974 72.5194 64.3329 73.3389C63.8312 73.9577 65.0088 76.0285 65.6731 77.1967C65.8887 77.5757 66.0502 77.8597 66.0827 77.9683C66.3707 78.8321 65.8391 79.6516 65.1082 79.1865C63.8158 77.9115 62.8899 76.3126 62.428 74.5571C62.2532 73.6736 62.2951 72.7606 62.5496 71.8967C62.8041 71.0329 63.2641 70.2431 63.8899 69.5955C60.2831 69.4566 56.6706 69.575 53.0807 69.9499C51.8846 69.9499 50.5777 68.5766 52.4162 66.561C61.386 56.7806 63.4598 53.8006 66.2805 52.6467C68.1615 51.8773 70.3747 51.9199 75.1864 51.2996C77.1104 51.0431 78.0257 51.1144 78.8247 50.8431C80.5093 50.2712 81.6769 48.1764 90.6914 38.2754C94.6248 33.7143 98.8974 29.4568 103.472 25.5392C109.851 19.9352 122.676 13.4896 130.052 14.3091C135.567 14.9293 133.219 27.2669 127.305 38.9842C123.473 46.7367 111.645 59.6723 105.753 66.0294C103.865 68.0812 102.888 68.7721 102.459 69.7129C101.781 71.1994 102.471 73.3097 103.095 82.3982C103.162 83.4138 103.016 83.5534 99.9671 86.4664C98.9596 87.429 97.6351 88.6944 95.8967 90.3944C93.9984 92.2435 92.349 93.8742 91.0029 95.2051C89.3176 96.8714 88.1077 98.0677 87.4796 98.6342C86.35 99.6531 84.9989 98.3905 84.9989 96.7293C84.9535 95.482 84.9262 94.3069 84.9002 93.1891C84.8501 91.0316 84.805 89.0875 84.6445 87.2491C84.5903 86.5299 84.2689 86.8259 83.6414 87.4038C82.4718 88.4809 80.239 90.5373 76.6926 88.8217C76.1389 88.5559 75.2307 86.8947 77.4457 86.8947C77.5558 86.8894 77.7242 86.9276 77.9119 86.9702C78.5172 87.1074 79.3227 87.2901 79.0183 86.208C78.548 84.7405 77.7953 83.3785 76.8034 82.1989ZM66.0836 71.6082C66.9077 71.8143 68.4755 72.2062 70.8007 73.9591H70.8893C72.7859 75.4131 73.2615 75.8973 73.5956 75.814C73.7298 75.7806 73.8411 75.6557 74.0124 75.4653L74.0434 75.435C75.0416 74.4586 75.5343 73.9767 74.8985 73.5383C74.2184 73.0768 73.6272 72.6605 73.0962 72.2866C70.7214 70.6144 69.5514 69.7906 67.0352 69.5734C66.429 69.3017 66.0398 69.9768 65.6628 70.6308C65.6403 70.6698 65.6179 70.7087 65.5954 70.7473C65.2171 71.3916 65.3769 71.4315 66.0836 71.6082ZM69.8115 83.4649C69.9046 83.6531 70.2009 83.7407 70.5349 83.9709C70.6457 83.9266 90.78 61.4886 90.7136 61.4222C90.1155 59.9381 88.8751 61.0456 87.9005 62.1531C72.1865 80.4596 69.4478 82.7297 69.8115 83.4649ZM81.1036 86.1537C81.3581 87.015 81.369 87.0519 82.3852 86.1859L82.4516 86.1416C82.4795 86.1177 82.507 86.0942 82.5341 86.0711C83.1098 85.5796 83.4949 85.2509 83.0718 84.6797C79.1884 77.0931 79.1221 77.1767 77.8211 78.8162C77.6825 78.9909 77.5298 79.1832 77.3571 79.3858C77.1455 79.63 77.197 79.6947 77.8545 80.5205C78.0917 80.8185 78.4079 81.2156 78.819 81.7559C80.4307 83.8766 80.8699 85.3627 81.1036 86.1537ZM87.1898 96.4621C87.2673 96.4772 87.3715 96.3549 87.524 96.1977L87.5904 96.1534C100.018 83.8437 101.518 82.7783 101.369 82.051C101.351 81.9616 101.308 81.8774 101.257 81.778C100.653 75.3207 100.69 72.7244 100.071 72.5571C99.7131 72.4604 99.136 73.1749 98.0895 74.4242C96.7255 76.0526 93.9936 78.4835 91.5106 80.693C88.7922 83.1119 86.3722 85.2653 86.3722 85.8093C86.9807 94.5202 86.9068 96.407 87.1898 96.4621ZM123.03 17.7202C117.688 19.2536 112.662 21.729 108.19 25.0297C107.572 25.4141 108.249 25.8037 109.679 26.626C112.45 28.2202 118.049 31.4412 122.521 39.4051C122.64 39.6183 122.747 39.8219 122.844 40.0091C123.946 42.1158 123.953 42.1303 128.856 30.1685C129.992 27.2391 130.679 24.155 130.894 21.0206C130.848 20.6443 130.82 20.282 130.793 19.9389C130.586 17.2727 130.468 15.7578 123.03 17.7202ZM121.945 44.2116C124.271 41.1106 108.168 24.5646 105.333 27.2447L105.266 27.2004C93.2362 38.772 81.947 51.0894 71.4652 64.0802C69.5283 66.5495 68.6186 67.2498 68.7376 67.6158C68.9056 68.1331 71.1276 67.9828 75.4079 71.2125C76.0587 71.7045 76.3398 72.1056 76.6679 72.1487C77.2557 72.226 77.9943 71.1551 81.2777 67.4027C82.8868 65.5563 84.0822 64.1794 84.9959 63.1269C87.239 60.5432 87.7845 59.9149 88.5872 59.0964C89.7168 57.9446 91.4888 59.1407 92.1533 59.9603C93.4192 61.5155 92.81 62.1849 90.133 65.1265C89.531 65.7879 88.8245 66.5642 88.0113 67.4913C81.5327 74.7039 80.4677 75.5602 80.6079 76.1081C80.637 76.2214 80.7176 76.3215 80.8125 76.462C82.4613 78.7822 83.9417 81.2175 85.2425 83.7494C91.4888 79.9174 115.145 53.3374 121.945 44.2116ZM72.6945 53.6841C66.1491 54.4642 66.0292 54.4784 65.2632 55.3752C62.9134 58.1056 60.4818 60.7053 58.5091 62.8144C55.8887 65.6158 54.0779 67.5518 54.3433 67.7792C54.3433 67.8457 65.4183 67.5134 65.4183 67.5134C66.5922 67.3584 69.6046 63.3271 70.402 62.1753C72.0624 59.669 74.0134 57.4728 75.4331 55.8747C77.0246 54.0832 77.9484 53.0432 77.047 53.1602C75.3448 53.3683 73.909 53.5394 72.6945 53.6841Z" fill="black"/>
<path d="M63.8899 97.1058C48.3849 121.471 44.9295 146.988 56.8905 178.706C57.112 179.26 57.8651 181.763 58.6182 181.254C61.0104 179.681 48.3627 159.746 52.5269 130.419C55.816 107.263 69.4022 92.5102 73.5078 87.3103C74.1854 86.452 74.6048 85.854 74.677 85.5214C74.9428 84.3696 74.5219 83.8823 73.1486 84.4139C72.6967 84.9463 72.2501 85.483 71.8089 86.024C68.9368 89.5453 66.2917 93.2466 63.8899 97.1058Z" fill="#F2F2F2"/>
<path d="M66.0827 77.9683C66.3707 78.8321 65.8391 79.6516 65.1082 79.1865C66.5327 81.0586 67.1314 81.5502 68.1427 82.2875C69.0253 80.9859 69.9724 80.0503 70.7011 79.3305C71.783 78.2619 72.3833 77.6689 71.5759 77.0601C66.6808 73.3389 64.9974 72.5194 64.3329 73.3389C63.8312 73.9577 65.0088 76.0285 65.6731 77.1967C65.8887 77.5757 66.0502 77.8597 66.0827 77.9683Z" fill="#F2F2F2"/>
<path d="M76.8034 82.1989C75.8288 81.0471 75.8066 81.0471 74.7434 82.1989L71.4652 85.7207C71.5822 85.8257 71.6965 85.9267 71.8089 86.024C72.2501 85.483 72.6967 84.9463 73.1486 84.4139C74.5219 83.8823 74.9428 84.3696 74.677 85.5214C74.6048 85.854 74.1854 86.452 73.5078 87.3103C74.3865 87.8689 75.3406 88.3084 76.6926 88.8217C76.1389 88.5559 75.2307 86.8947 77.4457 86.8947C77.5558 86.8894 77.7242 86.9276 77.9119 86.9702C78.5172 87.1074 79.3227 87.2901 79.0183 86.208C78.548 84.7405 77.7953 83.3785 76.8034 82.1989Z" fill="#F2F2F2"/>
<path d="M120.439 234.303C124.869 233.018 125.157 232.62 126.73 232.597C127.101 232.622 127.468 232.512 127.764 232.289C128.061 232.065 128.268 231.742 128.347 231.379C128.347 228.832 119.487 232.885 115.3 233.594C111.491 234.237 102.83 236.762 101.567 238.135C100.681 239.11 101.169 239.663 102.365 239.73C106.795 238.224 106.197 238.024 107.792 237.515C117.05 234.99 110.671 237.116 120.439 234.303Z" fill="black"/>
<path d="M112.62 163.91C111.246 164.087 106.683 165.084 105.975 165.283C104.668 165.616 100.57 156.556 99.529 159.923C96.9818 168.207 100.481 166.856 93.9915 167.41C91.3335 167.631 91.2892 168.34 91.3557 169.625C91.3557 170.489 91.6658 170.666 93.2606 171.641C100.459 176.071 97.314 172.859 96.716 181.054C96.716 182.184 97.2919 182.716 98.2 182.428C100.26 181.741 103.516 175.783 105.022 176.558C107.201 177.312 109.42 177.948 111.667 178.463C112.93 178.817 113.461 178.153 113.306 177.178C113.063 175.628 111.357 174.963 109.652 171.818C109.275 171.087 109.364 171.419 113.594 166.347C114.325 165.416 114.657 163.667 112.62 163.91ZM107.747 172.77C109.807 176.403 110.648 176.071 106.639 175.185C101.988 174.143 104.092 173.833 99.2632 178.729C98.6873 179.327 99.374 176.89 99.5512 174.587C99.7505 171.84 94.4345 170.954 93.6593 169.514C94.0358 169.514 93.3713 169.514 96.7824 169.182C100.991 168.827 98.9974 166.457 100.836 162.692C102.342 163.977 103.893 167.831 105.266 167.543C116.496 164.929 105.31 168.473 107.747 172.77Z" fill="black"/>
<path d="M104.336 52.7614C115.034 52.2077 114.281 36.5477 104.004 36.7914C92.6851 38.1647 94.745 53.1601 104.336 52.7614ZM103.162 38.9621C104.025 38.809 104.91 38.8488 105.756 39.0784C106.601 39.308 107.385 39.7219 108.051 40.2902C108.718 40.8588 109.25 41.5676 109.61 42.3658C109.971 43.1644 110.149 44.0327 110.134 44.9086C110.12 45.7842 109.911 46.646 109.523 47.4317C109.136 48.2174 108.58 48.9073 107.894 49.4526C107.209 49.9979 106.411 50.3849 105.559 50.5855C104.706 50.786 103.819 50.7953 102.963 50.6129C101.616 50.3261 100.411 49.5799 99.5532 48.5022C98.6962 47.4245 98.2403 46.0822 98.2637 44.7053C98.2874 43.3287 98.7888 42.0026 99.6825 40.9551C100.576 39.9072 101.806 39.2026 103.162 38.9621Z" fill="black"/>
<path d="M79.9048 200.103C78.843 200.296 78.4005 201.377 78.9592 201.954C79.1697 202.172 79.5224 202.318 80.0377 202.318C89.6508 202.163 90.1381 184.753 80.8794 184.886C79.873 184.849 78.8678 184.991 77.9113 185.307C77.7784 184.044 80.1263 178.529 77.6455 174.232C74.8989 169.492 66.947 169.802 64.3555 176.336C63.3607 179.162 62.9347 182.157 63.1018 185.149C63.2693 188.141 64.0264 191.07 65.3301 193.768C65.4628 194.028 65.6483 194.181 65.8444 194.241C66.4008 194.413 67.0434 193.843 66.8141 192.86C60.1691 173.966 73.1712 169.093 76.095 175.915C78.5315 181.608 73.2598 187.898 75.5412 189.205C77.1582 190.113 77.9777 186.547 81.1009 186.99C85.1543 187.699 85.8853 192.107 85.2208 195.053C84.0911 199.904 81.0344 199.881 79.9048 200.103Z" fill="#F2F2F2"/>
<path d="M78.9592 201.954C78.4005 201.377 78.843 200.296 79.9048 200.103C81.0344 199.881 84.0911 199.904 85.2208 195.053C85.8853 192.107 85.1543 187.699 81.1009 186.99C77.9777 186.547 77.1582 190.113 75.5412 189.205C73.2598 187.898 78.5315 181.608 76.095 175.915C73.1712 169.093 60.1691 173.966 66.8141 192.86C67.0434 193.843 66.4008 194.413 65.8444 194.241C70.0753 198.098 73.1728 199.958 78.9592 201.954Z" fill="#F2F2F2"/>
<path d="M56.9792 183.269C44.5973 162.935 41.4742 127.385 56.7798 98.4125C60.3005 92.2399 64.2452 86.319 68.5858 80.6925C70.6457 78.6769 68.5858 77.6137 67.4561 78.8984C54.6313 94.0711 44.5752 116.044 44.5752 135.846C44.5752 164.862 51.8404 178.994 55.473 183.336C57.245 185.373 58.1531 185.196 56.9792 183.269Z" fill="#F2F2F2"/>
<path d="M46.7017 200.767C35.6267 204.245 36.8893 191.398 47.8535 195.85C47.9888 195.932 48.1402 195.983 48.2973 196.001C48.4548 196.018 48.6135 196.001 48.7633 195.95C48.9131 195.899 49.05 195.817 49.1648 195.708C49.2792 195.598 49.3682 195.466 49.4262 195.319C50.0242 193.967 48.8503 193.635 47.7206 193.259C41.6737 191.243 48.4073 179.703 56.78 193.79C57.1454 194.403 57.649 194.464 58 194.253C58.3084 194.068 58.4991 193.673 58.3748 193.259C56.6028 186.946 49.5148 182.184 45.0848 186.06C44.1428 186.856 43.5125 187.96 43.3059 189.176C43.0993 190.392 43.3293 191.642 43.9551 192.705C38.7277 192.838 37.3101 194.92 36.7121 197.644C35.516 204.068 45.86 204.821 48.4959 202.296C49.5148 201.277 48.6731 200.147 46.7017 200.767Z" fill="#F2F2F2"/>
<path d="M47.8535 195.85C36.8893 191.398 35.6267 204.245 46.7017 200.767C48.6731 200.147 49.5148 201.277 48.4959 202.296C52.3395 200.209 54.4294 198.518 58 194.253C57.649 194.464 57.1454 194.403 56.78 193.79C48.4073 179.703 41.6737 191.243 47.7206 193.259C48.8503 193.635 50.0242 193.967 49.4262 195.319C49.3682 195.466 49.2792 195.598 49.1648 195.708C49.05 195.817 48.9131 195.899 48.7633 195.95C48.6135 196.001 48.4548 196.018 48.2973 196.001C48.1402 195.983 47.9888 195.932 47.8535 195.85Z" fill="#F2F2F2"/>
<path d="M31.6617 161.407C31.3295 160.743 31.108 159.458 29.5796 160.388C23.3555 164.176 24.618 163.578 22.9346 161.784C20.4095 159.148 19.7672 158.129 18.5046 158.439C17.9509 158.594 18.0838 159.724 18.2167 160.322C19.745 167.41 20.2323 165.527 17.3528 166.59C16.6883 166.856 16.1124 167.166 13.4101 168.296C13.1556 168.412 12.9401 168.599 12.7887 168.835C12.6377 169.071 12.5571 169.345 12.5571 169.625C12.5571 169.905 12.6377 170.179 12.7887 170.414C12.9401 170.65 13.1556 170.837 13.4101 170.954C21.6499 174.033 19.7893 173.457 20.3431 176.934C20.9854 180.921 21.0962 181.918 21.9379 182.007C22.281 182.053 22.6297 181.985 22.9302 181.813C23.2306 181.64 23.4658 181.374 23.5991 181.054C27.0545 172.659 24.7952 174.874 28.0291 175.45C33.5888 176.447 33.8767 177.001 34.6741 176.026C35.4715 175.052 33.8546 173.612 33.0572 172.704C27.8298 166.679 29.3803 170.666 31.6617 161.407ZM30.0226 173.523C28.839 173.435 27.6896 173.087 26.6558 172.504C23.8649 171.596 23.8649 177.178 22.7574 178.13C22.4892 176.96 22.341 175.765 22.3144 174.564C22.3144 172.128 20.9854 171.951 16.9541 169.736C16.0681 169.226 18.0838 169.027 20.3652 167.875C22.6467 166.723 20.8304 164.508 20.7861 162.958C20.7861 162.027 22.3366 164.265 23.3112 165.483C24.8174 167.366 24.9946 164.375 29.2252 163.113C28.5164 166.767 26.0578 167.72 28.4278 170.245C31.8832 173.944 30.9529 173.612 30.0226 173.523Z" fill="black"/>
</svg>
