<svg width="31" height="30" viewBox="0 0 31 30" fill="none" xmlns="http://www.w3.org/2000/svg">
<ellipse cx="15.6239" cy="15" rx="14.8718" ry="15" fill="#202020"/>
<path d="M11.8919 9C12.4061 9 12.8812 9.03952 13.317 9.15806C13.7529 9.23709 14.1104 9.40009 14.4287 9.59767C14.747 9.79525 14.9821 10.0768 15.1437 10.4374C15.3004 10.798 15.3836 11.2376 15.3836 11.7167C15.3836 12.2748 15.2661 12.754 14.987 13.1146C14.747 13.4751 14.3552 13.7962 13.8753 14.0333C14.5511 14.2309 15.0653 14.5914 15.3787 15.0706C15.6922 15.5497 15.893 16.1474 15.893 16.829C15.893 17.3872 15.7754 17.8663 15.5746 18.2664C15.3787 18.6665 15.0604 19.0271 14.7029 19.2642C14.3454 19.5062 13.9096 19.7038 13.4345 19.8223C12.9595 19.9409 12.4845 20.0199 12.0095 20.0199L6.70087 20.0298V9H11.8919ZM11.5736 13.4751C12.0095 13.4751 12.367 13.3566 12.6412 13.1541C12.9154 12.9516 13.0379 12.5959 13.0379 12.1563C13.0379 11.9143 12.9987 11.6772 12.9203 11.5191C12.842 11.3611 12.7245 11.2376 12.5628 11.119C12.4061 11.04 12.2445 10.961 12.0486 10.9214C11.8527 10.8819 11.652 10.8819 11.4169 10.8819H9.12009V13.4801C9.12009 13.4751 11.5736 13.4751 11.5736 13.4751ZM11.6911 18.1923C11.9311 18.1923 12.1662 18.1528 12.367 18.1133C12.5628 18.0738 12.7636 17.9947 12.9203 17.8712C13.0771 17.7477 13.1995 17.6292 13.317 17.4316C13.3954 17.234 13.4737 16.992 13.4737 16.7105C13.4737 16.1523 13.317 15.7522 12.9987 15.4707C12.6804 15.2286 12.2445 15.1101 11.7303 15.1101H9.12009V18.1874H11.6911V18.1923Z" fill="white"/>
<path d="M19.3406 18.1531C19.6589 18.4742 20.1339 18.6322 20.7657 18.6322C21.2015 18.6322 21.5982 18.5137 21.9165 18.3112C22.2348 18.0691 22.4307 17.832 22.5091 17.59H24.4484C24.1301 18.5483 23.655 19.2299 23.0233 19.6695C22.3916 20.0696 21.6374 20.3067 20.7265 20.3067C20.0948 20.3067 19.5365 20.1881 19.0223 19.9856C18.5081 19.788 18.1114 19.5065 17.7539 19.1064C17.3964 18.7458 17.1221 18.3062 16.9605 17.7876C16.7646 17.2689 16.6814 16.7108 16.6814 16.0687C16.6814 15.471 16.7598 14.9079 16.9605 14.3892C17.1613 13.8706 17.4356 13.431 17.7931 13.0309C18.1506 12.6703 18.5864 12.3493 19.0614 12.1517C19.5757 11.9541 20.0899 11.8306 20.7265 11.8306C21.4023 11.8306 21.9949 11.9492 22.5091 12.2307C23.0233 12.5123 23.42 12.8284 23.7383 13.3075C24.0566 13.7471 24.2917 14.2658 24.4533 14.8239C24.5316 15.3821 24.5708 15.9452 24.5316 16.5824H18.7872C18.7872 17.2344 19.0223 17.832 19.3406 18.1531ZM21.8382 13.9546C21.559 13.673 21.1232 13.515 20.609 13.515C20.2515 13.515 19.9772 13.594 19.7373 13.7125C19.4973 13.8311 19.3406 13.9941 19.1839 14.1521C19.0272 14.3102 18.9439 14.5127 18.9047 14.7103C18.8656 14.9079 18.8264 15.0709 18.8264 15.2289H22.3916C22.3132 14.6362 22.1124 14.2361 21.8382 13.9546ZM18.3513 9.76099H22.7882V10.8378H18.3513V9.76099Z" fill="white"/>
</svg>
