<svg width="30" height="30" viewBox="0 0 30 30" fill="none" xmlns="http://www.w3.org/2000/svg">
<path fill-rule="evenodd" clip-rule="evenodd" d="M14.8718 0C6.65513 0 0 6.7125 0 15C0 21.6375 4.25705 27.2437 10.1686 29.2313C10.9122 29.3625 11.191 28.9125 11.191 28.5187C11.191 28.1625 11.1724 26.9813 11.1724 25.725C7.4359 26.4188 6.46923 24.8062 6.17179 23.9625C6.00449 23.5312 5.27949 22.2 4.64744 21.8438C4.12692 21.5625 3.38333 20.8687 4.62885 20.85C5.8 20.8312 6.63654 21.9375 6.91538 22.3875C8.25385 24.6562 10.3917 24.0188 11.2468 23.625C11.3769 22.65 11.7673 21.9937 12.1949 21.6187C8.8859 21.2437 5.42821 19.95 5.42821 14.2125C5.42821 12.5813 6.00449 11.2312 6.95256 10.1812C6.80385 9.80625 6.28333 8.26875 7.10128 6.20625C7.10128 6.20625 8.3468 5.8125 11.191 7.74375C12.3808 7.40625 13.6449 7.2375 14.909 7.2375C16.1731 7.2375 17.4372 7.40625 18.6269 7.74375C21.4712 5.79375 22.7167 6.20625 22.7167 6.20625C23.5346 8.26875 23.0141 9.80625 22.8654 10.1812C23.8135 11.2312 24.3897 12.5625 24.3897 14.2125C24.3897 19.9688 20.9135 21.2437 17.6045 21.6187C18.1436 22.0875 18.6083 22.9875 18.6083 24.3938C18.6083 26.4 18.5897 28.0125 18.5897 28.5187C18.5897 28.9125 18.8686 29.3813 19.6122 29.2313C22.5645 28.226 25.1299 26.3122 26.9474 23.7593C28.7648 21.2064 29.7428 18.1429 29.7436 15C29.7436 6.7125 23.0885 0 14.8718 0Z" fill="#202020"/>
</svg>
