<svg width="30" height="30" viewBox="0 0 30 30" fill="none" xmlns="http://www.w3.org/2000/svg">
<path fill-rule="evenodd" clip-rule="evenodd" d="M15.1282 0C11.089 0 10.5834 0.017 8.99706 0.09C7.41371 0.163 6.33203 0.417 5.38619 0.788C4.39473 1.164 3.49549 1.754 2.7519 2.518C1.99564 3.26713 1.41032 4.17349 1.03668 5.174C0.670836 6.128 0.418016 7.22 0.345639 8.817C0.274255 10.416 0.256409 10.925 0.256409 15C0.256409 19.075 0.273263 19.584 0.345639 21.184C0.418016 22.781 0.669845 23.872 1.03767 24.826C1.41046 25.826 1.99542 26.733 2.75289 27.483C3.49564 28.2458 4.39425 28.8361 5.38619 29.213C6.33203 29.583 7.41371 29.837 8.99706 29.91C10.5834 29.983 11.089 30 15.1282 30C19.1674 30 19.673 29.983 21.2593 29.91C22.8427 29.837 23.9244 29.583 24.8702 29.212C25.8617 28.836 26.7609 28.246 27.5045 27.482C28.2608 26.7329 28.8461 25.8265 29.2197 24.826C29.5866 23.872 29.8384 22.781 29.9108 21.184C29.9831 19.584 30 19.074 30 15C30 10.926 29.9831 10.416 29.9108 8.816C29.8384 7.219 29.5866 6.128 29.2187 5.174C28.8454 4.17306 28.26 3.26632 27.5035 2.517C26.7608 1.75422 25.8622 1.16386 24.8702 0.787C23.9244 0.418 22.8417 0.163 21.2584 0.09C19.673 0.018 19.1684 0 15.1282 0ZM15.1282 2.703C19.099 2.703 19.5699 2.718 21.1384 2.79C22.5879 2.857 23.3751 3.1 23.8996 3.307C24.5936 3.578 25.0893 3.904 25.6098 4.428C26.1304 4.953 26.4526 5.453 26.7213 6.153C26.9255 6.682 27.1674 7.476 27.2338 8.938C27.3052 10.52 27.3201 10.995 27.3201 15C27.3201 19.005 27.3052 19.48 27.2338 21.062C27.1674 22.524 26.9265 23.318 26.7213 23.847C26.4832 24.4985 26.1035 25.088 25.6098 25.572C25.1301 26.07 24.5456 26.4531 23.8996 26.693C23.3751 26.899 22.5879 27.143 21.1384 27.21C19.5699 27.282 19.1 27.297 15.1282 27.297C11.1564 27.297 10.6865 27.282 9.11802 27.21C7.66851 27.143 6.8813 26.9 6.35682 26.693C5.71084 26.4529 5.12643 26.0699 4.64656 25.572C4.15299 25.088 3.77322 24.4985 3.53514 23.847C3.3309 23.318 3.08899 22.524 3.02256 21.062C2.95118 19.48 2.93631 19.005 2.93631 15C2.93631 10.995 2.95118 10.52 3.02256 8.938C3.08899 7.476 3.32991 6.682 3.53514 6.153C3.80383 5.453 4.12704 4.953 4.64656 4.428C5.12637 3.93004 5.7108 3.54698 6.35682 3.307C6.8813 3.101 7.66851 2.857 9.11802 2.79C10.6865 2.718 11.1574 2.703 15.1282 2.703Z" fill="#202020"/>
<path fill-rule="evenodd" clip-rule="evenodd" d="M15.1282 20.0049C14.4765 20.0049 13.8313 19.8754 13.2292 19.6239C12.6272 19.3724 12.0801 19.0037 11.6194 18.539C11.1586 18.0742 10.7931 17.5225 10.5437 16.9152C10.2943 16.308 10.1659 15.6572 10.1659 14.9999C10.1659 14.3426 10.2943 13.6918 10.5437 13.0846C10.7931 12.4773 11.1586 11.9256 11.6194 11.4608C12.0801 10.9961 12.6272 10.6274 13.2292 10.3759C13.8313 10.1244 14.4765 9.99489 15.1282 9.99489C16.4442 9.99489 17.7064 10.5222 18.637 11.4608C19.5676 12.3994 20.0904 13.6725 20.0904 14.9999C20.0904 16.3273 19.5676 17.6003 18.637 18.539C17.7064 19.4776 16.4442 20.0049 15.1282 20.0049ZM15.1282 7.28989C13.1008 7.28989 11.1565 8.10219 9.72297 9.5481C8.28943 10.994 7.48407 12.9551 7.48407 14.9999C7.48407 17.0447 8.28943 19.0058 9.72297 20.4517C11.1565 21.8976 13.1008 22.7099 15.1282 22.7099C17.1555 22.7099 19.0998 21.8976 20.5334 20.4517C21.9669 19.0058 22.7723 17.0447 22.7723 14.9999C22.7723 12.9551 21.9669 10.994 20.5334 9.5481C19.0998 8.10219 17.1555 7.28989 15.1282 7.28989ZM24.9961 7.14989C24.9961 7.63325 24.8057 8.09681 24.4669 8.43859C24.128 8.78038 23.6684 8.97239 23.1892 8.97239C22.71 8.97239 22.2504 8.78038 21.9115 8.43859C21.5726 8.09681 21.3823 7.63325 21.3823 7.14989C21.3823 6.66654 21.5726 6.20298 21.9115 5.86119C22.2504 5.51941 22.71 5.32739 23.1892 5.32739C23.6684 5.32739 24.128 5.51941 24.4669 5.86119C24.8057 6.20298 24.9961 6.66654 24.9961 7.14989Z" fill="#202020"/>
</svg>
